<svg xmlns="http://www.w3.org/2000/svg" xmlns:xlink="http://www.w3.org/1999/xlink" xmlns:inkscape="http://www.inkscape.org/namespaces/inkscape" version="1.1" width="595.44" height="841.92" viewBox="0 0 595.44 841.92">
<g>
<text xml:space="preserve" transform="matrix(1 0 -0 1 0 841.92)" font-size="7.92" font-family="Verdana"><tspan y="-795.58" x="42.504 47.541124 52.578245 57.615365 62.652486 68.17272 73.68504 79.197368 84.22656 89.26368 95.259128 101.96736 107.00448 113.00784">945_BASE_NM_DM</tspan></text>
<text xml:space="preserve" transform="matrix(1 0 -0 1 0 841.92)" font-size="7.92" font-family="Verdana"><tspan y="-795.58" x="120.05"> </tspan></text>
<text xml:space="preserve" transform="matrix(1 0 -0 1 0 841.92)" font-size="7.92" font-family="Verdana"><tspan y="-795.58" x="460.51 465.55003 470.59004 474.1886 479.2286 484.26863 487.8672 492.9072 498.1848 503.22483 508.26484 511.13475 516.17477 521.2147 524.8133 529.8533 535.1229 538.7215 543.7615">10/01/2025 15:14:17</tspan></text>
<text xml:space="preserve" transform="matrix(1 0 -0 1 0 841.92)" font-size="10.08" font-family="Verdana"><tspan y="-795.58" x="549.1"> </tspan></text>
<path transform="matrix(1,0,0,-1,0,841.92)" d="M41.064 804.48H554.614V804.95999H41.064Z" fill-rule="evenodd"/>
<text xml:space="preserve" transform="matrix(1 0 -0 1 0 841.92)" font-size="9.12" font-family="Verdana"><tspan y="-25.92" x="42.504 48.26784 53.54832 59.0568 63.6168 69.389759 74.16863 79.44911 84.984958 89.052478 92.17152 97.44288 103.215839 108.72431 114.24191 119.75039 123.343669 128.63327">Execu&#x00e7;&#x00e3;o: Fundatec</tspan></text>
<text xml:space="preserve" transform="matrix(1 0 -0 1 0 841.92)" font-size="9.12" font-family="Verdana"><tspan y="-25.92" x="133.25"> </tspan></text>
<path transform="matrix(1,0,0,-1,0,841.92)" d="M41.064 35.76H554.374V36.24004H41.064Z" fill-rule="evenodd"/>
<text xml:space="preserve" transform="matrix(1 0 -0 1 0 841.92)" font-size="9.12" font-family="Verdana"><tspan y="-14.88" x="250.9 257.85856 264.57087 270.80894 277.04704 284.00559 290.24366 293.3627 300.80464 307.51695 314.23838 317.84077 324.31596 327.91835 333.4177 339.65577">GUARDA MUNICIPAL</tspan></text>
<text xml:space="preserve" transform="matrix(1 0 -0 1 0 841.92)" font-size="9.12" font-family="Verdana"><tspan y="-14.88" x="344.54"> </tspan></text>
<text xml:space="preserve" transform="matrix(1 0 -0 1 0 841.92)" font-size="10.08" font-family="Verdana" font-weight="bold"><tspan y="-783.82" x="42.504 51.13248 59.31744 66.01056 73.1976 79.92096 87.60192 96.2304 98.87136 106.058399 113.24543">QUEST&#x00c3;O 36 </tspan></text>
<text xml:space="preserve" transform="matrix(1 0 -0 1 0 841.92)" font-size="10.08" font-family="Verdana" font-weight="bold"><tspan y="-783.82" x="115.73">&#x2013;</tspan></text>
<text xml:space="preserve" transform="matrix(1 0 -0 1 0 841.92)" font-size="10.08" font-family="Verdana" font-weight="bold"><tspan y="-783.82" x="122.93"> </tspan></text>
<text xml:space="preserve" transform="matrix(1 0 -0 1 0 841.92)" font-size="10.08" font-family="Verdana"><tspan y="-783.82" x="125.57 132.52519 138.5228 144.99416 148.58263 154.58023 158.66263 168.49063 174.2463 177.12918 183.13686 188.16678 192.2391 198.2367 204.47623 210.4839 213.11478 219.12245 224.37413 230.14997 233.03284 239.03043">Conforme estabelece a </tspan></text>
<text xml:space="preserve" transform="matrix(1 0 -0 1 0 841.92)" font-size="10.08" font-family="Verdana"><tspan y="-783.82" x="242.02 248.9752 255.9304 261.45426 268.39939 271.99797 274.88084 280.6365 283.27748 288.52915 294.53684 300.81669 307.26789 311.57206 317.3479 323.81929 329.07096 334.85688 337.73976 343.73738 350.20875 356.44828 359.08924 361.96205 367.2137 373.2718 376.5982 379.48109 385.48878 391.45613 397.24205 401.5462 406.82814 409.70094 415.94047 421.69615 424.579 430.81855 436.57423 439.44703 445.4446 450.48463 453.3675 459.36509 463.66926 469.9491 475.92655 481.92414 487.1758 490.08894 494.17134 500.17903 503.04176 509.03935 514.07937 516.95217 522.7078 529.17916 535.17678 541.41629 547.4138">CRFB, a seguran&#x00e7;a p&#x00fa;blica, exercida pelos &#x00f3;rg&#x00e3;os relacionados</tspan></text>
<text xml:space="preserve" transform="matrix(1 0 -0 1 0 841.92)" font-size="10.08" font-family="Verdana"><tspan y="-783.82" x="552.94"> </tspan></text>
<text xml:space="preserve" transform="matrix(1 0 -0 1 0 841.92)" font-size="10.08" font-family="Verdana"><tspan y="-771.58" x="42.504 48.975366 54.972967 59.287206 65.284809 69.3672 73.43952 77.038089 81.352329 87.59184 94.0632 100.53456 103.891208 108.205448 112.27776 118.03345 127.86144 132.17569 138.41522 144.41283 148.49523 152.80947 156.1661 159.03891 165.51027 171.26595 173.9069 176.77971 183.01924 189.01683 195.25637 201.26404 205.56819 211.32387 215.6381 221.87764 226.1818 232.18947 237.23955 243.24723 247.55138 253.54898 259.54658 264.79826 270.85633 276.58177 280.896 286.89363 292.8912 297.20545 303.20304 307.5072 313.78706 319.7645 329.36067 333.6749 339.91444 346.3858 352.38343 355.25624 357.8972 363.14888 369.20695 373.49095 379.2466 383.56086 389.55845 393.63078 396.50358 402.7431 407.99479 414.0226 416.66358 423.13496 432.7311 435.6039 441.84346 447.84104 454.08058 460.08827 464.39244 470.63197 476.38764 481.6393 485.97373 492.21327 497.96894 503.2206 508.5227 514.52029 520.5179 525.7696 529.87216 535.8798 540.18399 546.42349 552.421">no art. 144, tem por finalidade a preserva&#x00e7;&#x00e3;o da ordem p&#x00fa;blica e a incolumidade das pessoas e do </tspan></text>
<text xml:space="preserve" transform="matrix(1 0 -0 1 0 841.92)" font-size="10.08" font-family="Verdana"><tspan y="-759.34" x="42.504 48.74352 54.74112 58.81344 63.1176 65.76864 75.596637 81.59424 87.833759 90.70656 96.70416 100.30273 103.891208 111.57217 118.043529 124.04113 126.91393 130.27059 136.27826 139.85666 145.85425 149.21089 152.79936 155.44033 161.91168 167.90927 170.55023 173.42304 179.66257 185.66016 191.89969 197.65537 201.24384 207.48337 213.48096 218.73264 222.35135 228.34896 234.82032 240.8179 245.12206 251.4019 257.37937 262.41938 266.00785 275.604 281.84355 288.3149 290.95588 296.20756 299.1106 305.35014 311.1058 313.9786 319.2303">patrim&#x00f4;nio. Qual &#x00e9; a finalidade das guardas municipais?</tspan></text>
<text xml:space="preserve" transform="matrix(1 0 -0 1 0 841.92)" font-size="10.08" font-family="Verdana"><tspan y="-759.34" x="324.84"> </tspan></text>
<text xml:space="preserve" transform="matrix(1 0 -0 1 0 841.92)" font-size="7.92" font-family="Verdana"><tspan y="-749.5" x="42.504"> </tspan></text>
<text xml:space="preserve" transform="matrix(1 0 -0 1 0 841.92)" font-size="7.92" font-family="Verdana"><tspan y="-678.91" x="42.504"> </tspan></text>
<path transform="matrix(1,0,0,-1,0,841.92)" d="M41.064 675.55H554.374V676.02999H41.064Z" fill-rule="evenodd"/>
<text xml:space="preserve" transform="matrix(1 0 -0 1 0 841.92)" font-size="7.92" font-family="Verdana"><tspan y="-667.63" x="42.504"> </tspan></text>
<text xml:space="preserve" transform="matrix(1 0 -0 1 0 841.92)" font-size="7.92" font-family="Verdana"><tspan y="-560.81" x="42.504"> </tspan></text>
<text xml:space="preserve" transform="matrix(1 0 -0 1 0 841.92)" font-size="10.08" font-family="Verdana"><tspan y="-548.78" x="42.504 49.46402">A)</tspan></text>
<text xml:space="preserve" transform="matrix(1 0 -0 1 0 841.92)" font-size="10.08" font-family="ArialMT"><tspan y="-548.78" x="53.784"> </tspan></text>
<text xml:space="preserve" transform="matrix(1 0 -0 1 0 841.92)" font-size="10.08" font-family="Verdana"><tspan y="-548.78" x="56.664 63.13536 68.17536 72.24768 78.245288 82.08576 88.55712 92.62944">Estatuto</tspan></text>
<text xml:space="preserve" transform="matrix(1 0 -0 1 0 841.92)" font-size="10.08" font-family="Verdana"><tspan y="-548.78" x="98.688"> </tspan></text>
<text xml:space="preserve" transform="matrix(1 0 -0 1 0 841.92)" font-size="10.08" font-family="Verdana"><tspan y="-548.78" x="102.05 109.9628 115.97048 120.27464 126.040409">Geral</tspan></text>
<text xml:space="preserve" transform="matrix(1 0 -0 1 0 841.92)" font-size="10.08" font-family="Verdana"><tspan y="-548.78" x="128.93"> </tspan></text>
<text xml:space="preserve" transform="matrix(1 0 -0 1 0 841.92)" font-size="10.08" font-family="Verdana"><tspan y="-548.78" x="132.53 138.76953 144.5252 149.77689 153.16376 161.07656 167.54792 173.30359 177.60774 183.88759 189.86502 195.1167 198.73542 206.9002 213.37157 219.6111 222.4839 227.5239 230.3967 236.63623 242.63382 245.27478 250.52646">das Guardas Municipais.</tspan></text>
<text xml:space="preserve" transform="matrix(1 0 -0 1 0 841.92)" font-size="10.08" font-family="Verdana"><tspan y="-548.78" x="254.02"> </tspan></text>
<text xml:space="preserve" transform="matrix(1 0 -0 1 0 841.92)" font-size="10.08" font-family="Verdana"><tspan y="-536.78" x="42.504 49.46398">B)</tspan></text>
<text xml:space="preserve" transform="matrix(1 0 -0 1 0 841.92)" font-size="10.08" font-family="ArialMT"><tspan y="-536.78" x="53.784"> </tspan></text>
<text xml:space="preserve" transform="matrix(1 0 -0 1 0 841.92)" font-size="10.08" font-family="Verdana"><tspan y="-536.78" x="56.664 63.13536 68.17536 72.24768 78.245288 82.08576 88.55712 92.62944 98.627048 102.21552 108.45504 114.210727 117.7992 124.74432 130.752 134.82431 140.81183 143.68463 149.92417 155.92177 160.00417 163.59264 169.59024 176.0616 182.0592 184.932 187.57297 192.82465 198.8525">Estatuto do Servidor P&#x00fa;blico.</tspan></text>
<text xml:space="preserve" transform="matrix(1 0 -0 1 0 841.92)" font-size="10.08" font-family="Verdana"><tspan y="-536.78" x="202.63"> </tspan></text>
<text xml:space="preserve" transform="matrix(1 0 -0 1 0 841.92)" font-size="10.08" font-family="Verdana"><tspan y="-524.54" x="42.504 49.464044">C)</tspan></text>
<text xml:space="preserve" transform="matrix(1 0 -0 1 0 841.92)" font-size="10.08" font-family="ArialMT"><tspan y="-524.54" x="54.024"> </tspan></text>
<text xml:space="preserve" transform="matrix(1 0 -0 1 0 841.92)" font-size="10.08" font-family="Verdana"><tspan y="-524.54" x="56.664 62.18784 68.19552 71.058238 74.64671 82.57967 86.883838 93.12335 98.879039 105.11855 107.991359 113.243038 119.30112 122.84927 129.12912 134.87471 140.12639 143.7451 150.46846 155.72014 161.74799 167.75566 173.00734 176.61598 183.57118 189.56879 199.16495 205.40448 211.87584 214.5168 218.58913 224.58672 228.66912 231.54192 237.5395 242.79119">Lei Org&#x00e2;nica das A&#x00e7;&#x00f5;es Comunit&#x00e1;rias.</tspan></text>
<text xml:space="preserve" transform="matrix(1 0 -0 1 0 841.92)" font-size="10.08" font-family="Verdana"><tspan y="-524.54" x="246.34"> </tspan></text>
<text xml:space="preserve" transform="matrix(1 0 -0 1 0 841.92)" font-size="10.08" font-family="Verdana"><tspan y="-512.3" x="42.504 50.183984">D)</tspan></text>
<text xml:space="preserve" transform="matrix(1 0 -0 1 0 841.92)" font-size="10.08" font-family="ArialMT"><tspan y="-512.3" x="54.744"> </tspan></text>
<text xml:space="preserve" transform="matrix(1 0 -0 1 0 841.92)" font-size="10.08" font-family="Verdana"><tspan y="-512.3" x="56.664 62.18784 68.19552 71.058238 74.64671 81.60191 87.59952 97.42751 103.42511 106.29791 112.305599 122.113437 127.899349 134.13887 138.2112 144.20879 148.51294">Lei Complementar </tspan></text>
<text xml:space="preserve" transform="matrix(1 0 -0 1 0 841.92)" font-size="10.08" font-family="Verdana"><tspan y="-512.3" x="152.23 158.46953 164.2252 167.81368 175.74665 181.97609 187.98377 192.28792 198.05368 203.30536 209.3332 215.34088 220.59256 223.96936 230.44072 235.6924 241.97225 247.71784 252.96952 255.87256 261.62825 264.50105 269.75273">de Opera&#x00e7;&#x00f5;es Especiais.</tspan></text>
<text xml:space="preserve" transform="matrix(1 0 -0 1 0 841.92)" font-size="10.08" font-family="Verdana"><tspan y="-512.3" x="273.22"> </tspan></text>
<text xml:space="preserve" transform="matrix(1 0 -0 1 0 841.92)" font-size="10.08" font-family="Verdana"><tspan y="-500.3" x="42.504 48.983564">E)</tspan></text>
<text xml:space="preserve" transform="matrix(1 0 -0 1 0 841.92)" font-size="10.08" font-family="ArialMT"><tspan y="-500.3" x="53.304"> </tspan></text>
<text xml:space="preserve" transform="matrix(1 0 -0 1 0 841.92)" font-size="10.08" font-family="Verdana"><tspan y="-500.3" x="56.664 63.13536 69.37488 72.01584 76.08816 82.08576 84.72672 88.3152 95.996158 102.00384 106.308 112.31568 114.95664 118.54512 124.78464 130.79232 134.37071 139.65264 142.52544 147.56543 150.43824 154.51056 160.50815 165.75983 171.78768 177.54335 182.79503 186.41374 192.65328 198.40895 201.99742 208.23694 218.06494 224.07262 228.37677 234.62638 240.38205 246.85341 251.8934 254.7662 260.7638">Edital Geral de Licita&#x00e7;&#x00f5;es de Emerg&#x00ea;ncia.</tspan></text>
<text xml:space="preserve" transform="matrix(1 0 -0 1 0 841.92)" font-size="10.08" font-family="Verdana"><tspan y="-500.3" x="264.34"> </tspan></text>
<text xml:space="preserve" transform="matrix(1 0 -0 1 0 841.92)" font-size="7.92" font-family="Verdana"><tspan y="-490.22" x="42.504"> </tspan></text>
<path transform="matrix(1,0,0,-1,0,841.92)" d="M41.064 486.86H554.374V487.34H41.064Z" fill-rule="evenodd"/>
<text xml:space="preserve" transform="matrix(1 0 -0 1 0 841.92)" font-size="7.92" font-family="Verdana"><tspan y="-478.94" x="42.504"> </tspan></text>
<text xml:space="preserve" transform="matrix(1 0 -0 1 0 841.92)" font-size="10.08" font-family="Verdana" font-weight="bold"><tspan y="-467.16" x="42.504 51.13248 59.31744 66.01056 73.1976 79.92096 87.60192 96.2304 100.54464 107.731678 114.91871">QUEST&#x00c3;O 38 </tspan></text>
<text xml:space="preserve" transform="matrix(1 0 -0 1 0 841.92)" font-size="10.08" font-family="Verdana" font-weight="bold"><tspan y="-467.16" x="119.33">&#x2013;</tspan></text>
<text xml:space="preserve" transform="matrix(1 0 -0 1 0 841.92)" font-size="10.08" font-family="Verdana" font-weight="bold"><tspan y="-467.16" x="126.53"> </tspan></text>
<text xml:space="preserve" transform="matrix(1 0 -0 1 0 841.92)" font-size="10.08" font-family="Verdana"><tspan y="-467.16" x="130.85 137.8052 143.80281 150.27417 153.86264 159.86025 164.1644 174.01256 180.02024 184.56632 190.56392 195.11 201.34954 203.9905 209.24217 215.52202 221.50954 226.76122 230.86379 236.86139 241.40747 247.87883 253.87642 258.19068 261.06349 267.07118 273.0587 275.9315 280.9715 283.61247 289.61006 294.86174 300.9198 306.88716 311.43324 317.67277 324.14414 330.15184 334.6979 338.77024 343.0744 348.85026 352.92259 358.92018 363.46626 369.70579 375.71348 380.25956 386.25715 391.29716 396.54884 402.8186 409.28999 413.3623 419.3599 424.61158 428.94599 433.25016 439.25785 442.14073 447.8964 453.14808 456.05113 462.0487 468.52009 474.51768 480.7572 486.7548 492.00648 496.5828 502.33848 507.59016 512.16647 518.40597 524.64547 530.64309 534.9472 541.22708 547.2045 552.45626">Conforme o disposto na legisla&#x00e7;&#x00e3;o que trata de assuntos relacionados &#x00e0;s guardas </tspan></text>
<text xml:space="preserve" transform="matrix(1 0 -0 1 0 841.92)" font-size="10.08" font-family="Verdana"><tspan y="-454.92" x="42.504 52.332006 58.571527 65.042888 67.683849 72.935527 75.83856 82.07808 87.83376 90.706569 95.958248 99.58704 103.17552 108.931209 112.519687 117.77136 123.829448 130.03873 136.03632 141.07631 143.94911 148.02144 153.77712 159.0288 165.08687 171.05423 174.6427 180.88224 186.87984 192.13152 195.75023 200.79022 206.7979 213.25919 218.29918 221.88765 224.52861 230.76815 234.84047 240.84815 247.07759 251.38175 257.1576 263.62898 267.7013 273.45698 278.70866 282.09553 288.33506 294.33265 300.57218 306.57987 310.88404 316.8917 320.48017 325.73185 331.73954 335.8421 339.43058 343.01905 348.77473 351.64753 355.71986 361.71745">municipais, a capacita&#x00e7;&#x00e3;o dos seus integrantes poder&#x00e1; ser feita:</tspan></text>
<text xml:space="preserve" transform="matrix(1 0 -0 1 0 841.92)" font-size="10.08" font-family="Verdana"><tspan y="-454.92" x="366.38"> </tspan></text>
<text xml:space="preserve" transform="matrix(1 0 -0 1 0 841.92)" font-size="7.92" font-family="Verdana"><tspan y="-444.84" x="42.504"> </tspan></text>
<text xml:space="preserve" transform="matrix(1 0 -0 1 0 841.92)" font-size="7.92" font-family="Verdana"><tspan y="-374.5" x="42.504"> </tspan></text>
<path transform="matrix(1,0,0,-1,0,841.92)" d="M41.064 371.14H554.374V371.62H41.064Z" fill-rule="evenodd"/>
<text xml:space="preserve" transform="matrix(1 0 -0 1 0 841.92)" font-size="7.92" font-family="Verdana"><tspan y="-363.22" x="42.504"> </tspan></text>
<text xml:space="preserve" transform="matrix(1 0 -0 1 0 841.92)" font-size="10.08" font-family="Verdana" font-weight="bold"><tspan y="-351.22" x="42.504 51.13248 59.31744 66.01056 73.1976 79.92096 87.60192 96.2304 100.0608 107.24783 114.43487">QUEST&#x00c3;O 39 </tspan></text>
<text xml:space="preserve" transform="matrix(1 0 -0 1 0 841.92)" font-size="10.08" font-family="Verdana" font-weight="bold"><tspan y="-351.22" x="118.13">&#x2013;</tspan></text>
<text xml:space="preserve" transform="matrix(1 0 -0 1 0 841.92)" font-size="10.08" font-family="Verdana" font-weight="bold"><tspan y="-351.22" x="125.33"> </tspan></text>
<text xml:space="preserve" transform="matrix(1 0 -0 1 0 841.92)" font-size="10.08" font-family="Verdana"><tspan y="-351.22" x="129.17 135.89336 141.14504 146.44712 149.08808 155.55944 161.31511 164.18791 170.19559 174.25783 180.0135 184.08582 190.0834 192.72437 196.79669 202.80437 206.87668 213.34804 219.10372 223.17604 225.817 231.80452 237.80211 241.87442 247.87203 254.34339 260.09907 264.1714 270.16899 276.4085 280.71269 286.48854 291.7402 297.7479 304.00758 308.0799">Assinale a alternativa que apresenta</tspan></text>
<text xml:space="preserve" transform="matrix(1 0 -0 1 0 841.92)" font-size="10.08" font-family="Verdana"><tspan y="-351.22" x="314.28"> </tspan></text>
<text xml:space="preserve" transform="matrix(1 0 -0 1 0 841.92)" font-size="10.08" font-family="Verdana"><tspan y="-351.22" x="318.36 324.35758 329.39759 333.4699 340.4251 346.4227 352.89408 357.93409 363.94178 366.57267 373.04405 379.04164 384.2933 388.15394 394.6253 400.6229 405.6629 409.73524 415.97477 422.44615 428.2018 431.07463 436.11463 440.18696 446.18455 451.43623 455.29685 461.53639 468.00776 474.00535 478.3095 484.58937 490.32487 495.57655 499.43717 509.26518 515.5047 521.7442 524.617 529.65707 532.52987 538.76937 544.76699 547.6398 552.6798">os Conselhos nos quais as guardas municipais </tspan></text>
<text xml:space="preserve" transform="matrix(1 0 -0 1 0 841.92)" font-size="10.08" font-family="Verdana"><tspan y="-339.22" x="42.504 46.57632 52.584 62.180158 65.76864 70.0728 76.08048 82.33008 86.63424 92.41008 97.66176 103.44768 109.91904 113.991359 119.74704 123.81936 126.46032 132.44783 135.32064 141.56017 147.55776 153.79729 159.55297 163.14144 167.44559 173.45326 178.73519 184.49086 190.96222 197.20175 203.20943 208.23935 211.11215 217.35169 223.34928 226.93775 232.94542 236.52382 242.52143 248.99279 254.74846 258.33695 264.33454 268.40687 274.16255 280.6339 286.63154 292.63923 302.44706 306.06578 312.06336 318.06095 323.31263 326.6995 331.95118 337.95887 344.21855 349.4702 352.8571 355.7299 361.96943 366.04176 372.04945 376.3536 382.1194 387.37107 392.67317 398.42884 403.6805">t&#x00ea;m representatividade reconhecida e que atendem aos seus interesses.</tspan></text>
<text xml:space="preserve" transform="matrix(1 0 -0 1 0 841.92)" font-size="10.08" font-family="Verdana"><tspan y="-339.22" x="407.69"> </tspan></text>
<text xml:space="preserve" transform="matrix(1 0 -0 1 0 841.92)" font-size="7.92" font-family="Verdana"><tspan y="-329.14" x="42.504"> </tspan></text>
<text xml:space="preserve" transform="matrix(1 0 -0 1 0 841.92)" font-size="10.08" font-family="Verdana"><tspan y="-317.38" x="42.504 49.46402">A)</tspan></text>
<text xml:space="preserve" transform="matrix(1 0 -0 1 0 841.92)" font-size="10.08" font-family="ArialMT"><tspan y="-317.38" x="53.784"> </tspan></text>
<text xml:space="preserve" transform="matrix(1 0 -0 1 0 841.92)" font-size="10.08" font-family="Verdana"><tspan y="-317.38" x="56.664 63.6192 69.616809 76.088169 81.33984 87.34753 90.008647 96.48 102.47761 108.223209 114.694568 119.94624 124.048809 130.0464 136.044 142.51537 148.27104 151.14385 157.13137 163.3709 169.37857 175.356 182.79505 185.66785 189.972 195.74784 198.62064 202.69297 208.69057 213.73056 219.71808 225.71567 231.70319 237.70079 242.00495 248.0227 254.26224 258.5664 261.21745 267.22514 273.45457 279.45216 285.69169 291.69938 295.28788 301.03349 307.98869 313.98628 320.45765 325.70933 331.717 334.37815 340.84953 346.8471 352.83464 358.5903 364.598 370.82743 376.5831 380.88728 386.90504 389.77784 395.76536 401.76298 407.77067 413.7481 421.68107 425.98524 432.22477 437.98045 447.80845 453.79597 459.55165 466.023 472.26255 474.9035 477.7763 483.02799">Conselho Estadual de Direitos &#x00e0; Propriedade, Conselho Federal de Ordem P&#x00fa;blica</tspan></text>
<text xml:space="preserve" transform="matrix(1 0 -0 1 0 841.92)" font-size="10.08" font-family="Verdana"><tspan y="-317.38" x="489.55"> </tspan></text>
<text xml:space="preserve" transform="matrix(1 0 -0 1 0 841.92)" font-size="10.08" font-family="Verdana"><tspan y="-317.38" x="495.31">e</tspan></text>
<text xml:space="preserve" transform="matrix(1 0 -0 1 0 841.92)" font-size="10.08" font-family="Verdana"><tspan y="-317.38" x="501.31"> </tspan></text>
<text xml:space="preserve" transform="matrix(1 0 -0 1 0 841.92)" font-size="10.08" font-family="Verdana"><tspan y="-317.38" x="507.31 514.2652 520.26278 526.7341 531.7741 537.7818 540.41268 546.65219 552.8816">Conselho </tspan></text>
<text xml:space="preserve" transform="matrix(1 0 -0 1 0 841.92)" font-size="10.08" font-family="Verdana"><tspan y="-305.11" x="56.664 65.06064 71.532 77.771518 80.64432 85.68432 88.55712 94.79664 100.79424 103.4352 107.02368 113.2632 119.27088 122.84928 129.80449 135.81217 141.7997 148.03923 150.91204 156.90962 162.1613 168.21938 174.18674 177.7752 183.29906 189.77042 196.24178 202.23938 205.11219 211.10977 215.19217 218.06497 224.06256">Municipal de Regula&#x00e7;&#x00e3;o Fundi&#x00e1;ria.</tspan></text>
<text xml:space="preserve" transform="matrix(1 0 -0 1 0 841.92)" font-size="10.08" font-family="Verdana"><tspan y="-305.11" x="227.86"> </tspan></text>
<text xml:space="preserve" transform="matrix(1 0 -0 1 0 841.92)" font-size="10.08" font-family="Verdana"><tspan y="-292.87" x="42.504 49.46398">B)</tspan></text>
<text xml:space="preserve" transform="matrix(1 0 -0 1 0 841.92)" font-size="10.08" font-family="ArialMT"><tspan y="-292.87" x="53.784"> </tspan></text>
<text xml:space="preserve" transform="matrix(1 0 -0 1 0 841.92)" font-size="10.08" font-family="Verdana"><tspan y="-292.87" x="56.664 63.6192 69.616809 76.088169 81.33984 87.34753 90.008647 96.48 102.47761 105.36048 111.6 117.35568">Conselho de </tspan></text>
<text xml:space="preserve" transform="matrix(1 0 -0 1 0 841.92)" font-size="10.08" font-family="Verdana"><tspan y="-292.87" x="120.29 127.01337 133.02104 139.25049 145.49002 149.79418 155.81194 162.2833 167.53498 173.32089 176.20377 181.95946 188.43082 194.67035 197.31131 200.18412 205.43579 211.22171 214.10459 220.11226 222.98506 228.98267 233.06507 235.93787 241.92539 247.92298 254.1625 260.1601 263.51676 266.39964 273.35484 279.35243 285.8238 291.07548 296.8614 299.50236 305.97373 311.9713 314.8542 321.09373 326.8494 329.73228 335.7299 341.72749 345.7998 351.55549 358.02687 363.06687 365.93968 371.93727 374.57823 377.45103 383.69056 389.68815 395.92768 401.93537 406.96528 409.84815 416.08769 422.09538 424.96818 430.9658 436.96339 441.04579 445.1181 450.87379 453.75666 459.9962 466.00389 468.63478 475.5799 479.6623 489.4903">Seguran&#x00e7;a P&#x00fa;blica e Privada, Conselho de Potencialidades de Porte de Arma</tspan></text>
<text xml:space="preserve" transform="matrix(1 0 -0 1 0 841.92)" font-size="10.08" font-family="Verdana"><tspan y="-292.87" x="495.79"> </tspan></text>
<text xml:space="preserve" transform="matrix(1 0 -0 1 0 841.92)" font-size="10.08" font-family="Verdana"><tspan y="-292.87" x="498.67">e</tspan></text>
<text xml:space="preserve" transform="matrix(1 0 -0 1 0 841.92)" font-size="10.08" font-family="Verdana"><tspan y="-292.87" x="504.43"> </tspan></text>
<text xml:space="preserve" transform="matrix(1 0 -0 1 0 841.92)" font-size="10.08" font-family="Verdana"><tspan y="-292.87" x="507.31 514.2652 520.26278 526.7341 531.7741 537.7818 540.41268 546.884 552.88156">Conselho </tspan></text>
<text xml:space="preserve" transform="matrix(1 0 -0 1 0 841.92)" font-size="10.08" font-family="Verdana"><tspan y="-280.87" x="56.664 63.60912 69.6168 72.24768 75.12048 80.37216 86.4 89.98848 96.21792 101.9736 105.81408 108.68688 113.93856 119.9664 123.55488 131.95153 138.19106 144.43059 147.30339 152.34339 155.21619 161.45572 167.45331 170.32611">B&#x00e9;lico T&#x00e1;tico Municipal.</tspan></text>
<text xml:space="preserve" transform="matrix(1 0 -0 1 0 841.92)" font-size="10.08" font-family="Verdana"><tspan y="-280.87" x="173.83"> </tspan></text>
<text xml:space="preserve" transform="matrix(1 0 -0 1 0 841.92)" font-size="10.08" font-family="Verdana"><tspan y="-268.63" x="42.504 49.464044">C)</tspan></text>
<text xml:space="preserve" transform="matrix(1 0 -0 1 0 841.92)" font-size="10.08" font-family="ArialMT"><tspan y="-268.63" x="54.024"> </tspan></text>
<text xml:space="preserve" transform="matrix(1 0 -0 1 0 841.92)" font-size="10.08" font-family="Verdana"><tspan y="-268.63" x="56.664 63.6192 69.616809 76.088169 81.33984 87.34753 90.008647 96.48 102.47761 108.465129 114.70464 120.70225 126.689769 131.004 137.24353 142.9992 148.25089 154.27873 157.87729 163.8648 170.82 176.81761 183.28897 188.54065 194.32657 197.19937 203.67073 209.66834 215.65586 221.89539 227.65106 233.63858 239.63619 243.94034 249.9581 254.03043 260.03813 265.2898 271.30757 277.30516 283.05076 289.52214 294.56214 298.40263 302.7068 309.18824 313.02873 319.5001 323.80427 329.5801 332.4529 338.44044 344.1961 350.18363 357.13883 363.1364 372.96443 378.9721 383.27629 388.32637 391.19917 396.95484 399.82765 405.81517 412.0547 418.05229 424.0398 432.43644 438.67597 444.9155 447.7883 453.03999 455.94303 461.94065 464.81346">Conselho do Idoso, Conselho da Prote&#x00e7;&#x00e3;o Estrutural e Comercial do Munic&#x00ed;pio</tspan></text>
<text xml:space="preserve" transform="matrix(1 0 -0 1 0 841.92)" font-size="10.08" font-family="Verdana"><tspan y="-268.63" x="471.31"> </tspan></text>
<text xml:space="preserve" transform="matrix(1 0 -0 1 0 841.92)" font-size="10.08" font-family="Verdana"><tspan y="-268.63" x="477.31">e</tspan></text>
<text xml:space="preserve" transform="matrix(1 0 -0 1 0 841.92)" font-size="10.08" font-family="Verdana"><tspan y="-268.63" x="483.07"> </tspan></text>
<text xml:space="preserve" transform="matrix(1 0 -0 1 0 841.92)" font-size="10.08" font-family="Verdana"><tspan y="-268.63" x="489.07 496.0252 502.0228 508.49418 513.74588 519.5318 522.4046 528.8759 534.8735 540.6191 546.8586 552.8562">Conselho da </tspan></text>
<text xml:space="preserve" transform="matrix(1 0 -0 1 0 841.92)" font-size="10.08" font-family="Verdana"><tspan y="-256.39" x="56.664 63.609125 69.616809 75.846248 82.08576 86.38992 92.407688 98.6472 103.89888 109.95696 113.283359 120.95424 126.95184 133.19138 135.83234 139.90467 145.90225 150.94225 153.81505 159.81266 166.28401 172.2816 175.1544">Seguran&#x00e7;a Habitacional.</tspan></text>
<text xml:space="preserve" transform="matrix(1 0 -0 1 0 841.92)" font-size="10.08" font-family="Verdana"><tspan y="-256.39" x="178.63"> </tspan></text>
<text xml:space="preserve" transform="matrix(1 0 -0 1 0 841.92)" font-size="10.08" font-family="Verdana"><tspan y="-244.39" x="42.504 50.183984">D)</tspan></text>
<text xml:space="preserve" transform="matrix(1 0 -0 1 0 841.92)" font-size="10.08" font-family="ArialMT"><tspan y="-244.39" x="54.744"> </tspan></text>
<text xml:space="preserve" transform="matrix(1 0 -0 1 0 841.92)" font-size="10.08" font-family="Verdana"><tspan y="-244.39" x="56.664 63.6192 69.616809 76.088169 81.33984 87.34753 90.008647 96.48 102.47761 107.2656 114.70464 120.70225 125.74225 128.61505 134.61266 141.08402 147.0816 149.72257 154.51056 160.75009 166.75777 171.30385 178.24897 184.25664 190.48609 196.72562 201.02977 207.04753 213.28707 218.53874 224.59682 229.35457">Conselho Nacional de Seguran&#x00e7;a P</tspan></text>
<text xml:space="preserve" transform="matrix(1 0 -0 1 0 841.92)" font-size="10.08" font-family="Verdana"><tspan y="-244.39" x="235.54 242.01136 248.00896 250.88176 253.52272 258.7744 264.8325 268.40083 273.1888 280.144 286.1416 292.61299 297.65299 303.66069 306.5234 312.99479 318.99238 323.78038 331.2194 337.21699 342.257 345.1298 351.12739 357.59877 363.35444 366.22724 371.01524 377.25477 383.25236 388.29237 393.08036 400.76133 407.2327 413.2303 417.53446 423.8143 429.79176 434.83177 439.61976 448.0164 454.25593 460.7273 463.36827 468.61994 471.52299 477.7625 483.5182 486.391">&#x00fa;blica, Conselho Nacional das Guardas Municipais</tspan></text>
<text xml:space="preserve" transform="matrix(1 0 -0 1 0 841.92)" font-size="10.08" font-family="Verdana"><tspan y="-244.39" x="491.95"> </tspan></text>
<text xml:space="preserve" transform="matrix(1 0 -0 1 0 841.92)" font-size="10.08" font-family="Verdana"><tspan y="-244.39" x="496.75">e</tspan></text>
<text xml:space="preserve" transform="matrix(1 0 -0 1 0 841.92)" font-size="10.08" font-family="Verdana"><tspan y="-244.39" x="502.51"> </tspan></text>
<text xml:space="preserve" transform="matrix(1 0 -0 1 0 841.92)" font-size="10.08" font-family="Verdana"><tspan y="-244.39" x="507.31 514.2652 520.26278 526.7341 531.9858 537.7717 540.41268 546.884 552.88156">Conselho </tspan></text>
<text xml:space="preserve" transform="matrix(1 0 -0 1 0 841.92)" font-size="10.08" font-family="Verdana"><tspan y="-232.15" x="56.664 64.10304 70.10065 75.352329 78.25536 84.25297 90.72433 96.48001 99.35281 102.94129 109.18081 114.93649 118.52497 125.47009 131.22577 136.47745 140.81185 146.56752 150.63985 156.63744 160.94159 163.82447 169.82207 174.86206 178.45053 184.4582 187.81485 195.72765 201.73532 206.76525 210.83757 216.83518 221.13933 227.147 232.19709 235.78556 244.18219 250.42173 256.8931 259.53407 264.78575 267.68879 273.9283 279.684 282.5568 287.5968 291.18528 297.1829 303.19059 306.76899 313.7141 319.7218 325.70933 332.1807 336.48487 342.2607 348.7321 353.98377 360.04185 363.59 369.37593 375.8473 381.8449 384.7177 387.5905 392.8422 398.90028">Nacional de Secret&#x00e1;rios e Gestores Municipais de Seguran&#x00e7;a P&#x00fa;blica.</tspan></text>
<text xml:space="preserve" transform="matrix(1 0 -0 1 0 841.92)" font-size="10.08" font-family="Verdana"><tspan y="-232.15" x="402.65"> </tspan></text>
<text xml:space="preserve" transform="matrix(1 0 -0 1 0 841.92)" font-size="10.08" font-family="Verdana"><tspan y="-220.13" x="42.504 48.983564">E)</tspan></text>
<text xml:space="preserve" transform="matrix(1 0 -0 1 0 841.92)" font-size="10.08" font-family="ArialMT"><tspan y="-220.13" x="53.304"> </tspan></text>
<text xml:space="preserve" transform="matrix(1 0 -0 1 0 841.92)" font-size="10.08" font-family="Verdana"><tspan y="-220.13" x="56.664 63.6192 69.616809 76.088169 81.33984 87.34753 90.008647 96.48 102.47761 106.54993 112.789447 118.79713 122.85936 129.81456 135.82224 141.80977 148.0493 150.9221 156.9197 166.7477 172.50337 178.7429 182.81523 188.81282 194.0645 200.12258 206.08994 210.16225 216.15985 222.63121 228.62882 231.50162 234.14258 239.39426 245.45233 249.02065 253.09296 260.04817 266.04576 272.51713 277.7688 283.55473 286.19569 292.66706 298.66465 302.73698 308.9765 314.9741 320.22578 324.32835 332.24116 337.99684 343.2485 347.35108 353.34867 357.65284 363.42869 368.68037 372.78294 379.02247 385.03016 388.85047 395.7956 401.80329 408.0327 414.27226 418.57643 424.59419 430.8337 436.0854 442.14347 446.18556 454.58219 460.82173 467.06126 469.93406 475.18574 478.08879 484.3283 490.08399">Conselho de Regulamenta&#x00e7;&#x00e3;o P&#x00fa;blica, Conselho dos Gestores de Seguran&#x00e7;a Municipal</tspan></text>
<text xml:space="preserve" transform="matrix(1 0 -0 1 0 841.92)" font-size="10.08" font-family="Verdana"><tspan y="-220.13" x="493.39"> </tspan></text>
<text xml:space="preserve" transform="matrix(1 0 -0 1 0 841.92)" font-size="10.08" font-family="Verdana"><tspan y="-220.13" x="497.47 503.47">e </tspan></text>
<text xml:space="preserve" transform="matrix(1 0 -0 1 0 841.92)" font-size="10.08" font-family="Verdana"><tspan y="-220.13" x="507.55 514.5052 520.26089 526.7322 531.9839 537.76986 540.41079 546.8821 552.87966">Conselho </tspan></text>
<text xml:space="preserve" transform="matrix(1 0 -0 1 0 841.92)" font-size="10.08" font-family="Verdana"><tspan y="-207.89" x="56.664 63.13536 68.17536 72.24768 78.245288 84.4848 90.95616 96.711849 99.58465 103.17313 109.41264 115.16833 118.756809 125.228168 131.22577 137.69713 142.9488 148.73473 153.9864 160.04448 166.01184 169.60031 175.59792 179.90207 185.90975 191.90735 197.66303 203.90256 207.97489 210.61585 216.60337 222.60095 226.19951">Estadual de Educa&#x00e7;&#x00e3;o Preventiva. </tspan></text>
<text xml:space="preserve" transform="matrix(1 0 -0 1 0 841.92)" font-size="10.08" font-family="Verdana"><tspan y="-207.89" x="229.78"> </tspan></text>
<text xml:space="preserve" transform="matrix(1 0 -0 1 0 841.92)" font-size="7.92" font-family="Verdana"><tspan y="-197.81" x="42.504"> </tspan></text>
<path transform="matrix(1,0,0,-1,0,841.92)" d="M41.064 194.69H554.374V195.16999H41.064Z" fill-rule="evenodd"/>
<text xml:space="preserve" transform="matrix(1 0 -0 1 0 841.92)" font-size="7.92" font-family="Verdana"><tspan y="-186.77" x="42.504"> </tspan></text>
<text xml:space="preserve" transform="matrix(1 0 -0 1 0 841.92)" font-size="10.08" font-family="Verdana" font-weight="bold"><tspan y="-174.77" x="42.504 51.13248 59.31744 66.01056 73.1976 79.92096 87.60192 96.2304 100.0608 107.24783 114.43487">QUEST&#x00c3;O 40 </tspan></text>
<text xml:space="preserve" transform="matrix(1 0 -0 1 0 841.92)" font-size="10.08" font-family="Verdana" font-weight="bold"><tspan y="-174.77" x="118.37">&#x2013;</tspan></text>
<text xml:space="preserve" transform="matrix(1 0 -0 1 0 841.92)" font-size="10.08" font-family="Verdana" font-weight="bold"><tspan y="-174.77" x="125.57"> </tspan></text>
<text xml:space="preserve" transform="matrix(1 0 -0 1 0 841.92)" font-size="10.08" font-family="Verdana"><tspan y="-174.77" x="129.41 137.34296 141.39511 147.63465 154.106 160.10359 164.40775 170.68759 176.66503 180.49542 190.32343 196.56296 203.03432 205.67528 210.92696 213.83 220.06954 225.82521 228.69802 232.29657 236.36888 242.84024 248.83785 252.91016 258.91786 264.67353 270.6812 274.98539 280.03547 282.90827 287.94828 290.82109 296.81867 300.891 307.13053 313.1281 317.20045 322.45213 328.95375 334.95133 339.02366 344.77934 348.85166 351.4926 357.48014 360.35295 366.59248 372.59007 378.8296 384.83729 388.42579 392.4981 398.25379 404.72517 408.0818 412.38597 418.39366 424.64326 428.71559 434.71318 438.7855 444.7831 447.6559 453.64344 459.65113 463.72346 468.97514 475.0332 480.28489 484.3572 489.39723 492.27003 496.1105 502.58189 508.57948 513.8312 519.859 525.8667 530.89669 534.969 541.4403 547.4379 552.47799">O guarda municipal, no exerc&#x00ed;cio da sua atividade, enfrenta diversas situa&#x00e7;&#x00f5;es nas </tspan></text>
<text xml:space="preserve" transform="matrix(1 0 -0 1 0 841.92)" font-size="10.08" font-family="Verdana"><tspan y="-162.53" x="42.504 48.74352 55.21488 61.212484 63.853445 69.105129 73.68144 79.92096 84.00336 90.01104 95.26272 97.923839 103.175518 109.2336 113.51759 117.821758 123.82944 129.11136 135.10897 139.41312 143.73743 149.4931 153.79726 158.3635 164.11917 168.66526 174.90479 179.20894 185.2267 190.47838 196.48606 202.50382 205.37662 214.97278 220.98046 227.2099 231.28223 237.27983 242.53151 246.16031 250.47455 254.54688 260.55458 265.58448 271.824 274.6968 279.9485 285.7344 290.98609 295.5624 301.31809 305.86418 308.50514 314.9765 320.0165 324.08885 328.17124 334.6426 344.4706 350.2263 356.46583 360.53816 366.53575 371.7874 376.36375 382.60328 388.60087 392.90504 398.68089 403.22697 408.98265 414.97016 417.6111 421.68345 427.68104 431.9852 436.3095 442.3172 445.8956 451.65129 454.52409 458.5964 464.594 469.634 474.18009 480.41963 486.1753 490.72138 496.71897 502.9585 507.26268 513.0385 518.2902 523.59237 529.348 535.3456 539.89169 545.8892 552.36056">quais precisa recorrer a procedimentos, t&#x00e9;cnicas e instrumentos para evitar efeitos de agress&#x00e3;o ou </tspan></text>
<text xml:space="preserve" transform="matrix(1 0 -0 1 0 841.92)" font-size="10.08" font-family="Verdana"><tspan y="-150.53" x="42.504 52.332006 58.339685 63.591363 73.43952 79.195209 83.74128 89.738887 94.28496 100.04064 109.86864 115.87632 121.863849 127.115528 132.90145 137.44753 143.68706 149.69474 154.24082 159.99649 162.8693 169.10883 175.10643 179.65251 185.65012 191.65779 195.96195 198.84482 205.08435 211.08196 216.33364 222.36148 225.71811 230.26419 235.51587 241.52355 244.90035 250.89794 255.44402 261.19969 271.02769 275.57377 281.57139 287.32707 290.91554 296.92323 302.1749 308.19267 312.73875 318.73637 324.74406 329.29014 335.28773 341.52726 345.59959 349.90376 355.6796 360.22569 366.4652 372.4729 377.5028">mesmo a amea&#x00e7;a de algo perigoso, seja em defesa de outra pess</tspan></text>
<text xml:space="preserve" transform="matrix(1 0 -0 1 0 841.92)" font-size="10.08" font-family="Verdana"><tspan y="-150.53" x="383.18 389.17759 395.17518 399.72126 405.71885 411.95838 416.50447 422.744 428.49967 433.04576 438.29743 440.96864 445.5147 455.11088 461.11857 466.37025 476.21839 482.21598 485.57264 490.1187 496.11634 502.11393 506.4181 512.4258 522.26388 525.8624 530.17666 536.41616 542.41378 546.7179 552.73568">oa ou de si mesmo. Por&#x00e9;m, para </tspan></text>
<text xml:space="preserve" transform="matrix(1 0 -0 1 0 841.92)" font-size="10.08" font-family="Verdana"><tspan y="-138.26" x="42.504 47.755685 53.813764 60.02304 66.020648 70.334888 75.58656 81.644649 86.896327 92.89393 97.20817 103.67953 109.67713 113.74945 120.22081 130.04882 134.36305 140.60259 144.90674 150.9245 156.17618 162.18386 168.20162 170.84258 180.67058 186.67826 192.9077 196.98003 202.97763 207.29187 212.54355 218.5714 222.87555 227.19986 233.20754 238.23746 244.47699 250.4746 256.94596 263.1855 268.94117 275.41255 279.25303 285.0087 288.60728 292.9215 298.9292 303.23338 309.23097 313.5452 319.78474 324.0889 330.10667 333.69514 336.56794 341.8196 346.88987 349.76268 355.76026 362.23164 368.22923 371.10203 375.41627 381.41389 385.71806 391.72575 396.77583 399.64863 404.9003">cada caso h&#x00e1; um procedimento correspondente, e o profissional precisa</tspan></text>
<text xml:space="preserve" transform="matrix(1 0 -0 1 0 841.92)" font-size="10.08" font-family="Verdana"><tspan y="-138.26" x="411.29"> </tspan></text>
<text xml:space="preserve" transform="matrix(1 0 -0 1 0 841.92)" font-size="10.08" font-family="Verdana"><tspan y="-138.26" x="415.61 421.84953 427.8471 434.31849 440.558 446.3137 450.61787 456.63563 460.9398 465.2641 470.3041 476.77549 482.77308 488.02476 492.35917 498.35676 502.19725 504.8382 508.91053 515.38186 521.37948 527.13516 532.38687 536.0156 540.32986 546.56936 552.79879">ponderar suas atitudes, de </tspan></text>
<text xml:space="preserve" transform="matrix(1 0 -0 1 0 841.92)" font-size="10.08" font-family="Verdana"><tspan y="-126.02" x="42.504 48.501604 53.75328 59.78112 64.08528 70.36512 76.34256 81.130558 86.38223 92.41007 102.23807 107.02606 113.02367 117.56974 122.82142 125.49262 129.56494 136.0363 141.79198 147.04366 153.10173 159.06909 162.66765 167.45565 173.46332 179.219 182.0918 186.16413 191.9198 198.39116 204.63069 210.6283 215.41629 221.42397 227.17964 232.43132 238.439 243.73099 248.98267 255.01052 260.05055 264.83854 270.84623 280.44239 284.98847 290.24015 296.74177 302.73936 307.52735 313.52494 318.7766 324.8347 330.80204 335.3481 341.3558 351.16365 355.73997 360.04414 366.05183 368.9347 374.69038 379.94206 386.00013 391.96748 396.75547 402.75306 407.54106 413.53865 419.77818 424.08235 429.8582 435.10987 440.41197 446.40956 452.40715 456.0057 460.7937 468.47465 474.946 480.9436 483.8164 488.3625 494.37019 499.1481 505.1457 509.9337 516.17318 520.25558 523.12838 529.36788 534.61959 537.5226 543.7621 546.6349 552.39059">acordo com a situa&#x00e7;&#x00e3;o, evitando excessos em sua a&#x00e7;&#x00e3;o em rela&#x00e7;&#x00e3;o &#x00e0; agress&#x00e3;o. Qual &#x00e9; o princ&#x00ed;pio </tspan></text>
<text xml:space="preserve" transform="matrix(1 0 -0 1 0 841.92)" font-size="10.08" font-family="Verdana"><tspan y="-114.02" x="42.504 48.975366 54.972967 59.277128 63.359529 69.36721 75.35474 81.59425 87.59186 91.674259 95.26273 101.50225 107.50993 112.76161 118.05361 123.809299 127.39777 130.98625 136.98386 141.06626 150.89426 156.89185 160.48032 166.71985 172.72753 176.30593 182.0616 185.90209 192.37345 198.37104 203.62271 209.68079 215.64815">norteador dessa forma de atua&#x00e7;&#x00e3;o?</tspan></text>
<text xml:space="preserve" transform="matrix(1 0 -0 1 0 841.92)" font-size="10.08" font-family="Verdana"><tspan y="-114.02" x="221.14"> </tspan></text>
<text xml:space="preserve" transform="matrix(1 0 -0 1 0 841.92)" font-size="7.92" font-family="Verdana"><tspan y="-103.94" x="42.504"> </tspan></text>
<text xml:space="preserve" transform="matrix(1 0 -0 1 0 841.92)" font-size="10.08" font-family="Verdana"><tspan y="-92.184" x="42.504 49.46402">A)</tspan></text>
<text xml:space="preserve" transform="matrix(1 0 -0 1 0 841.92)" font-size="10.08" font-family="ArialMT"><tspan y="-92.184" x="53.784"> </tspan></text>
<text xml:space="preserve" transform="matrix(1 0 -0 1 0 841.92)" font-size="10.08" font-family="Verdana"><tspan y="-92.184" x="56.664 63.13536 69.12288 75.13056 79.20288 84.45456 87.12576 92.37744 95.28048 101.27808 104.86656 110.86416 113.73696 119.492649 125.964008 131.96161 135.55008 141.78961 147.7872 151.37567 156.41567 159.28847 165.528 171.52559 177.76512 183.5208 189.99216 192.86496 198.86255">Exerc&#x00ed;cio pleno da cidadania.</tspan></text>
<text xml:space="preserve" transform="matrix(1 0 -0 1 0 841.92)" font-size="10.08" font-family="Verdana"><tspan y="-92.184" x="202.39"> </tspan></text>
<text xml:space="preserve" transform="matrix(1 0 -0 1 0 841.92)" font-size="10.08" font-family="Verdana"><tspan y="-79.944" x="42.504 49.46398">B)</tspan></text>
<text xml:space="preserve" transform="matrix(1 0 -0 1 0 841.92)" font-size="10.08" font-family="ArialMT"><tspan y="-79.944" x="53.784"> </tspan></text>
<text xml:space="preserve" transform="matrix(1 0 -0 1 0 841.92)" font-size="10.08" font-family="Verdana"><tspan y="-79.944" x="56.664 62.661603 68.6592 72.73152 77.03568 83.295368 85.936328 92.407688 98.40529 108.233287 113.98897 120.46033 124.532649 130.53025 134.11872 140.11632 146.35585 152.11153 156.41568 162.43344 167.68512 170.58817 176.34384 182.8152 188.81279 191.6856">Patrulhamento operacional.</tspan></text>
<text xml:space="preserve" transform="matrix(1 0 -0 1 0 841.92)" font-size="10.08" font-family="Verdana"><tspan y="-79.944" x="195.19"> </tspan></text>
<text xml:space="preserve" transform="matrix(1 0 -0 1 0 841.92)" font-size="10.08" font-family="Verdana"><tspan y="-67.704" x="42.504 49.464044">C)</tspan></text>
<text xml:space="preserve" transform="matrix(1 0 -0 1 0 841.92)" font-size="10.08" font-family="ArialMT"><tspan y="-67.704" x="54.024"> </tspan></text>
<text xml:space="preserve" transform="matrix(1 0 -0 1 0 841.92)" font-size="10.08" font-family="Verdana"><tspan y="-67.704" x="56.664 64.34496 67.217769 76.81393 79.68673 85.92625 92.397609 95.03857 100.290248 106.34833 112.31569 115.90417 122.143688 128.14128 133.39296 137.01168 143.00928 149.01696 153.3211 159.57071 165.5683 170.81998">Diminui&#x00e7;&#x00e3;o das perdas.</tspan></text>
<text xml:space="preserve" transform="matrix(1 0 -0 1 0 841.92)" font-size="10.08" font-family="Verdana"><tspan y="-67.704" x="174.31"> </tspan></text>
<text xml:space="preserve" transform="matrix(1 0 -0 1 0 841.92)" font-size="10.08" font-family="Verdana"><tspan y="-55.68" x="42.504 50.183984">D)</tspan></text>
<text xml:space="preserve" transform="matrix(1 0 -0 1 0 841.92)" font-size="10.08" font-family="ArialMT"><tspan y="-55.68" x="54.744"> </tspan></text>
<text xml:space="preserve" transform="matrix(1 0 -0 1 0 841.92)" font-size="10.08" font-family="Verdana"><tspan y="-55.68" x="56.664 62.661603 66.96576 72.98352 77.05584 83.06352 88.3152 94.33296 100.33057 103.919048 109.91665 115.91425 121.16593 124.784648 132.22368 135.09648 139.40064 145.17647 148.04927 152.1216 158.1192 163.1592 166.74767 174.1867 180.65807 190.48607 196.24175 202.7131 208.71071 213.96239">Prote&#x00e7;&#x00e3;o aos Direitos Humanos.</tspan></text>
<text xml:space="preserve" transform="matrix(1 0 -0 1 0 841.92)" font-size="10.08" font-family="Verdana"><tspan y="-55.68" x="217.54"> </tspan></text>
<text xml:space="preserve" transform="matrix(1 0 -0 1 0 841.92)" font-size="10.08" font-family="Verdana"><tspan y="-43.44" x="42.504 48.983564">E)</tspan></text>
<text xml:space="preserve" transform="matrix(1 0 -0 1 0 841.92)" font-size="10.08" font-family="ArialMT"><tspan y="-43.44" x="53.304"> </tspan></text>
<text xml:space="preserve" transform="matrix(1 0 -0 1 0 841.92)" font-size="10.08" font-family="Verdana"><tspan y="-43.44" x="56.664 64.092967 69.34464 75.37248 78.96096 85.20048 89.50464 95.5224 101.76192 106.06608 111.84192 117.0936 122.395679 125.03664 131.02416 137.02176 140.61023 146.84976 152.84735 156.204 159.79247 165.79007 170.09423 175.37615 181.37374">Uso progressivo da for&#x00e7;a.</tspan></text>
<text xml:space="preserve" transform="matrix(1 0 -0 1 0 841.92)" font-size="10.08" font-family="Verdana"><tspan y="-43.44" x="184.87"> </tspan></text>
<text xml:space="preserve" transform="matrix(1 0 -0 1 42.504 459.97898)" font-size="10.08" font-family="Verdana"><tspan y="-51.1395" x="-.0000016174 6.9600188">A)</tspan></text>
<text xml:space="preserve" transform="matrix(1 0 -0 1 42.504 459.97898)" font-size="10.08" font-family="ArialMT"><tspan y="-51.1395" x="11.279998"> </tspan></text>
<text xml:space="preserve" transform="matrix(1 0 -0 1 42.504 459.97898)" font-size="10.08" font-family="Verdana"><tspan y="-51.1395" x="14.159998 21.105118 27.102719 36.93072 42.6864 49.15776 53.23008 58.98576 62.57424 68.581928 78.178089 81.76656 87.76417 92.06833 98.34817 104.32561 110.32321 115.57489 119.1936 125.43312 131.43071 136.4707 140.05918 143.64765 149.64525 153.9494 159.23133 164.987 170.23868 174.07596 183.67212 186.54492 189.18589 191.82685 195.89917 201.89676 206.20092 212.20859 217.25867 220.84714 226.85482 231.88474 235.95706 241.95465 248.19419 254.43372 260.4313 263.3041 268.5558 272.01597">Somente em &#x00f3;rg&#x00e3;os das for&#x00e7;as militares estaduais. </tspan><tspan y="-38.899499" x="-.0000019073487 6.9599788">B)</tspan></text>
<text xml:space="preserve" transform="matrix(1 0 -0 1 42.504 459.97898)" font-size="10.08" font-family="ArialMT"><tspan y="-38.899499" x="11.279998"> </tspan></text>
<text xml:space="preserve" transform="matrix(1 0 -0 1 42.504 459.97898)" font-size="10.08" font-family="Verdana"><tspan y="-38.899499" x="14.159998 21.105118 27.102719 36.93072 42.6864 49.15776 53.23008 58.98576 62.57424 68.581928 78.178089 81.76656 87.76417 92.06833 98.34817 104.32561 110.32321 113.91169 117.50017 123.50785 129.73729 135.49297 139.79712 145.81488 148.45584 152.04431 158.28385 164.7552 170.51088 173.38368 176.02465 179.61312 182.25408 187.50576 193.56383 199.77312 205.77072 209.35919 215.59873 221.6064 224.46912 230.2248 233.81327 240.53662 246.5443 251.79598 255.89853 261.90623 265.96849 271.96607 276.04847 278.92127 284.91886 288.50733 295.94636 301.94395 306.98396 309.85676 315.85435 322.3257 328.3233 330.96427 334.55274 340.79228 346.79997 350.1566 357.1017 363.1094 369.09693 375.5683 379.87248 385.64833 392.1197 397.37138 403.42945 406.9776 412.76353 419.2349 425.47444 428.1154 430.9882 436.23988 442.0258 445.61427 450.19059 457.1256 462.8813 469.35267 475.35026 480.60194 486.88179 491.4581 495.31605">Somente em &#x00f3;rg&#x00e3;o federal qualificado pela Secretaria Nacional de Seguran&#x00e7;a P&#x00fa;blica (Senasp). </tspan><tspan y="-26.659499" x="-.0000019073487 6.960038">C)</tspan></text>
<text xml:space="preserve" transform="matrix(1 0 -0 1 42.504 459.97898)" font-size="10.08" font-family="ArialMT"><tspan y="-26.659499" x="11.519999"> </tspan></text>
<text xml:space="preserve" transform="matrix(1 0 -0 1 42.504 459.97898)" font-size="10.08" font-family="Verdana"><tspan y="-26.659499" x="14.159999 21.105118 27.102719 36.93072 42.6864 49.15776 53.23008 58.98576 62.57424 68.581928 78.178089 81.76656 87.77425 93.025928 98.317928 104.07361 106.94641 112.944019 118.195697 121.81441 127.57009 134.04145 137.62992 142.6699">Somente em escolas ou ce</tspan></text>
<text xml:space="preserve" transform="matrix(1 0 -0 1 42.504 459.97898)" font-size="10.08" font-family="Verdana"><tspan y="-26.659499" x="148.67801">n</tspan></text>
<text xml:space="preserve" transform="matrix(1 0 -0 1 42.504 459.97898)" font-size="10.08" font-family="Verdana"><tspan y="-26.659499" x="155.04857 159.11081 163.41497 169.43273 174.47272 178.06119 184.30072 190.3084 193.66504 197.25351 203.25112 207.55527 217.40343 223.40102 228.6527 234.71077 240.67813 244.2666 250.50614 256.2618 259.85029 265.60597 271.60356 274.47636 277.34916 282.38917 285.26197 291.25956 294.84803 303.01283 305.88563 308.52659 311.39939 315.4717 321.4693 325.5517 329.14018 335.13777 341.60914 344.96577 351.2053 357.20289 360.79136 366.78898 372.78657 375.42753 378.30033 383.552 386.45506 392.21073 395.7992 402.7544 405.39537 411.38288 414.02384 416.89665 420.7569">tros de forma&#x00e7;&#x00e3;o da Pol&#x00ed;cia Militar ou da Pol&#x00ed;cia Civil. </tspan><tspan y="-14.399299" x=".0005645752 7.680545">D)</tspan></text>
<text xml:space="preserve" transform="matrix(1 0 -0 1 42.504 459.97898)" font-size="10.08" font-family="ArialMT"><tspan y="-14.399299" x="12.240564"> </tspan></text>
<text xml:space="preserve" transform="matrix(1 0 -0 1 42.504 459.97898)" font-size="10.08" font-family="Verdana"><tspan y="-14.399299" x="14.160564 21.105685 24.694165 29.945845 36.003927 42.213205 48.210805 53.250806 55.891767 59.964086 65.961688 71.21336 77.27145 83.23881 86.83737 90.42585 94.01433 100.01193 104.09433 113.922328 119.91993 125.17161 131.22969 137.19705 140.78553 146.7932 150.3716 156.3692 159.72585 163.79817 168.10233 173.87816 176.51912 182.99048 188.98807 198.81607 204.57175 210.81128 214.8836 220.88121 224.46968 230.94104 236.93863 242.93624 246.5247 252.28038 257.3204 261.39274 267.39033 273.3879 276.97639 283.2159 289.2236 292.58024 295.45304 301.69258 304.56538 310.8049 316.8025 322.05418 325.44105 331.79658 335.39659 339.70075 345.70845 351.71614 357.95567 360.82847 366.82606 373.06559 379.06318 384.31486 387.93357 393.68925 403.51725 406.87388 409.74668 415.75437 421.9838 424.62477 429.87644 432.77949 438.77708 444.02876 450.08683 456.05418 459.52659">A capacita&#x00e7;&#x00e3;o, forma&#x00e7;&#x00e3;o e o treinamento n&#x00e3;o est&#x00e3;o definidos e regulados em legisla&#x00e7;&#x00e3;o. </tspan><tspan y="-2.159299" x=".0005645752 6.480125">E)</tspan></text>
<text xml:space="preserve" transform="matrix(1 0 -0 1 42.504 459.97898)" font-size="10.08" font-family="ArialMT"><tspan y="-2.159299" x="10.800565"> </tspan></text>
<text xml:space="preserve" transform="matrix(1 0 -0 1 42.504 459.97898)" font-size="10.08" font-family="Verdana"><tspan y="-2.159299" x="14.160564 20.631924 30.459925 33.342805 39.340406 43.644567 49.924406 55.901845 61.899446 64.78232 70.779918 76.7876 79.66039 83.24887 89.246479 93.32887 103.15687 109.15447 114.40615 120.46423 126.431598 129.31447 135.554 139.85816 145.87592 152.11545 156.19785 159.07065 165.06826 168.66681 171.54969 177.78922 183.79689 189.04857 195.32842 201.074 203.95688 210.19641 216.43595 222.44362 225.31642 231.31401 235.1545 241.16217 247.62346 253.86299 259.61869 262.50157 268.49916 274.49674 279.7484 282.66154 288.90107 293.20524 295.85627 302.32765 307.36766 310.24046 316.23808 319.11088 325.10847 330.36015 333.27326 339.74464 345.74223 349.82463 353.89695 359.90464 365.89216 372.13169 378.12928 382.43345 388.2093 393.46098 396.37409 402.61363 408.6112 411.49409 417.0179 422.7736 425.6464 428.28736">Em &#x00f3;rg&#x00e3;o de forma&#x00e7;&#x00e3;o pr&#x00f3;prio, desde que atenda aos princ&#x00ed;pios norteadores da Lei n</tspan></text>
<text xml:space="preserve" transform="matrix(1 0 -0 1 42.504 459.97898)" font-size="10.08" font-family="MicrosoftSansSerif"><tspan y="-2.159299" x="435.04655">&#x00ba;</tspan></text>
<text xml:space="preserve" transform="matrix(1 0 -0 1 42.504 459.97898)" font-size="10.08" font-family="Verdana"><tspan y="-2.159299" x="438.64656 441.52656 447.76609 454.23747 457.83604 464.07557 470.54695 477.0183 481.34263 487.814 494.05354 500.29307 506.76445 510.43669"> 13.022/2014. </tspan></text>
<text xml:space="preserve" transform="matrix(1 0 -0 1 42.38304 274.63697)" font-size="10.08" font-family="Verdana" font-weight="bold"><tspan y="-88.919" x="0 8.62848 16.81344 23.50656 30.6936 37.41696 45.09792 53.733514 56.616395 63.803438 70.99759">QUEST&#x00c3;O 37 </tspan></text>
<text xml:space="preserve" transform="matrix(1 0 -0 1 42.38304 274.63697)" font-size="10.08" font-family="Verdana" font-weight="bold"><tspan y="-88.919" x="73.9602">&#x2013;</tspan></text>
<text xml:space="preserve" transform="matrix(1 0 -0 1 42.38304 274.63697)" font-size="10.08" font-family="Verdana"><tspan y="-88.919" x="81.167308 84.2873 91.72634 97.73106 100.85585 104.44433 107.31713 113.78849 119.544178 122.42409 125.54888 131.7884 137.79312 140.91793 150.74593 156.7536 162.01239 165.15735 171.15496 177.16974 180.28446 186.28205 192.52158 196.82573 199.47678 202.35669 205.48149 211.72103 217.73581 220.85053 227.09004 233.5614 239.80092 246.27228 249.87795 253.00275 259.00038 264.99797 269.30213 273.38453 279.38926 282.51405 289.45918 292.10014 298.10783 304.33726 308.64143 314.84135 319.41767 326.12089 333.08848 336.20848 341.46015 347.48799 351.07646 355.3806 361.15647 367.63496 370.51783 376.9892 386.8243 389.9491 395.70478 402.17616 408.17375 412.4779 422.32606 428.34086 431.45558 437.4532 443.46089 448.71257 454.73033 459.77033 463.84266 468.14683 474.1545 477.77027 480.65315 485.90483 491.9125 498.40403 504.64356 510.39924"> No final do m&#x00ea;s de abril de 2024, Porto Alegre/RS sofreu um enorme desastre, sendo </tspan><tspan y="-76.679" x=".0000076293949 5.9976079 10.069927 12.710888 19.182248 25.421769 28.294569 34.53409 40.30843 45.35701 51.596529 57.604207 60.466928 66.22261 71.49295 76.57176 82.56937 88.56696 95.03832 101.03593 106.30627 111.38508 117.624599 123.64086 128.44751 136.3603 142.83167 148.58734 151.46015 157.69968 163.69727 167.31449 172.36305 178.60259 184.35826 190.34578 193.21858 199.45812 205.47438 210.52295 216.27863 221.54897 226.62778 231.66777 238.13913 244.37866 250.36618 256.36378 261.63414 266.71296 269.3539 275.59346 279.66578 285.67347 291.9029 297.15458 303.21266 308.46434 312.08155 316.88819 323.8333 329.8309 334.13508 337.01795 343.01554 348.0742 353.12278 359.12037 363.42454 369.70439 375.68183 381.6794 386.94978 392.0286 398.0262 404.4976 410.73713 413.37809 416.2509 421.50257 427.5304 432.80076 437.87959 443.65394 448.7025 454.71879 459.76737 466.0069 472.0045 478.24403 484.48356 487.1245 493.1221 498.37379 504.43186 510.3992">atingida pelas &#x00e1;guas do Gua&#x00ed;ba, devido &#x00e0;s chuvas intensas. V&#x00e1;rios &#x00f3;rg&#x00e3;os p&#x00fa;blicos e a popula&#x00e7;&#x00e3;o </tspan><tspan y="-64.439" x=".0000076293949 3.5884879 9.586088 13.890248 19.908009 29.7695 34.08374 40.08134 45.12134 47.99414 53.99174 60.463106 66.46071 72.700229 78.69783 83.983 88.085559 94.32507 100.32268 104.62684 110.67809 114.99233 120.74802 124.820339 131.29169 137.28928 141.59343 145.24564 149.31795 153.39028 159.14595 165.61731 169.68964 175.72074 180.03498 185.79065 195.65215 199.96639 205.21807 211.24591 216.49759 222.52544 226.60784 230.91199 236.96324 241.03556 247.03314 252.31832 256.6527 262.64024 265.2812 269.12168 271.99449 281.82249 287.82008 292.89356 297.2078 303.21549 313.0568 317.14927 322.40095 325.07215 328.91264 335.384 341.3816 346.63328 352.69136 358.6922 363.00645 369.24598 375.28715 379.5913 385.83085 391.58653 395.8907 398.77357 405.0131 411.0442 415.35844 421.35606 427.82743 433.5831 440.05448 444.1268 450.1579 454.23023 460.7016 466.7327 471.04695 475.3511 481.12696 484.96745 487.84025 492.1444 498.16218 504.4017 510.3993">foram acionados para atuar, tanto em socorro &#x00e0;s v&#x00ed;timas em situa&#x00e7;&#x00e3;o de perigo quanto na retirada </tspan><tspan y="-52.199007" x=".0000076293949 6.2395279 12.237127 17.513825 22.115164 28.354685 34.362367 39.392286 44.643968 50.671808 56.669408 61.946107 66.54744 72.54504 78.577739 83.12381 88.16381 94.63517 100.632778 105.69779 110.243869 115.495548 121.55363 126.805309 132.56099 137.83769 142.17209 145.04489 151.28443 157.66115 164.1325 170.37204 176.36963 182.60916 188.60675 193.85843 197.27033 201.8164 208.28777 213.32776 218.57944 224.66254 229.17838 234.93405 239.00638 241.64734 247.63486 250.50766 256.7472 262.74479 268.9843 274.992 278.37367 282.91975 286.76023 289.63304 295.87257 298.51353 303.7652 309.82328 319.6311 325.39689 331.6364 335.70875 341.74147 346.28755 352.52708 358.30778 362.85386 370.5348 376.29048 379.87895 385.88664 391.1383 396.93916 401.48524 408.44044 411.31324 417.0689 419.70988 422.58268 426.20628 430.75236 436.00404 441.78996 448.26133 452.33366 458.08934 464.5857 468.89994 472.97227 478.72795 488.55595 494.79548 500.80317 510.39933">das pessoas de suas casas inundadas. Essa atividade, tipicamente de Defesa Civil, contou tamb&#x00e9;m </tspan><tspan y="-39.959009" x=".0000076293949 5.251688 11.279529 21.250262 26.906756 33.04709 38.703584 44.9431 50.9407 55.24486 59.1055 61.9783 67.0183 69.891109 76.13062 82.12823 87.379909 93.43799 99.54808 105.20457 111.444087 117.44169 122.8361 128.51274 131.1537 137.62506 141.46555 147.47322 153.70267 158.00682 164.02458 170.26412 174.33644 180.34412 185.73853 191.41518 197.65471 203.79505 209.45154 215.44915 221.9205 227.91809 232.22225 238.50209 244.38034 250.03684 259.86485 266.10438 272.57575 275.2167 280.46839 283.37144 289.61097 295.36665 298.38218 304.03868 310.2782 316.42863 322.07505 328.07267 334.07026 338.37443 342.45683 348.59715 354.25364 360.977 363.8498 369.85749 376.0869 380.1693">com a participa&#x00e7;&#x00e3;o dos integrantes da guarda municipal de Porto Alegre</tspan></text>
<text xml:space="preserve" transform="matrix(1 0 -0 1 42.38304 274.63697)" font-size="10.08" font-family="Verdana"><tspan y="-39.959009" x="386.177 390.75334 397.75895">/RS</tspan></text>
<text xml:space="preserve" transform="matrix(1 0 -0 1 42.38304 274.63697)" font-size="10.08" font-family="Verdana"><tspan y="-39.959009" x="404.64363 408.37486 414.03135 416.6723 423.14369 428.39537 431.06657 437.53794 442.57795 445.45075 451.43827 457.58869 463.2351 468.99079 475.46217 481.21784 483.8588 486.7316 489.6044 495.36009 501.83146 507.82908">, inclusive auxiliando</tspan><tspan y="-27.698807" x=".00061035159 6.4719707 14.107368 17.792962 23.044642 29.052323 35.33216 41.78336 46.08752 51.863359 58.334718 63.586397 71.01012 78.530948 85.92442 93.44525 99.68477 103.98893 110.00669 114.07901 119.834697 125.08637 131.14446 138.74962 146.27045 152.50998 158.50759 165.18538 172.7062 178.7038 184.94333 189.02573 191.89853 198.13806 204.13567 211.02515 218.57622 225.9697 233.49053 239.73006 245.72766 252.40546 259.92628 262.79908 268.79667 274.04835 279.83427 282.47523 289.3647 296.91575 303.15528 310.54878 318.06959 324.3091 326.95008 332.20176 336.07249 340.37666 343.25953 349.25715 355.72853 358.36949 363.62117 369.67924 377.2844 384.8052 391.04475 398.43824 405.95906 411.95664 414.5976 417.4704 427.06657 433.07426 439.30369 443.376 449.3736 456.26307 463.5722 471.21769 478.7385 484.49418 490.96556 495.03788 499.34205 505.3598 510.3998">na seguran&#x00e7;a e prote&#x00e7;&#x00e3;o dos abrigos e dos locais de distribui&#x00e7;&#x00e3;o de alimentos e outros </tspan><tspan y="-15.458807" x=".00061035159 6.2401306 11.9958109 18.467169 24.47485 28.54717 34.54477 39.796449 45.638345 54.280714 63.213525 66.586719 72.82623 78.82384 83.128 87.210399 89.85136 95.103038 98.00607 104.24559 110.001277 115.25295 121.311038 129.49149 133.5638 139.5614 144.81308 150.87116 156.12284 158.99564 164.75131 171.22267 177.22026 182.30615 186.37847 192.618 200.82869 204.901 210.8986 217.36997 223.36756 227.6717 233.95156 242.14209 245.97249 255.80049 262.04 268.27955 271.15235 276.19236 279.06517 285.3047 291.30229 296.38819 300.4605 306.2162 318.25727 322.08766 328.08525 334.32478 340.32237 343.19517 351.40586 355.47819 361.47578 368.94056 373.04313 379.0407 382.8812 385.754 391.50968 394.38249 400.622 406.6196 412.85914 418.86683 426.3316 430.42408 436.6636 444.6324 448.7047 456.38566 462.39335 465.97175 471.97944 477.2311 485.46195 489.53428 496.25764 499.13044 504.8861 507.7589 510.39988">g&#x00ea;neros. A participa&#x00e7;&#x00e3;o ocasional da guarda municipal em apoio &#x00e0;s atividades de Defesa Civil </tspan><tspan y="-3.2188073" x=".00061798098 6.008298 12.237738 17.489418 23.51726 29.756779 33.829099 38.13326 44.151018 48.223337 54.220937 63.817098 70.05662 76.05422 80.35838 86.376148 89.9243 95.931987 105.73982 109.358539 115.35613 121.82749 127.825099 130.46605 134.05452 136.92733 142.935 148.92253 151.79534 156.83533 159.70813 165.70572 170.9574 177.01548 182.98284 186.5713 192.32698 197.57866 203.8585 209.86618 214.88602 217.75882 221.11547 223.98827 229.23995 235.29802 240.69026">encontra amparo em qual legisla&#x00e7;&#x00e3;o espec&#x00ed;fica? </tspan></text>
<text xml:space="preserve" transform="matrix(1 0 -0 1 85.59914 -519.02206)" font-size="10.08" font-family="Verdana"><tspan y="623.7" x="-42.7996 -35.839578">A)</tspan></text>
<text xml:space="preserve" transform="matrix(1 0 -0 1 85.59914 -519.02206)" font-size="10.08" font-family="ArialMT"><tspan y="623.7" x="-31.5196"> </tspan></text>
<text xml:space="preserve" transform="matrix(1 0 -0 1 85.59914 -519.02206)" font-size="10.08" font-family="Verdana"><tspan y="623.7" x="-28.639599 -22.883917 -16.886317 -11.5943169 -5.5866367 -1.2824764 2.3060039 8.303604 11.660245 16.911927 22.919606 29.199446 35.418806 39.722967 45.740724 51.98024 57.23192 63.289999 66.83816 73.118 79.095439 82.45207 86.52439 90.82855 96.84631 103.08583 108.33751 111.00871 115.08103 121.078639 124.667118 130.42279 140.2508 143.83927 149.59494 152.46775 158.46533 162.0538 168.0514 174.52277 180.95638 183.59734 186.47014 191.72182 197.50774 201.0962 207.10388 212.1338 215.97429 221.97188 228.21141 234.68277 240.68036 243.55316 247.15172 250.57636">Fazer a seguran&#x00e7;a do tr&#x00e2;nsito em via p&#x00fa;blica estadual.  </tspan><tspan y="635.7" x="-42.7996 -35.83962">B)</tspan></text>
<text xml:space="preserve" transform="matrix(1 0 -0 1 85.59914 -519.02206)" font-size="10.08" font-family="ArialMT"><tspan y="635.7" x="-31.5196"> </tspan></text>
<text xml:space="preserve" transform="matrix(1 0 -0 1 85.59914 -519.02206)" font-size="10.08" font-family="Verdana"><tspan y="635.7" x="-28.639599 -22.642 -18.337841 -12.32008 -8.24776 -2.2400799 3.0116006 9.029361 15.02696 18.61544 24.854962 30.852562 36.10424 39.72296 45.72056 51.728239 58.189519 63.4412 66.82808 70.41656 75.668239 81.67592 85.77848 91.766 94.40696 99.65864 105.68648 111.086399 114.68639 120.69408 124.05071 126.69167 133.16303 138.20302 142.27535 148.27294 151.14574 157.14333 162.395 168.42285 174.17853 179.4302 183.04892 189.28845 195.28606 198.87453 207.03932 213.27886 219.75022 222.39118 227.64286 230.5459 236.5435 239.4163 245.41391 249.13639">Prote&#x00e7;&#x00e3;o dos bens, servi&#x00e7;os e instala&#x00e7;&#x00f5;es do Munic&#x00ed;pio. </tspan><tspan y="647.6996" x="-42.7996 -35.839559">C)</tspan></text>
<text xml:space="preserve" transform="matrix(1 0 -0 1 85.59914 -519.02206)" font-size="10.08" font-family="ArialMT"><tspan y="647.6996" x="-31.279599"> </tspan></text>
<text xml:space="preserve" transform="matrix(1 0 -0 1 85.59914 -519.02206)" font-size="10.08" font-family="Verdana"><tspan y="647.6996" x="-28.639599 -22.883917 -20.011116 -14.759436 -9.4573559 -3.7016755 -.8288754 2.0439246 7.335925">Fiscaliza</tspan></text>
<text xml:space="preserve" transform="matrix(1 0 -0 1 85.59914 -519.02206)" font-size="10.08" font-family="Verdana"><tspan y="647.6996" x="13.394001 18.635601 24.683602">&#x00e7;&#x00e3;o</tspan></text>
<text xml:space="preserve" transform="matrix(1 0 -0 1 85.59914 -519.02206)" font-size="10.08" font-family="Verdana"><tspan y="647.6996" x="30.731602"> </tspan></text>
<text xml:space="preserve" transform="matrix(1 0 -0 1 85.59914 -519.02206)" font-size="10.08" font-family="Verdana"><tspan y="647.6996" x="34.279764 40.5596 46.6076">da </tspan></text>
<text xml:space="preserve" transform="matrix(1 0 -0 1 85.59914 -519.02206)" font-size="10.08" font-family="Verdana"><tspan y="647.6996" x="50.185964 56.42548 62.42308 67.46308 73.7026 83.530597 89.53828 95.767719 99.840038 105.83764 111.08932 117.1474 123.11476 126.70324 132.94277 138.94037 143.98036 147.56884 151.87299 157.88066 163.88835 166.76116 171.80115 175.87348 180.17763 186.19539 191.44707 195.06578 201.30532 207.3029 212.3429 215.93137 218.80417 224.80178 228.1584 233.91408 239.16576 242.78447 248.03615 254.064 263.892 269.64768 273.95185 279.23377 282.10658 287.86225 290.73506 295.77507 299.36354 305.60307 311.60066 315.18913 323.58576 329.8253 336.29667 338.93763 344.1893 347.09236 353.08998 355.96278 361.96037 365.55894 369.35197">documenta&#x00e7;&#x00e3;o dos registros das lojas comerciais do Munic&#x00ed;pio.  </tspan><tspan y="659.7198" x="-42.79964 -35.11966">D)</tspan></text>
<text xml:space="preserve" transform="matrix(1 0 -0 1 85.59914 -519.02206)" font-size="10.08" font-family="ArialMT"><tspan y="659.7198" x="-30.55964"> </tspan></text>
<text xml:space="preserve" transform="matrix(1 0 -0 1 85.59914 -519.02206)" font-size="10.08" font-family="Verdana"><tspan y="659.7198" x="-28.63964 -22.642043 -18.337883 -12.320122 -7.0684416 -1.0607615 5.2190787 11.226759 15.530919 19.109318 25.106919 30.14692 34.21924 39.97492 46.44628 51.69796 54.36916 60.35668 66.35429 76.18228 81.937969 88.17748 92.2498 98.257488 101.835887 107.83349 111.42197 117.66148 123.41717 127.48949 131.57189 138.04325 140.6842 147.15557 153.15316 162.98116 168.73683 174.97637 179.04869 185.0463 188.63477 194.8743 200.87189 206.12357 209.51044 215.26612 218.13892 224.1365 229.38819 233.0069 239.0045 245.47586 251.7154 254.35636 257.22917 262.48085 268.26676 273.51844 277.14726 280.83638">Proceder ostensivamente o patrulhamento das vias p&#x00fa;blicas.  </tspan><tspan y="671.7198" x="-42.79964 -36.32008">E)</tspan></text>
<text xml:space="preserve" transform="matrix(1 0 -0 1 85.59914 -519.02206)" font-size="10.08" font-family="ArialMT"><tspan y="671.7198" x="-31.999642"> </tspan></text>
<text xml:space="preserve" transform="matrix(1 0 -0 1 85.59914 -519.02206)" font-size="10.08" font-family="Verdana"><tspan y="671.7198" x="-28.63964 -22.883959 -16.886359 -11.594358 -5.5866787 -1.2825184 2.3059619 7.557642 13.565322 19.583083 26.054442 30.3586 36.134439 42.605798 47.857477 53.643396 57.231878 63.471395 69.468997 73.773159 77.6338 80.5066 85.5466 92.01796 94.89076 100.64645 104.95061 108.55924 114.79876 120.796367 125.836368 129.42484 133.72899 139.73667 144.78675 147.65955 153.89908 159.65476 166.12612 171.1661 174.03891 180.0365 185.28818 188.90689 195.14643 201.14403 206.18402 209.54067 219.61635 225.61396 229.9181 235.93587 242.1754 248.173 252.47716 258.48484 263.76676 267.12339 269.9962 275.99378 281.24546 287.30354 289.91426 295.16593 298.83634">Fazer seguran&#x00e7;a particular das resid&#x00ea;ncias dos moradores locais. </tspan></text>
</g>
</svg>
