<svg xmlns="http://www.w3.org/2000/svg" xmlns:xlink="http://www.w3.org/1999/xlink" xmlns:inkscape="http://www.inkscape.org/namespaces/inkscape" version="1.1" width="595.44" height="841.92" viewBox="0 0 595.44 841.92">
<g>
<text xml:space="preserve" transform="matrix(1 0 -0 1 0 841.92)" font-size="7.92" font-family="Verdana"><tspan y="-795.58" x="42.504 47.541124 52.578245 57.615365 62.652486 68.17272 73.68504 79.197368 84.22656 89.26368 95.259128 101.96736 107.00448 113.00784">945_BASE_NM_DM</tspan></text>
<text xml:space="preserve" transform="matrix(1 0 -0 1 0 841.92)" font-size="7.92" font-family="Verdana"><tspan y="-795.58" x="120.05"> </tspan></text>
<text xml:space="preserve" transform="matrix(1 0 -0 1 0 841.92)" font-size="7.92" font-family="Verdana"><tspan y="-795.58" x="460.51 465.55003 470.59004 474.1886 479.2286 484.26863 487.8672 492.9072 498.1848 503.22483 508.26484 511.13475 516.17477 521.2147 524.8133 529.8533 535.1229 538.7215 543.7615">10/01/2025 15:14:17</tspan></text>
<text xml:space="preserve" transform="matrix(1 0 -0 1 0 841.92)" font-size="10.08" font-family="Verdana"><tspan y="-795.58" x="549.1"> </tspan></text>
<path transform="matrix(1,0,0,-1,0,841.92)" d="M41.064 804.48H554.614V804.95999H41.064Z" fill-rule="evenodd"/>
<text xml:space="preserve" transform="matrix(1 0 -0 1 0 841.92)" font-size="9.12" font-family="Verdana"><tspan y="-25.92" x="42.504 48.26784 53.54832 59.0568 63.6168 69.389759 74.16863 79.44911 84.984958 89.052478 92.17152 97.44288 103.215839 108.72431 114.24191 119.75039 123.343669 128.63327">Execu&#x00e7;&#x00e3;o: Fundatec</tspan></text>
<text xml:space="preserve" transform="matrix(1 0 -0 1 0 841.92)" font-size="9.12" font-family="Verdana"><tspan y="-25.92" x="133.25"> </tspan></text>
<path transform="matrix(1,0,0,-1,0,841.92)" d="M41.064 35.76H554.374V36.24004H41.064Z" fill-rule="evenodd"/>
<text xml:space="preserve" transform="matrix(1 0 -0 1 0 841.92)" font-size="9.12" font-family="Verdana"><tspan y="-14.88" x="250.9 257.85856 264.57087 270.80894 277.04704 284.00559 290.24366 293.3627 300.80464 307.51695 314.23838 317.84077 324.31596 327.91835 333.4177 339.65577">GUARDA MUNICIPAL</tspan></text>
<text xml:space="preserve" transform="matrix(1 0 -0 1 0 841.92)" font-size="9.12" font-family="Verdana"><tspan y="-14.88" x="344.54"> </tspan></text>
<text xml:space="preserve" transform="matrix(1 0 -0 1 0 841.92)" font-size="10.08" font-family="Verdana" font-weight="bold"><tspan y="-783.82" x="42.504 51.13248 59.31744 66.01056 73.1976 79.92096 87.60192 96.2304 100.776477 107.96351 115.15054">QUEST&#x00c3;O 06 </tspan></text>
<text xml:space="preserve" transform="matrix(1 0 -0 1 0 841.92)" font-size="10.08" font-family="Verdana" font-weight="bold"><tspan y="-783.82" x="119.81">&#x2013;</tspan></text>
<text xml:space="preserve" transform="matrix(1 0 -0 1 0 841.92)" font-size="10.08" font-family="Verdana" font-weight="bold"><tspan y="-783.82" x="127.01"> </tspan></text>
<text xml:space="preserve" transform="matrix(1 0 -0 1 0 841.92)" font-size="10.08" font-family="Verdana"><tspan y="-783.82" x="131.57 138.29337 144.76473 150.76232 153.40328 156.27608 161.52776 167.31368">Analise </tspan></text>
<text xml:space="preserve" transform="matrix(1 0 -0 1 0 841.92)" font-size="10.08" font-family="Verdana"><tspan y="-783.82" x="172.15 178.1476 182.9356 188.94327 198.75112 205.03096 209.0932 215.10088 221.33032 227.32793 232.11592 238.35546 244.35305 249.14104 255.38057 261.37818 264.25099 270.24858 276.00425 280.3084 286.08427">o emprego da palavra </tspan></text>
<text xml:space="preserve" transform="matrix(1 0 -0 1 0 841.92)" font-size="10.08" font-family="Verdana"><tspan y="-783.82" x="291 295.55616 301.7957 307.79328 313.04496 318.34706 324.34465 330.58418 336.59187 339.22276 343.52693 349.54469 354.10084">&#x201c;passageira&#x201d; </tspan></text>
<text xml:space="preserve" transform="matrix(1 0 -0 1 0 841.92)" font-size="10.08" font-family="Verdana"><tspan y="-783.82" x="358.94 365.41139 371.40898 376.66065 381.47889 387.7184 393.4741 396.3469 401.59858 406.1749 410.24723 414.5514 420.55909 425.60917 432.08055 438.07814">nos dois trechos</tspan></text>
<text xml:space="preserve" transform="matrix(1 0 -0 1 0 841.92)" font-size="10.08" font-family="Verdana"><tspan y="-783.82" x="443.45"> </tspan></text>
<text xml:space="preserve" transform="matrix(1 0 -0 1 0 841.92)" font-size="10.08" font-family="Verdana"><tspan y="-783.82" x="448.25 454.2476 460.48713 466.2428 469.1156 475.10313 481.1007 484.69929 489.48728 495.49497 501.25065 505.32298 509.62715 515.403 518.2758 524.5153 530.5129 535.7646 540.5828 546.8223">abaixo, extra&#x00ed;dos do</tspan></text>
<text xml:space="preserve" transform="matrix(1 0 -0 1 0 841.92)" font-size="10.08" font-family="Verdana"><tspan y="-783.82" x="552.94"> </tspan></text>
<text xml:space="preserve" transform="matrix(1 0 -0 1 0 841.92)" font-size="10.08" font-family="Verdana"><tspan y="-771.58" x="42.504 46.57632 52.584 58.33968 62.412 68.4096 72.985919">texto: </tspan></text>
<text xml:space="preserve" transform="matrix(1 0 -0 1 0 841.92)" font-size="10.08" font-family="Verdana"><tspan y="-771.58" x="76.344"> </tspan></text>
<text xml:space="preserve" transform="matrix(1 0 -0 1 0 841.92)" font-size="10.08" font-family="Verdana"><tspan y="-759.34" x="42.504"> </tspan></text>
<text xml:space="preserve" transform="matrix(1 0 -0 1 0 841.92)" font-size="10.08" font-family="Verdana"><tspan y="-747.34" x="48.744 53.06398">I.</tspan></text>
<text xml:space="preserve" transform="matrix(1 0 -0 1 0 841.92)" font-size="10.08" font-family="ArialMT"><tspan y="-747.34" x="56.664"> </tspan></text>
<text xml:space="preserve" transform="matrix(1 0 -0 1 0 841.92)" font-size="10.08" font-family="Verdana"><tspan y="-747.34" x="63.864">&#x201c;</tspan></text>
<text xml:space="preserve" transform="matrix(1 0 -0 1 0 841.92)" font-size="10.08" font-family="Verdana"><tspan y="-747.34" x="68.424 75.369129 78.9576 85.19712 88.06992 93.109928 97.18224 103.17985 107.48401 110.36689 116.122577 119.71105 125.95057 131.94817 135.53664 141.77617 147.77376 152.81375 158.06543 164.1235 170.3328 176.34047 178.97135 183.2755 189.29326 192.88173 198.87934 205.3507 211.35837 214.71501 219.96669 225.97437 229.58301 233.88716 239.663 244.91468 251.18444 256.43614 262.46397 268.93534 272.5238 278.27949">A hist&#x00f3;ria da passageira que se recusou a </tspan></text>
<text xml:space="preserve" transform="matrix(1 0 -0 1 0 841.92)" font-size="10.08" font-family="Verdana"><tspan y="-747.34" x="282.12 288.11759 291.70606 297.71376 302.0179 307.7837 313.03538 319.04307 323.37748 326.96595 332.96354 336.552 342.5496 347.5896 352.84129 358.6272 365.09858 369.1709">oferecer o assento</tspan></text>
<text xml:space="preserve" transform="matrix(1 0 -0 1 0 841.92)" font-size="10.08" font-family="Verdana"><tspan y="-747.34" x="375.26 379.82005">&#x201d;.</tspan></text>
<text xml:space="preserve" transform="matrix(1 0 -0 1 0 841.92)" font-size="10.08" font-family="Verdana"><tspan y="-747.34" x="383.18"> </tspan></text>
<text xml:space="preserve" transform="matrix(1 0 -0 1 0 841.92)" font-size="10.08" font-family="Verdana"><tspan y="-735.1" x="44.664 48.983983 53.303964">II.</tspan></text>
<text xml:space="preserve" transform="matrix(1 0 -0 1 0 841.92)" font-size="10.08" font-family="ArialMT"><tspan y="-735.1" x="56.664"> </tspan></text>
<text xml:space="preserve" transform="matrix(1 0 -0 1 0 841.92)" font-size="10.08" font-family="Verdana"><tspan y="-735.1" x="63.864">&#x201c;</tspan></text>
<text xml:space="preserve" transform="matrix(1 0 -0 1 0 841.92)" font-size="10.08" font-family="Verdana"><tspan y="-735.1" x="68.424 75.369129 78.9576 84.20928 90.23712 100.06512 106.304637 112.30224 116.6064 122.38224 127.63392 133.692 139.65937 143.24784 149.48737 155.49504 158.85169 164.10337 170.11104 176.1288 182.60016 185.47296 191.7125 197.7101 202.01425 207.79009 213.04177 216.66048 222.90001 228.65569 232.24416 238.48369 248.31169 254.30928 257.89778 262.93778 269.40916 275.64869 280.90037 286.68629 289.55909 295.56678 301.7962 305.8786 308.51957 314.7591 320.75669 326.99623 333.0039 336.5823 341.6223 348.0937 351.45036 357.44795 361.0364 364.62489 370.62248 380.45048 386.20616 389.79463 395.8023 399.3807 405.62025 411.37593 416.6276 421.9297 427.92729 434.1668 439.9225 442.7953 447.09947">A compara&#x00e7;&#x00e3;o de seguidores de uma subcelebridade cuja fama &#x00e9; passageira</tspan></text>
<text xml:space="preserve" transform="matrix(1 0 -0 1 0 841.92)" font-size="10.08" font-family="Verdana"><tspan y="-735.1" x="453.53">&#x201d;</tspan></text>
<text xml:space="preserve" transform="matrix(1 0 -0 1 0 841.92)" font-size="10.08" font-family="Verdana"><tspan y="-735.1" x="458.09">.</tspan></text>
<text xml:space="preserve" transform="matrix(1 0 -0 1 0 841.92)" font-size="10.08" font-family="Verdana"><tspan y="-735.1" x="461.47"> </tspan></text>
<text xml:space="preserve" transform="matrix(1 0 -0 1 0 841.92)" font-size="10.08" font-family="Verdana"><tspan y="-723.1" x="42.504"> </tspan></text>
<text xml:space="preserve" transform="matrix(1 0 -0 1 0 841.92)" font-size="10.08" font-family="Verdana"><tspan y="-710.83" x="42.504 49.44912 55.44672 61.686239 65.990398 71.99808 75.36479 81.3624 86.614078 90.00095 94.07327 98.15567 104.16335 109.41503 115.90655 121.66223">Sobre os trechos</tspan></text>
<text xml:space="preserve" transform="matrix(1 0 -0 1 0 841.92)" font-size="10.08" font-family="Verdana"><tspan y="-710.83" x="127.01"> </tspan></text>
<text xml:space="preserve" transform="matrix(1 0 -0 1 0 841.92)" font-size="10.08" font-family="Verdana"><tspan y="-710.83" x="130.37 136.36759 141.61927 144.29047 154.11847">acima</tspan></text>
<text xml:space="preserve" transform="matrix(1 0 -0 1 0 841.92)" font-size="10.08" font-family="Verdana"><tspan y="-710.83" x="160.15 163.74855 167.1052 173.10279 179.57415 185.32982 188.20262 190.84358 196.09526 202.10294 205.47974 211.47733 216.729 220.11588 226.11347 231.36515 236.43538 242.44306 246.74721 250.59778 253.47058 259.4581 265.21379 270.46546 273.85234 279.8499 283.20655 288.45823 294.4659 300.74577 306.96513 309.83793 314.1421 317.7608 321.11744 327.11503 332.3667 337.43696 340.0779 346.5493 352.54689 355.41969 361.17536 367.64674 373.88627 379.88386 383.24049 390.1856 393.78419 397.1408 402.3925 408.40019 411.77699 417.53266 423.54035 427.8445 434.09413 440.0917 446.33125 452.0869 454.95973 459.2639 465.28166 470.53334 474.16215 477.51878 483.51637 489.98774 493.34437 499.10005 502.6986 506.05525 511.09526 517.1029 520.45956 523.81619 529.8138 532.6866 537.9383 543.9964 549.2481">, analise as assertivas a seguir, assinalando V, se verdadeiras, ou F, se falsas.</tspan></text>
<text xml:space="preserve" transform="matrix(1 0 -0 1 0 841.92)" font-size="10.08" font-family="Verdana"><tspan y="-710.83" x="552.94"> </tspan></text>
<text xml:space="preserve" transform="matrix(1 0 -0 1 0 841.92)" font-size="10.08" font-family="Verdana"><tspan y="-698.59" x="42.504"> </tspan></text>
<text xml:space="preserve" transform="matrix(1 0 -0 1 0 841.92)" font-size="10.08" font-family="Verdana"><tspan y="-686.59" x="42.504 47.080324 50.658723 54.247205">(  )</tspan></text>
<text xml:space="preserve" transform="matrix(1 0 -0 1 0 841.92)" font-size="10.08" font-family="ArialMT"><tspan y="-686.59" x="58.584"> </tspan></text>
<text xml:space="preserve" transform="matrix(1 0 -0 1 0 841.92)" font-size="10.08" font-family="Verdana"><tspan y="-686.59" x="63.864 70.80912 74.3976 80.637119 86.63472 89.50752 95.26321 101.250728 105.554889 111.57265 115.161128 119.717288 125.9568 131.71248 136.96416 142.26624 148.26383 154.50336 160.25904 163.13184 167.43599 173.45375 178.00992 181.59839 185.18686 190.94254 193.81534 197.40381 203.15949 212.98749 219.22702 223.53118 229.53885 235.78845 241.78604 248.02558 253.78125 257.36973 262.6214 268.64924 278.47724 281.83387 287.08555 292.87147 299.34284 303.18333 305.82429 312.0638 318.0614">A palavra &#x201c;passageira&#x201d; foi empregada com sentido </tspan></text>
<text xml:space="preserve" transform="matrix(1 0 -0 1 0 841.92)" font-size="10.08" font-family="Verdana"><tspan y="-686.59" x="321.96 328.19953 331.07234 334.6608 340.6685 344.7408 350.7485 356.97795 361.05027 367.05796 370.41459 376.88597 382.88356 387.92356 391.51203 397.75157 404.22294 409.9786 415.2303 418.849 423.889 426.7618 430.6023 437.07368 443.07127 448.32295 454.35078 460.10646 465.35813">diferente nas duas situa&#x00e7;&#x00f5;es.</tspan></text>
<text xml:space="preserve" transform="matrix(1 0 -0 1 0 841.92)" font-size="10.08" font-family="Verdana"><tspan y="-686.59" x="469.15"> </tspan></text>
<text xml:space="preserve" transform="matrix(1 0 -0 1 0 841.92)" font-size="10.08" font-family="Verdana"><tspan y="-674.35" x="42.504 47.080324 50.658723 54.247205">(  )</tspan></text>
<text xml:space="preserve" transform="matrix(1 0 -0 1 0 841.92)" font-size="10.08" font-family="ArialMT"><tspan y="-674.35" x="58.584"> </tspan></text>
<text xml:space="preserve" transform="matrix(1 0 -0 1 0 841.92)" font-size="10.08" font-family="Verdana"><tspan y="-674.35" x="63.864 71.30304 77.300647 80.88912 86.1408 89.04384 92.884319 99.355678 105.35328 110.60496 116.66304 122.6304 126.21888 130.53311 134.13167 137.72014 143.71773 147.3062 153.54573 159.54332 162.41613 168.1718 174.15932 178.46347 184.48123 188.0697 193.1097 195.9825 202.22203 208.46157 211.33437 214.69101 217.56381 222.81549 228.87357 232.42173 238.20764 241.08045 247.31998 253.31758 256.90608 263.1456 269.61698 275.62467">Na situa&#x00e7;&#x00e3;o I, a palavra significa algo que </tspan></text>
<text xml:space="preserve" transform="matrix(1 0 -0 1 0 841.92)" font-size="10.08" font-family="Verdana"><tspan y="-674.35" x="279.48 285.47764 291.949 296.25318 302.27095 305.62757 311.8671 317.8647 324.33607 329.58775">dura pouco</tspan></text>
<text xml:space="preserve" transform="matrix(1 0 -0 1 0 841.92)" font-size="10.08" font-family="Verdana"><tspan y="-674.35" x="335.64">,</tspan></text>
<text xml:space="preserve" transform="matrix(1 0 -0 1 0 841.92)" font-size="10.08" font-family="Verdana"><tspan y="-674.35" x="339.26"> </tspan></text>
<text xml:space="preserve" transform="matrix(1 0 -0 1 0 841.92)" font-size="10.08" font-family="Verdana"><tspan y="-674.35" x="342.86 348.86769 352.44609 358.91746 364.91505 368.5035 372.5859 376.90016 380.49873 384.0872 388.39137 394.39906 397.99763 403.7533 408.05747">e na II, refere</tspan></text>
<text xml:space="preserve" transform="matrix(1 0 -0 1 0 841.92)" font-size="10.08" font-family="Verdana"><tspan y="-674.35" x="414.17">-</tspan></text>
<text xml:space="preserve" transform="matrix(1 0 -0 1 0 841.92)" font-size="10.08" font-family="Verdana"><tspan y="-674.35" x="418.73 423.9817 429.98939 433.59803 439.5956 443.18409 449.4236 455.1793 460.43098 465.73307 471.73066 477.72825 481.3167 487.55625 494.02763 500.0353 503.39195 509.8633 513.7038 516.3447 519.2175 522.09036 527.3823 533.3699 536.7265 542.966 552.794">se &#x00e0; pessoa que utiliza um </tspan></text>
<text xml:space="preserve" transform="matrix(1 0 -0 1 0 841.92)" font-size="10.08" font-family="Verdana"><tspan y="-662.11" x="63.864 73.69199 79.69968 82.56239 88.56 92.148479 98.14607 104.153759 107.732158 111.57263 115.87679 121.894557 128.13408 133.38576 139.6656 145.65312 149.95728 154.03969 160.04737">meio de transporte.</tspan></text>
<text xml:space="preserve" transform="matrix(1 0 -0 1 0 841.92)" font-size="10.08" font-family="Verdana"><tspan y="-662.11" x="163.51"> </tspan></text>
<text xml:space="preserve" transform="matrix(1 0 -0 1 0 841.92)" font-size="10.08" font-family="Verdana"><tspan y="-650.11" x="42.504 47.080324 50.658723 54.247205">(  )</tspan></text>
<text xml:space="preserve" transform="matrix(1 0 -0 1 0 841.92)" font-size="10.08" font-family="ArialMT"><tspan y="-650.11" x="58.584"> </tspan></text>
<text xml:space="preserve" transform="matrix(1 0 -0 1 0 841.92)" font-size="10.08" font-family="Verdana"><tspan y="-650.11" x="63.864 71.30304 77.300647 80.88912 86.1408 88.812007 92.88432 99.35568 105.11137 110.363048 116.42113 122.38849 125.97697 130.2912 133.88976">Na situa&#x00e7;&#x00e3;o I, </tspan></text>
<text xml:space="preserve" transform="matrix(1 0 -0 1 0 841.92)" font-size="10.08" font-family="Verdana"><tspan y="-650.11" x="137.57 143.32569 146.91416 153.15369 159.15128 162.02408 168.02167 173.77735 178.0815 184.09926 187.68773 193.4434 197.03188 203.27141 213.09941 216.68788 221.72788 228.19924 234.43877 239.47876 243.55109 249.30677 255.77812 259.6186 262.4914 268.4789 274.4765">a palavra &#x00e9; um substantivo,</tspan></text>
<text xml:space="preserve" transform="matrix(1 0 -0 1 0 841.92)" font-size="10.08" font-family="Verdana"><tspan y="-650.11" x="278.28"> </tspan></text>
<text xml:space="preserve" transform="matrix(1 0 -0 1 0 841.92)" font-size="10.08" font-family="Verdana"><tspan y="-650.11" x="281.88 287.8877 291.24433 297.7157 303.7133 307.06993 311.38417 315.6984 319.29698">e na II, </tspan></text>
<text xml:space="preserve" transform="matrix(1 0 -0 1 0 841.92)" font-size="10.08" font-family="Verdana"><tspan y="-650.11" x="322.68 329.15138 338.74754 342.336 348.3336 354.57313 357.92979 363.93748 367.76789 370.6407 376.6282">um adjetivo</tspan></text>
<text xml:space="preserve" transform="matrix(1 0 -0 1 0 841.92)" font-size="10.08" font-family="Verdana"><tspan y="-650.11" x="382.7">.</tspan></text>
<text xml:space="preserve" transform="matrix(1 0 -0 1 0 841.92)" font-size="10.08" font-family="Verdana"><tspan y="-650.11" x="386.06"> </tspan></text>
<text xml:space="preserve" transform="matrix(1 0 -0 1 0 841.92)" font-size="10.08" font-family="Verdana"><tspan y="-637.87" x="60.504"> </tspan></text>
<text xml:space="preserve" transform="matrix(1 0 -0 1 0 841.92)" font-size="10.08" font-family="Verdana"><tspan y="-625.61" x="42.504 49.44912 53.0376 59.035203 63.339365 69.6192 75.35472 85.18272 88.771198 94.02287 100.05071 104.35487 108.44736 114.45504 118.51728 124.514888 128.10337 134.10097 140.10865 143.68704 149.92658 154.23073 160.00656 166.01424 172.24369 177.49536 183.76512 186.63793 196.46593 202.2216 208.46114 212.53347 218.53107 222.11954 228.35907 234.35668 239.60836">A ordem correta de preenchimento dos </tspan></text>
<text xml:space="preserve" transform="matrix(1 0 -0 1 0 841.92)" font-size="10.08" font-family="Verdana"><tspan y="-625.61" x="243.46 249.69954 255.69713 259.7795 265.7872 272.01664 276.08897 282.09666 287.12657 293.13426 298.38594 302.00465 305.5931 311.83265 317.84034 321.19697 326.44865 329.11985 338.94786 344.94544 348.5339 354.77345 360.77104 365.0752 370.85105 374.4395 380.67906 386.67665 389.54945 395.53697 401.53456 405.13313 408.48976 414.49745">par&#x00ea;nteses, de cima para baixo, &#x00e9;:</tspan></text>
<text xml:space="preserve" transform="matrix(1 0 -0 1 0 841.92)" font-size="10.08" font-family="Verdana"><tspan y="-625.61" x="418.97"> </tspan></text>
<text xml:space="preserve" transform="matrix(1 0 -0 1 0 841.92)" font-size="10.08" font-family="Verdana"><tspan y="-613.61" x="42.504"> </tspan></text>
<text xml:space="preserve" transform="matrix(1 0 -0 1 0 841.92)" font-size="10.08" font-family="Verdana"><tspan y="-601.37" x="42.504 49.46402">A)</tspan></text>
<text xml:space="preserve" transform="matrix(1 0 -0 1 0 841.92)" font-size="10.08" font-family="ArialMT"><tspan y="-601.37" x="53.784"> </tspan></text>
<text xml:space="preserve" transform="matrix(1 0 -0 1 0 841.92)" font-size="10.08" font-family="Verdana"><tspan y="-601.37" x="56.664 62.424005">F </tspan></text>
<text xml:space="preserve" transform="matrix(1 0 -0 1 0 841.92)" font-size="10.08" font-family="Verdana"><tspan y="-601.37" x="66.024">&#x2013;</tspan></text>
<text xml:space="preserve" transform="matrix(1 0 -0 1 0 841.92)" font-size="10.08" font-family="Verdana"><tspan y="-601.37" x="72.504"> </tspan></text>
<text xml:space="preserve" transform="matrix(1 0 -0 1 0 841.92)" font-size="10.08" font-family="Verdana"><tspan y="-601.37" x="75.864 82.82402">V </tspan></text>
<text xml:space="preserve" transform="matrix(1 0 -0 1 0 841.92)" font-size="10.08" font-family="Verdana"><tspan y="-601.37" x="86.184">&#x2013;</tspan></text>
<text xml:space="preserve" transform="matrix(1 0 -0 1 0 841.92)" font-size="10.08" font-family="Verdana"><tspan y="-601.37" x="92.688"> </tspan></text>
<text xml:space="preserve" transform="matrix(1 0 -0 1 0 841.92)" font-size="10.08" font-family="Verdana"><tspan y="-601.37" x="96.048 103.00802">V.</tspan></text>
<text xml:space="preserve" transform="matrix(1 0 -0 1 0 841.92)" font-size="10.08" font-family="Verdana"><tspan y="-601.37" x="106.61"> </tspan></text>
<text xml:space="preserve" transform="matrix(1 0 -0 1 0 841.92)" font-size="10.08" font-family="Verdana"><tspan y="-589.13" x="42.504 49.46398">B)</tspan></text>
<text xml:space="preserve" transform="matrix(1 0 -0 1 0 841.92)" font-size="10.08" font-family="ArialMT"><tspan y="-589.13" x="53.784"> </tspan></text>
<text xml:space="preserve" transform="matrix(1 0 -0 1 0 841.92)" font-size="10.08" font-family="Verdana"><tspan y="-589.13" x="56.664 62.424005">F </tspan></text>
<text xml:space="preserve" transform="matrix(1 0 -0 1 0 841.92)" font-size="10.08" font-family="Verdana"><tspan y="-589.13" x="66.024">&#x2013;</tspan></text>
<text xml:space="preserve" transform="matrix(1 0 -0 1 0 841.92)" font-size="10.08" font-family="Verdana"><tspan y="-589.13" x="72.504"> </tspan></text>
<text xml:space="preserve" transform="matrix(1 0 -0 1 0 841.92)" font-size="10.08" font-family="Verdana"><tspan y="-589.13" x="75.864 82.82402">V </tspan></text>
<text xml:space="preserve" transform="matrix(1 0 -0 1 0 841.92)" font-size="10.08" font-family="Verdana"><tspan y="-589.13" x="86.184">&#x2013;</tspan></text>
<text xml:space="preserve" transform="matrix(1 0 -0 1 0 841.92)" font-size="10.08" font-family="Verdana"><tspan y="-589.13" x="92.688"> </tspan></text>
<text xml:space="preserve" transform="matrix(1 0 -0 1 0 841.92)" font-size="10.08" font-family="Verdana"><tspan y="-589.13" x="96.288 102.048007">F.</tspan></text>
<text xml:space="preserve" transform="matrix(1 0 -0 1 0 841.92)" font-size="10.08" font-family="Verdana"><tspan y="-589.13" x="105.41"> </tspan></text>
<text xml:space="preserve" transform="matrix(1 0 -0 1 0 841.92)" font-size="10.08" font-family="Verdana"><tspan y="-577.13" x="42.504 49.464044">C)</tspan></text>
<text xml:space="preserve" transform="matrix(1 0 -0 1 0 841.92)" font-size="10.08" font-family="ArialMT"><tspan y="-577.13" x="54.024"> </tspan></text>
<text xml:space="preserve" transform="matrix(1 0 -0 1 0 841.92)" font-size="10.08" font-family="Verdana"><tspan y="-577.13" x="56.664 62.424005">F </tspan></text>
<text xml:space="preserve" transform="matrix(1 0 -0 1 0 841.92)" font-size="10.08" font-family="Verdana"><tspan y="-577.13" x="66.024">&#x2013;</tspan></text>
<text xml:space="preserve" transform="matrix(1 0 -0 1 0 841.92)" font-size="10.08" font-family="Verdana"><tspan y="-577.13" x="72.504"> </tspan></text>
<text xml:space="preserve" transform="matrix(1 0 -0 1 0 841.92)" font-size="10.08" font-family="Verdana"><tspan y="-577.13" x="76.104 81.62399">F </tspan></text>
<text xml:space="preserve" transform="matrix(1 0 -0 1 0 841.92)" font-size="10.08" font-family="Verdana"><tspan y="-577.13" x="85.224">&#x2013;</tspan></text>
<text xml:space="preserve" transform="matrix(1 0 -0 1 0 841.92)" font-size="10.08" font-family="Verdana"><tspan y="-577.13" x="91.488"> </tspan></text>
<text xml:space="preserve" transform="matrix(1 0 -0 1 0 841.92)" font-size="10.08" font-family="Verdana"><tspan y="-577.13" x="95.088 102.04802">V.</tspan></text>
<text xml:space="preserve" transform="matrix(1 0 -0 1 0 841.92)" font-size="10.08" font-family="Verdana"><tspan y="-577.13" x="105.41"> </tspan></text>
<text xml:space="preserve" transform="matrix(1 0 -0 1 0 841.92)" font-size="10.08" font-family="Verdana"><tspan y="-564.89" x="42.504 50.183984">D)</tspan></text>
<text xml:space="preserve" transform="matrix(1 0 -0 1 0 841.92)" font-size="10.08" font-family="ArialMT"><tspan y="-564.89" x="54.744"> </tspan></text>
<text xml:space="preserve" transform="matrix(1 0 -0 1 0 841.92)" font-size="10.08" font-family="Verdana"><tspan y="-564.89" x="56.664 63.624025">V </tspan></text>
<text xml:space="preserve" transform="matrix(1 0 -0 1 0 841.92)" font-size="10.08" font-family="Verdana"><tspan y="-564.89" x="67.224">&#x2013;</tspan></text>
<text xml:space="preserve" transform="matrix(1 0 -0 1 0 841.92)" font-size="10.08" font-family="Verdana"><tspan y="-564.89" x="73.464"> </tspan></text>
<text xml:space="preserve" transform="matrix(1 0 -0 1 0 841.92)" font-size="10.08" font-family="Verdana"><tspan y="-564.89" x="77.064 82.824008">F </tspan></text>
<text xml:space="preserve" transform="matrix(1 0 -0 1 0 841.92)" font-size="10.08" font-family="Verdana"><tspan y="-564.89" x="86.184">&#x2013;</tspan></text>
<text xml:space="preserve" transform="matrix(1 0 -0 1 0 841.92)" font-size="10.08" font-family="Verdana"><tspan y="-564.89" x="92.688"> </tspan></text>
<text xml:space="preserve" transform="matrix(1 0 -0 1 0 841.92)" font-size="10.08" font-family="Verdana"><tspan y="-564.89" x="96.048 103.00802">V.</tspan></text>
<text xml:space="preserve" transform="matrix(1 0 -0 1 0 841.92)" font-size="10.08" font-family="Verdana"><tspan y="-564.89" x="106.61"> </tspan></text>
<text xml:space="preserve" transform="matrix(1 0 -0 1 0 841.92)" font-size="10.08" font-family="Verdana"><tspan y="-552.86" x="42.504 48.983564">E)</tspan></text>
<text xml:space="preserve" transform="matrix(1 0 -0 1 0 841.92)" font-size="10.08" font-family="ArialMT"><tspan y="-552.86" x="53.304"> </tspan></text>
<text xml:space="preserve" transform="matrix(1 0 -0 1 0 841.92)" font-size="10.08" font-family="Verdana"><tspan y="-552.86" x="56.664 63.624025">V </tspan></text>
<text xml:space="preserve" transform="matrix(1 0 -0 1 0 841.92)" font-size="10.08" font-family="Verdana"><tspan y="-552.86" x="67.224">&#x2013;</tspan></text>
<text xml:space="preserve" transform="matrix(1 0 -0 1 0 841.92)" font-size="10.08" font-family="Verdana"><tspan y="-552.86" x="73.464"> </tspan></text>
<text xml:space="preserve" transform="matrix(1 0 -0 1 0 841.92)" font-size="10.08" font-family="Verdana"><tspan y="-552.86" x="77.064 83.78372">V </tspan></text>
<text xml:space="preserve" transform="matrix(1 0 -0 1 0 841.92)" font-size="10.08" font-family="Verdana"><tspan y="-552.86" x="87.384">&#x2013;</tspan></text>
<text xml:space="preserve" transform="matrix(1 0 -0 1 0 841.92)" font-size="10.08" font-family="Verdana"><tspan y="-552.86" x="93.888"> </tspan></text>
<text xml:space="preserve" transform="matrix(1 0 -0 1 0 841.92)" font-size="10.08" font-family="Verdana"><tspan y="-552.86" x="97.248 103.008">F.</tspan></text>
<text xml:space="preserve" transform="matrix(1 0 -0 1 0 841.92)" font-size="10.08" font-family="Verdana"><tspan y="-552.86" x="106.61"> </tspan></text>
<text xml:space="preserve" transform="matrix(1 0 -0 1 0 841.92)" font-size="10.08" font-family="Verdana"><tspan y="-540.62" x="42.504"> </tspan></text>
<path transform="matrix(1,0,0,-1,0,841.92)" d="M41.064 537.02H554.374V537.5H41.064Z" fill-rule="evenodd"/>
<path transform="matrix(1,0,0,-1,0,841.92)" d="M41.064 413.88H554.374V414.36003H41.064Z" fill-rule="evenodd"/>
<text xml:space="preserve" transform="matrix(1 0 -0 1 0 841.92)" font-size="10.08" font-family="Verdana"><tspan y="-355.3" x="48.744 53.06398">I.</tspan></text>
<text xml:space="preserve" transform="matrix(1 0 -0 1 0 841.92)" font-size="10.08" font-family="ArialMT"><tspan y="-355.3" x="56.664"> </tspan></text>
<text xml:space="preserve" transform="matrix(1 0 -0 1 0 841.92)" font-size="10.08" font-family="Verdana"><tspan y="-355.3" x="63.864 70.80912 75.12336 81.36288 87.36048 90.233287 95.98897 101.97649 106.28065 112.29841 116.61265 121.16881 126.92449 129.79729 135.7848 141.54048 148.01184 153.05184 155.92464 161.92223 167.1739 171.76032 175.35887 179.67311 184.92479 190.98287 196.23455 202.23215 206.54639 212.54399 216.85823 222.85582 228.1075 233.89342 240.13295 244.20528 250.20288">A palavra &#x201c;viv&#x00ea;ncias&#x201d;, caso o acento </tspan></text>
<text xml:space="preserve" transform="matrix(1 0 -0 1 0 841.92)" font-size="10.08" font-family="Verdana"><tspan y="-355.3" x="254.74 259.9917 262.6629 266.96708 272.249 278.48854 284.9599 288.31654 291.18934 296.945 302.93254 308.9301 313.24436 316.83283 322.8304 328.0821 333.3842 339.39189 343.69606 348.73606 355.20744 361.44697 365.52937 368.40217 377.99833 380.87113 387.11067">circunflexo fosse suprimido</tspan></text>
<text xml:space="preserve" transform="matrix(1 0 -0 1 0 841.92)" font-size="10.08" font-family="Verdana"><tspan y="-355.3" x="393.26 396.85859 401.17283 404.7613 410.75889 415.06306 424.9112 430.66688 434.97105 437.8539 443.8515 447.92384 454.3952 464.2232 468.29554 474.28306 480.29075 484.5949 490.8445 496.8421 501.15635 506.40803 512.1939 518.6652 522.02188 528.49319 534.73269 540.7303 546.9698 552.72549">, formaria um verbo conjugado </tspan></text>
<text xml:space="preserve" transform="matrix(1 0 -0 1 0 841.92)" font-size="10.08" font-family="Verdana"><tspan y="-343.06" x="63.864 70.33536 76.33296 79.92144 85.17312 91.1808 97.19856 103.43808 109.90944 116.14896 122.14656 125.73504 131.97457 137.73024 142.98192 148.284 154.2816 160.27919 163.86766 170.1072 176.1048 179.69327 184.73326 187.37422 193.84558 200.08512 206.32465 209.19745 215.19504 219.49919 222.87599 227.45232 231.27265 237.744 242.32033">na segunda pessoa do singular (tu).</tspan></text>
<text xml:space="preserve" transform="matrix(1 0 -0 1 0 841.92)" font-size="10.08" font-family="Verdana"><tspan y="-343.06" x="245.86"> </tspan></text>
<text xml:space="preserve" transform="matrix(1 0 -0 1 0 841.92)" font-size="10.08" font-family="Verdana"><tspan y="-306.55" x="40.344 44.663984 48.983964 53.303945">III.</tspan></text>
<text xml:space="preserve" transform="matrix(1 0 -0 1 0 841.92)" font-size="10.08" font-family="ArialMT"><tspan y="-306.55" x="56.664"> </tspan></text>
<text xml:space="preserve" transform="matrix(1 0 -0 1 0 841.92)" font-size="10.08" font-family="Verdana"><tspan y="-306.55" x="63.864 70.80912 74.3976 77.98608 83.98368 88.06608 97.89407 103.89168 107.480159 113.23584 119.24352 123.54768 129.79729 135.79488 138.43584 142.0243 146.58048 152.58815 157.14432 160.74288 164.33135 169.58303 175.6411 180.89278 186.89038 190.47885 196.23453 199.823 205.82059 211.07227 216.85819 223.32955 227.40187 233.39948 236.98795 242.98554 248.98314 255.4545 261.69404">A forma verbal &#x201c;&#x00e9;&#x201d;, caso o acento agudo</tspan></text>
<text xml:space="preserve" transform="matrix(1 0 -0 1 0 841.92)" font-size="10.08" font-family="Verdana"><tspan y="-306.55" x="267.94"> </tspan></text>
<text xml:space="preserve" transform="matrix(1 0 -0 1 0 841.92)" font-size="10.08" font-family="Verdana"><tspan y="-306.55" x="271.54 275.12849 281.12608 286.16609 291.41777 297.42546 300.80226 305.84226 312.31364 318.55317 322.85734 325.50837 335.10453 337.97734 344.21687">fosse suprimido</tspan></text>
<text xml:space="preserve" transform="matrix(1 0 -0 1 0 841.92)" font-size="10.08" font-family="Verdana"><tspan y="-306.55" x="350.3 353.89857 357.48704 361.0755 367.0731 371.37727 381.2254 387.223 391.3054 394.1782 400.17579 403.76426 409.51994 413.1084 418.36009 424.3879 430.85929 433.9841 440.45549 446.695 451.9467 458.00477 463.9721 467.56059 473.55818 479.7977 482.43867 486.511 489.15196 495.13948 501.13706 504.72554 509.28169 515.28939 519.8455">, formaria a conjun&#x00e7;&#x00e3;o aditiva &#x201c;e&#x201d;.</tspan></text>
<text xml:space="preserve" transform="matrix(1 0 -0 1 0 841.92)" font-size="10.08" font-family="Verdana"><tspan y="-306.55" x="523.42"> </tspan></text>
<text xml:space="preserve" transform="matrix(1 0 -0 1 0 841.92)" font-size="10.08" font-family="Verdana"><tspan y="-294.55" x="42.504"> </tspan></text>
<text xml:space="preserve" transform="matrix(1 0 -0 1 0 841.92)" font-size="10.08" font-family="Verdana"><tspan y="-282.31" x="42.504 50.436964 56.898244 62.895845 65.536808 70.78848 74.407199 80.16288 85.41456 89.51712 95.514728 101.51233 105.10081 110.352489 116.380329 120.46272 124.766887 130.77457 134.85698 140.61266 145.86434">Quais est&#x00e3;o corretas?</tspan></text>
<text xml:space="preserve" transform="matrix(1 0 -0 1 0 841.92)" font-size="10.08" font-family="Verdana"><tspan y="-282.31" x="151.25"> </tspan></text>
<text xml:space="preserve" transform="matrix(1 0 -0 1 0 841.92)" font-size="10.08" font-family="Verdana"><tspan y="-270.07" x="42.504"> </tspan></text>
<text xml:space="preserve" transform="matrix(1 0 -0 1 0 841.92)" font-size="10.08" font-family="Verdana"><tspan y="-258.07" x="42.504 49.46402">A)</tspan></text>
<text xml:space="preserve" transform="matrix(1 0 -0 1 0 841.92)" font-size="10.08" font-family="ArialMT"><tspan y="-258.07" x="53.784"> </tspan></text>
<text xml:space="preserve" transform="matrix(1 0 -0 1 0 841.92)" font-size="10.08" font-family="Verdana"><tspan y="-258.07" x="56.664 63.609125 69.84864 75.85632 82.317607 88.07329 93.32497 96.94368 101.25792">Apenas I.</tspan></text>
<text xml:space="preserve" transform="matrix(1 0 -0 1 0 841.92)" font-size="10.08" font-family="Verdana"><tspan y="-258.07" x="104.69"> </tspan></text>
<text xml:space="preserve" transform="matrix(1 0 -0 1 0 841.92)" font-size="10.08" font-family="Verdana"><tspan y="-245.83" x="42.504 49.46398">B)</tspan></text>
<text xml:space="preserve" transform="matrix(1 0 -0 1 0 841.92)" font-size="10.08" font-family="ArialMT"><tspan y="-245.83" x="53.784"> </tspan></text>
<text xml:space="preserve" transform="matrix(1 0 -0 1 0 841.92)" font-size="10.08" font-family="Verdana"><tspan y="-245.83" x="56.664 63.609125 69.84864 75.85632 82.317607 88.07329 93.32497 96.94368 101.026088 104.61456 110.622249 113.97888 118.29312 122.60736">Apenas I e II.</tspan></text>
<text xml:space="preserve" transform="matrix(1 0 -0 1 0 841.92)" font-size="10.08" font-family="Verdana"><tspan y="-245.83" x="126.05"> </tspan></text>
<text xml:space="preserve" transform="matrix(1 0 -0 1 0 841.92)" font-size="10.08" font-family="Verdana"><tspan y="-233.59" x="42.504 49.464044">C)</tspan></text>
<text xml:space="preserve" transform="matrix(1 0 -0 1 0 841.92)" font-size="10.08" font-family="ArialMT"><tspan y="-233.59" x="54.024"> </tspan></text>
<text xml:space="preserve" transform="matrix(1 0 -0 1 0 841.92)" font-size="10.08" font-family="Verdana"><tspan y="-233.59" x="56.664 63.609125 69.84864 75.85632 82.317607 88.07329 93.32497 96.94368 101.026088 104.61456 110.622249 113.97888 118.29312 122.37553 126.689769">Apenas I e III.</tspan></text>
<text xml:space="preserve" transform="matrix(1 0 -0 1 0 841.92)" font-size="10.08" font-family="Verdana"><tspan y="-233.59" x="130.13"> </tspan></text>
<text xml:space="preserve" transform="matrix(1 0 -0 1 0 841.92)" font-size="10.08" font-family="Verdana"><tspan y="-221.57" x="42.504 50.183984">D)</tspan></text>
<text xml:space="preserve" transform="matrix(1 0 -0 1 0 841.92)" font-size="10.08" font-family="ArialMT"><tspan y="-221.57" x="54.744"> </tspan></text>
<text xml:space="preserve" transform="matrix(1 0 -0 1 0 841.92)" font-size="10.08" font-family="Verdana"><tspan y="-221.57" x="56.664 63.609125 69.84864 75.85632 82.317607">Apena</tspan></text>
<text xml:space="preserve" transform="matrix(1 0 -0 1 0 841.92)" font-size="10.08" font-family="Verdana"><tspan y="-221.57" x="88.104 93.355678 96.97439 101.05679 105.37103 108.95951 114.715198 118.30367 122.38608 126.70032 131.01456">s II e III.</tspan></text>
<text xml:space="preserve" transform="matrix(1 0 -0 1 0 841.92)" font-size="10.08" font-family="Verdana"><tspan y="-221.57" x="134.45"> </tspan></text>
<text xml:space="preserve" transform="matrix(1 0 -0 1 0 841.92)" font-size="10.08" font-family="Verdana"><tspan y="-209.33" x="42.504 48.983564">E)</tspan></text>
<text xml:space="preserve" transform="matrix(1 0 -0 1 0 841.92)" font-size="10.08" font-family="ArialMT"><tspan y="-209.33" x="53.304"> </tspan></text>
<text xml:space="preserve" transform="matrix(1 0 -0 1 0 841.92)" font-size="10.08" font-family="Verdana"><tspan y="-209.33" x="56.664 60.97824 64.576808 68.16528 72.24769 76.56193 80.150409 86.15809 89.514728 93.828968 97.91137 102.22561">I, II e III.</tspan></text>
<text xml:space="preserve" transform="matrix(1 0 -0 1 0 841.92)" font-size="10.08" font-family="Verdana"><tspan y="-209.33" x="105.65"> </tspan></text>
<text xml:space="preserve" transform="matrix(1 0 -0 1 0 841.92)" font-size="10.08" font-family="Verdana"><tspan y="-197.33" x="42.504"> </tspan></text>
<text xml:space="preserve" transform="matrix(1 0 -0 1 0 841.92)" font-size="10.08" font-family="Verdana"><tspan y="-183.65" x="42.504"> </tspan></text>
<path transform="matrix(1,0,0,-1,0,841.92)" d="M41.064 194.69H554.374V195.16999H41.064Z" fill-rule="evenodd"/>
<text xml:space="preserve" transform="matrix(1 0 -0 1 0 841.92)" font-size="10.08" font-family="Verdana" font-weight="bold"><tspan y="-171.41" x="42.504 51.13248 59.31744 66.01056 73.1976 79.92096 87.60192 96.2304 99.11327 106.30031 113.48734">QUEST&#x00c3;O 09 </tspan></text>
<text xml:space="preserve" transform="matrix(1 0 -0 1 0 841.92)" font-size="10.08" font-family="Verdana" font-weight="bold"><tspan y="-171.41" x="116.21">&#x2013;</tspan></text>
<text xml:space="preserve" transform="matrix(1 0 -0 1 0 841.92)" font-size="10.08" font-family="Verdana" font-weight="bold"><tspan y="-171.41" x="123.41"> </tspan></text>
<text xml:space="preserve" transform="matrix(1 0 -0 1 0 841.92)" font-size="10.08" font-family="Verdana"><tspan y="-171.41" x="126.29 133.23513 138.27512 143.5268 146.198 152.66936 158.66695 161.3079 167.31558 170.4303 176.18598 179.31078 185.30837 187.94933 192.02165 198.02933 202.10164 208.573 214.32868 218.401 221.04196 227.02948 233.02707 236.15187 242.14948 248.62084 254.37651 257.5013 263.4989 269.73844 274.0426 280.0503 285.10038 291.10807 297.56935 301.64167">Assinale a alternativa que apresenta</tspan></text>
<text xml:space="preserve" transform="matrix(1 0 -0 1 0 841.92)" font-size="10.08" font-family="Verdana"><tspan y="-171.41" x="307.56"> </tspan></text>
<text xml:space="preserve" transform="matrix(1 0 -0 1 0 841.92)" font-size="10.08" font-family="Verdana"><tspan y="-171.41" x="310.68">a</tspan></text>
<text xml:space="preserve" transform="matrix(1 0 -0 1 0 841.92)" font-size="10.08" font-family="Verdana"><tspan y="-171.41" x="316.44"> </tspan></text>
<text xml:space="preserve" transform="matrix(1 0 -0 1 0 841.92)" font-size="10.08" font-family="Verdana"><tspan y="-171.41" x="319.56 324.81169 330.8395 337.31089 340.4357 346.90708 353.37846 358.63014 364.6882 370.41365 373.53843 379.77796 386.0175 392.02519 395.1399 401.37944 407.377 413.61656 419.62425 423.69657 426.56938 432.32505 435.44984 440.48985 446.9612 453.20075 458.24076 462.31309 464.95405 469.02638 475.2659 478.1387 482.2211 485.3459 490.59757 496.6254 500.92958 505.2539 511.00959 515.0819 521.0795 530.6757 536.6834 543.14468 546.9851 552.7408">conjun&#x00e7;&#x00e3;o que poderia substituir corretamente </tspan></text>
<text xml:space="preserve" transform="matrix(1 0 -0 1 0 841.92)" font-size="10.08" font-family="Verdana"><tspan y="-159.17" x="42.504 48.501604 52.090085 58.3296 64.3272 67.200008 73.19761 79.18513 83.48929 89.26513">a palavra </tspan></text>
<text xml:space="preserve" transform="matrix(1 0 -0 1 0 841.92)" font-size="10.08" font-family="Verdana"><tspan y="-159.17" x="92.928 97.48416 103.72368 109.963199 114.035518 118.339679 124.11552 128.18784 134.18543 140.42496 144.49729 150.49489 155.05106 158.63953 163.21585 166.0685 169.42513 173.0136 179.25312 185.72447">&#x201c;Entretanto&#x201d; (l. 04)</tspan></text>
<text xml:space="preserve" transform="matrix(1 0 -0 1 0 841.92)" font-size="10.08" font-family="Verdana"><tspan y="-159.17" x="190.39"> </tspan></text>
<text xml:space="preserve" transform="matrix(1 0 -0 1 0 841.92)" font-size="10.08" font-family="Verdana"><tspan y="-159.17" x="193.99 199.24169 205.0276 214.8556 218.21225 223.46393 229.522 235.7313 240.98297 247.04105 251.3452 254.9236 260.6793 263.5521 267.62443 273.3801 277.68428 283.4601 288.7118 294.76988 300.7372 304.32569 310.32328 316.32087 319.90934 325.161 330.94694 337.4183 341.2588 344.1316 350.37113 356.3687 359.95719 366.19673 372.1943 375.78279 379.62327 383.92744 389.93513 394.9852 401.45658 407.45417 411.04264 416.7983 426.6263 430.21479 436.2124 442.68379 448.69148 452.26988 458.02555 460.89836 466.89595 470.4844 476.482 481.73368 487.7615 492.06568 496.15818">sem causar altera&#x00e7;&#x00e3;o ao sentido do trecho em que ela ocorre</tspan></text>
<text xml:space="preserve" transform="matrix(1 0 -0 1 0 841.92)" font-size="10.08" font-family="Verdana"><tspan y="-159.17" x="502.51">.</tspan></text>
<text xml:space="preserve" transform="matrix(1 0 -0 1 0 841.92)" font-size="10.08" font-family="Verdana"><tspan y="-159.17" x="506.11"> </tspan></text>
<text xml:space="preserve" transform="matrix(1 0 -0 1 0 841.92)" font-size="10.08" font-family="Verdana"><tspan y="-147.17" x="42.504"> </tspan></text>
<text xml:space="preserve" transform="matrix(1 0 -0 1 0 841.92)" font-size="10.08" font-family="Verdana"><tspan y="-134.9" x="42.504 49.46402">A)</tspan></text>
<text xml:space="preserve" transform="matrix(1 0 -0 1 0 841.92)" font-size="10.08" font-family="ArialMT"><tspan y="-134.9" x="53.784"> </tspan></text>
<text xml:space="preserve" transform="matrix(1 0 -0 1 0 841.92)" font-size="10.08" font-family="Verdana"><tspan y="-134.9" x="56.664 63.6192 69.616809 74.868488 80.896327">Caso.</tspan></text>
<text xml:space="preserve" transform="matrix(1 0 -0 1 0 841.92)" font-size="10.08" font-family="Verdana"><tspan y="-134.9" x="84.504"> </tspan></text>
<text xml:space="preserve" transform="matrix(1 0 -0 1 0 841.92)" font-size="10.08" font-family="Verdana"><tspan y="-122.66" x="42.504 49.46398">B)</tspan></text>
<text xml:space="preserve" transform="matrix(1 0 -0 1 0 841.92)" font-size="10.08" font-family="ArialMT"><tspan y="-122.66" x="53.784"> </tspan></text>
<text xml:space="preserve" transform="matrix(1 0 -0 1 0 841.92)" font-size="10.08" font-family="Verdana"><tspan y="-122.66" x="56.664 62.661603 68.6592 72.96336 78.97105 88.80913">Por&#x00e9;m.</tspan></text>
<text xml:space="preserve" transform="matrix(1 0 -0 1 0 841.92)" font-size="10.08" font-family="Verdana"><tspan y="-122.66" x="92.448"> </tspan></text>
<text xml:space="preserve" transform="matrix(1 0 -0 1 0 841.92)" font-size="10.08" font-family="Verdana"><tspan y="-110.66" x="42.504 49.464044">C)</tspan></text>
<text xml:space="preserve" transform="matrix(1 0 -0 1 0 841.92)" font-size="10.08" font-family="ArialMT"><tspan y="-110.66" x="54.024"> </tspan></text>
<text xml:space="preserve" transform="matrix(1 0 -0 1 0 841.92)" font-size="10.08" font-family="Verdana"><tspan y="-110.66" x="56.664 65.06064 71.06832 76.32 86.16816 92.165767 95.75424 101.75184 108.2232 114.23088">Mesmo que.</tspan></text>
<text xml:space="preserve" transform="matrix(1 0 -0 1 0 841.92)" font-size="10.08" font-family="Verdana"><tspan y="-110.66" x="117.65"> </tspan></text>
<text xml:space="preserve" transform="matrix(1 0 -0 1 0 841.92)" font-size="10.08" font-family="Verdana"><tspan y="-98.424" x="42.504 50.183984">D)</tspan></text>
<text xml:space="preserve" transform="matrix(1 0 -0 1 0 841.92)" font-size="10.08" font-family="ArialMT"><tspan y="-98.424" x="54.744"> </tspan></text>
<text xml:space="preserve" transform="matrix(1 0 -0 1 0 841.92)" font-size="10.08" font-family="Verdana"><tspan y="-98.424" x="56.664 63.609125 66.250087 72.72144 78.96096 84.958568 88.54704 94.54464 101.016 107.02368">Ainda que.</tspan></text>
<text xml:space="preserve" transform="matrix(1 0 -0 1 0 841.92)" font-size="10.08" font-family="Verdana"><tspan y="-98.424" x="110.45"> </tspan></text>
<text xml:space="preserve" transform="matrix(1 0 -0 1 0 841.92)" font-size="10.08" font-family="Verdana"><tspan y="-86.424" x="42.504 48.983564">E)</tspan></text>
<text xml:space="preserve" transform="matrix(1 0 -0 1 0 841.92)" font-size="10.08" font-family="ArialMT"><tspan y="-86.424" x="53.304"> </tspan></text>
<text xml:space="preserve" transform="matrix(1 0 -0 1 0 841.92)" font-size="10.08" font-family="Verdana"><tspan y="-86.424" x="56.664 62.661603 68.6592 72.96336 77.04576 83.043369 89.28288 93.3552 99.352809">Portanto.</tspan></text>
<text xml:space="preserve" transform="matrix(1 0 -0 1 0 841.92)" font-size="10.08" font-family="Verdana"><tspan y="-86.424" x="103.01"> </tspan></text>
<text xml:space="preserve" transform="matrix(1 0 -0 1 0 841.92)" font-size="10.08" font-family="Verdana"><tspan y="-74.184" x="42.504"> </tspan></text>
<text xml:space="preserve" transform="matrix(1 0 -0 1 0 841.92)" font-size="10.08" font-family="Verdana"><tspan y="-61.944" x="42.504"> </tspan></text>
<text xml:space="preserve" transform="matrix(1 0 -0 1 42.504 476.70698)" font-size="10.08" font-family="Verdana"><tspan y="-38.5866" x="0"> </tspan></text>
<text xml:space="preserve" transform="matrix(1 0 -0 1 42.504 476.70698)" font-size="10.08" font-family="Verdana" font-weight="bold"><tspan y="-26.587002" x="0 8.62848 16.81344 23.50656 30.6936 37.41696 45.09792 53.7264 56.60928 63.79632 70.98336">QUEST&#x00c3;O 08 </tspan></text>
<text xml:space="preserve" transform="matrix(1 0 -0 1 42.504 476.70698)" font-size="10.08" font-family="Verdana" font-weight="bold"><tspan y="-26.587002" x="73.706">&#x2013;</tspan></text>
<text xml:space="preserve" transform="matrix(1 0 -0 1 42.504 476.70698)" font-size="10.08" font-family="Verdana" font-weight="bold"><tspan y="-26.587002" x="80.906"> </tspan></text>
<text xml:space="preserve" transform="matrix(1 0 -0 1 42.504 476.70698)" font-size="10.08" font-family="Verdana"><tspan y="-26.587002" x="83.785999 90.741199 96.7388 103.21016 108.25016 111.12296 117.36248 123.37016 127.674327 133.4401 139.91146 146.15099 152.14859 155.27339 161.02907 164.15387 170.15146 175.40314 181.18906 187.66042 191.5009 197.97226 203.96985 209.22153 215.2796 221.00504 224.12984 230.36937 236.36696 241.40695 244.28983 250.52936 256.52696 259.39976 265.39735 271.38487 275.68904 281.7068 286.7468 289.87159 295.62727 305.45527">Considerando a acentua&#x00e7;&#x00e3;o das palavras em </tspan></text>
<text xml:space="preserve" transform="matrix(1 0 -0 1 42.504 476.70698)" font-size="10.08" font-family="Verdana"><tspan y="-26.587002" x="309.003">l</tspan></text>
<text xml:space="preserve" transform="matrix(1 0 -0 1 42.504 476.70698)" font-size="10.08" font-family="Verdana"><tspan y="-26.587002" x="311.43229 314.30509 320.77647 326.77409 333.24546 339.00114">&#x00ed;ngua </tspan></text>
<text xml:space="preserve" transform="matrix(1 0 -0 1 42.504 476.70698)" font-size="10.08" font-family="Verdana"><tspan y="-26.587002" x="342.5493">p</tspan></text>
<text xml:space="preserve" transform="matrix(1 0 -0 1 42.504 476.70698)" font-size="10.08" font-family="Verdana"><tspan y="-26.587002" x="348.74848 354.74607 359.05024 362.9109 369.38227 375.6218 381.86134 387.86903 393.1207 399.13847 402.73704 405.86183 411.6175 418.08888 424.08647 426.72743 429.60023 434.8519 440.63783 443.7626 449.7602 454.8002 457.925 463.92259 468.9626 474.21427 480.22196 484.32453 488.39686 491.26966 497.25718 503.01286 508.26454">ortuguesa, analise as assertivas </tspan><tspan y="-14.566802" x="-.0005187988 5.9970815 9.585562 14.837242 20.844922 27.124762 33.34412 36.21692 40.52108 44.879484">a seguir: </tspan><tspan y="-2.566802" x="-.0005187988"> </tspan></text>
<text xml:space="preserve" transform="matrix(1 0 -0 1 44.664 525.26248)" font-size="10.08" font-family="Verdana"><tspan y="-14.632" x="0 4.3199808 8.639961">II.</tspan></text>
<text xml:space="preserve" transform="matrix(1 0 -0 1 44.664 525.26248)" font-size="10.08" font-family="ArialMT"><tspan y="-14.632" x="12"> </tspan></text>
<text xml:space="preserve" transform="matrix(1 0 -0 1 44.664 525.26248)" font-size="10.08" font-family="Verdana"><tspan y="-14.632" x="19.2 26.145123 29.501763 35.74128 41.73888 44.61168 50.60928 56.36496 60.66912 66.68688 70.04352 74.59968 80.839199 83.712 90.18336 96.180957 102.65231 108.408 118.366 122.92216 126.52072 129.87737 135.12905 141.18712 146.4388 152.4364 155.79305 161.79065 165.1473 171.14488 176.39656 182.40424 188.66393 192.73625 198.73386 202.0905 208.08809 214.32762 220.79898 227.03852">A palavra &#x201c;ningu&#x00e9;m&#x201d;, caso o acento agudo</tspan></text>
<text xml:space="preserve" transform="matrix(1 0 -0 1 44.664 525.26248)" font-size="10.08" font-family="Verdana"><tspan y="-14.632" x="233.136 236.496 240.08448 246.08208 251.12207 256.37376 262.15968 265.5163 270.76799 277.2696 283.50914 287.59153 290.46434 300.0605 302.9333 309.17283 315.23603 318.8346 322.19123 325.7797 331.77729 336.08146 345.9296 351.9272 356.00959 358.8824 364.87998 368.2366 374.47615 384.30415 390.30174 393.65837 399.8979 405.89549 408.76829 414.52397 420.51148 424.81565 430.8334 434.19004 436.831 443.30238 449.05805 455.04557 457.68653 462.9382 467.04078 472.79646 479.26783 483.1083 489.116 492.47264 498.2283 508.0563"> fosse suprimido, formaria uma palavra inexistente em </tspan></text>
<text xml:space="preserve" transform="matrix(1 0 -0 1 44.664 525.26248)" font-size="10.08" font-family="Verdana"><tspan y="-2.3920003" x="19.199997">l</tspan></text>
<text xml:space="preserve" transform="matrix(1 0 -0 1 44.664 525.26248)" font-size="10.08" font-family="Verdana"><tspan y="-2.3920003" x="21.871197 24.743998 31.215357 37.212957 43.68432 49.68192">&#x00ed;ngua </tspan></text>
<text xml:space="preserve" transform="matrix(1 0 -0 1 44.664 525.26248)" font-size="10.08" font-family="Verdana"><tspan y="-2.3920003" x="53.230096">p</tspan></text>
<text xml:space="preserve" transform="matrix(1 0 -0 1 44.664 525.26248)" font-size="10.08" font-family="Verdana"><tspan y="-2.3920003" x="59.429296 65.426898 69.73106 73.5917 80.06306 86.06065 92.53201 98.539699 103.791378 109.809139 113.27466">ortuguesa. </tspan></text>
<text xml:space="preserve" transform="matrix(1 0 -0 1 42.504 428.46415)" font-size="10.08" font-family="Verdana"><tspan y="-113.681" x="0"> </tspan></text>
<text xml:space="preserve" transform="matrix(1 0 -0 1 42.504 428.46415)" font-size="10.08" font-family="Verdana" font-weight="bold"><tspan y="-101.441" x="0 8.62848 16.81344 23.50656 30.6936 37.41696 45.09792 53.7264 57.31488 64.501918 71.68895">QUEST&#x00c3;O 07 </tspan></text>
<text xml:space="preserve" transform="matrix(1 0 -0 1 42.504 428.46415)" font-size="10.08" font-family="Verdana" font-weight="bold"><tspan y="-101.441" x="75.146">&#x2013;</tspan></text>
<text xml:space="preserve" transform="matrix(1 0 -0 1 42.504 428.46415)" font-size="10.08" font-family="Verdana" font-weight="bold"><tspan y="-101.441" x="82.346"> </tspan></text>
<text xml:space="preserve" transform="matrix(1 0 -0 1 42.504 428.46415)" font-size="10.08" font-family="Verdana"><tspan y="-101.441" x="85.946 92.66936 97.921039 103.223117 105.864078 112.335437 118.09112 120.96392 126.9716 130.79192 136.54759 140.37799 146.37558 149.01654 153.08887 159.09654 163.16886 169.64022 175.39589 179.46822 182.10918 188.0967 194.09429 197.92469 203.92229 210.39365 216.14933 219.97972 222.62068 229.09204 235.33158 237.97254 243.01253 249.01012 252.84052 258.8381 262.6685 268.90803 274.6637 277.5365 283.5341 289.5216 293.82579 299.60163 303.432 309.67155 313.75395 316.62675 326.2229 329.0957 332.9362 335.809 341.7965 347.5522 351.38258 357.6221 363.6197 367.45008 373.4477 379.91908 385.67475 388.54756 392.37794 398.1336">Assinale a alternativa que indica a palavra primitiva da qual a </tspan></text>
<text xml:space="preserve" transform="matrix(1 0 -0 1 42.504 428.46415)" font-size="10.08" font-family="Verdana"><tspan y="-101.441" x="402.386 408.62553 414.6231 417.4959 423.2516 429.2391 433.54328 439.56105 443.39143 447.71574 452.9674 455.6386 462.11 466.1823 471.938 481.766 487.52168 491.594 494.4668 499.71849 505.7463 510.30247">palavra &#x201c;sintom&#x00e1;tico&#x201d; </tspan></text>
<text xml:space="preserve" transform="matrix(1 0 -0 1 42.504 428.46415)" font-size="10.08" font-family="Verdana"><tspan y="-89.201007" x="0 4.57632 7.42896 11.027519 14.616 20.85552 27.32688 31.92 35.28 40.531679 46.539358 50.147996 56.145597 60.227998 63.100797 69.34032 71.98128 78.45264 84.45024">(l. 34) se originou</tspan></text>
<text xml:space="preserve" transform="matrix(1 0 -0 1 42.504 428.46415)" font-size="10.08" font-family="Verdana"><tspan y="-89.201007" x="90.8309">.</tspan></text>
<text xml:space="preserve" transform="matrix(1 0 -0 1 42.504 428.46415)" font-size="10.08" font-family="Verdana"><tspan y="-89.201007" x="94.29802"> </tspan><tspan y="-76.9408" x=".000022888184"> </tspan><tspan y="-64.700809" x=".000022888184 6.960043">A)</tspan></text>
<text xml:space="preserve" transform="matrix(1 0 -0 1 42.504 428.46415)" font-size="10.08" font-family="ArialMT"><tspan y="-64.700809" x="11.280023"> </tspan></text>
<text xml:space="preserve" transform="matrix(1 0 -0 1 42.504 428.46415)" font-size="10.08" font-family="Verdana"><tspan y="-64.700809" x="14.160023 21.105143 23.746104 30.217463 34.289785 40.045465 49.873464 55.871065 59.546026">Sintoma. </tspan><tspan y="-52.460809" x=".000022888184 6.9600036">B)</tspan></text>
<text xml:space="preserve" transform="matrix(1 0 -0 1 42.504 428.46415)" font-size="10.08" font-family="ArialMT"><tspan y="-52.460809" x="11.280023"> </tspan></text>
<text xml:space="preserve" transform="matrix(1 0 -0 1 42.504 428.46415)" font-size="10.08" font-family="Verdana"><tspan y="-52.460809" x="14.160023 21.105143 23.746104 30.217463 35.469144 39.803544 45.559225 52.030588 58.028188 61.706029">S&#x00ed;ncrono. </tspan><tspan y="-40.22081" x=".000022888184 6.960063">C)</tspan></text>
<text xml:space="preserve" transform="matrix(1 0 -0 1 42.504 428.46415)" font-size="10.08" font-family="ArialMT"><tspan y="-40.22081" x="11.520023"> </tspan></text>
<text xml:space="preserve" transform="matrix(1 0 -0 1 42.504 428.46415)" font-size="10.08" font-family="Verdana"><tspan y="-40.22081" x="14.160024 21.105145 23.977946 29.017947 33.090269 39.087869 41.960668 47.968347 51.384027">S&#x00ed;stole. </tspan><tspan y="-27.98081" x=".000023841858 7.680004">D)</tspan></text>
<text xml:space="preserve" transform="matrix(1 0 -0 1 42.504 428.46415)" font-size="10.08" font-family="ArialMT"><tspan y="-27.98081" x="12.240024"> </tspan></text>
<text xml:space="preserve" transform="matrix(1 0 -0 1 42.504 428.46415)" font-size="10.08" font-family="Verdana"><tspan y="-27.98081" x="14.160024 21.105145 23.746106 30.217465 36.215066 39.840028">Sino. </tspan><tspan y="-15.74081" x=".000023841858 6.479584">E)</tspan></text>
<text xml:space="preserve" transform="matrix(1 0 -0 1 42.504 428.46415)" font-size="10.08" font-family="ArialMT"><tspan y="-15.74081" x="10.800024"> </tspan></text>
<text xml:space="preserve" transform="matrix(1 0 -0 1 42.504 428.46415)" font-size="10.08" font-family="Verdana"><tspan y="-15.74081" x="14.160024 21.105145 23.746106 30.217465 36.215066 39.087865 42.480028">Sinal. </tspan><tspan y="-3.5008107" x=".000023841858"> </tspan></text>
</g>
</svg>
