<svg xmlns="http://www.w3.org/2000/svg" xmlns:xlink="http://www.w3.org/1999/xlink" xmlns:inkscape="http://www.inkscape.org/namespaces/inkscape" version="1.1" width="595.44" height="841.92" viewBox="0 0 595.44 841.92">
<g>
<text xml:space="preserve" transform="matrix(1 0 -0 1 0 841.92)" font-size="7.92" font-family="Verdana"><tspan y="-795.58" x="42.504 47.541124 52.578245 57.615365 62.652486 68.17272 73.68504 79.197368 84.22656 89.26368 95.259128 101.96736 107.00448 113.00784">945_BASE_NM_DM</tspan></text>
<text xml:space="preserve" transform="matrix(1 0 -0 1 0 841.92)" font-size="7.92" font-family="Verdana"><tspan y="-795.58" x="120.05"> </tspan></text>
<text xml:space="preserve" transform="matrix(1 0 -0 1 0 841.92)" font-size="7.92" font-family="Verdana"><tspan y="-795.58" x="460.51 465.55003 470.59004 474.1886 479.2286 484.26863 487.8672 492.9072 498.1848 503.22483 508.26484 511.13475 516.17477 521.2147 524.8133 529.8533 535.1229 538.7215 543.7615">10/01/2025 15:14:17</tspan></text>
<text xml:space="preserve" transform="matrix(1 0 -0 1 0 841.92)" font-size="10.08" font-family="Verdana"><tspan y="-795.58" x="549.1"> </tspan></text>
<path transform="matrix(1,0,0,-1,0,841.92)" d="M41.064 804.48H554.614V804.95999H41.064Z" fill-rule="evenodd"/>
<text xml:space="preserve" transform="matrix(1 0 -0 1 0 841.92)" font-size="9.12" font-family="Verdana"><tspan y="-25.92" x="42.504 48.26784 53.54832 59.0568 63.6168 69.389759 74.16863 79.44911 84.984958 89.052478 92.17152 97.44288 103.215839 108.72431 114.24191 119.75039 123.343669 128.63327">Execu&#x00e7;&#x00e3;o: Fundatec</tspan></text>
<text xml:space="preserve" transform="matrix(1 0 -0 1 0 841.92)" font-size="9.12" font-family="Verdana"><tspan y="-25.92" x="133.25"> </tspan></text>
<path transform="matrix(1,0,0,-1,0,841.92)" d="M41.064 35.76H554.374V36.24004H41.064Z" fill-rule="evenodd"/>
<text xml:space="preserve" transform="matrix(1 0 -0 1 0 841.92)" font-size="9.12" font-family="Verdana"><tspan y="-14.88" x="250.9 257.85856 264.57087 270.80894 277.04704 284.00559 290.24366 293.3627 300.80464 307.51695 314.23838 317.84077 324.31596 327.91835 333.4177 339.65577">GUARDA MUNICIPAL</tspan></text>
<text xml:space="preserve" transform="matrix(1 0 -0 1 0 841.92)" font-size="9.12" font-family="Verdana"><tspan y="-14.88" x="344.54"> </tspan></text>
<text xml:space="preserve" transform="matrix(1 0 -0 1 0 841.92)" font-size="10.08" font-family="Verdana" font-weight="bold"><tspan y="-783.82" x="42.504 51.13248 59.31744 66.01056 73.1976 79.92096 87.60192 96.2304 102.21792 109.40495 116.59199">QUEST&#x00c3;O 41 </tspan></text>
<text xml:space="preserve" transform="matrix(1 0 -0 1 0 841.92)" font-size="10.08" font-family="Verdana" font-weight="bold"><tspan y="-783.82" x="122.69">&#x2013;</tspan></text>
<text xml:space="preserve" transform="matrix(1 0 -0 1 0 841.92)" font-size="10.08" font-family="Verdana" font-weight="bold"><tspan y="-783.82" x="129.89"> </tspan></text>
<text xml:space="preserve" transform="matrix(1 0 -0 1 0 841.92)" font-size="10.08" font-family="Verdana"><tspan y="-783.82" x="135.89 143.82297 150.28426 156.28185 162.7532 168.99274 174.74842 181.21977 187.21736 190.09017 196.08777 202.55913 212.38713 218.1428 224.61417 230.8537 236.60938 241.86106 247.16313 253.16074 259.15834 265.62968 271.6273 275.93147 281.93916 285.7897 291.7974 298.25868 304.4982 310.25389 316.72523 321.0294 327.03709 333.04478 339.51615 345.52384 349.828 355.59379 359.89796 366.3794 372.13508 375.00788 381.2474 387.245 393.71635 399.47203 405.70146 412.64659 418.8861 428.48228 431.35508 437.5946 440.4674 445.50743 449.57975 453.8839 459.90168 465.15336 471.21144 476.93687 483.4082 489.40583 495.8772 501.87483 504.74763 507.38859 512.64028 518.69839 522.26669 528.4961 534.7356 540.7433 546.71066 552.4966">Quando alguma pessoa pretende requerer algo &#x00e0; Administra&#x00e7;&#x00e3;o P&#x00fa;blica, deve </tspan></text>
<text xml:space="preserve" transform="matrix(1 0 -0 1 0 841.92)" font-size="10.08" font-family="Verdana"><tspan y="-771.58" x="42.504 52.332006 58.329607 64.56912 67.441928 71.0304 77.038089 82.068 86.14032 92.137928 96.22032 99.57696 105.58464 110.614559 115.866237 121.92432 125.018878 131.0064 137.004 143.24353 147.31586 153.31345 159.55298 165.56066">manifestar essa vontade </tspan></text>
<text xml:space="preserve" transform="matrix(1 0 -0 1 0 841.92)" font-size="10.08" font-family="Verdana"><tspan y="-771.58" x="168.79 171.6628 177.41847 183.40599 189.40358 195.87494 202.11447 207.87015 211.22679 217.22438 220.58103 226.57863 233.04999 239.05767 244.08759 248.15991 254.1575 260.1551 263.51173 269.5093 275.26499 278.6216 283.66163 289.6693 293.73158 299.72917 304.03334 307.41014 313.40776 319.87913 325.87675 328.74955 331.62236 336.87403 342.65995 346.01658 351.26826 357.29609 361.60026 365.9246 371.68028 376.93196 383.2118 389.1993 395.6707 401.91023 407.6659 413.90544 417.97776 423.98545 427.57395 430.69874 437.1701 442.2101 447.4618 453.46949 456.84629 462.8439 467.14808 473.16584 478.4175 484.4252 490.70506 493.32585 503.15385 508.90953 515.38088 519.4532 525.20889 528.3337 534.5732 540.5809 546.5482 552.5559">levando a quest&#x00e3;o ao setor p&#x00fa;blico correspondente. Esse procedimento deve </tspan></text>
<text xml:space="preserve" transform="matrix(1 0 -0 1 0 841.92)" font-size="10.08" font-family="Verdana"><tspan y="-759.34" x="42.504 48.74352 54.751199 59.05536 65.06304 69.3672 74.41728 80.88864 90.4848 95.75664 101.008319 106.794239 113.265598 116.62224 122.861759 129.33312 133.40544 139.16112 144.43296 150.67249 156.68016 161.7 167.93953 173.93714 179.18881 185.45858 195.28658 201.29425 207.5237 211.59603 217.59363 222.63362 227.90546 233.66114 238.93297 244.93056 250.18224 256.21006 262.21775 267.24766 272.5195 278.5171 283.547 289.78654 295.78413 300.0883 304.1707 306.81166 311.1158 316.39775 322.63728 328.39295 333.6648 339.90434 346.3757 352.13139 354.77235 360.0442 366.04179 371.31364 373.9546 380.19413 384.26646 390.27415 394.5783 400.3441 405.59577 410.89787 416.89546 423.13499 429.13258 434.40443 440.64396 446.64155 452.88108 458.88877 463.19294 468.95869 474.23054 480.22813 485.4798 491.26573 501.09373 507.33326 513.3309 519.5704 525.8099 531.8075 536.11166 541.39358 547.3912 552.4312">gerar um conjunto de documentos e a&#x00e7;&#x00f5;es a partir do qual o interessado poder&#x00e1; acompanhar as </tspan></text>
<text xml:space="preserve" transform="matrix(1 0 -0 1 0 841.92)" font-size="10.08" font-family="Verdana"><tspan y="-747.34" x="42.504 48.74352 53.04768 59.06544 65.052959 67.92576 74.165279 79.92096 86.39232 91.43232 94.30512 100.30273 105.554409 109.17312 115.412639 121.16832 126.42 132.44785 136.752 141.07631 146.83199 153.30335 157.14383 163.1515 168.40319 172.0219 175.61037 182.56557 188.56317 198.39118 204.38878 207.97725 213.01725 219.02492 222.60332 227.64331 234.11467 240.11226 249.94026 255.69594 259.28443 265.2921 270.32203 275.5737 281.5814 284.9582 290.20988 296.2377 302.70909 306.06575 312.30528 318.77665 322.84898 328.84657 332.43504 338.67457 344.43025 348.0187 354.0163 358.08863 364.0862 369.12623 372.7147 378.95423 384.9518 388.30845 395.25358 401.4931 411.08927 413.96208 420.2016 423.0744 428.1144 432.18675 436.4909 442.50868 447.76036 453.81843 459.78578 463.37425 469.1299 475.6013 481.84083 484.48179 487.35459 492.60627 498.39219">provid&#x00ea;ncias decorrentes. Como se chama esse conjunto de atos da Administra&#x00e7;&#x00e3;o P&#x00fa;blica?</tspan></text>
<text xml:space="preserve" transform="matrix(1 0 -0 1 0 841.92)" font-size="10.08" font-family="Verdana"><tspan y="-747.34" x="504.19"> </tspan></text>
<text xml:space="preserve" transform="matrix(1 0 -0 1 0 841.92)" font-size="6.96" font-family="Verdana"><tspan y="-738.22" x="42.504"> </tspan></text>
<text xml:space="preserve" transform="matrix(1 0 -0 1 0 841.92)" font-size="10.08" font-family="Verdana"><tspan y="-726.7" x="42.504 49.46402">A)</tspan></text>
<text xml:space="preserve" transform="matrix(1 0 -0 1 0 841.92)" font-size="10.08" font-family="ArialMT"><tspan y="-726.7" x="53.784"> </tspan></text>
<text xml:space="preserve" transform="matrix(1 0 -0 1 0 841.92)" font-size="10.08" font-family="Verdana"><tspan y="-726.7" x="56.664">A</tspan></text>
<text xml:space="preserve" transform="matrix(1 0 -0 1 0 841.92)" font-size="10.08" font-family="Verdana"><tspan y="-726.7" x="63.624 67.69632 73.452 79.92336 85.92096 88.79376 98.62176 104.37744 110.8488 114.92112 120.918727 124.27536 130.5149 136.52257 140.82672 146.10865 151.86432 158.33568 164.33327 166.97423 169.84703 175.13904 181.12656 187.36609 193.3637">tendimento personalizado.</tspan></text>
<text xml:space="preserve" transform="matrix(1 0 -0 1 0 841.92)" font-size="10.08" font-family="Verdana"><tspan y="-726.7" x="197.11"> </tspan></text>
<text xml:space="preserve" transform="matrix(1 0 -0 1 0 841.92)" font-size="10.08" font-family="Verdana"><tspan y="-714.43" x="42.504 49.46398">B)</tspan></text>
<text xml:space="preserve" transform="matrix(1 0 -0 1 0 841.92)" font-size="10.08" font-family="ArialMT"><tspan y="-714.43" x="53.784"> </tspan></text>
<text xml:space="preserve" transform="matrix(1 0 -0 1 0 841.92)" font-size="10.08" font-family="Verdana"><tspan y="-714.43" x="56.664 63.6192 69.616809 76.088169 81.33984 87.609607 90.48241 94.554729 100.31041 103.89889 110.37025 116.36785 120.45025 130.27825 136.27584 140.11632 142.98912 148.97664 154.97423">Consulta normativa.</tspan></text>
<text xml:space="preserve" transform="matrix(1 0 -0 1 0 841.92)" font-size="10.08" font-family="Verdana"><tspan y="-714.43" x="158.47"> </tspan></text>
<text xml:space="preserve" transform="matrix(1 0 -0 1 0 841.92)" font-size="10.08" font-family="Verdana"><tspan y="-702.19" x="42.504 49.464044">C)</tspan></text>
<text xml:space="preserve" transform="matrix(1 0 -0 1 0 841.92)" font-size="10.08" font-family="ArialMT"><tspan y="-702.19" x="54.024"> </tspan></text>
<text xml:space="preserve" transform="matrix(1 0 -0 1 0 841.92)" font-size="10.08" font-family="Verdana"><tspan y="-702.19" x="56.664 62.661603 66.96576 72.98352 78.2352 84.24288 89.53488 94.78656 100.8144 104.40288 110.40048 116.64 126.23616 128.87712 135.34848 137.98944 143.24112 147.34369 151.64785 157.42368 161.496 164.13697 170.12448 176.12209">Processo administrativo.</tspan></text>
<text xml:space="preserve" transform="matrix(1 0 -0 1 0 841.92)" font-size="10.08" font-family="Verdana"><tspan y="-702.19" x="179.83"> </tspan></text>
<text xml:space="preserve" transform="matrix(1 0 -0 1 0 841.92)" font-size="10.08" font-family="Verdana"><tspan y="-690.19" x="42.504 50.183984">D)</tspan></text>
<text xml:space="preserve" transform="matrix(1 0 -0 1 0 841.92)" font-size="10.08" font-family="ArialMT"><tspan y="-690.19" x="54.744"> </tspan></text>
<text xml:space="preserve" transform="matrix(1 0 -0 1 0 841.92)" font-size="10.08" font-family="Verdana"><tspan y="-690.19" x="56.664 65.06064 71.06832 80.87616 86.904 91.20816 97.22592 103.69728 109.9368 115.9344 119.52288 125.7624 131.51808 135.10655 137.74752 143.98705 148.05937 154.06705 160.2965 165.54817 171.57602 177.5837 182.83538">Memorando de inten&#x00e7;&#x00f5;es.</tspan></text>
<text xml:space="preserve" transform="matrix(1 0 -0 1 0 841.92)" font-size="10.08" font-family="Verdana"><tspan y="-690.19" x="186.31"> </tspan></text>
<text xml:space="preserve" transform="matrix(1 0 -0 1 0 841.92)" font-size="10.08" font-family="Verdana"><tspan y="-677.95" x="42.504 48.983564">E)</tspan></text>
<text xml:space="preserve" transform="matrix(1 0 -0 1 0 841.92)" font-size="10.08" font-family="ArialMT"><tspan y="-677.95" x="53.304"> </tspan></text>
<text xml:space="preserve" transform="matrix(1 0 -0 1 0 841.92)" font-size="10.08" font-family="Verdana"><tspan y="-677.95" x="56.664 63.6192 69.626888 75.85632 78.729129 83.76913 87.841449 92.14561 98.16337 101.75185 107.003528 113.06161 117.11377 121.18609 127.18369 131.2661 134.1389 140.13649 143.0093">Registro cartorial.</tspan></text>
<text xml:space="preserve" transform="matrix(1 0 -0 1 0 841.92)" font-size="10.08" font-family="Verdana"><tspan y="-677.95" x="146.45"> </tspan></text>
<text xml:space="preserve" transform="matrix(1 0 -0 1 0 841.92)" font-size="6.96" font-family="Verdana"><tspan y="-669.07" x="42.504"> </tspan></text>
<path transform="matrix(1,0,0,-1,0,841.92)" d="M41.064 665.95H554.374V666.43H41.064Z" fill-rule="evenodd"/>
<text xml:space="preserve" transform="matrix(1 0 -0 1 0 841.92)" font-size="6.96" font-family="Verdana"><tspan y="-658.99" x="42.504"> </tspan></text>
<text xml:space="preserve" transform="matrix(1 0 -0 1 0 841.92)" font-size="10.08" font-family="Verdana" font-weight="bold"><tspan y="-647.23" x="42.504 51.13248 59.31744 66.01056 73.1976 79.92096 87.60192 96.2304 98.87136 106.058399 113.24543">QUEST&#x00c3;O 42 </tspan></text>
<text xml:space="preserve" transform="matrix(1 0 -0 1 0 841.92)" font-size="10.08" font-family="Verdana" font-weight="bold"><tspan y="-647.23" x="115.97">&#x2013;</tspan></text>
<text xml:space="preserve" transform="matrix(1 0 -0 1 0 841.92)" font-size="10.08" font-family="Verdana" font-weight="bold"><tspan y="-647.23" x="123.17"> </tspan></text>
<text xml:space="preserve" transform="matrix(1 0 -0 1 0 841.92)" font-size="10.08" font-family="Verdana"><tspan y="-647.23" x="125.57 132.51512 137.55512 140.43799 146.67752 152.6852 157.71512 160.58792 165.8396 171.86745 177.87512 182.90505 185.78792 191.7956 195.374 201.12967 204.97016 211.44152 217.4391 223.67864 229.67623 234.9279 237.84102 243.5967 246.47957 252.7191 258.7167 262.7991 266.87144 269.5124 273.81657 276.7095 282.70713 288.7047 291.5876 297.58518 304.05656 309.81224 312.68504 315.326 320.57768 326.58537 329.4884 335.24409 338.12696 344.3665 350.36408 355.40409 358.28697 364.29466 370.52409 375.77577 381.83384 391.39976 394.27256 400.5121 406.98347 412.98106 422.5772 428.5849 434.81434 438.88667 444.88426 450.13594 453.04905 459.28858 465.04426 467.92713 474.16667 480.63804 486.3937 489.27659 492.86506 498.86265 502.94505 505.8279 511.0796 517.1074 519.74838 522.62118 527.6612 530.534 534.6063 540.60397 546.84347 552.5991">As decis&#x00f5;es efetuadas a partir da an&#x00e1;lise e dos encaminhamentos do que for solicitado </tspan></text>
<text xml:space="preserve" transform="matrix(1 0 -0 1 0 841.92)" font-size="10.08" font-family="Verdana"><tspan y="-635.21" x="42.504 45.86064 52.332 58.571519 62.643838 68.64144 72.22992 78.22752 81.816 88.76112 94.75872 104.35488 107.227687 113.4672 116.340007 121.380008 125.452327 129.75649 135.77425 141.02593 147.084 153.05136 156.63983 162.39553 168.86688 175.10642 177.74738 180.62018 185.87186 191.92993 195.25634 200.50801 206.51569 210.85009 216.84767 222.84528">junto &#x00e0; Administra&#x00e7;&#x00e3;o P&#x00fa;blica ser&#x00e3;o </tspan></text>
<text xml:space="preserve" transform="matrix(1 0 -0 1 0 841.92)" font-size="10.08" font-family="Verdana"><tspan y="-635.21" x="226.42 229.2928 235.53234 239.1208 245.11841 249.42256 259.27073 265.2683 271.50785 277.26353 282.5152 285.90208 291.89967 297.89726 301.48573 304.35853 310.59806 314.67039 320.67808 324.98225 330.74803 335.9997 341.3018 347.29939 353.5389 359.5365 362.89314 372.72114 378.72883 384.95826 387.83106 393.58674 399.82627 403.8986 409.90629">informadas ao interessado mediante:</tspan></text>
<text xml:space="preserve" transform="matrix(1 0 -0 1 0 841.92)" font-size="10.08" font-family="Verdana"><tspan y="-635.21" x="414.41"> </tspan></text>
<text xml:space="preserve" transform="matrix(1 0 -0 1 0 841.92)" font-size="6.96" font-family="Verdana"><tspan y="-626.09" x="42.504"> </tspan></text>
<text xml:space="preserve" transform="matrix(1 0 -0 1 0 841.92)" font-size="10.08" font-family="Verdana"><tspan y="-614.57" x="42.504 49.46402">A)</tspan></text>
<text xml:space="preserve" transform="matrix(1 0 -0 1 0 841.92)" font-size="10.08" font-family="ArialMT"><tspan y="-614.57" x="53.784"> </tspan></text>
<text xml:space="preserve" transform="matrix(1 0 -0 1 0 841.92)" font-size="10.08" font-family="Verdana"><tspan y="-614.57" x="56.664 64.10304 70.10065 74.172969 77.04577 80.402408 83.27521 88.526889 94.58497 99.83665 105.83425 111.831859">Notifica&#x00e7;&#x00e3;o.</tspan></text>
<text xml:space="preserve" transform="matrix(1 0 -0 1 0 841.92)" font-size="10.08" font-family="Verdana"><tspan y="-614.57" x="115.25"> </tspan></text>
<text xml:space="preserve" transform="matrix(1 0 -0 1 0 841.92)" font-size="10.08" font-family="Verdana"><tspan y="-602.33" x="42.504 49.46398">B)</tspan></text>
<text xml:space="preserve" transform="matrix(1 0 -0 1 0 841.92)" font-size="10.08" font-family="ArialMT"><tspan y="-602.33" x="53.784"> </tspan></text>
<text xml:space="preserve" transform="matrix(1 0 -0 1 0 841.92)" font-size="10.08" font-family="Verdana"><tspan y="-602.33" x="56.664 63.6192 69.626888 75.85632 82.32768 88.335369 92.407688 95.28049 104.87665 110.88433 117.11377 121.18609 127.18369">Requerimento.</tspan></text>
<text xml:space="preserve" transform="matrix(1 0 -0 1 0 841.92)" font-size="10.08" font-family="Verdana"><tspan y="-602.33" x="130.85"> </tspan></text>
<text xml:space="preserve" transform="matrix(1 0 -0 1 0 841.92)" font-size="10.08" font-family="Verdana"><tspan y="-590.09" x="42.504 49.464044">C)</tspan></text>
<text xml:space="preserve" transform="matrix(1 0 -0 1 0 841.92)" font-size="10.08" font-family="ArialMT"><tspan y="-590.09" x="54.024"> </tspan></text>
<text xml:space="preserve" transform="matrix(1 0 -0 1 0 841.92)" font-size="10.08" font-family="Verdana"><tspan y="-590.09" x="56.664 65.06064 71.06832 77.5296 82.78128 88.83936 95.048648 100.80433 110.632328 114.2208 120.46032 126.216 129.80448 135.80207 142.0416 144.68256 147.55536 152.80704 158.59296 162.66529 165.30625 171.29376 177.29137 180.87984 187.11937 193.12705 196.48369 201.73537 207.74304 210.40416 216.87552 219.74832 225.504 229.80815">Mensagem de aplicativo de celular.</tspan></text>
<text xml:space="preserve" transform="matrix(1 0 -0 1 0 841.92)" font-size="10.08" font-family="Verdana"><tspan y="-590.09" x="233.38"> </tspan></text>
<text xml:space="preserve" transform="matrix(1 0 -0 1 0 841.92)" font-size="10.08" font-family="Verdana"><tspan y="-578.09" x="42.504 50.183984">D)</tspan></text>
<text xml:space="preserve" transform="matrix(1 0 -0 1 0 841.92)" font-size="10.08" font-family="ArialMT"><tspan y="-578.09" x="54.744"> </tspan></text>
<text xml:space="preserve" transform="matrix(1 0 -0 1 0 841.92)" font-size="10.08" font-family="Verdana"><tspan y="-578.09" x="56.664 62.661603 68.66928 72.73152 75.37248 80.62416 86.68224 92.649608 96.23808 99.59473 106.066089 112.3056 114.94656 120.19824 123.10128 128.85697 131.72977">Peti&#x00e7;&#x00e3;o judicial.</tspan></text>
<text xml:space="preserve" transform="matrix(1 0 -0 1 0 841.92)" font-size="10.08" font-family="Verdana"><tspan y="-578.09" x="135.17"> </tspan></text>
<text xml:space="preserve" transform="matrix(1 0 -0 1 0 841.92)" font-size="10.08" font-family="Verdana"><tspan y="-565.85" x="42.504 48.983564">E)</tspan></text>
<text xml:space="preserve" transform="matrix(1 0 -0 1 0 841.92)" font-size="10.08" font-family="ArialMT"><tspan y="-565.85" x="53.304"> </tspan></text>
<text xml:space="preserve" transform="matrix(1 0 -0 1 0 841.92)" font-size="10.08" font-family="Verdana"><tspan y="-565.85" x="56.664 63.6192 69.616809 76.088169 81.33984 87.609607 90.48241 94.554729 100.31041 103.89889 110.138408 116.609767 122.60736 125.24832 128.12113 133.3728 139.43088">Consulta p&#x00fa;blica.</tspan></text>
<text xml:space="preserve" transform="matrix(1 0 -0 1 0 841.92)" font-size="10.08" font-family="Verdana"><tspan y="-565.85" x="142.85"> </tspan></text>
<text xml:space="preserve" transform="matrix(1 0 -0 1 0 841.92)" font-size="6.96" font-family="Verdana"><tspan y="-556.73" x="42.504"> </tspan></text>
<path transform="matrix(1,0,0,-1,0,841.92)" d="M41.064 553.82H554.374V554.3H41.064Z" fill-rule="evenodd"/>
<text xml:space="preserve" transform="matrix(1 0 -0 1 0 841.92)" font-size="6.96" font-family="Verdana"><tspan y="-546.86" x="42.504"> </tspan></text>
<text xml:space="preserve" transform="matrix(1 0 -0 1 0 841.92)" font-size="10.08" font-family="Verdana" font-weight="bold"><tspan y="-535.1" x="42.504 51.13248 59.31744 66.01056 73.1976 79.92096 87.60192 96.2304 100.30272 107.48975 114.67679">QUEST&#x00c3;O 43 </tspan></text>
<text xml:space="preserve" transform="matrix(1 0 -0 1 0 841.92)" font-size="10.08" font-family="Verdana" font-weight="bold"><tspan y="-535.1" x="118.85">&#x2013;</tspan></text>
<text xml:space="preserve" transform="matrix(1 0 -0 1 0 841.92)" font-size="10.08" font-family="Verdana"><tspan y="-535.1" x="126.05"> </tspan></text>
<text xml:space="preserve" transform="matrix(1 0 -0 1 0 841.92)" font-size="10.08" font-family="Verdana"><tspan y="-535.1" x="130.13 136.60137 146.42937 150.7436 156.49929 159.37209 165.61162 171.85115 178.32251 183.57419 187.67675 192.92842 198.9865 204.23818 210.23578 215.48746 219.11626 223.4305 227.01897 232.77465 242.60265 245.2436 247.88457 250.75737 256.75498 261.05915 267.06684 272.34877 276.663 282.6606 288.6582 294.89775 300.90544 310.71327 315.04768 321.51905 327.51664 333.51423 337.82847 342.86848 349.33985 352.21266 358.45219 364.20787 368.51203 372.83634 378.83393 385.07347 391.08116 397.06867 403.54005 409.53764 415.77717 421.77476 431.60276 437.35844 443.59797 447.6703 453.67799 457.98216 464.22169 470.21928 475.47096 479.57353 484.8252 489.1596 492.0324 497.7881 504.25947 509.51115 515.29708 520.54879 524.6513 530.659 534.96316 541.20266 547.2002 552.4519">Em alguns casos, familiares podem n&#x00e3;o cuidar adequadamente das crian&#x00e7;as e dos </tspan></text>
<text xml:space="preserve" transform="matrix(1 0 -0 1 0 841.92)" font-size="10.08" font-family="Verdana"><tspan y="-523.1" x="42.504 48.501604 54.74112 60.73872 63.61152 69.6192 74.87088 80.16288 85.918567 92.38992 96.2304 102.23808 107.48976 111.10848">adolescentes, </tspan></text>
<text xml:space="preserve" transform="matrix(1 0 -0 1 0 841.92)" font-size="10.08" font-family="Verdana"><tspan y="-523.1" x="114.77 120.7676 125.8076 129.39608 135.39368 141.86504 147.86263 150.50359">os quais</tspan></text>
<text xml:space="preserve" transform="matrix(1 0 -0 1 0 841.92)" font-size="10.08" font-family="Verdana"><tspan y="-523.1" x="155.83"> </tspan></text>
<text xml:space="preserve" transform="matrix(1 0 -0 1 0 841.92)" font-size="10.08" font-family="Verdana"><tspan y="-523.1" x="159.19 164.44168 170.49976 176.46712 180.05559">s&#x00e3;o m</tspan></text>
<text xml:space="preserve" transform="matrix(1 0 -0 1 0 841.92)" font-size="10.08" font-family="Verdana"><tspan y="-523.1" x="189.67 195.67768 205.48552 211.76537 216.06952 222.06713 227.10712 230.69559 236.93512 242.6908 246.27927 249.86774 255.62342 265.45143 268.09239 270.96519 273.83799 279.59367 282.9503 289.18983 295.6612 301.41688">embros da fam&#x00ed;lia que </tspan></text>
<text xml:space="preserve" transform="matrix(1 0 -0 1 0 841.92)" font-size="10.08" font-family="Verdana"><tspan y="-523.1" x="305.16 311.63139 317.38706 322.63874 328.64643 333.93843 338.97843 341.6194 345.6917 351.6893 361.28547 364.87394 371.11347 376.86915 380.4576 390.2856 396.0413 398.9141">necessitam de mais</tspan></text>
<text xml:space="preserve" transform="matrix(1 0 -0 1 0 841.92)" font-size="10.08" font-family="Verdana"><tspan y="-523.1" x="404.09"> </tspan></text>
<text xml:space="preserve" transform="matrix(1 0 -0 1 0 841.92)" font-size="10.08" font-family="Verdana"><tspan y="-523.1" x="407.69 413.6876 417.75993 423.5156 429.98698 435.23866 441.29673 447.26408 450.86265 454.4511 460.44874 466.44633 470.7505 476.52635 480.1148 486.35435 490.6585 496.43437 500.50669 506.51438 512.7438">aten&#x00e7;&#x00e3;o. Para proteg&#x00ea;</tspan></text>
<text xml:space="preserve" transform="matrix(1 0 -0 1 0 841.92)" font-size="10.08" font-family="Verdana"><tspan y="-523.1" x="518.83">-</tspan></text>
<text xml:space="preserve" transform="matrix(1 0 -0 1 0 841.92)" font-size="10.08" font-family="Verdana"><tspan y="-523.1" x="523.18 525.8209 531.8185 537.0702 540.6889 546.9284 552.926">los da </tspan></text>
<text xml:space="preserve" transform="matrix(1 0 -0 1 0 841.92)" font-size="10.08" font-family="Verdana"><tspan y="-510.86" x="42.504 46.092485 52.090085 54.962884 59.035203 64.790889 67.67376 73.91328 79.66896 82.551837 88.30752 92.37984 98.13552 104.60688 109.85856 115.91664 121.884 124.76688 130.52256 133.40543 138.44542 144.68495 147.55776 153.79729 159.79488 166.03441 172.03202 177.28369 180.91249 183.79537 189.79297 195.80065 198.67345 204.67104 210.66864 214.9728 220.98047 226.26239 231.51407 237.54192 243.29759 248.54927 252.17807 255.06095 261.30049 267.05616 269.93904 273.5275 279.28318 282.15599 285.99647 291.99406 294.87693 301.11647 306.87214 309.755 315.7526 321.00428 327.01197 332.0721 337.3238 343.35163 346.2345 351.99018 354.87306 360.88075 366.86827 373.33964 378.5913 384.64939 389.90107 395.89866 401.89625 405.2529 408.13578 413.38746 419.17338 425.64476 431.88429 437.89198 441.48048 444.36335 450.11903 456.35856 460.43089 464.73506 470.5109 473.39378 479.39137 485.6309 489.70323 494.0074 500.02516 505.06517 507.94804 513.9456 520.41696 526.4246 531.4546 535.5269 541.5245 547.53219 552.56216">falta de aten&#x00e7;&#x00e3;o e cuidados, de agress&#x00f5;es, da falta de acesso &#x00e0; educa&#x00e7;&#x00e3;o, sa&#x00fa;de, entre outras quest&#x00f5;es </tspan></text>
<text xml:space="preserve" transform="matrix(1 0 -0 1 0 841.92)" font-size="10.08" font-family="Verdana"><tspan y="-498.62" x="42.504 46.092485 52.332 58.80336 65.04288 71.04048 80.86848 86.62416 92.86368 96.936 102.9336 105.806407 111.05808 114.44496 120.6744 126.430088 132.4176 135.2904 140.3304 144.40273 150.1584 159.9864 165.97393 168.84673 174.6024 177.4752 182.5152 188.74463 194.74222 200.98175 205.2859 211.30367 217.5432 221.6256 224.4984 230.49599 236.73552 242.73311 247.98479 251.37166 257.6011 265.53407 271.99534 277.751 280.39198 286.3795 292.38719 298.60655 304.3622 310.59165 313.46446 319.22013 325.45967 328.33247 333.37248 336.24528 342.24287 347.49455 353.5526 359.27806 365.50749 371.51518 376.76686 383.0467 388.7923 394.04399 396.71519 400.30366 402.9446 408.1963 414.25437 420.45356 426.69309 432.44877 436.75294 442.7707 449.00013 454.9977 460.99534 463.86814 466.5091 471.76078 477.81886">fundamentais, existem leis apropriadas. Qual &#x00e9; a legisla&#x00e7;&#x00e3;o espec&#x00ed;fica para aplica&#x00e7;</tspan></text>
<text xml:space="preserve" transform="matrix(1 0 -0 1 0 841.92)" font-size="10.08" font-family="Verdana"><tspan y="-498.62" x="483.55 489.54759 495.30326 501.53269 508.00407 514.00167 519.0417 525.2711 530.31118 536.3088 541.5605 547.5883 552.84">&#x00e3;o nos casos </tspan></text>
<text xml:space="preserve" transform="matrix(1 0 -0 1 0 841.92)" font-size="10.08" font-family="Verdana"><tspan y="-486.62" x="42.504 52.332006 58.339685 64.56912 69.8208 72.72384 78.47952 84.95088 90.94849 97.188 103.18561 108.43729">mencionados?</tspan></text>
<text xml:space="preserve" transform="matrix(1 0 -0 1 0 841.92)" font-size="10.08" font-family="Verdana"><tspan y="-486.62" x="113.81"> </tspan></text>
<text xml:space="preserve" transform="matrix(1 0 -0 1 0 841.92)" font-size="6.96" font-family="Verdana"><tspan y="-477.5" x="42.504"> </tspan></text>
<text xml:space="preserve" transform="matrix(1 0 -0 1 0 841.92)" font-size="6.96" font-family="Verdana"><tspan y="-408.12" x="42.504"> </tspan></text>
<path transform="matrix(1,0,0,-1,0,841.92)" d="M41.064 405.24H554.374V405.71998H41.064Z" fill-rule="evenodd"/>
<text xml:space="preserve" transform="matrix(1 0 -0 1 0 841.92)" font-size="6.96" font-family="Verdana"><tspan y="-398.28" x="42.504"> </tspan></text>
<text xml:space="preserve" transform="matrix(1 0 -0 1 0 841.92)" font-size="10.08" font-family="Verdana" font-weight="bold"><tspan y="-386.5" x="42.504 51.13248 59.31744 66.01056 73.1976 79.92096 87.60192 96.2304 100.30272 107.48975 114.67679">QUEST&#x00c3;O 44 </tspan></text>
<text xml:space="preserve" transform="matrix(1 0 -0 1 0 841.92)" font-size="10.08" font-family="Verdana" font-weight="bold"><tspan y="-386.5" x="118.85">&#x2013;</tspan></text>
<text xml:space="preserve" transform="matrix(1 0 -0 1 0 841.92)" font-size="10.08" font-family="Verdana" font-weight="bold"><tspan y="-386.5" x="126.05"> </tspan></text>
<text xml:space="preserve" transform="matrix(1 0 -0 1 0 841.92)" font-size="10.08" font-family="Verdana"><tspan y="-386.5" x="130.13 138.06296 142.59896 149.07032 154.1103 158.18264 163.93831 168.01064 174.25017 178.3225 184.3201 188.86618 195.10572 200.86139 205.40747 212.36267 216.44507 219.31787 225.31546 231.555 236.80667 242.59259 247.13867 253.14635 257.45054 263.69007 269.68766 274.0019 280.94703 286.94465 292.94224 295.81504 301.82273 307.0744 312.3664 318.12208 324.59346 328.43394 334.44163">O Estatuto da Crian&#x00e7;a e do Adolescente </tspan></text>
<text xml:space="preserve" transform="matrix(1 0 -0 1 0 841.92)" font-size="10.08" font-family="Verdana"><tspan y="-386.5" x="339.02 343.5963 350.04753 356.77088 363.716 368.29234">(ECA) </tspan></text>
<text xml:space="preserve" transform="matrix(1 0 -0 1 0 841.92)" font-size="10.08" font-family="Verdana"><tspan y="-386.5" x="372.86 378.8576 381.7304 386.9821 393.26194 399.24946 405.00514 409.5512 415.54884 422.0202 427.77589 432.32197 437.57365 441.68629 444.55909 450.55668 456.7962 462.04789 468.10597 473.11573 477.6618 483.41749 487.96357 493.96116 500.20069 506.19828 509.07109 514.8267 520.0784 525.38058 531.1362 537.60757 541.6799 547.43557 552.68728">disp&#x00f5;e que crian&#x00e7;as e adolescentes </tspan></text>
<text xml:space="preserve" transform="matrix(1 0 -0 1 0 841.92)" font-size="10.08" font-family="Verdana"><tspan y="-374.5" x="42.504 48.975366 54.972967 60.970567 65.51664 70.76832 76.55424 80.8584 86.87616 92.873767 97.41984 103.41744 109.65696 113.0136 119.021289 123.08353 129.08113 133.62722 139.62482 145.63249 150.17858 156.17618 162.64754 168.64513 171.51793 177.51554 183.9869 189.99457 194.06688 198.61296 202.20143 208.19904 212.28144 222.10944 228.10703 232.6531 238.89264 244.64832 248.96256 255.43392 261.4416 267.67103 270.31199 273.18479 279.42433 285.18 291.65138 296.69139 299.56419 305.56178 309.16035 313.70643 319.94596 322.5869 327.8386 333.1407 337.22309 340.0959 349.69206 352.333 358.80439 364.80198 370.05366 376.11174 382.07908 385.67765 390.22373 395.9794 398.8522 404.8498 407.7226 413.47828 419.94966 424.98966 427.86247 433.86006 438.1743 444.18199 448.72807 454.9676 459.05 465.05769 470.30937 475.60136 481.59895 487.59654 491.1951 495.50935 500.76103 506.7687 513.26028 519.49978 525.25546 529.56967 534.82138 540.82907 547.32058 552.3606">n&#x00e3;o ser&#x00e3;o objeto de qualquer forma de neglig&#x00ea;ncia, discrimina&#x00e7;&#x00e3;o, viol&#x00ea;ncia e press&#x00e3;o, sendo seus </tspan></text>
<text xml:space="preserve" transform="matrix(1 0 -0 1 0 841.92)" font-size="10.08" font-family="Verdana"><tspan y="-362.26" x="42.504 48.74352 51.616319 55.92048 61.69632 64.56912 68.64144 74.639049 79.67905 83.509449 88.76112 94.78896 100.04064 102.94368 108.69936 111.57217 116.61217 120.442569 126.68208 132.67967 136.98383 142.75966 149.23102 153.0715 155.9443 162.18384 168.18144 173.43312 177.06192 180.89232 188.57329 194.32897 198.15937 204.15695 209.40863 215.43648 219.74063 226.02048 231.99793 235.82833 241.08 246.86592 256.69395 260.52433 266.5219 270.11039 272.9832 278.99089 284.9784 287.61936 292.87104 295.77409 301.77168 307.02336 313.08143 319.04878 322.64735 326.47773 332.4753 337.51533 341.3457 343.98667 350.45805 354.29853 360.3062 366.53565 370.8398 376.85758 383.0971 387.16944 393.17713 398.20704 402.0374 408.27696 414.28465 419.31455 424.56623 430.5739 434.42448 440.4221 444.72627 451.2077 457.44725 463.44483 467.2752 473.2728 479.27043 483.5746 489.58229 494.8642 500.61988 506.8594 510.93174 516.9293 526.7573 530.3458 536.81716 546.64517 552.4008">direitos sociais garantidos. De acordo com a legisla&#x00e7;&#x00e3;o, os integrantes desse grupo apresentam uma </tspan></text>
<text xml:space="preserve" transform="matrix(1 0 -0 1 0 841.92)" font-size="10.08" font-family="Verdana"><tspan y="-350.02" x="42.504 47.755685 53.783525 60.254884 66.4944 69.13536 74.38704 80.44512 86.41248 90.00096 96.24048 102.24816 107.278079 113.749439 116.390399 119.2632 125.2608 129.56496 133.18367 136.77214 142.76975 149.2411 154.99678 158.58525">condi&#x00e7;&#x00e3;o peculiar, que o</tspan></text>
<text xml:space="preserve" transform="matrix(1 0 -0 1 0 841.92)" font-size="10.08" font-family="Verdana"><tspan y="-350.02" x="164.71 169.96169 173.5804 179.81993 185.8276 189.18425 191.82521 198.29657 204.30425 207.88265 213.13433 218.92024 228.74825 234.74585 239.32218">s define como: </tspan></text>
<text xml:space="preserve" transform="matrix(1 0 -0 1 0 841.92)" font-size="10.08" font-family="Verdana"><tspan y="-350.02" x="242.74"> </tspan></text>
<text xml:space="preserve" transform="matrix(1 0 -0 1 0 841.92)" font-size="6.96" font-family="Verdana" font-weight="bold"><tspan y="-341.14" x="42.504"> </tspan></text>
<text xml:space="preserve" transform="matrix(1 0 -0 1 0 841.92)" font-size="10.08" font-family="Verdana"><tspan y="-329.38" x="42.504 49.46402">A)</tspan></text>
<text xml:space="preserve" transform="matrix(1 0 -0 1 0 841.92)" font-size="10.08" font-family="ArialMT"><tspan y="-329.38" x="53.784"> </tspan></text>
<text xml:space="preserve" transform="matrix(1 0 -0 1 0 841.92)" font-size="10.08" font-family="Verdana"><tspan y="-329.38" x="56.664 65.06064 71.06832 77.5296 83.52721 87.83137 93.83905 99.12097 102.47761 107.72929 113.78737 118.09153 123.837139 130.30849 134.14897 140.15665 145.40833">Menores carentes.</tspan></text>
<text xml:space="preserve" transform="matrix(1 0 -0 1 0 841.92)" font-size="10.08" font-family="Verdana"><tspan y="-329.38" x="148.85"> </tspan></text>
<text xml:space="preserve" transform="matrix(1 0 -0 1 0 841.92)" font-size="10.08" font-family="Verdana"><tspan y="-317.38" x="42.504 49.46398">B)</tspan></text>
<text xml:space="preserve" transform="matrix(1 0 -0 1 0 841.92)" font-size="10.08" font-family="ArialMT"><tspan y="-317.38" x="53.784"> </tspan></text>
<text xml:space="preserve" transform="matrix(1 0 -0 1 0 841.92)" font-size="10.08" font-family="Verdana"><tspan y="-317.38" x="56.664 62.661603 68.66928 73.92096 79.21296 85.21056 91.20817 96.45985 100.07856 105.83424 115.66224 119.25072 125.490238 131.24591 136.49759 142.50527 148.76496 154.75247 160.75008 163.62288 169.37856 172.25136 181.84752 187.8552 194.08464 198.15697 204.15457">Pessoas em desenvolvimento.</tspan></text>
<text xml:space="preserve" transform="matrix(1 0 -0 1 0 841.92)" font-size="10.08" font-family="Verdana"><tspan y="-317.38" x="207.91"> </tspan></text>
<text xml:space="preserve" transform="matrix(1 0 -0 1 0 841.92)" font-size="10.08" font-family="Verdana"><tspan y="-305.11" x="42.504 49.464044">C)</tspan></text>
<text xml:space="preserve" transform="matrix(1 0 -0 1 0 841.92)" font-size="10.08" font-family="ArialMT"><tspan y="-305.11" x="54.024"> </tspan></text>
<text xml:space="preserve" transform="matrix(1 0 -0 1 0 841.92)" font-size="10.08" font-family="Verdana"><tspan y="-305.11" x="56.664 60.97824 67.4496 73.205287 76.07809 78.95089 84.70657 91.17793 97.17554 102.93122 108.9389 111.80162 117.0533">Inalien&#x00e1;veis.</tspan></text>
<text xml:space="preserve" transform="matrix(1 0 -0 1 0 841.92)" font-size="10.08" font-family="Verdana"><tspan y="-305.11" x="120.53"> </tspan></text>
<text xml:space="preserve" transform="matrix(1 0 -0 1 0 841.92)" font-size="10.08" font-family="Verdana"><tspan y="-292.87" x="42.504 50.183984">D)</tspan></text>
<text xml:space="preserve" transform="matrix(1 0 -0 1 0 841.92)" font-size="10.08" font-family="ArialMT"><tspan y="-292.87" x="54.744"> </tspan></text>
<text xml:space="preserve" transform="matrix(1 0 -0 1 0 841.92)" font-size="10.08" font-family="Verdana"><tspan y="-292.87" x="56.664 62.661603 68.6592 72.96336 77.04576 83.043369 89.28288 95.28049 99.58465 105.59233 110.87425 114.46273 120.70225 126.45793 130.0464 136.28594 142.29361 147.54529 153.55297 158.60305 163.85472 166.75777 172.9973 178.99489 185.23442 190.9901 196.24178 199.86049 205.61617 210.86785 217.14769 223.15537 228.1752 231.048 237.0456 239.68656 244.93824">Portadores de necessidades especiais.</tspan></text>
<text xml:space="preserve" transform="matrix(1 0 -0 1 0 841.92)" font-size="10.08" font-family="Verdana"><tspan y="-292.87" x="248.74"> </tspan></text>
<text xml:space="preserve" transform="matrix(1 0 -0 1 0 841.92)" font-size="10.08" font-family="Verdana"><tspan y="-280.87" x="42.504 48.983564">E)</tspan></text>
<text xml:space="preserve" transform="matrix(1 0 -0 1 0 841.92)" font-size="10.08" font-family="ArialMT"><tspan y="-280.87" x="53.304"> </tspan></text>
<text xml:space="preserve" transform="matrix(1 0 -0 1 0 841.92)" font-size="10.08" font-family="Verdana"><tspan y="-280.87" x="56.664 63.609125 69.60673 74.858409 77.761447 83.51713 86.38993 96.217929 101.97361 108.21313 112.285449 118.29313 121.87153 127.62721 133.61473 138.86641 141.53762 147.77715 150.64995 156.88948 162.88709 168.13877">Socialmente exclu&#x00ed;dos.</tspan></text>
<text xml:space="preserve" transform="matrix(1 0 -0 1 0 841.92)" font-size="10.08" font-family="Verdana"><tspan y="-280.87" x="171.67"> </tspan></text>
<text xml:space="preserve" transform="matrix(1 0 -0 1 0 841.92)" font-size="6.96" font-family="Verdana"><tspan y="-271.75" x="42.504"> </tspan></text>
<path transform="matrix(1,0,0,-1,0,841.92)" d="M41.064 268.63H554.374V269.11006H41.064Z" fill-rule="evenodd"/>
<text xml:space="preserve" transform="matrix(1 0 -0 1 0 841.92)" font-size="6.96" font-family="Verdana"><tspan y="-261.67" x="42.504"> </tspan></text>
<text xml:space="preserve" transform="matrix(1 0 -0 1 0 841.92)" font-size="10.08" font-family="Verdana" font-weight="bold"><tspan y="-250.15" x="42.504 51.13248 59.31744 66.01056 73.1976 79.92096 87.60192 96.2304 99.355197 106.54223 113.72926">QUEST&#x00c3;O 45 </tspan></text>
<text xml:space="preserve" transform="matrix(1 0 -0 1 0 841.92)" font-size="10.08" font-family="Verdana" font-weight="bold"><tspan y="-250.15" x="116.93">&#x2013;</tspan></text>
<text xml:space="preserve" transform="matrix(1 0 -0 1 0 841.92)" font-size="10.08" font-family="Verdana" font-weight="bold"><tspan y="-250.15" x="124.13"> </tspan></text>
<text xml:space="preserve" transform="matrix(1 0 -0 1 0 841.92)" font-size="10.08" font-family="Verdana"><tspan y="-250.15" x="127.25 134.2052 140.2028 150.0308 153.38745 159.62699 165.62458 170.87625 176.88393 180.26073 186.73209 192.72969 195.85449 202.32585 209.28105">Com base no ECA</tspan></text>
<text xml:space="preserve" transform="matrix(1 0 -0 1 0 841.92)" font-size="10.08" font-family="Verdana"><tspan y="-250.15" x="216.34 219.93856 223.2952 229.05088 235.52223 241.51982 244.16078 247.03359 252.28527 258.29295 261.66975 267.66734 272.919 276.30589 282.06156 287.10157 292.35325 298.36094 302.69535 306.53584 309.40864 315.39616 321.39375 326.64543 330.0323 335.78797 342.0275 348.0251 350.8979 356.8854 362.883 366.23963 372.2473 375.60395 381.35963 386.6113 391.68156 394.55436 401.02574 406.7814 409.6542 415.6619 419.01853 425.96366 429.56224 432.687 437.9387 443.94639 447.32319 453.3107 459.06639 463.37055 469.6504 475.62785 481.86738 487.87507 490.50596 494.81013 500.82789 506.07957 509.70838 513.065 519.06259 525.5339 528.6587 534.41439 538.01296 541.36959 546.6213 552.62899">, analise as assertivas abaixo e assinale V, se verdadeiras, ou F, se </tspan></text>
<text xml:space="preserve" transform="matrix(1 0 -0 1 0 841.92)" font-size="10.08" font-family="Verdana"><tspan y="-237.91" x="42.504 46.092485 52.090085 54.962884 60.21456 66.272647 71.52432 74.88097">falsas. </tspan></text>
<text xml:space="preserve" transform="matrix(1 0 -0 1 0 841.92)" font-size="10.08" font-family="Verdana"><tspan y="-237.91" x="78.264"> </tspan></text>
<text xml:space="preserve" transform="matrix(1 0 -0 1 0 841.92)" font-size="6.96" font-family="Verdana"><tspan y="-229.03" x="42.504"> </tspan></text>
<text xml:space="preserve" transform="matrix(1 0 -0 1 0 841.92)" font-size="10.08" font-family="Verdana"><tspan y="-193.01" x="42.504 47.080324 50.658723 54.247205">(  )</tspan></text>
<text xml:space="preserve" transform="matrix(1 0 -0 1 0 841.92)" font-size="10.08" font-family="ArialMT"><tspan y="-193.01" x="58.584"> </tspan></text>
<text xml:space="preserve" transform="matrix(1 0 -0 1 0 841.92)" font-size="10.08" font-family="Verdana"><tspan y="-193.01" x="63.864 70.80912 76.0608 83.52 87.82416 93.6 99.58752 102.22848 107.480159 111.58272 117.58032 122.62032 130.04929 136.05696 143.47585 149.47345 155.94481 162.18434 164.8253 167.6981 172.94979 179.00786 184.25954 190.25714 196.01282 201.2645 208.7237 214.96323 220.9709 226.00083 229.84131 232.71411 239.18547 245.18306 251.42259 257.4202 262.4602 269.88917 275.88676 281.88435 289.3133 295.55284 302.0242 308.02183 310.89463 313.76744 319.0191 325.04695 332.23399 334.87495 341.3463 344.93479 350.69047 357.16184 361.23417 367.23176 370.5884 377.05979 382.81547 388.82316 395.05259 397.92539 400.56636 407.9953 414.23484 420.23243 426.47196 432.47966 436.7838 442.79148 448.78907 456.21803 461.4697 467.49754 473.73707 477.8094 483.81709 487.8894 495.31837 497.95933 500.83213 507.07167 512.32339 516.4259 520.73007 526.5059 531.7576 537.78549 543.79318 549.04489 552.4217">As revistas e publica&#x00e7;&#x00f5;es destinadas ao p&#x00fa;blico infantojuvenil poder&#x00e3;o conter ilustra&#x00e7;&#x00f5;es, </tspan></text>
<text xml:space="preserve" transform="matrix(1 0 -0 1 0 841.92)" font-size="10.08" font-family="Verdana"><tspan y="-180.77" x="63.864 67.45248 73.45008">fot</tspan></text>
<text xml:space="preserve" transform="matrix(1 0 -0 1 0 841.92)" font-size="10.08" font-family="Verdana"><tspan y="-180.77" x="77.544 83.5416 89.78112 94.08528 100.10304 103.45968 106.33248 112.330089 117.581768 121.21056 126.95616 129.82897 135.83664 142.06609 147.82176 154.29312 160.53266 166.53025 171.78192 175.1688 181.15631 187.1539 193.39344 199.63297 206.10433 211.14432 214.01712 220.01473 225.2664 231.28417 237.5237 243.27938 249.26689 255.50643 261.5141 267.50163 270.37443 276.61396 282.61155 287.65156 293.63908 299.39476 302.26756 307.30757 313.30516 319.30274 322.17555 325.04835 330.30003 336.3581 341.60978 344.96644 350.95396 356.95155 361.2557 371.10386 376.85954 382.1112 388.12898 393.88465 399.63026 409.45826 415.69779 422.16917 424.81013 430.0618 436.08964 442.09733 447.349 450.9677 456.71333 462.95286 468.96055 474.938 480.69367 485.94535 491.97319 496.27735 502.5572 508.53465 514.52218 519.77389 525.55978 535.38778 541.37527 547.3728 552.41287">ografias, legendas, an&#x00fa;ncios de bebidas alco&#x00f3;licas, armas e muni&#x00e7;&#x00f5;es, de acordo com os </tspan></text>
<text xml:space="preserve" transform="matrix(1 0 -0 1 0 841.92)" font-size="10.08" font-family="Verdana"><tspan y="-168.77" x="63.864 69.85152 75.84912 78.721927 84.71953 89.02369 95.03137 100.08145 103.66993 109.90945 115.91713 119.273769 124.525447 130.58353 136.79282 142.7904 146.37888 152.61841 158.62609 163.656 168.90769 174.93553 180.93312 184.52159 190.5192 196.99056 200.3472 203.93567 209.93326 219.52942 222.40222 225.04319 227.91599 233.91358">valores de cada pessoa ou fam&#x00ed;lia.</tspan></text>
<text xml:space="preserve" transform="matrix(1 0 -0 1 0 841.92)" font-size="10.08" font-family="Verdana"><tspan y="-168.77" x="237.46"> </tspan></text>
<text xml:space="preserve" transform="matrix(1 0 -0 1 0 841.92)" font-size="6.96" font-family="Verdana"><tspan y="-135.38" x="42.504"> </tspan></text>
<text xml:space="preserve" transform="matrix(1 0 -0 1 0 841.92)" font-size="10.08" font-family="Verdana"><tspan y="-123.62" x="42.504 49.44912 53.0376 59.035203 63.339365 69.6192 75.35472 85.18272 88.771198 94.02287 100.05071 104.35487 108.44736 114.45504 118.51728 124.514888 128.10337 134.10097 140.10865 143.68704 149.92658 154.23073 160.00656 166.01424 172.24369 177.49536 183.76512 186.63793 196.46593 202.2216 208.46114 212.53347 218.53107 222.11954 228.35907 234.35668 239.60836 243.22707 249.4666 255.46419 259.54658 265.55427 271.7837 275.85603 281.8637 286.89363 292.9013 298.15299 301.7717 305.36018 311.5997 317.6074 320.96403 326.2157 328.8869 338.7149 344.7125 348.30097 354.5405 360.5381 364.84226 370.6181 374.20658 380.4461 386.4437 389.3165 395.30403 401.3016 404.90019 408.2568 414.2645">A ordem correta de preenchimento dos par&#x00ea;nteses, de cima para baixo, &#x00e9;:</tspan></text>
<text xml:space="preserve" transform="matrix(1 0 -0 1 0 841.92)" font-size="10.08" font-family="Verdana"><tspan y="-123.62" x="418.97"> </tspan></text>
<text xml:space="preserve" transform="matrix(1 0 -0 1 0 841.92)" font-size="6.96" font-family="Verdana"><tspan y="-114.74" x="42.504"> </tspan></text>
<text xml:space="preserve" transform="matrix(1 0 -0 1 0 841.92)" font-size="10.08" font-family="Verdana"><tspan y="-102.98" x="42.504 49.46402">A)</tspan></text>
<text xml:space="preserve" transform="matrix(1 0 -0 1 0 841.92)" font-size="10.08" font-family="ArialMT"><tspan y="-102.98" x="53.784"> </tspan></text>
<text xml:space="preserve" transform="matrix(1 0 -0 1 0 841.92)" font-size="10.08" font-family="Verdana"><tspan y="-102.98" x="56.664 62.424005">F </tspan></text>
<text xml:space="preserve" transform="matrix(1 0 -0 1 0 841.92)" font-size="10.08" font-family="Verdana"><tspan y="-102.98" x="66.024">&#x2013;</tspan></text>
<text xml:space="preserve" transform="matrix(1 0 -0 1 0 841.92)" font-size="10.08" font-family="Verdana"><tspan y="-102.98" x="72.504"> </tspan></text>
<text xml:space="preserve" transform="matrix(1 0 -0 1 0 841.92)" font-size="10.08" font-family="Verdana"><tspan y="-102.98" x="76.104 81.62399">F </tspan></text>
<text xml:space="preserve" transform="matrix(1 0 -0 1 0 841.92)" font-size="10.08" font-family="Verdana"><tspan y="-102.98" x="85.224">&#x2013;</tspan></text>
<text xml:space="preserve" transform="matrix(1 0 -0 1 0 841.92)" font-size="10.08" font-family="Verdana"><tspan y="-102.98" x="91.488"> </tspan></text>
<text xml:space="preserve" transform="matrix(1 0 -0 1 0 841.92)" font-size="10.08" font-family="Verdana"><tspan y="-102.98" x="95.088 102.04802">V.</tspan></text>
<text xml:space="preserve" transform="matrix(1 0 -0 1 0 841.92)" font-size="10.08" font-family="Verdana"><tspan y="-102.98" x="105.41"> </tspan></text>
<text xml:space="preserve" transform="matrix(1 0 -0 1 0 841.92)" font-size="10.08" font-family="Verdana"><tspan y="-90.984" x="42.504 49.46398">B)</tspan></text>
<text xml:space="preserve" transform="matrix(1 0 -0 1 0 841.92)" font-size="10.08" font-family="ArialMT"><tspan y="-90.984" x="53.784"> </tspan></text>
<text xml:space="preserve" transform="matrix(1 0 -0 1 0 841.92)" font-size="10.08" font-family="Verdana"><tspan y="-90.984" x="56.664 62.424005">F </tspan></text>
<text xml:space="preserve" transform="matrix(1 0 -0 1 0 841.92)" font-size="10.08" font-family="Verdana"><tspan y="-90.984" x="66.024">&#x2013;</tspan></text>
<text xml:space="preserve" transform="matrix(1 0 -0 1 0 841.92)" font-size="10.08" font-family="Verdana"><tspan y="-90.984" x="72.504"> </tspan></text>
<text xml:space="preserve" transform="matrix(1 0 -0 1 0 841.92)" font-size="10.08" font-family="Verdana"><tspan y="-90.984" x="75.864 82.82402">V </tspan></text>
<text xml:space="preserve" transform="matrix(1 0 -0 1 0 841.92)" font-size="10.08" font-family="Verdana"><tspan y="-90.984" x="86.184">&#x2013;</tspan></text>
<text xml:space="preserve" transform="matrix(1 0 -0 1 0 841.92)" font-size="10.08" font-family="Verdana"><tspan y="-90.984" x="92.688"> </tspan></text>
<text xml:space="preserve" transform="matrix(1 0 -0 1 0 841.92)" font-size="10.08" font-family="Verdana"><tspan y="-90.984" x="96.288 102.048007">F.</tspan></text>
<text xml:space="preserve" transform="matrix(1 0 -0 1 0 841.92)" font-size="10.08" font-family="Verdana"><tspan y="-90.984" x="105.41"> </tspan></text>
<text xml:space="preserve" transform="matrix(1 0 -0 1 0 841.92)" font-size="10.08" font-family="Verdana"><tspan y="-78.744" x="42.504 49.464044">C)</tspan></text>
<text xml:space="preserve" transform="matrix(1 0 -0 1 0 841.92)" font-size="10.08" font-family="ArialMT"><tspan y="-78.744" x="54.024"> </tspan></text>
<text xml:space="preserve" transform="matrix(1 0 -0 1 0 841.92)" font-size="10.08" font-family="Verdana"><tspan y="-78.744" x="56.664 63.624025">V </tspan></text>
<text xml:space="preserve" transform="matrix(1 0 -0 1 0 841.92)" font-size="10.08" font-family="Verdana"><tspan y="-78.744" x="67.224">&#x2013;</tspan></text>
<text xml:space="preserve" transform="matrix(1 0 -0 1 0 841.92)" font-size="10.08" font-family="Verdana"><tspan y="-78.744" x="73.464"> </tspan></text>
<text xml:space="preserve" transform="matrix(1 0 -0 1 0 841.92)" font-size="10.08" font-family="Verdana"><tspan y="-78.744" x="77.064 82.824008">F </tspan></text>
<text xml:space="preserve" transform="matrix(1 0 -0 1 0 841.92)" font-size="10.08" font-family="Verdana"><tspan y="-78.744" x="86.184">&#x2013;</tspan></text>
<text xml:space="preserve" transform="matrix(1 0 -0 1 0 841.92)" font-size="10.08" font-family="Verdana"><tspan y="-78.744" x="92.688"> </tspan></text>
<text xml:space="preserve" transform="matrix(1 0 -0 1 0 841.92)" font-size="10.08" font-family="Verdana"><tspan y="-78.744" x="96.048 103.00802">V.</tspan></text>
<text xml:space="preserve" transform="matrix(1 0 -0 1 0 841.92)" font-size="10.08" font-family="Verdana"><tspan y="-78.744" x="106.61"> </tspan></text>
<text xml:space="preserve" transform="matrix(1 0 -0 1 0 841.92)" font-size="10.08" font-family="Verdana"><tspan y="-66.504" x="42.504 50.183984">D)</tspan></text>
<text xml:space="preserve" transform="matrix(1 0 -0 1 0 841.92)" font-size="10.08" font-family="ArialMT"><tspan y="-66.504" x="54.744"> </tspan></text>
<text xml:space="preserve" transform="matrix(1 0 -0 1 0 841.92)" font-size="10.08" font-family="Verdana"><tspan y="-66.504" x="56.664 63.624025">V </tspan></text>
<text xml:space="preserve" transform="matrix(1 0 -0 1 0 841.92)" font-size="10.08" font-family="Verdana"><tspan y="-66.504" x="67.224">&#x2013;</tspan></text>
<text xml:space="preserve" transform="matrix(1 0 -0 1 0 841.92)" font-size="10.08" font-family="Verdana"><tspan y="-66.504" x="73.464"> </tspan></text>
<text xml:space="preserve" transform="matrix(1 0 -0 1 0 841.92)" font-size="10.08" font-family="Verdana"><tspan y="-66.504" x="77.064 83.78372">V </tspan></text>
<text xml:space="preserve" transform="matrix(1 0 -0 1 0 841.92)" font-size="10.08" font-family="Verdana"><tspan y="-66.504" x="87.384">&#x2013;</tspan></text>
<text xml:space="preserve" transform="matrix(1 0 -0 1 0 841.92)" font-size="10.08" font-family="Verdana"><tspan y="-66.504" x="93.888"> </tspan></text>
<text xml:space="preserve" transform="matrix(1 0 -0 1 0 841.92)" font-size="10.08" font-family="Verdana"><tspan y="-66.504" x="97.248 104.20802">V.</tspan></text>
<text xml:space="preserve" transform="matrix(1 0 -0 1 0 841.92)" font-size="10.08" font-family="Verdana"><tspan y="-66.504" x="107.57"> </tspan></text>
<text xml:space="preserve" transform="matrix(1 0 -0 1 0 841.92)" font-size="10.08" font-family="Verdana"><tspan y="-54.48" x="42.504 48.983564">E)</tspan></text>
<text xml:space="preserve" transform="matrix(1 0 -0 1 0 841.92)" font-size="10.08" font-family="ArialMT"><tspan y="-54.48" x="53.304"> </tspan></text>
<text xml:space="preserve" transform="matrix(1 0 -0 1 0 841.92)" font-size="10.08" font-family="Verdana"><tspan y="-54.48" x="56.664 63.624025">V </tspan></text>
<text xml:space="preserve" transform="matrix(1 0 -0 1 0 841.92)" font-size="10.08" font-family="Verdana"><tspan y="-54.48" x="67.224">&#x2013;</tspan></text>
<text xml:space="preserve" transform="matrix(1 0 -0 1 0 841.92)" font-size="10.08" font-family="Verdana"><tspan y="-54.48" x="73.464"> </tspan></text>
<text xml:space="preserve" transform="matrix(1 0 -0 1 0 841.92)" font-size="10.08" font-family="Verdana"><tspan y="-54.48" x="77.064 82.824008">F </tspan></text>
<text xml:space="preserve" transform="matrix(1 0 -0 1 0 841.92)" font-size="10.08" font-family="Verdana"><tspan y="-54.48" x="86.184">&#x2013;</tspan></text>
<text xml:space="preserve" transform="matrix(1 0 -0 1 0 841.92)" font-size="10.08" font-family="Verdana"><tspan y="-54.48" x="92.688"> </tspan></text>
<text xml:space="preserve" transform="matrix(1 0 -0 1 0 841.92)" font-size="10.08" font-family="Verdana"><tspan y="-54.48" x="96.288 102.048007">F.</tspan></text>
<text xml:space="preserve" transform="matrix(1 0 -0 1 0 841.92)" font-size="10.08" font-family="Verdana"><tspan y="-54.48" x="105.41"> </tspan></text>
<text xml:space="preserve" transform="matrix(1 0 -0 1 42.504 428.464)" font-size="10.08" font-family="Verdana"><tspan y="-52.1507" x="0 6.96002">A)</tspan></text>
<text xml:space="preserve" transform="matrix(1 0 -0 1 42.504 428.464)" font-size="10.08" font-family="ArialMT"><tspan y="-52.1507" x="11.28"> </tspan></text>
<text xml:space="preserve" transform="matrix(1 0 -0 1 42.504 428.464)" font-size="10.08" font-family="Verdana"><tspan y="-52.1507" x="14.16 19.683842 25.69152 28.554242 32.142724 40.075685 44.379846 50.61936 56.375043 62.614564 65.487369 70.739048 76.79713 80.34528 86.62512 92.37073 95.959209 102.90433 107.94433 113.19601 115.86721 121.11889 125.22145 130.97713 137.44849 142.48848 145.36128 151.35887 154.84598">Lei Org&#x00e2;nica da Assist&#x00ea;ncia. </tspan><tspan y="-39.910699" x="0 6.9599807">B)</tspan></text>
<text xml:space="preserve" transform="matrix(1 0 -0 1 42.504 428.464)" font-size="10.08" font-family="ArialMT"><tspan y="-39.910699" x="11.28"> </tspan></text>
<text xml:space="preserve" transform="matrix(1 0 -0 1 42.504 428.464)" font-size="10.08" font-family="Verdana"><tspan y="-39.910699" x="14.16 21.115199 27.112799 33.352319 36.225118 42.464635 48.462236 52.050718 58.290235 64.29791 67.87631 73.87391 78.17807 84.19583 89.44751 95.23343 100.48511 105.787189 111.78479 115.37327 121.370868 127.12655 133.5979 139.59549 142.46829 145.96598">C&#x00f3;digo de Processo Penal. </tspan><tspan y="-27.670699" x="0 6.96004">C)</tspan></text>
<text xml:space="preserve" transform="matrix(1 0 -0 1 42.504 428.464)" font-size="10.08" font-family="ArialMT"><tspan y="-27.670699" x="11.52"> </tspan></text>
<text xml:space="preserve" transform="matrix(1 0 -0 1 42.504 428.464)" font-size="10.08" font-family="Verdana"><tspan y="-27.670699" x="14.160001 20.631361 25.671362 29.743681 35.741285 39.581766 46.053125 50.125444 56.123044 59.711526 65.95104 71.706729 75.295207 82.250408 86.554569 89.43745 95.19313 101.66449 106.91617 112.70209 116.290569 122.29825 125.87665 132.11618 138.11379 141.47043 148.41555 154.65508 160.65268 163.52548 169.28116 174.53284 179.83492 185.59059 192.06195 195.90244 201.91011 205.75603">Estatuto da Crian&#x00e7;a e do Adolescente. </tspan><tspan y="-15.430698" x=".0000009536743 7.679981">D)</tspan></text>
<text xml:space="preserve" transform="matrix(1 0 -0 1 42.504 428.464)" font-size="10.08" font-family="ArialMT"><tspan y="-15.430698" x="12.240001"> </tspan></text>
<text xml:space="preserve" transform="matrix(1 0 -0 1 42.504 428.464)" font-size="10.08" font-family="Verdana"><tspan y="-15.430698" x="14.160001 19.683842 25.69152 28.554242 32.142724 36.729124 42.706563 48.704164 54.701765 58.290246 64.52976 70.285449 73.873928 77.95633 84.42769 88.01617 93.77185 100.24321 105.28321 108.15601 114.30282 117.66282">Lei Jo&#x00e3;o da Inf&#x00e2;ncia. </tspan><tspan y="-3.1906987" x=".0000009536743 6.4795615">E)</tspan></text>
<text xml:space="preserve" transform="matrix(1 0 -0 1 42.504 428.464)" font-size="10.08" font-family="ArialMT"><tspan y="-3.1906987" x="10.800001"> </tspan></text>
<text xml:space="preserve" transform="matrix(1 0 -0 1 42.504 428.464)" font-size="10.08" font-family="Verdana"><tspan y="-3.1906987" x="14.160001 21.1152 27.1128 33.58416 38.83584 44.863679 47.736478 50.609277 56.848794 62.604475 67.856159 73.91424 79.8816 83.47008 89.709598 95.7072 100.95888 104.57759 110.10143 115.85712 118.72992 123.76992 127.3584 133.58783 137.89199 143.90975 150.14928 155.90496 158.77776 165.01729 167.89009 172.93009 177.00241 183 188.25168 191.836">Consolida&#x00e7;&#x00e3;o das Leis Trabalhistas. </tspan></text>
<text xml:space="preserve" transform="matrix(1 0 -0 1 42.504 640.07)" font-size="10.08" font-family="Verdana"><tspan y="-15.3993" x="-.0000016174 4.5763189 8.157743 11.746224">(  )</tspan></text>
<text xml:space="preserve" transform="matrix(1 0 -0 1 42.504 640.07)" font-size="10.08" font-family="ArialMT"><tspan y="-15.3993" x="16.084498"> </tspan></text>
<text xml:space="preserve" transform="matrix(1 0 -0 1 42.504 640.07)" font-size="10.08" font-family="Verdana"><tspan y="-15.3993" x="21.366007 28.805048 34.802648 40.05584 43.44752 49.4552 54.70688 60.986719 66.9944 71.036479 76.79216 82.04384 88.3136 91.1864 97.184009 102.437198 105.82407 111.82167 118.29303 124.53255 127.17351 130.04631 135.29799 141.32584 146.57752 150.20783 153.56447 159.804 165.55968 171.5472 177.55638 180.91303 186.6687 191.92038 196.02295 202.02054 206.10445 209.46109 215.45868 218.81533 221.68813 227.67565 233.67324">Nos espet&#x00e1;culos p&#x00fa;blicos, deve estar afixad</tspan></text>
<text xml:space="preserve" transform="matrix(1 0 -0 1 42.504 640.07)" font-size="10.08" font-family="Verdana"><tspan y="-15.3993" x="239.95302">a</tspan></text>
<text xml:space="preserve" transform="matrix(1 0 -0 1 42.504 640.07)" font-size="10.08" font-family="Verdana"><tspan y="-15.3993" x="245.88156 249.2382 255.24588 264.84355 268.20018 271.07298 277.54435 283.78388 289.53956 293.84526 297.22206 302.97773 305.85054 310.89054 313.76335 319.75086 325.50654 328.38084 331.73747 337.74668 341.1033 347.10093 353.11015 356.46678 360.05525 366.05284 371.09284 373.96565 376.60813 379.96476 385.96235 391.21403 397.2217 402.61988 407.89988 413.89747 417.49754 420.85417 426.85328 430.2099 436.2176 442.44703 446.51936 450.82353 456.84129 463.0808 469.07994 472.2047 478.44425 484.44337 487.8 490.6728 496.67039 501.92207 507.70799 510.34895"> em lugar vis&#x00ed;vel e de f&#x00e1;cil acesso, &#x00e0; entrada do local </tspan><tspan y="-3.3790999" x="21.359559 27.59908 33.60676 37.185159 43.192838 48.948518 51.821317 58.060834 60.701795 65.953479 72.01156 77.97892 81.577487 85.16596 91.16357 94.752048 97.393009 103.864368 107.45284 113.45045 117.532848 127.36084 133.35843 138.6101 144.66819 150.63555 154.22402 159.4757 165.50354 171.74308 175.82547 181.83315 185.41155 191.40914 194.76578 198.35425 204.35184 206.9928 212.98032 218.9779 222.56638 228.32205 232.39438 238.39197 242.69612 245.579 251.33467 254.92314 260.92076 264.27738 270.5169 276.98829 282.99598 286.3526 291.60429 297.61198 301.2206 307.46015 313.21583 318.4675 322.33824 325.21104 331.6824 337.68 341.03666 344.75553">de exibi&#x00e7;&#x00e3;o, a informa&#x00e7;&#x00e3;o sobre a faixa et&#x00e1;ria a que se destina.  </tspan></text>
<text xml:space="preserve" transform="matrix(1 0 -0 1 42.504 699.8147)" font-size="10.08" font-family="Verdana"><tspan y="-14.3467" x="0 4.57632 8.286838 11.875319">(  )</tspan></text>
<text xml:space="preserve" transform="matrix(1 0 -0 1 42.504 699.8147)" font-size="10.08" font-family="ArialMT"><tspan y="-14.3467" x="16.2782"> </tspan></text>
<text xml:space="preserve" transform="matrix(1 0 -0 1 42.504 699.8147)" font-size="10.08" font-family="Verdana"><tspan y="-14.3467" x="21.62426 29.55722 34.874959 42.148214 48.15589 53.40757 57.50005 63.49765 69.49525 75.50293 78.36565 84.12133 89.37301 92.04421 101.87221 107.62789 114.09925 118.17157 124.169178 129.27524 136.77025 142.76786 149.23921 155.06095 162.55596 168.56363 174.53099 180.55884 183.43164 189.42925 193.7334 199.74108 209.41338 212.96154 218.21321 223.99913 233.82714 239.83481 244.13896 249.18904 252.06185 258.05946 260.7004 270.5284 276.5361 282.76554 286.83787 292.6596 300.15464 306.39418 309.03514 311.6761 318.14747 324.14506 328.44923 331.8921 339.38713 344.6388 350.69688 355.94856 361.94615 367.0522 374.5472 380.78675 386.6085 394.10353 397.46018 403.45777 409.6973 415.6949">Os estabelecimentos que explorem comercialmente bilhar, casas de jogos</tspan></text>
<text xml:space="preserve" transform="matrix(1 0 -0 1 42.504 699.8147)" font-size="10.08" font-family="Verdana"><tspan y="-14.3467" x="421.00129"> </tspan></text>
<text xml:space="preserve" transform="matrix(1 0 -0 1 42.504 699.8147)" font-size="10.08" font-family="Verdana"><tspan y="-14.3467" x="424.5623"> </tspan></text>
<text xml:space="preserve" transform="matrix(1 0 -0 1 42.504 699.8147)" font-size="10.08" font-family="Verdana"><tspan y="-14.3467" x="428.10038">e</tspan></text>
<text xml:space="preserve" transform="matrix(1 0 -0 1 42.504 699.8147)" font-size="10.08" font-family="Verdana"><tspan y="-14.3467" x="438.04484"> </tspan></text>
<text xml:space="preserve" transform="matrix(1 0 -0 1 42.504 699.8147)" font-size="10.08" font-family="Verdana"><tspan y="-14.3467" x="441.59437 447.59196 453.83149 459.82908 464.86909 468.9414 474.939 479.9745 487.4695 491.31 497.3177 501.62187 507.3876">apostas ter&#x00e3;o</tspan><tspan y="-2.0865002" x="21.23935 27.47887 33.48655 37.79071 47.628789 50.26975 54.11023 56.98303 63.222547 69.220149 72.808628 78.80623 82.39471 88.3923 94.39999 98.70415 108.54223 114.29791 120.76927 126.524959 132.9963 138.0363 140.9091 146.9067 150.49517 156.7347 162.74237 166.09902 171.3507 175.46334 178.33614 184.33373 190.80509 196.05677 201.84268 207.09436 210.71308 216.46875 220.05722 226.05481 232.29434 238.29195 241.16475 247.17243 252.20235 257.45405 263.23997 269.9753 274.04765 279.8033 285.055 288.44187 294.91325 300.91084 304.4993 307.3721 313.3697 318.62138 324.4073 327.2801 330.7153">permitida a perman&#x00ea;ncia de crian&#x00e7;as e adolescentes no local. </tspan></text>
</g>
</svg>
