<svg xmlns="http://www.w3.org/2000/svg" xmlns:xlink="http://www.w3.org/1999/xlink" xmlns:inkscape="http://www.inkscape.org/namespaces/inkscape" version="1.1" width="595.44" height="841.92" viewBox="0 0 595.44 841.92">
<g>
<text xml:space="preserve" transform="matrix(1 0 -0 1 0 841.92)" font-size="7.92" font-family="Verdana"><tspan y="-795.58" x="42.504 47.541124 52.578245 57.615365 62.652486 68.17272 73.68504 79.197368 84.22656 89.26368 95.259128 101.96736 107.00448 113.00784">945_BASE_NM_DM</tspan></text>
<text xml:space="preserve" transform="matrix(1 0 -0 1 0 841.92)" font-size="7.92" font-family="Verdana"><tspan y="-795.58" x="120.05"> </tspan></text>
<text xml:space="preserve" transform="matrix(1 0 -0 1 0 841.92)" font-size="7.92" font-family="Verdana"><tspan y="-795.58" x="460.51 465.55003 470.59004 474.1886 479.2286 484.26863 487.8672 492.9072 498.1848 503.22483 508.26484 511.13475 516.17477 521.2147 524.8133 529.8533 535.1229 538.7215 543.7615">10/01/2025 15:14:17</tspan></text>
<text xml:space="preserve" transform="matrix(1 0 -0 1 0 841.92)" font-size="10.08" font-family="Verdana"><tspan y="-795.58" x="549.1"> </tspan></text>
<path transform="matrix(1,0,0,-1,0,841.92)" d="M41.064 804.48H554.614V804.95999H41.064Z" fill-rule="evenodd"/>
<text xml:space="preserve" transform="matrix(1 0 -0 1 0 841.92)" font-size="9.12" font-family="Verdana"><tspan y="-25.92" x="42.504 48.26784 53.54832 59.0568 63.6168 69.389759 74.16863 79.44911 84.984958 89.052478 92.17152 97.44288 103.215839 108.72431 114.24191 119.75039 123.343669 128.63327">Execu&#x00e7;&#x00e3;o: Fundatec</tspan></text>
<text xml:space="preserve" transform="matrix(1 0 -0 1 0 841.92)" font-size="9.12" font-family="Verdana"><tspan y="-25.92" x="133.25"> </tspan></text>
<path transform="matrix(1,0,0,-1,0,841.92)" d="M41.064 35.76H554.374V36.24004H41.064Z" fill-rule="evenodd"/>
<text xml:space="preserve" transform="matrix(1 0 -0 1 0 841.92)" font-size="9.12" font-family="Verdana"><tspan y="-14.88" x="250.9 257.85856 264.57087 270.80894 277.04704 284.00559 290.24366 293.3627 300.80464 307.51695 314.23838 317.84077 324.31596 327.91835 333.4177 339.65577">GUARDA MUNICIPAL</tspan></text>
<text xml:space="preserve" transform="matrix(1 0 -0 1 0 841.92)" font-size="9.12" font-family="Verdana"><tspan y="-14.88" x="344.54"> </tspan></text>
<text xml:space="preserve" transform="matrix(1 0 -0 1 0 841.92)" font-size="6" font-family="Verdana"><tspan y="-727.18" x="42.504"> </tspan></text>
<text xml:space="preserve" transform="matrix(1 0 -0 1 0 841.92)" font-size="6" font-family="Verdana"><tspan y="-658.99" x="42.504"> </tspan></text>
<path transform="matrix(1,0,0,-1,0,841.92)" d="M41.064 656.11H554.374V656.58999H41.064Z" fill-rule="evenodd"/>
<text xml:space="preserve" transform="matrix(1 0 -0 1 0 841.92)" font-size="6" font-family="Verdana"><tspan y="-650.11" x="42.504"> </tspan></text>
<text xml:space="preserve" transform="matrix(1 0 -0 1 0 841.92)" font-size="10.08" font-family="Verdana" font-weight="bold"><tspan y="-638.83" x="42.504 51.13248 59.31744 66.01056 73.1976 79.92096 87.60192 96.2304 100.776477 107.96351 115.15054">QUEST&#x00c3;O 52 </tspan></text>
<text xml:space="preserve" transform="matrix(1 0 -0 1 0 841.92)" font-size="10.08" font-family="Verdana" font-weight="bold"><tspan y="-638.83" x="119.81">&#x2013;</tspan></text>
<text xml:space="preserve" transform="matrix(1 0 -0 1 0 841.92)" font-size="10.08" font-family="Verdana" font-weight="bold"><tspan y="-638.83" x="127.01"> </tspan></text>
<text xml:space="preserve" transform="matrix(1 0 -0 1 0 841.92)" font-size="10.08" font-family="Verdana"><tspan y="-638.83" x="131.57 139.25098 145.72234 150.02649 155.80233 162.04186 166.11418 172.12186 176.89978 182.89739 187.68538 192.93706 198.72298 205.19434 209.98233 213.82282 220.29418 224.37657 230.84793 236.84554 241.63353 247.87306 253.88074 258.65867 263.69868 269.70637 274.01054 279.77629 282.64909 287.6891 293.68669 298.47468 304.48237 314.2902 319.10844 325.34797 335.17597 341.17356 345.96156 352.20109 356.50526 362.523 367.7747 373.83277 378.5905 384.58815 391.0595 397.05714 399.92994 402.5709 407.82258 413.88066 418.6384 424.87794 430.88563 435.66355 441.67124 446.9229 453.20277 459.1802 463.2626 467.33494 473.34263 478.37254 483.16053 489.1682 493.94615 497.3028 503.30039 507.60456 513.8844 516.5052 522.9765 528.2282 531.6151 536.40316 542.87448 552.47067">Durante o seu turno de servi&#x00e7;o em uma pra&#x00e7;a p&#x00fa;blica de esportes e jardins, um </tspan></text>
<text xml:space="preserve" transform="matrix(1 0 -0 1 0 841.92)" font-size="10.08" font-family="Verdana"><tspan y="-626.57" x="42.504 48.74352 55.21488 61.212484 65.51664 71.79648 77.532 80.88863 90.484798 96.72431 103.19567 106.068477 111.108478 113.98128 120.220798 125.97648 128.84928 131.97408 135.56255 141.56015 144.20111 147.55776 150.19872 156.67008 160.25855 166.25615 170.33855 180.16655 186.16414 192.40367 198.40128 201.99983 205.35648 211.59601 217.59362 221.67601 224.80081 231.27217 240.86833 243.99314 253.82114 259.81874 264.1229 270.14067 276.3802 282.37779 286.68196 290.05876 296.29829 302.29588 307.33589 310.6925 316.93205 321.2362 327.25398 333.00965 335.88246 345.4786 348.3514 354.59095 360.58854 366.82807 372.83576 378.08744 381.46424 384.82087 390.81849 397.28987 403.04554 406.17033 412.6417 422.23786 425.36265 431.834 437.8316 447.6596 453.6673 463.26347 466.6201 472.37577 477.62745 481.73 487.4857 493.4732 499.4708 502.82743 508.825 514.82266 519.1268 525.13449 531.14218 534.01498 540.48629 546.72579 552.48147">guarda municipal foi informado, por um morador das proximidades, que um homem estava agredindo </tspan></text>
<text xml:space="preserve" transform="matrix(1 0 -0 1 0 841.92)" font-size="10.08" font-family="Verdana"><tspan y="-614.57" x="42.504 48.501604 52.090085 58.097764 63.34944 69.62928 75.60672 80.8584 86.91648 90.46464 96.25056 106.07855 109.43519 115.90655 125.73454 129.32302 135.32062">a esposa em um pr</tspan></text>
<text xml:space="preserve" transform="matrix(1 0 -0 1 0 841.92)" font-size="10.08" font-family="Verdana"><tspan y="-614.57" x="139.73 145.73767 151.96712 154.83992 160.83753 164.426 170.4236 174.72776 180.74552 186.73303 189.374 199.202 205.1996 208.78807 214.78566 218.37413 224.61367 228.91782 234.69365 239.94533 246.0034 249.57172 253.16019 261.09315 264.67155 270.66917 277.14054 283.13813 287.22053 293.46006 299.45765 303.0461 312.8741 319.11366 325.35319 328.22599 333.47767 336.14888 342.3884 348.386 351.2588 354.61543 358.2039 364.20149 367.07429 370.66276 376.41844 380.49076 386.49845 390.07685 396.07444 399.43107 402.30387 408.30146 413.55314 419.6112 422.22193 425.8104 431.81809 435.4066 438.99507 444.99266 451.23219 457.22978 462.48146 466.10017 472.09776 478.33729 484.33488 488.41728 492.4896 498.48719 502.79136 506.4 512.15567 517.40737 521.02609 527.0237 533.0213 537.32546 541.40786 547.4155 552.4455">&#x00e9;dio pr&#x00f3;ximo &#x00e0; pra&#x00e7;a. O guarda municipal foi at&#x00e9; o local e, ap&#x00f3;s apartar as partes </tspan></text>
<text xml:space="preserve" transform="matrix(1 0 -0 1 0 841.92)" font-size="10.08" font-family="Verdana"><tspan y="-602.33" x="42.504 48.51168 54.972959 60.96048 66.958087 69.599048 75.58656 78.459369 84.69888 90.45457 95.706249 98.851207 104.60689 107.73168 111.32016 117.317768 122.609767 128.61745 132.67969 135.80449 141.8021 144.9269 149.23105 155.23873 161.24642 164.11922 169.15921 173.23154 177.53569 183.55345 186.67826 192.91779 198.91539 204.16707 207.08019 210.66866 216.66625 220.73857 226.73618 231.77617 234.90097 238.2576 244.49713 250.96849 255.04082 261.0384 263.92127 269.17295 275.20079 285.02879 287.91166 294.38304 304.21104 310.20863 313.3334 319.08909 325.3286 329.40095 335.39854 339.7027 342.58558 348.8251 354.8227 361.06224 366.8179 369.9427 376.18223 382.1798 384.82078 387.69358 392.94526 395.8483 401.60398 404.47679 408.07536 411.20014 416.9558 422.2075 425.35246 431.59199 437.34767 447.17567 453.17326 456.04606 461.08607 464.21086 470.45039 474.75456 480.7723 486.52799 489.4008 495.64033 501.396 507.86738 513.1191 516.0221 521.7778 527.0295 529.9426 536.1821 542.17977 546.4839 552.50167">envolvidas e fazer o registro dos fatos junto com uma autoridade policial, as demais provid&#x00ea;ncias para </tspan></text>
<text xml:space="preserve" transform="matrix(1 0 -0 1 0 841.92)" font-size="10.08" font-family="Verdana"><tspan y="-590.09" x="42.504 48.501604 52.332006 57.583688 63.641767 68.89345 74.89105 78.72145 82.30993 88.30753 92.611698 98.629459 108.45745 112.28785 116.36017 122.35777 132.18578 138.18337 144.4229 150.17858 155.43025 159.05905 162.88945 169.83457 172.47553 178.4832 188.29105 192.1416 198.38114 204.37873 209.6304 213.49105 219.48863 224.74031 230.76816 236.52384 241.77552 245.63616 255.46416 261.21983 267.6912 272.7312 275.604 281.6016 287.84114 293.8387 300.07826 306.07585 311.3275">o caso foram tomadas. Al&#x00e9;m das a&#x00e7;&#x00f5;es mencionadas </tspan></text>
<text xml:space="preserve" transform="matrix(1 0 -0 1 0 841.92)" font-size="10.08" font-family="Verdana"><tspan y="-590.09" x="315.48 321.4776 327.94898 331.78947 337.79716 342.10133 344.9842 350.98179 355.06419 364.89219 370.64787 377.11924 381.19157 387.19926 390.78776 394.61814 400.61576 407.08714 413.08473 415.95753 419.546">anteriormente, qual s</tspan></text>
<text xml:space="preserve" transform="matrix(1 0 -0 1 0 841.92)" font-size="10.08" font-family="Verdana"><tspan y="-590.09" x="424.97 430.9777 435.28187 441.28953 445.1199 451.1175 454.94789 460.94548 467.185 471.25733 475.5615 481.57926 485.40965 491.64918 495.95335 501.9711 507.72679 510.59959 516.83908 522.5947 528.8342 534.08596 536.98898 542.9866 546.81698 552.8146">er&#x00e1; a outra provid&#x00ea;ncia a </tspan></text>
<text xml:space="preserve" transform="matrix(1 0 -0 1 0 841.92)" font-size="10.08" font-family="Verdana"><tspan y="-578.09" x="42.504 47.755685 53.763364">ser</tspan></text>
<text xml:space="preserve" transform="matrix(1 0 -0 1 0 841.92)" font-size="10.08" font-family="Verdana"><tspan y="-578.09" x="58.104"> </tspan></text>
<text xml:space="preserve" transform="matrix(1 0 -0 1 0 841.92)" font-size="10.08" font-family="Verdana"><tspan y="-578.09" x="61.704 66.008159 71.784 78.02351 84.49487 90.25056 94.55472 97.4376 103.67712 109.67472 113.03136 119.502719 125.50032 128.85697 134.10865 136.77985 140.62033 147.09169 153.08928 158.34096 164.39904 170.3664 173.95487 179.95246 186.19199 190.49614 196.27198 201.52365 207.53133 213.79102 217.86334 223.86093 230.10047 236.09806">requerida na situa&#x00e7;&#x00e3;o apresentada?</tspan></text>
<text xml:space="preserve" transform="matrix(1 0 -0 1 0 841.92)" font-size="10.08" font-family="Verdana"><tspan y="-578.09" x="241.54"> </tspan></text>
<text xml:space="preserve" transform="matrix(1 0 -0 1 0 841.92)" font-size="6" font-family="Verdana"><tspan y="-569.93" x="42.504"> </tspan></text>
<text xml:space="preserve" transform="matrix(1 0 -0 1 0 841.92)" font-size="6" font-family="Verdana" font-weight="bold"><tspan y="-501.74" x="42.504"> </tspan></text>
<path transform="matrix(1,0,0,-1,0,841.92)" d="M41.064 499.1H554.374V499.58003H41.064Z" fill-rule="evenodd"/>
<text xml:space="preserve" transform="matrix(1 0 -0 1 0 841.92)" font-size="6" font-family="Verdana" font-weight="bold"><tspan y="-493.1" x="42.504"> </tspan></text>
<text xml:space="preserve" transform="matrix(1 0 -0 1 0 841.92)" font-size="10.08" font-family="Verdana" font-weight="bold"><tspan y="-481.58" x="42.504 51.13248 59.31744 66.01056 73.1976 79.92096 87.60192 96.2304 101.744159 108.93119 116.118228">QUEST&#x00c3;O 53 </tspan></text>
<text xml:space="preserve" transform="matrix(1 0 -0 1 0 841.92)" font-size="10.08" font-family="Verdana" font-weight="bold"><tspan y="-481.58" x="121.49">&#x2013;</tspan></text>
<text xml:space="preserve" transform="matrix(1 0 -0 1 0 841.92)" font-size="10.08" font-family="Verdana" font-weight="bold"><tspan y="-481.58" x="128.69"> </tspan></text>
<text xml:space="preserve" transform="matrix(1 0 -0 1 0 841.92)" font-size="10.08" font-family="Verdana"><tspan y="-481.58" x="134.21 141.89098 148.36234 154.35993 157.00089 162.74648 168.75415 174.49974 180.49735 186.24294 192.24054 196.5447 202.82454 208.80197 214.79958 220.31334 224.6175 230.62517 235.90709 242.14662 248.14423 254.38376 259.63545 265.6935 271.66087 277.42665 280.29945 285.8132 292.05274 298.05033 302.3545 308.12025 314.35978 320.35737 324.66154 330.42729 336.18296 340.25529 346.26298 352.4924 357.74409 363.80216 369.7695 375.5151 381.5228 386.77449 392.79225 398.79994 404.0516 406.94459 412.70027 415.57307 421.08683 427.0945 432.84013 439.07966 443.16206 446.03486 452.03245 456.3366 459.21949 465.459 471.4566 477.69615 483.4518 489.19743 495.195 500.23503 505.98063 511.2323 513.9035 517.74398 524.2153 529.97097 535.22268 541.2505 547.2582 552.5099">Qual &#x00e9; o &#x00f3;rg&#x00e3;o respons&#x00e1;vel por dar aten&#x00e7;&#x00e3;o especial e prioridade &#x00e0;s situa&#x00e7;&#x00f5;es </tspan></text>
<text xml:space="preserve" transform="matrix(1 0 -0 1 0 841.92)" font-size="10.08" font-family="Verdana"><tspan y="-469.56" x="42.504 48.74352 51.616319 56.867998 63.147836 69.13535 74.175357 78.24767 84.24528 89.496959 92.883838 99.355197 105.3528 108.94128 114.46512 120.2208 123.093608 126.68208 135.07872 141.07631 145.1587 148.03151 154.0291 157.61757 163.8571 169.85469 173.44316 179.44077 185.19644 191.43598 197.90734 203.90493">dispostas na Lei Maria da Penha?</tspan></text>
<text xml:space="preserve" transform="matrix(1 0 -0 1 0 841.92)" font-size="10.08" font-family="Verdana"><tspan y="-469.56" x="209.35"> </tspan></text>
<text xml:space="preserve" transform="matrix(1 0 -0 1 0 841.92)" font-size="6" font-family="Verdana"><tspan y="-461.4" x="42.504"> </tspan></text>
<text xml:space="preserve" transform="matrix(1 0 -0 1 0 841.92)" font-size="10.08" font-family="Verdana"><tspan y="-450.12" x="42.504 49.46402">A)</tspan></text>
<text xml:space="preserve" transform="matrix(1 0 -0 1 0 841.92)" font-size="10.08" font-family="ArialMT"><tspan y="-450.12" x="53.784"> </tspan></text>
<text xml:space="preserve" transform="matrix(1 0 -0 1 0 841.92)" font-size="10.08" font-family="Verdana"><tspan y="-450.12" x="56.664 64.34496 70.352649 76.582088 82.57969 86.88385 90.96625 96.96385 106.56001 112.567699 118.797138 122.86945 128.86705 132.45552 138.69506 144.70273 148.05937 155.99234 160.2965 166.53603 172.2917 182.1197 185.70818 191.70578 198.17714 204.17475 206.8157 209.6885 214.94019 220.99826 224.54642 230.33234 233.9208 240.86592 246.86353 251.90352 254.77632 260.77394 263.64674">Departamento de Ordem P&#x00fa;blica e Social.</tspan></text>
<text xml:space="preserve" transform="matrix(1 0 -0 1 0 841.92)" font-size="10.08" font-family="Verdana"><tspan y="-450.12" x="267.22"> </tspan></text>
<text xml:space="preserve" transform="matrix(1 0 -0 1 0 841.92)" font-size="10.08" font-family="Verdana"><tspan y="-437.88" x="42.504 49.46398">B)</tspan></text>
<text xml:space="preserve" transform="matrix(1 0 -0 1 0 841.92)" font-size="10.08" font-family="ArialMT"><tspan y="-437.88" x="53.784"> </tspan></text>
<text xml:space="preserve" transform="matrix(1 0 -0 1 0 841.92)" font-size="10.08" font-family="Verdana"><tspan y="-437.88" x="56.664 64.34496 67.217769 73.205287 75.846248 81.09792 87.156009 93.12337 96.711849 102.70944 108.70705 111.57985 114.22081 119.47249 122.37553 128.13121 131.00402 134.59249 140.83202 146.58769 151.83937 155.45809 162.41329 168.16896 171.04177 177.03936 182.29103 188.31888 194.32656 199.57823 202.95503 209.90015 215.65583 221.64334 228.1147 233.87038 236.74318 241.99486 245.38173 251.3894 254.9678 261.20735 267.21504 270.57167 278.48448 284.24015 290.71153 296.7192 300.79154 306.78913">Divis&#x00e3;o Policial das Rela&#x00e7;&#x00f5;es Sexuais e de G&#x00ea;nero.</tspan></text>
<text xml:space="preserve" transform="matrix(1 0 -0 1 0 841.92)" font-size="10.08" font-family="Verdana"><tspan y="-437.88" x="310.68"> </tspan></text>
<text xml:space="preserve" transform="matrix(1 0 -0 1 0 841.92)" font-size="10.08" font-family="Verdana"><tspan y="-425.88" x="42.504 49.464044">C)</tspan></text>
<text xml:space="preserve" transform="matrix(1 0 -0 1 0 841.92)" font-size="10.08" font-family="ArialMT"><tspan y="-425.88" x="54.024"> </tspan></text>
<text xml:space="preserve" transform="matrix(1 0 -0 1 0 841.92)" font-size="10.08" font-family="Verdana"><tspan y="-425.88" x="56.664 64.34496 70.352649 73.21536 79.223049 85.452487 91.45009 96.49009 99.36289 105.3605 108.71713 115.18849 120.44017 126.72001 132.4656 137.71729 140.62033 146.376 149.24881 152.12162 157.41362 163.40114 169.64067 175.39635 178.98482 185.22435 191.23203 194.58867 201.53379 205.37427 211.38195 217.84323 223.84084 226.71364 236.54164 242.29732 248.53685 252.60918 258.60676 262.19523 268.1928 271.78129 279.94609 286.41746 289.0584 295.5298 301.28547 305.58964">Delegacia Especializada de Atendimento &#x00e0; Mulher.</tspan></text>
<text xml:space="preserve" transform="matrix(1 0 -0 1 0 841.92)" font-size="10.08" font-family="Verdana"><tspan y="-425.88" x="309.48"> </tspan></text>
<text xml:space="preserve" transform="matrix(1 0 -0 1 0 841.92)" font-size="10.08" font-family="Verdana"><tspan y="-413.64" x="42.504 50.183984">D)</tspan></text>
<text xml:space="preserve" transform="matrix(1 0 -0 1 0 841.92)" font-size="10.08" font-family="ArialMT"><tspan y="-413.64" x="54.744"> </tspan></text>
<text xml:space="preserve" transform="matrix(1 0 -0 1 0 841.92)" font-size="10.08" font-family="Verdana"><tspan y="-413.64" x="56.664 63.609125 69.616809 73.67905 79.67665 83.75905 87.34753 94.30273 98.60689 101.25793 111.08592 113.72688 120.19824 125.953929 128.82672 132.41519 138.65473 144.6624 148.2408 153.99649 160.00417 164.30832 166.95937 172.21105 175.11409 181.11168 184.46833 191.19168 194.06449 198.13681 203.89249 208.19664 214.67809 220.43376 224.50609 227.14705 233.13457 239.13216">Setor Criminal de Per&#x00ed;cia Alternativa.</tspan></text>
<text xml:space="preserve" transform="matrix(1 0 -0 1 0 841.92)" font-size="10.08" font-family="Verdana"><tspan y="-413.64" x="242.74"> </tspan></text>
<text xml:space="preserve" transform="matrix(1 0 -0 1 0 841.92)" font-size="10.08" font-family="Verdana"><tspan y="-401.4" x="42.504 48.983564">E)</tspan></text>
<text xml:space="preserve" transform="matrix(1 0 -0 1 0 841.92)" font-size="10.08" font-family="ArialMT"><tspan y="-401.4" x="53.304"> </tspan></text>
<text xml:space="preserve" transform="matrix(1 0 -0 1 0 841.92)" font-size="10.08" font-family="Verdana"><tspan y="-401.4" x="56.664 63.609125 69.616809 74.868488 79.20289 84.95857 89.03089 95.028499 99.11089 101.983699 107.9813 111.56978 119.73457 126.20593 132.44547 135.31827 140.35826 143.23107 149.4706 155.46819 158.10915 161.69762 167.93715 173.93474 177.29138 184.2365 189.48818 194.55841 197.43122 202.4712 206.54354 212.55121 218.78066 224.03234 226.93538 232.69106 236.27953 242.2872 245.8656 251.8632 256.16737 262.18513 272.01313 278.0107 283.2624 289.32048 295.2878 298.64445 304.64207 308.94624 314.964 321.20353 327.6749 331.51539 334.38819 340.3757 346.3733 349.97187">Secretaria Municipal da Assist&#x00ea;ncia e Promo&#x00e7;&#x00e3;o Produtiva. </tspan></text>
<text xml:space="preserve" transform="matrix(1 0 -0 1 0 841.92)" font-size="10.08" font-family="Verdana"><tspan y="-401.4" x="353.66"> </tspan></text>
<text xml:space="preserve" transform="matrix(1 0 -0 1 0 841.92)" font-size="6" font-family="Verdana"><tspan y="-393.48" x="42.504"> </tspan></text>
<path transform="matrix(1,0,0,-1,0,841.92)" d="M41.064 390.6H554.374V391.08003H41.064Z" fill-rule="evenodd"/>
<text xml:space="preserve" transform="matrix(1 0 -0 1 0 841.92)" font-size="6" font-family="Verdana"><tspan y="-384.58" x="42.504"> </tspan></text>
<text xml:space="preserve" transform="matrix(1 0 -0 1 0 841.92)" font-size="6" font-family="Verdana"><tspan y="-304.39" x="42.504"> </tspan></text>
<text xml:space="preserve" transform="matrix(1 0 -0 1 0 841.92)" font-size="10.08" font-family="Verdana"><tspan y="-292.87" x="42.504 49.46402">A)</tspan></text>
<text xml:space="preserve" transform="matrix(1 0 -0 1 0 841.92)" font-size="10.08" font-family="ArialMT"><tspan y="-292.87" x="53.784"> </tspan></text>
<text xml:space="preserve" transform="matrix(1 0 -0 1 0 841.92)" font-size="10.08" font-family="Verdana"><tspan y="-292.87" x="56.664 60.97824 67.4496 72.70128 78.72912 82.811519 87.11568 93.12336 97.20576 103.20336 106.560009 110.14848 116.388 122.385608 125.25841 130.51009 133.89696 139.14864 145.15631 149.25887 152.13167 158.12926 161.71773 167.71532 173.71292 180.18428 185.43596 191.4638 195.05228">Incorreta, pois seria abuso d</tspan></text>
<text xml:space="preserve" transform="matrix(1 0 -0 1 0 841.92)" font-size="10.08" font-family="Verdana"><tspan y="-292.87" x="201.43 207.18567 210.77414 216.77173 223.01126 227.08359 233.08119 237.38535 240.26822 246.50775 252.50534 258.50297 264.51066">e autoridade.</tspan></text>
<text xml:space="preserve" transform="matrix(1 0 -0 1 0 841.92)" font-size="10.08" font-family="Verdana"><tspan y="-292.87" x="268.18"> </tspan></text>
<text xml:space="preserve" transform="matrix(1 0 -0 1 0 841.92)" font-size="10.08" font-family="Verdana"><tspan y="-280.87" x="42.504 49.46398">B)</tspan></text>
<text xml:space="preserve" transform="matrix(1 0 -0 1 0 841.92)" font-size="10.08" font-family="ArialMT"><tspan y="-280.87" x="53.784"> </tspan></text>
<text xml:space="preserve" transform="matrix(1 0 -0 1 0 841.92)" font-size="10.08" font-family="Verdana"><tspan y="-280.87" x="56.664 63.6192 69.616809 73.92097 78.245288 84.25297 88.31521 94.31281 97.91138 101.499858 107.73937 113.73698 116.37794 121.629619 125.24833 131.25601 136.28594 140.35826 146.35585 150.43825 153.31105 159.30864 162.89711 168.65279 172.72512 178.48079 184.95215 191.19168 197.19936 203.66065 209.90018 215.65586 219.24433 225.24192 228.83039 235.06992 244.89792 250.89551 254.25215 259.50386 262.17506 266.24739 272.71876 278.47444 283.7261 289.78419 295.75154 299.10816 305.3477 311.35539 314.93379 318.2904 321.1632 327.1608 333.40034 337.7045 343.72227 349.9618 354.03413 360.0418 363.39845 369.63798 375.64567 378.27656 381.14936 385.22169 391.21928">Correta, pois estaria atendendo a uma situa&#x00e7;&#x00e3;o de flagrante delito.</tspan></text>
<text xml:space="preserve" transform="matrix(1 0 -0 1 0 841.92)" font-size="10.08" font-family="Verdana"><tspan y="-280.87" x="394.94"> </tspan></text>
<text xml:space="preserve" transform="matrix(1 0 -0 1 0 841.92)" font-size="10.08" font-family="Verdana"><tspan y="-268.63" x="42.504 49.464044">C)</tspan></text>
<text xml:space="preserve" transform="matrix(1 0 -0 1 0 841.92)" font-size="10.08" font-family="ArialMT"><tspan y="-268.63" x="54.024"> </tspan></text>
<text xml:space="preserve" transform="matrix(1 0 -0 1 0 841.92)" font-size="10.08" font-family="Verdana"><tspan y="-268.63" x="56.664 60.97824 67.4496 72.70128 78.72912 82.811519 87.11568 93.12336 97.20576 103.20336 106.560009 110.14848 116.388 122.385608 125.25841 130.51009 133.89696 140.36832 146.3659 152.36351 155.95198 160.99198 166.99965 170.57805 175.82973 181.61565 188.087 191.44365 194.31645 200.55599 207.02735 211.3315 217.10733 220.6958 225.7358 228.6086 232.44908 238.92044 244.91803 250.16971 256.22779 262.19514 265.7836 272.02314 277.7788 281.36729 286.61897 292.6468 297.6868 303.6844 307.98857 312.3129 318.3105">Incorreta, pois n&#x00e3;o se configura situa&#x00e7;&#x00e3;o de socorro.</tspan></text>
<text xml:space="preserve" transform="matrix(1 0 -0 1 0 841.92)" font-size="10.08" font-family="Verdana"><tspan y="-268.63" x="322.2"> </tspan></text>
<text xml:space="preserve" transform="matrix(1 0 -0 1 0 841.92)" font-size="10.08" font-family="Verdana"><tspan y="-256.39" x="42.504 50.183984">D)</tspan></text>
<text xml:space="preserve" transform="matrix(1 0 -0 1 0 841.92)" font-size="10.08" font-family="ArialMT"><tspan y="-256.39" x="54.744"> </tspan></text>
<text xml:space="preserve" transform="matrix(1 0 -0 1 0 841.92)" font-size="10.08" font-family="Verdana"><tspan y="-256.39" x="56.664 63.6192 69.616809 73.92097 78.245288 84.25297 88.31521 94.31281 97.91138 101.499858 107.73937 113.73698 116.37794 121.629619 125.24833 131.24593 134.60257 137.47537 147.30338 153.54291 159.55059 165.53812 168.41092 178.00708 184.01476 190.2442 194.31653 200.31414 203.9026 209.15428 215.18213 218.7706 224.7682 230.01988 236.04773 240.35189 244.44435 250.45203 254.03043 259.7861 269.6141 273.20259 278.45426 284.24018 289.49186 295.51969 298.8763 305.11585 311.12355 314.70195 320.94148 326.94917 332.20085 338.2186 343.2586 347.33094 351.6351 357.6428">Correta, pois o impedimento s&#x00f3; ocorre em caso de desastre.</tspan></text>
<text xml:space="preserve" transform="matrix(1 0 -0 1 0 841.92)" font-size="10.08" font-family="Verdana"><tspan y="-256.39" x="361.34"> </tspan></text>
<text xml:space="preserve" transform="matrix(1 0 -0 1 0 841.92)" font-size="10.08" font-family="Verdana"><tspan y="-244.39" x="42.504 48.983564">E)</tspan></text>
<text xml:space="preserve" transform="matrix(1 0 -0 1 0 841.92)" font-size="10.08" font-family="ArialMT"><tspan y="-244.39" x="53.304"> </tspan></text>
<text xml:space="preserve" transform="matrix(1 0 -0 1 0 841.92)" font-size="10.08" font-family="Verdana"><tspan y="-244.39" x="56.664 60.97824 67.4496 72.70128 78.72912 82.811519 87.11568 93.12336 97.20576 103.20336 106.560009 110.14848 116.388 122.385608 125.25841 130.51009 133.89696 139.14864 145.17649 151.64785 155.00449 157.87729 163.8749 170.34626 174.6504 180.66817 184.02481 186.89762 193.13715 199.12467 205.12226 210.37393 216.432 222.39937 225.75601 228.62882 231.50162 237.2573 243.49683 249.49442 252.36722">Incorreta, pois configura invas&#x00e3;o ilegal.</tspan></text>
<text xml:space="preserve" transform="matrix(1 0 -0 1 0 841.92)" font-size="10.08" font-family="Verdana"><tspan y="-244.39" x="255.94"> </tspan></text>
<text xml:space="preserve" transform="matrix(1 0 -0 1 0 841.92)" font-size="6" font-family="Verdana"><tspan y="-236.23" x="42.504"> </tspan></text>
<path transform="matrix(1,0,0,-1,0,841.92)" d="M41.064 233.59H554.374V234.06998H41.064Z" fill-rule="evenodd"/>
<text xml:space="preserve" transform="matrix(1 0 -0 1 0 841.92)" font-size="6" font-family="Verdana" font-weight="bold"><tspan y="-227.59" x="42.504"> </tspan></text>
<text xml:space="preserve" transform="matrix(1 0 -0 1 0 841.92)" font-size="6" font-family="Verdana"><tspan y="-98.664" x="42.504 44.664">  </tspan></text>
<text xml:space="preserve" transform="matrix(1 0 -0 1 0 841.92)" font-size="6" font-family="Verdana"><tspan y="-98.664" x="46.824"> </tspan></text>
<text xml:space="preserve" transform="matrix(1 0 -0 1 0 841.92)" font-size="10.08" font-family="Verdana"><tspan y="-88.6447" x="42.504 49.46402">A)</tspan></text>
<text xml:space="preserve" transform="matrix(1 0 -0 1 0 841.92)" font-size="10.08" font-family="ArialMT"><tspan y="-88.6447" x="53.784"> </tspan></text>
<text xml:space="preserve" transform="matrix(1 0 -0 1 0 841.92)" font-size="10.08" font-family="Verdana"><tspan y="-88.6447" x="56.664 62.661603 68.6592 73.91088 79.21296 85.22064 88.79904 91.44 95.74416 100.06848 106.076168 112.06368 118.53504 121.407848 127.40545 131.48786 135.07633 141.31586 147.32353 150.90193 156.89952 160.98192 170.80992 176.80751">Posse irregular de arma.</tspan></text>
<text xml:space="preserve" transform="matrix(1 0 -0 1 0 841.92)" font-size="10.08" font-family="Verdana"><tspan y="-88.6447" x="180.31"> </tspan></text>
<text xml:space="preserve" transform="matrix(1 0 -0 1 0 841.92)" font-size="10.08" font-family="Verdana"><tspan y="-76.6447" x="42.504 49.46398">B)</tspan></text>
<text xml:space="preserve" transform="matrix(1 0 -0 1 0 841.92)" font-size="10.08" font-family="ArialMT"><tspan y="-76.6447" x="53.784"> </tspan></text>
<text xml:space="preserve" transform="matrix(1 0 -0 1 0 841.92)" font-size="10.08" font-family="Verdana"><tspan y="-76.6447" x="56.664 64.34496 67.217769 72.469448 78.74928 84.73681 89.04097 95.05873 98.41537 101.28817 107.75953 113.757129 116.62993 120.93409 126.70993 130.78226 136.77986 140.36833 146.60787 152.36354 155.95201 161.9496 166.25376 176.10192 181.85759 185.44606 191.6856 197.69327 201.27167 204.86014 210.85774 217.09728 223.09488">Disparo indireto de arma de fogo.</tspan></text>
<text xml:space="preserve" transform="matrix(1 0 -0 1 0 841.92)" font-size="10.08" font-family="Verdana"><tspan y="-76.6447" x="226.66"> </tspan></text>
<text xml:space="preserve" transform="matrix(1 0 -0 1 0 841.92)" font-size="10.08" font-family="Verdana"><tspan y="-64.4047" x="42.504 49.464044">C)</tspan></text>
<text xml:space="preserve" transform="matrix(1 0 -0 1 0 841.92)" font-size="10.08" font-family="ArialMT"><tspan y="-64.4047" x="54.024"> </tspan></text>
<text xml:space="preserve" transform="matrix(1 0 -0 1 0 841.92)" font-size="10.08" font-family="Verdana"><tspan y="-64.4047" x="56.664 64.59696 74.4048 77.06592 82.3176 87.619678 93.61728 99.61488 103.20336 109.44288 115.45056 118.8072 124.058879 130.08672 135.3384 141.36624 145.6704 149.9947 155.99231">Omiss&#x00e3;o de socorro.</tspan></text>
<text xml:space="preserve" transform="matrix(1 0 -0 1 0 841.92)" font-size="10.08" font-family="Verdana"><tspan y="-64.4047" x="159.67"> </tspan></text>
<text xml:space="preserve" transform="matrix(1 0 -0 1 0 841.92)" font-size="10.08" font-family="Verdana"><tspan y="-52.1407" x="42.504 50.183984">D)</tspan></text>
<text xml:space="preserve" transform="matrix(1 0 -0 1 0 841.92)" font-size="10.08" font-family="ArialMT"><tspan y="-52.1407" x="54.744"> </tspan></text>
<text xml:space="preserve" transform="matrix(1 0 -0 1 0 841.92)" font-size="10.08" font-family="Verdana"><tspan y="-52.1407" x="56.664 64.59696 74.4048 77.06592 82.3176 87.619678 93.61728 99.61488 103.20336 109.44288 115.45056 118.8072 124.058879 130.11696 136.32625 140.39858 146.15425 149.02706 155.02465">Omiss&#x00e3;o de cautela.</tspan></text>
<text xml:space="preserve" transform="matrix(1 0 -0 1 0 841.92)" font-size="10.08" font-family="Verdana"><tspan y="-52.1407" x="158.47"> </tspan></text>
<text xml:space="preserve" transform="matrix(1 0 -0 1 0 841.92)" font-size="10.08" font-family="Verdana"><tspan y="-40.1407" x="42.504 48.983564">E)</tspan></text>
<text xml:space="preserve" transform="matrix(1 0 -0 1 0 841.92)" font-size="10.08" font-family="ArialMT"><tspan y="-40.1407" x="53.304"> </tspan></text>
<text xml:space="preserve" transform="matrix(1 0 -0 1 0 841.92)" font-size="10.08" font-family="Verdana"><tspan y="-40.1407" x="56.664 63.609125 69.84864 76.32 81.57168 87.3576 90.946079 97.18559 103.1832 106.771678 112.76927 119.24063 125.238239 131.47777 135.5501 138.4229 144.66243 150.66002 156.65763 162.6653 166.2437 172.48323 178.2389 181.82738 187.82497 192.12912 201.97728 207.73296 212.98464 216.60335 222.84288 228.84049 234.09217 239.1624 242.0352 248.02272 253.7784 256.65119 261.90287">Abuso da quantidade de armas poss&#x00ed;veis.</tspan></text>
<text xml:space="preserve" transform="matrix(1 0 -0 1 0 841.92)" font-size="10.08" font-family="Verdana"><tspan y="-40.1407" x="265.54"> </tspan></text>
<text xml:space="preserve" transform="matrix(1 0 -0 1 42.504 109.22101)" font-size="10.08" font-family="Verdana" font-weight="bold"><tspan y="-51.0668" x="0 8.62848 16.81344 23.50656 30.6936 37.41696 45.09792 53.747735 56.872537 64.05957 71.267948">QUEST&#x00c3;O 51 </tspan></text>
<text xml:space="preserve" transform="matrix(1 0 -0 1 42.504 109.22101)" font-size="10.08" font-family="Verdana" font-weight="bold"><tspan y="-51.0668" x="74.4687">&#x2013;</tspan></text>
<text xml:space="preserve" transform="matrix(1 0 -0 1 42.504 109.22101)" font-size="10.08" font-family="Verdana"><tspan y="-51.0668" x="81.690029 85.05002 92.48906 98.507999 101.86463 104.50559 110.97695 115.04927 121.05695 125.12927 128.00208 133.99968 138.32517 141.70197 147.9415 153.96044 157.31708 163.55661 167.86077 173.86844 179.87613 182.74893 188.76787 192.12451 198.36405 204.39305 207.50777 213.97913 223.80713 229.82605 233.1827 237.26509 243.02077 249.2603 255.25789 259.56205 263.64445 266.2854 271.53709 277.59516 283.58387 286.9405 293.18003 299.6514 305.64903 308.52183 311.16279 316.41447 322.49388 325.82026 332.05979 338.0787 341.43534 349.83198 356.0715 362.54289 365.18385 370.43553 373.33857 379.33619 382.20899 388.20658 391.82649 395.1831 401.1807 406.43238 412.4602 416.76438 421.0887 427.0964 433.579 436.7038 442.94334 452.77134 458.79026 462.14689 468.3864 471.25923 476.29924 481.5509 487.82069 493.07237 498.37446 504.37205 510.36964"> No interior do pr&#x00e9;dio de uma reparti&#x00e7;&#x00e3;o p&#x00fa;blica do Munic&#x00ed;pio, ocorreu uma discuss&#x00e3;o </tspan><tspan y="-38.826799" x=".000022888184 6.007703 12.468983 16.309462 20.61362 26.884102 30.008902 36.24842 46.339223 49.69586 54.94754 60.73346 65.98514 72.04322 74.91674 78.27338 84.27097 90.74233 97.01282 100.12753 106.19721 111.23721 115.30953 121.30714 127.294658 133.55506 136.9117 142.90929 148.90689 155.37825 161.37584 165.68 171.95984 177.69536 184.16672 190.40625 196.66666 200.0233 206.04178 209.39842 215.39601 219.46834 225.22402 231.69538 237.69298 240.33394 250.16194 256.16963 262.39906 266.47138 272.46897 276.33033 279.68696 287.6307 290.98735 296.239 302.02494 307.2766 313.3347 316.20823 319.56486 325.57255 329.8767 335.90528 339.2619 344.51359 350.5414 356.78096 362.03263 365.90336 368.77616 372.61665 378.85618 381.72898 387.9685 394.2289 397.58555 403.82508 409.82267 414.16789 417.5245 423.76405 430.2354 435.9911 441.50556 444.6505 454.47853 460.71806 463.359 469.83039 475.83808 480.14225 485.90803 491.40913 494.76576 500.77345 510.3696">entre um casal que estava aguardando o atendimento. O casal era constitu&#x00ed;do por duas mulheres em </tspan><tspan y="-26.586798" x=".000022888184 4.304183 10.311863 13.194743 19.192343 24.444024 30.502104 36.484884 41.772146 48.243509 54.241109 64.06911 70.06671 76.064319 79.652797 85.40848 89.4808 92.12176 98.109279 104.10688 107.72086 113.250049 119.98883 125.51801 131.75754 137.75513 142.05928 145.91992 148.79273 153.1123 158.65157 164.8911 170.6622 176.19138 182.43091 185.07187 190.32355 195.62563 201.86516 207.11684 212.41892 218.4165 224.41411 228.02808 233.55725 239.57027 244.85753 250.1092 253.01226 256.85273 263.3241 269.3217 274.57337 280.63145 286.61424 291.9015 297.15318 303.17628 308.72563 314.7232 320.96275 325.2669 331.04277 337.03028 343.02787 349.49925 353.11323 358.6424 364.6655 369.9427 376.18223 386.01023 392.02326 397.55244 403.79197 409.54765 412.42045 418.41804 423.68513 429.23448 435.23207 441.4716 445.77577 451.78346 457.79115 460.4321 466.91889 472.44807 478.4611 483.99028 489.74595 496.21733 500.28965 504.5938 510.36967">rela&#x00e7;&#x00e3;o homoafetiva. A partir da discuss&#x00e3;o, a situa&#x00e7;&#x00e3;o se agravou, e uma delas agrediu a outra </tspan><tspan y="-14.346798" x=".000022888184 3.5885032 6.461303 11.501304 14.374104 19.625784 25.411705 35.239706 41.247385 47.47682 51.54914 57.55682 61.1453 64.73378 71.45714 76.70882 81.77905 84.651859 91.123218 96.8789 99.7517 105.759387 109.33778 115.33539 118.92387 124.92147 127.56243 131.63475 137.64243 141.71474 148.1861 153.94178 158.0141 160.8869 166.87442 172.87201 176.46048 182.45809 188.92945 194.93712 198.29376 201.16657 207.63793 213.63553 216.50833 221.76001 227.81809 231.36624 236.65824 242.41391 246.71807 251.04238 257.05006 261.1123 266.86799 276.69599 282.70368 288.9331 293.00544 299.01313 302.59153 307.63154 313.63923 317.21763 323.2152 326.80369 332.05537 334.72657 338.56706 345.03843 351.036 356.2877 362.34577 368.3131 371.90159 377.15327 383.16096 386.7696 392.52528 398.99665 405.23619 411.70756 417.70515 424.24604 428.5502 434.56797 438.15644 444.39598 450.39356 454.69773 460.71549 464.30397 470.30155 476.54109 479.18205 482.05485 487.09486 493.09245 498.34413 504.4022 510.36955">fisicamente. Assinale a alternativa que indica corretamente se a situa&#x00e7;&#x00e3;o se enquadra para aplica&#x00e7;&#x00e3;o </tspan><tspan y="-2.1067982" x=".000022888184 6.239543 12.237143 15.8256239 21.349465 27.357144 30.219864 33.808347 42.204988 48.202589 52.28499 55.157789 61.155389 64.743869 70.98338 76.73907 80.327548 86.32514 92.332828 98.56226 105.03362 111.03123 114.38786 120.395549 123.973949 129.97154 133.56002 143.38802 149.14369 153.21602 155.85698 161.8445 167.8421 171.43058 177.6701 181.97426 187.98194 193.7477 196.6205 201.66049 205.73282 211.73043 215.3189 221.07457 230.90258 234.49105 239.77297 245.78064 248.64336 252.33599">da Lei Maria da Penha e o motivo previsto em Lei. </tspan></text>
<text xml:space="preserve" transform="matrix(1 0 -0 1 42.504 178.589)" font-size="10.08" font-family="Verdana"><tspan y="-52.1507" x="0 6.96002">A)</tspan></text>
<text xml:space="preserve" transform="matrix(1 0 -0 1 42.504 178.589)" font-size="10.08" font-family="ArialMT"><tspan y="-52.1507" x="11.28"> </tspan></text>
<text xml:space="preserve" transform="matrix(1 0 -0 1 42.504 178.589)" font-size="10.08" font-family="Verdana"><tspan y="-52.1507" x="14.16 21.10512 23.74608 33.57408 37.17264 40.761125 47.00064 52.99824 55.87104 60.911039 64.49952 68.088 74.0856 76.72656 80.31504 86.312648 92.55216 96.85632 102.864009 107.914089 113.165767 119.22385 125.19121 128.77968 134.03136 140.0592 146.29874 150.37107 154.67522 160.45105 164.03952 173.63568 180.10704 182.748 189.21936 195.22704 199.29935 202.88782 208.8955 218.49166 222.08013 226.38428 232.16011 235.03292 241.0305 246.28218 252.34026 258.06568 261.65415 264.2951 270.76649 274.60697 277.47978 287.30778 293.06346 296.65193 302.89146 308.89915 312.47755 318.47514 321.83177 327.83946 331.9017 337.8993 341.49787 345.08634 348.83595">Sim, pois foi agress&#x00e3;o contra mulher em rela&#x00e7;&#x00e3;o &#x00ed;ntima de afeto.   </tspan><tspan y="-39.910699" x="0 6.9599807">B)</tspan></text>
<text xml:space="preserve" transform="matrix(1 0 -0 1 42.504 178.589)" font-size="10.08" font-family="ArialMT"><tspan y="-39.910699" x="11.28"> </tspan></text>
<text xml:space="preserve" transform="matrix(1 0 -0 1 42.504 178.589)" font-size="10.08" font-family="Verdana"><tspan y="-39.910699" x="14.16 21.10512 23.74608 33.57408 37.17264 40.761125 47.00064 52.99824 55.87104 60.911039 64.49952 70.49712 74.0856 80.083209 86.32272 90.40512 96.4128 101.66448 106.95648 112.95409 118.95169 122.54017 128.53777 133.78945 139.81729 144.12145 148.44576 154.20143 160.67279 164.02944 170.03711 179.84496 183.23183 186.10463 192.10224 197.35391 203.13983 206.01264 209.6011 215.59871 222.07007 228.3096 230.95056 233.82337 239.07505 245.10289 248.73601">Sim, pois a agress&#x00e3;o ocorreu em local p&#x00fa;blico. </tspan><tspan y="-27.670699" x="0 6.96004">C)</tspan></text>
<text xml:space="preserve" transform="matrix(1 0 -0 1 42.504 178.589)" font-size="10.08" font-family="ArialMT"><tspan y="-27.670699" x="11.52"> </tspan></text>
<text xml:space="preserve" transform="matrix(1 0 -0 1 42.504 178.589)" font-size="10.08" font-family="Verdana"><tspan y="-27.670699" x="14.160001 21.599041 27.596642 33.594244 37.192804 40.781286 47.0208 53.018404 55.8912 61.142885 64.7616 71.232959 77.23056 83.228168 86.5848 90.17328 96.17088 99.043689 102.40032 107.652 110.323207 114.39552 120.86688 126.62257 131.87425 137.93233 143.89969 147.48816 153.72769 159.7253 169.32146 172.19426 177.44594 180.11714 182.7581 185.6309 191.6285 195.93265 199.516">N&#x00e3;o, pois n&#x00e3;o foi situa&#x00e7;&#x00e3;o domiciliar. </tspan><tspan y="-15.430698" x=".0000009536743 7.679981">D)</tspan></text>
<text xml:space="preserve" transform="matrix(1 0 -0 1 42.504 178.589)" font-size="10.08" font-family="ArialMT"><tspan y="-15.430698" x="12.240001"> </tspan></text>
<text xml:space="preserve" transform="matrix(1 0 -0 1 42.504 178.589)" font-size="10.08" font-family="Verdana"><tspan y="-15.430698" x="14.160001 21.599041 27.596642 33.594244 37.192804 40.781286 47.0208 53.018404 55.8912 61.142885 64.7616 70.7592 74.34768 79.87152 85.627208 88.50001 91.85664 95.92896 100.23312 106.250888 110.323207 116.07889 119.667369 124.919048 130.94689 140.77489 146.53057 152.7701 156.84243 162.8501 166.4285 172.66803 178.4237 182.01218 187.51602 191.59842 194.47122 204.29923 210.0549 213.64337 219.8829 225.88051 228.75331 234.75092 240.0026 246.03044 249.45604">N&#x00e3;o, pois a Lei trata somente de crime doloso. </tspan><tspan y="-3.1906987" x=".0000009536743 6.4795615">E)</tspan></text>
<text xml:space="preserve" transform="matrix(1 0 -0 1 42.504 178.589)" font-size="10.08" font-family="ArialMT"><tspan y="-3.1906987" x="10.800001"> </tspan></text>
<text xml:space="preserve" transform="matrix(1 0 -0 1 42.504 178.589)" font-size="10.08" font-family="Verdana"><tspan y="-3.1906987" x="13.6022419 21.142083 27.190083">N&#x00e3;o</tspan></text>
<text xml:space="preserve" transform="matrix(1 0 -0 1 42.504 178.589)" font-size="10.08" font-family="Verdana"><tspan y="-3.1906987" x="33.31874 36.9173 40.505784 46.7453 52.7429 55.6157 60.655698">, pois </tspan></text>
<text xml:space="preserve" transform="matrix(1 0 -0 1 42.504 178.589)" font-size="10.08" font-family="Verdana"><tspan y="-3.1906987" x="64.20384 70.5744 76.622409 82.73089">n&#x00e3;o </tspan></text>
<text xml:space="preserve" transform="matrix(1 0 -0 1 42.504 178.589)" font-size="10.08" font-family="Verdana"><tspan y="-3.1906987" x="86.30924 92.064929 94.93773 100.93533 103.808139 109.80574 116.04526 119.633739 125.63134 130.88303 134.50174 142.18271 144.82367 149.12783 155.1355 157.78655 161.85887 167.85648 173.10816 176.49503 183.93407 190.40543 200.23343 205.9891 212.46047 218.45807 223.70975 227.32575">violou os Direitos Humanos. </tspan></text>
<text xml:space="preserve" transform="matrix(1 0 -0 1 42.799596 334.667)" font-size="10.08" font-family="Verdana"><tspan y="-51.4003" x="0 6.96002">A)</tspan></text>
<text xml:space="preserve" transform="matrix(1 0 -0 1 42.799596 334.667)" font-size="10.08" font-family="ArialMT"><tspan y="-51.4003" x="11.28"> </tspan></text>
<text xml:space="preserve" transform="matrix(1 0 -0 1 42.799596 334.667)" font-size="10.08" font-family="Verdana"><tspan y="-51.4003" x="14.16 21.115199 27.112799 36.9408 43.412164 49.65168 52.52448 57.77616 63.83424 67.8864 71.47488 77.71439 83.72208 87.07871 89.951519 99.547679 105.55536 111.7848 114.6576 120.413288 124.4856 130.4832 134.07167 140.06926 146.06687 149.65534 153.95949 159.73532 162.60813 165.48093 171.47853 174.35134 180.34894 185.60062 191.62847 194.9851 197.85791 203.85552 209.1072 215.16527 217.77599 221.36446 227.60399 233.60158 237.90573 243.9235 247.51197 252.76364 258.54957 265.02095 270.06095 272.93376 275.5747 278.4475 284.4451 289.69679 295.75486 301.7222 305.63597">Comunicar de imediato ao religioso local para concilia&#x00e7;&#x00e3;o. </tspan><tspan y="-39.1302" x="0 6.9599807">B)</tspan></text>
<text xml:space="preserve" transform="matrix(1 0 -0 1 42.799596 334.667)" font-size="10.08" font-family="ArialMT"><tspan y="-39.1302" x="11.28"> </tspan></text>
<text xml:space="preserve" transform="matrix(1 0 -0 1 42.799596 334.667)" font-size="10.08" font-family="Verdana"><tspan y="-39.1302" x="14.16 20.63136 26.870879 32.12256 38.180639 47.74656 50.619359 56.85888 63.33024 69.32784 73.632">Encaminhar </tspan></text>
<text xml:space="preserve" transform="matrix(1 0 -0 1 42.799596 334.667)" font-size="10.08" font-family="Verdana"><tspan y="-39.1302" x="77.1802 83.228199 86.76627 92.874759 96.412837 102.41043 108.78099 115.06083 117.82275 124.102588 130.15059">a ofendida </tspan></text>
<text xml:space="preserve" transform="matrix(1 0 -0 1 42.799596 334.667)" font-size="10.08" font-family="Verdana"><tspan y="-39.1302" x="133.7492 139.7468 145.7444 149.10105 155.5724 161.57 166.82169 172.84954 175.72234 179.79467 185.55034 188.42314 192.01161 197.76729 201.35576 207.35335 213.35095 216.93943 221.02182 227.49318 232.53318 236.6055 239.24646 243.08695 249.5583 253.63063 259.6282 263.21669 271.6133 277.621 283.60853 286.48133 291.733 297.76084 301.3493 306.87315 312.6288 318.86836 324.86595 327.73875 331.6445">ao hospital e ao Instituto M&#x00e9;dico Legal. </tspan><tspan y="-26.84" x=".00021362305 6.9602539">C)</tspan></text>
<text xml:space="preserve" transform="matrix(1 0 -0 1 42.799596 334.667)" font-size="10.08" font-family="ArialMT"><tspan y="-26.84" x="11.520214"> </tspan></text>
<text xml:space="preserve" transform="matrix(1 0 -0 1 42.799596 334.667)" font-size="10.08" font-family="Verdana"><tspan y="-26.84" x="14.160214 20.631575 26.871094 32.122774 38.18085 47.746774 50.61957 56.859094 63.330453 69.32806 73.63222 77.24085 82.99654 86.585018 92.58262 96.1711 101.92678 108.39814 114.63766 117.51046 123.74998 129.50566 133.09413 139.09172 145.08933 148.6778 153.92948 159.98755 164.0397 168.11203 174.10964 178.41379 181.29666 187.29427 190.88274 197.12227 202.87795 207.1821 213.19986 216.5565 219.4293 229.25731 235.26499 241.25252 244.12532 250.12291 253.9634 259.96098 263.54945 269.78898 272.66178 278.6493 284.64689 288.95106 294.0112 296.884 302.8816 306.8362 310.43617 313.7962">Encaminhar a ofendida ao cart&#x00f3;rio para imediato div&#x00f3;rcio.   </tspan><tspan y="-14.57" x=".00021362305 7.680194">D)</tspan></text>
<text xml:space="preserve" transform="matrix(1 0 -0 1 42.799596 334.667)" font-size="10.08" font-family="ArialMT"><tspan y="-14.57" x="12.240213"> </tspan></text>
<text xml:space="preserve" transform="matrix(1 0 -0 1 42.799596 334.667)" font-size="10.08" font-family="Verdana"><tspan y="-14.57" x="14.160213 20.157813 24.461972 30.479733 35.731416 41.739095 48.018934 54.02661 58.330774 61.909173 67.664859 74.136219 80.37573 83.01669 89.024379 95.48566 100.52566 103.39846 109.396068 113.08622 119.08382 125.555179 131.55278 134.42559 137.29839 142.55007 148.33599 151.92446 157.68013 164.15149 168.22382 172.30622 178.31389 181.89229 187.8899 193.14157 196.52845 200.11692 206.1145 215.71067 218.58347 221.22443 224.09723 230.09482 234.39897 240.1748 245.42649 249.21616">Proceder audi&#x00ea;ncia p&#x00fa;blica entre os familiares. </tspan><tspan y="-2.2999993" x=".00021362305 6.479774">E)</tspan></text>
<text xml:space="preserve" transform="matrix(1 0 -0 1 42.799596 334.667)" font-size="10.08" font-family="ArialMT"><tspan y="-2.2999993" x="10.800214"> </tspan></text>
<text xml:space="preserve" transform="matrix(1 0 -0 1 42.799596 334.667)" font-size="10.08" font-family="Verdana"><tspan y="-2.2999993" x="14.160213 21.105334 26.357014 29.260054 35.01573 41.48709 47.48469 51.788854 55.39749 58.522294 64.99365 71.23317 74.10597 79.14597 82.018779 87.77446 90.64726 100.47526 106.23094 112.7023 116.54278 122.55046 126.12886 132.12647 135.71494 140.75493 143.39589 149.86725 156.10678 158.74774 163.99942 170.02727 173.61574 179.85527 185.85288 190.15703 193.76567 199.76328 209.35944 212.23224 217.48392 222.786 228.78359 234.78119 238.36966 244.36727 250.37494 253.95334 258.99336 264.99095 270.2426 276.27046 280.57463 284.89897 290.89656 294.83625">Acionar judicialmente o s&#x00ed;ndico por omiss&#x00e3;o de socorro. </tspan></text>
<text xml:space="preserve" transform="matrix(1 0 -0 1 42.048727 533.516)" font-size="10.08" font-family="Verdana" font-weight="bold"><tspan y="-64.907" x="0 8.62848 16.81344 23.50656 30.6936 37.41696 45.09792 54.18062 57.0635 64.250537 71.89179">QUEST&#x00c3;O 54 </tspan></text>
<text xml:space="preserve" transform="matrix(1 0 -0 1 42.048727 533.516)" font-size="10.08" font-family="Verdana" font-weight="bold"><tspan y="-64.907" x="74.6144">&#x2013;</tspan></text>
<text xml:space="preserve" transform="matrix(1 0 -0 1 42.048727 533.516)" font-size="10.08" font-family="Verdana" font-weight="bold"><tspan y="-64.907" x="82.26862"> </tspan></text>
<text xml:space="preserve" transform="matrix(1 0 -0 1 42.048727 533.516)" font-size="10.08" font-family="Verdana"><tspan y="-64.907" x="85.71598">F</tspan></text>
<text xml:space="preserve" transform="matrix(1 0 -0 1 42.048727 533.516)" font-size="10.08" font-family="Verdana"><tspan y="-64.907" x="91.54222 97.297908 100.62492 103.5078 109.495319 115.503 119.57532 122.44812 125.804759 128.67755 133.92923 139.9873 146.1966 152.40648 155.53128 161.9831 165.1079 171.1055 176.35718 182.38503 186.68918 190.78165 196.53733 203.00868 208.04868 210.92148 217.37329 220.92145 227.16098 233.64705 237.70929 244.18065 254.48705 258.5594 264.31507 269.56675 273.43748 279.90885 286.14839 290.45256">oi verificada a ocorr&#x00ea;ncia de um estupro</tspan></text>
<text xml:space="preserve" transform="matrix(1 0 -0 1 42.048727 533.516)" font-size="10.08" font-family="Verdana"><tspan y="-64.907" x="297.0252 300.5633 306.56089 316.81288 320.35096 326.72154 336.5193 343.0215 346.5596 350.85368 356.85127 362.09288 364.8548 371.13465 377.13224 383.5028 388.74443 391.50636"> em uma resid&#x00ea;ncia</tspan></text>
<text xml:space="preserve" transform="matrix(1 0 -0 1 42.048727 533.516)" font-size="10.08" font-family="Verdana"><tspan y="-64.907" x="397.45323 401.53019 405.6025 412.0886">, e </tspan></text>
<text xml:space="preserve" transform="matrix(1 0 -0 1 42.048727 533.516)" font-size="10.08" font-family="Verdana"><tspan y="-64.907" x="415.63673 421.7452 427.44105 430.97914 436.9364 439.69834 444.99034 447.75227 454.12284 460.4934 466.6019">os vizinhos</tspan></text>
<text xml:space="preserve" transform="matrix(1 0 -0 1 42.048727 533.516)" font-size="10.08" font-family="Verdana"><tspan y="-64.907" x="472.3218 476.42439 482.6639 488.6716 494.65913 497.53193 501.8361 507.85386"> pediram</tspan><tspan y="-52.646799" x="-.00018310547 5.997417 9.122217 15.593577 21.833098 29.20322 33.56412 40.934244 45.295145 51.29274 57.7641 63.7617 68.06586 74.345699 81.69566 86.05656 95.65272 101.892238 108.363597 111.2364 116.2764 119.1492 125.38872 131.1444 134.0172 138.98827 143.34917 149.5887 155.5863 158.4591 165.08332">ajuda &#x00e0; guarda municipal, pois </tspan></text>
<text xml:space="preserve" transform="matrix(1 0 -0 1 42.048727 533.516)" font-size="10.08" font-family="Verdana"><tspan y="-52.646799" x="168.63182"> </tspan></text>
<text xml:space="preserve" transform="matrix(1 0 -0 1 42.048727 533.516)" font-size="10.08" font-family="Verdana"><tspan y="-52.646799" x="172.77097 176.84329 182.85097 192.44713 195.31993 201.31752 212.51805 216.63703 219.50983 225.74936 229.82169 235.82936 239.90167 245.88919 248.53015 254.20684 258.57783 264.81736 270.82505 276.58073 279.45353 285.69306 293.06318 297.25593 304.62605 308.98695 312.5754 318.573 321.4458 325.51814 332.62217 336.18074 342.42027 349.79267 353.43788 358.68955 364.74763 370.9569 376.9545 381.9945 384.8673 391.10685 397.10444 403.34397 410.4644 413.83146 417.18809 420.06089 425.1009 427.9737 433.22538 440.64817 444.0313 451.40373 454.807 458.87934 464.88703 469.91694 476.3883 479.02928 484.28096 491.70375 495.31874 501.55827 507.55586 511.86003 517.6522">temiam intervir devido &#x00e0; falta de capacidade f&#x00ed;sica e t&#x00e9;cnica para </tspan><tspan y="-40.386598" x="-.000030517579 2.6409295 7.8926098 13.19469 19.19229 24.598427 28.065947 37.554487 41.022005 47.0196 53.49096 59.48856 63.79272 69.810489 77.61566 81.083179 90.67934 97.150699 103.39021 106.263019 111.30302 114.17582 120.41534 126.41294 130.86147 134.32898 140.32657 142.96753 148.9752 155.20465 161.20226 169.24936 172.71688 178.9564 185.42777 192.99102 196.22669 200.29901 206.30669 210.61084 213.49372 221.05696 224.29264 227.16544 229.8064 239.6344 242.27536 246.34769 252.34528 257.59696 263.6248 269.63249 276.46998 279.9375 286.17704 292.17463 296.4788 304.0622 307.52973 313.5273 319.76686 325.52253 331.9939 336.06623 340.3704 346.14625">isso. O guarda municipal alegou que teria limita&#x00e7;&#x00f5;es para adentrar</tspan></text>
<text xml:space="preserve" transform="matrix(1 0 -0 1 42.048727 533.516)" font-size="10.08" font-family="Verdana"><tspan y="-40.386598" x="352.24198"> </tspan></text>
<text xml:space="preserve" transform="matrix(1 0 -0 1 42.048727 533.516)" font-size="10.08" font-family="Verdana"><tspan y="-40.386598" x="355.78007 359.4391 368.11677 371.35246 374.22526 384.05326 390.05085 395.80653 401.8142 407.12516 410.36085 416.60038 422.60807 428.407 431.27983 437.51936 446.19703"> o im&#x00f3;vel devido </tspan></text>
<text xml:space="preserve" transform="matrix(1 0 -0 1 42.048727 533.516)" font-size="10.08" font-family="Verdana"><tspan y="-40.386598" x="449.74519"> </tspan></text>
<text xml:space="preserve" transform="matrix(1 0 -0 1 42.048727 533.516)" font-size="10.08" font-family="Verdana"><tspan y="-40.386598" x="452.97077 458.96836 467.51499">ao </tspan></text>
<text xml:space="preserve" transform="matrix(1 0 -0 1 42.048727 533.516)" font-size="10.08" font-family="Verdana"><tspan y="-40.386598" x="471.06318"> </tspan></text>
<text xml:space="preserve" transform="matrix(1 0 -0 1 42.048727 533.516)" font-size="10.08" font-family="Verdana"><tspan y="-40.386598" x="474.28877 477.87724 483.6329 487.70524 496.3829">fato </tspan></text>
<text xml:space="preserve" transform="matrix(1 0 -0 1 42.048727 533.516)" font-size="10.08" font-family="Verdana"><tspan y="-40.386598" x="499.93107"> </tspan></text>
<text xml:space="preserve" transform="matrix(1 0 -0 1 42.048727 533.516)" font-size="10.08" font-family="Verdana"><tspan y="-40.386598" x="503.15666 509.39619">de</tspan><tspan y="-28.126397" x=".00064086916 6.9821217 10.530282 16.527882 21.779562 27.807404 31.889805 36.193967 42.201646 48.451246 53.702928 56.60597 64.454608 67.80176 73.05344 78.839359 85.23648 88.59371 96.44235 99.547588 106.01894 112.01655 114.65751 118.72983 124.73751 130.41895 133.7661 139.76369 146.00322 152.00083 159.13379 162.48094 168.47853 175.6115 178.95865 185.19817 191.66953 198.14089 203.59049 206.93764 213.89284 219.89044 226.3618 231.4018 234.2746 240.51413 246.5218 250.82596 256.5917 263.06309 269.3026 277.15126 280.4984 288.589 291.93617 297.18785 303.2459 308.4976 316.34623 319.6934 325.69099 331.9305 336.23469 342.01054 347.2622 353.2699 359.52958 363.6019 369.5995 375.83903 381.8366 386.63929">a ocorr&#x00ea;ncia ser &#x00e0; noite, ap&#x00f3;s &#x00e0;s 21h. Considerando o caso apresentado, </tspan></text>
<text xml:space="preserve" transform="matrix(1 0 -0 1 42.048727 533.516)" font-size="10.08" font-family="Verdana"><tspan y="-28.126397" x="390.18766"> </tspan></text>
<text xml:space="preserve" transform="matrix(1 0 -0 1 42.048727 533.516)" font-size="10.08" font-family="Verdana"><tspan y="-28.126397" x="393.82075 399.07243 405.10026 414.92826 422.14268 429.2001 434.45179 441.6763 448.63209 453.88377 459.94184 464.246 470.23353 475.27354 479.34587 485.35356 489.42588 492.29869 497.59068 503.5782 507.66059 510.5334">como se caracterizaria</tspan><tspan y="-15.866197" x=".0007324219 6.4664337 10.014594 16.022274 22.251715 26.324034 30.628193 36.64595 42.885469 51.208955 62.30527 68.54479 76.626369 84.174518 90.41403 96.88539 102.882999 107.18716 113.466999 121.528408 129.07656 138.90456 145.14409 151.61545 154.25641 159.50809 162.41114 168.65067 174.40634 179.60503 187.42981 193.90117 202.22466 210.68357 213.55637 219.55397 224.80565 230.59157 235.79026 244.18383 249.4355 255.44318 267.38539 275.84428 281.84187 288.0814 292.15373 298.1513 302.45549 305.1065 310.3985 316.38603 321.6377 327.69578 335.989 344.4479 350.68745 359.01094 367.46983 373.4674 378.50743 384.9788 391.21833 397.2159 403.45545 407.52778 415.86137 424.32026 430.55979 438.62864 442.7307 447.03489 453.04258 458.3245 461.1973 467.43684 473.1925 479.66389 484.7039 487.5767 495.88746">a entrada do guarda municipal no local sem autoriza&#x00e7;&#x00e3;o do ocupante da resid&#x00ea;ncia </tspan></text>
<text xml:space="preserve" transform="matrix(1 0 -0 1 42.048727 533.516)" font-size="10.08" font-family="Verdana"><tspan y="-15.866197" x="499.43574"> </tspan></text>
<text xml:space="preserve" transform="matrix(1 0 -0 1 42.048727 533.516)" font-size="10.08" font-family="Verdana"><tspan y="-15.866197" x="503.56806">o</tspan></text>
<text xml:space="preserve" transform="matrix(1 0 -0 1 42.048727 533.516)" font-size="10.08" font-family="Verdana"><tspan y="-15.866197" x="509.6866">u</tspan></text>
<text xml:space="preserve" transform="matrix(1 0 -0 1 42.048727 533.516)" font-size="10.08" font-family="Verdana"><tspan y="-3.605997" x=".00061035159">s</tspan></text>
<text xml:space="preserve" transform="matrix(1 0 -0 1 42.048727 533.516)" font-size="10.08" font-family="Verdana"><tspan y="-3.605997" x="5.2522904 11.24989">em</tspan></text>
<text xml:space="preserve" transform="matrix(1 0 -0 1 42.048727 533.516)" font-size="10.08" font-family="Verdana"><tspan y="-3.605997" x="20.68479 24.23295 30.472472 36.480154 40.31055 46.31823 50.62239 60.22863 63.10143 69.57279 75.328479 80.580158 86.63824 92.6056 96.19408 99.55072 106.02208 112.01968 114.89248 119.93248 122.80528 128.80287 131.67568 137.21361"> determina&#x00e7;&#x00e3;o judicial? </tspan></text>
<text xml:space="preserve" transform="matrix(1 0 -0 1 84.78583 630.66799)" font-size="10.08" font-family="Verdana" font-weight="bold"><tspan y="-4.48045" x="-42.3929 -33.76442 -25.57946 -18.886342 -11.699301 -4.97594 2.70502 11.342003 14.224883 21.411925 28.607468">QUEST&#x00c3;O 55 </tspan></text>
<text xml:space="preserve" transform="matrix(1 0 -0 1 84.78583 630.66799)" font-size="10.08" font-family="Verdana" font-weight="bold"><tspan y="-4.48045" x="31.570099">&#x2013;</tspan></text>
<text xml:space="preserve" transform="matrix(1 0 -0 1 84.78583 630.66799)" font-size="10.08" font-family="Verdana" font-weight="bold"><tspan y="-4.48045" x="38.7786"> </tspan></text>
<text xml:space="preserve" transform="matrix(1 0 -0 1 84.78583 630.66799)" font-size="10.08" font-family="Verdana"><tspan y="-4.48045" x="41.4186 48.847558 58.452219 61.587099 64.22806 70.467578 74.539897 80.54758 86.777019 91.08118 96.85702 103.32838 107.16885 113.185039 116.29975 122.53927 128.30345 131.42826 137.66779 144.13915 149.89482 154.19898 160.47882 166.46475 169.34763 179.17563 185.41516 191.88652 194.52748 199.77916 202.45037 208.6899 214.68749 217.56879 220.69359 226.93312 232.93923 236.06403 244.22882 250.46836 256.93974 259.81254 264.85255 267.72535 273.72297 276.59577 282.59336 286.20045 289.32524 295.56477 301.56236 306.81404 311.88429 318.35566 321.22846 327.468 333.46559 337.5565 340.68128 346.9208 352.685 355.80979 359.8821 365.8797 372.11924 378.11683 383.1653 386.2901 392.2877 397.33619 400.46098 406.7005 413.17189 418.92756 421.80036 424.4413 428.0298 430.67076 435.92243 441.9805 446.99028 452.98786 458.99555 464.24723 467.86595">Um integrante da guarda municipal do Munic&#x00ed;pio, possuidor de todas as qualifica&#x00e7;&#x00f5;es, </tspan><tspan y="7.51955" x="-42.392904 -38.08874 -32.081064 -25.83146 -22.95866 -17.91866 -13.846339 -9.542179 -3.5244189 1.7384757 4.8834359 10.65033 13.77513 20.01465 26.01225 31.263932 37.533689 47.36169 53.11737 59.58873 63.66105 69.65865 74.92155 78.066509 82.1489 88.156589 93.408267 99.6881 105.695789 110.70554 114.54602 117.41882 123.40634 129.40395 134.66684 137.8118 143.80939 149.8182 152.94301 159.18254 165.18015 169.26255 173.33487 179.35376 182.46848 188.48737 191.36017 197.83153 202.87152 208.88034 212.00514 218.24468 224.26357 227.37828 233.37587 237.68003 247.52819 253.53699 256.66178 262.9013 268.9202 271.793 275.38148 281.37907 287.6186 293.61619 297.22596 300.35075 305.60243 311.6605 316.91218 322.90977 329.1493 335.1581 338.2829 344.3018 347.4165 352.66819 358.696 368.53523 371.4181 377.65763 383.6552 386.528 391.7909 394.704 398.29249 400.93345 403.80625 410.27763 416.2752 421.32643 424.4512 434.2792 440.03489 446.2744 452.272 456.57618 462.58387 467.86579">registros e documentos respectivos ao porte e uso de arma de fogo, casado e com dois filhos menores </tspan><tspan y="19.51955" x="-42.392904 -36.153387 -30.145707 -26.083466 -19.843945 -13.372584 -9.300263 -3.5445834 2.9267767 8.9243769 13.964376 18.036698 24.276219 30.283898 34.104219 36.977018 43.216535 49.214136 55.45365 61.46133 64.81797 68.89029 74.14197 80.16981 85.421489 89.292209 95.53172 105.35972 111.35732 117.34484 123.342449 127.172847 131.477 137.48468 141.5671 147.5647 151.6471 158.11846 164.11605 168.19844 172.27075 178.51029 184.50789 188.5802 193.6202 199.37587 205.84723 209.67763 213.74996 219.98949 224.29364 230.77509 236.53076 240.60308 246.8426 252.85028 256.6706 261.92228 267.92997 272.26438 278.02006 280.89286 286.14454 291.93046 296.00279 302.01048 306.0727 312.31224 318.0679 320.9407 326.92823 332.6839 336.98808 341.07048 346.5531 353.02449 358.78016 362.85249 368.85008 373.15425 383.00239 388.75807 392.83039 398.58607 408.41407 412.24446 418.71583 428.54383 434.2995 438.37184 443.41184 449.40943 452.28224 458.26976 464.26734 467.8659">de 18 anos de idade, costumava retornar do seu turno de servi&#x00e7;o e deixar sua arma em uma caixa, </tspan><tspan y="31.51955" x="-42.392904 -35.92154 -29.91029 -24.624802 -19.373122 -13.5872 -10.7144 -4.7168 -1.1045914 4.180897 10.178497 14.482657 20.500418 26.487938 29.128899 38.956899 44.968145 50.25363 56.251234 62.26248 67.547969 73.54557 79.78509 85.54077 89.84493 95.852619 98.503658 104.97501 110.98626 116.27174 122.51126 128.28058 133.32415 137.39647 143.40415 146.26686 152.02254 158.01006 160.65102 165.9027 171.96077 177.92813 181.54033 186.82582 193.06536 197.3695 203.14536 209.61672 213.68904 219.45836 224.74385 230.98339 236.98097 241.28513 247.31653 252.36009 258.5996 268.4276 274.43885 279.72434 285.48 291.46754 297.47523 303.70466 307.54515 314.0165 320.0141 322.6687 327.9542 332.9942 335.867 339.7075 346.17887 352.17646 357.42814 363.4862 369.46723 374.75273 380.99226 386.7616 392.0471 397.80278 407.63078 413.63847 417.94264 424.19224 429.9479 436.41929 441.4593 444.10026 450.11149 455.39698 461.39457 467.86595">na sala, pr&#x00f3;xima ao aparelho de televis&#x00e3;o, pronta para uma eventual situa&#x00e7;&#x00e3;o de emerg&#x00ea;ncia ou </tspan><tspan y="43.51915" x="-42.392904 -36.153387 -30.145707 -25.841546 -22.958664 -16.719143 -10.721542 -5.919178 1.5140662 9.195027 14.446708 20.474549 24.77871 29.103032 36.314516 43.73768 49.735277 56.206636 62.214315 67.00659 74.197917 80.2056 86.66688 92.664478 99.13583 105.13344 111.372959 115.445278 122.64668">perigo. Ocorre que, enquanto </tspan></text>
<text xml:space="preserve" transform="matrix(1 0 -0 1 84.78583 630.66799)" font-size="10.08" font-family="Verdana"><tspan y="43.51915" x="130.08011 136.07772 138.83963">ele</tspan></text>
<text xml:space="preserve" transform="matrix(1 0 -0 1 84.78583 630.66799)" font-size="10.08" font-family="Verdana"><tspan y="43.51915" x="146.1721 153.60535 159.84488 165.84249 169.92488 179.75289 182.62569 188.62328 193.18372 200.37503 206.84639 217.64636 225.0796 231.31914 237.31674 243.77223 251.23572 254.59236 257.46516 260.1061 266.57749 272.57508 277.82676 282.65937 290.0926 293.2174 299.68879 305.9283 310.00065 317.20207"> dormia, um dos filhos, junto </tspan></text>
<text xml:space="preserve" transform="matrix(1 0 -0 1 84.78583 630.66799)" font-size="10.08" font-family="Verdana"><tspan y="43.51915" x="324.6351">a</tspan></text>
<text xml:space="preserve" transform="matrix(1 0 -0 1 84.78583 630.66799)" font-size="10.08" font-family="Verdana"><tspan y="43.51915" x="330.6831 337.88453 345.07585 347.94865 352.2528 362.10096 368.09855 375.29997 382.49128 392.31929 398.31687 400.95783 407.4133 414.63487 421.10624 427.10383 433.09135 438.84703 443.64939 451.0826 457.32215 463.31974 467.8658">o irm&#x00e3;o mais novo, por </tspan><tspan y="55.53935" x="-42.392885 -37.141206 -30.639605 -26.557206 -23.684405 -17.686804 -12.435123 -9.5320839 -3.2925635 2.7050367 8.702637 14.710317 18.299468 25.245253 29.549412 35.55709 40.83901 46.83661 49.47757 55.46509 61.22077 67.6928 74.63859 84.46658 90.22227 96.209789 102.21747 106.5223 113.236248 119.7076 125.70588 132.65167 138.64926 142.95342 152.80158 158.79984 165.74562 171.98516 177.98343 184.92922 191.16875 196.92443 199.56539 203.16461 210.1104 217.05551 223.05379 229.99958 239.82758 246.19382 252.43335 258.90473 264.1564 270.1641 276.21385 280.53385 283.40666 289.40425 293.00349 299.94926 305.94685 311.19853 317.2566 323.46589 329.46348 335.93553 342.8813 348.8789 351.7517 357.0034 363.28324 369.02885 373.333 379.35078 385.82215 392.06169 398.05995 405.0057 411.01408 417.95985 423.95744 428.99745 435.00514 439.3093 443.15986 449.15745 455.6288 461.86836 467.86595">curiosidade, resolveu mexer na arma do pai. Ao manuse&#x00e1;-la, acabou disparando e acertando </tspan><tspan y="67.53935" x="-42.392885 -36.395284 -31.143603 -28.240563 -22.001042 -16.245362 -9.774001 -5.7016808 .053999515 2.9267996 12.7548 18.510479 24.749999 28.822318 34.84392 40.361524 46.373044 51.900724 58.14024 64.14792 68.22024 74.6916 80.703128 86.230808 92.47032 98.48185 103.76761 106.64041 110.94457 120.79273 126.79034 132.80185 138.32953 148.15753 153.91321 156.78601 162.0516 167.3676 173.83896 179.83657 185.82408 191.82169 195.43416 200.71991 207.19127 213.18886 219.20038 224.72806 229.03221 235.03989 240.08997 246.56133 249.20229 253.27462 259.27223 265.51176 271.75129 277.76283 283.2905 289.2982 299.11994 304.6678 310.66539 316.9049 319.54588 323.6182 329.61579 333.22828 338.75596 344.75358 349.05775 355.0755 360.32719 366.33488 372.61473 375.2355 381.47505 387.48658 393.01426 399.0258 404.55348 410.55107 414.62339 420.63108 427.09236 433.08998 435.73094 445.3271 451.33479 457.79606 461.86839 467.86598">acidentalmente a perna do irm&#x00e3;o mais novo, n&#x00e3;o resultando em &#x00f3;bito. Procedido o atendimento </tspan><tspan y="79.53935" x="-42.392885 -32.564886 -26.557206 -20.327765 -17.686804 -12.435123 -6.343641 -1.0081554 5.463205 11.218884 16.470566 22.478245 27.770245 33.021928 39.080007 43.132169 46.004968 52.066209 57.401697 63.473016 68.798419 74.79602 80.11134 85.235149 89.53931 95.54699 101.796588 104.437549 109.689228 113.79179 118.09595 124.11371 129.21735 134.55283 137.42563 143.4333 149.66275 155.41843 158.29123 163.42195 167.08415 172.41963 178.48088 183.81636 190.0559 196.05348 198.98993 204.32541 210.56494 216.56253 221.81421 227.11629 233.11389 239.6489 244.98438 251.04561 256.13917 260.44334 266.45103 271.73295 277.97248 283.97007 290.44145 296.43907 302.44676 306.81455 312.1601 318.39964 324.1553 327.0281 333.08937 338.42485 342.0133 347.76899 351.8413 357.8389 361.5011 366.83659 373.79179 379.78938 386.26075 389.8492 395.8468 399.9292 409.7572 415.82853 421.15394 427.20323 430.75138 436.9909 441.29508 447.30278 453.30036 455.9413 461.193 465.29557">m&#x00e9;dico necess&#x00e1;rio e os registros legais, o pai passou a responder pelo fato. Conforme o previsto</tspan><tspan y="91.53935" x="-42.392885 -35.921525 -28.450318 -21.834794 -16.310952 -10.555271 -6.2088658 .40665914">na Lei n</tspan></text>
<text xml:space="preserve" transform="matrix(1 0 -0 1 84.78583 630.66799)" font-size="10.08" font-family="MicrosoftSansSerif"><tspan y="91.53935" x="6.9798166">&#x00ba;</tspan></text>
<text xml:space="preserve" transform="matrix(1 0 -0 1 84.78583 630.66799)" font-size="10.08" font-family="Verdana"><tspan y="91.53935" x="12.053427 18.439026 24.910387 31.381747 34.738386 41.209745 47.449266 53.920625 58.496946 64.7163 71.259029 77.49855 83.96991 89.042079 95.6576 101.89712 108.36848 115.84976 122.4552 128.4528 131.3256 136.57729 142.85713 148.84465 156.32593 162.93137 168.18305 173.96897 180.2085 184.51265 191.99393 198.61952 206.09073 212.70626 219.65137 222.52417 227.56417 231.63649 237.39217 247.22017 254.69138 261.3069 268.7459 274.7435 279.99519 282.89823 288.8958 295.3672 301.12287 305.46928 312.08479 318.3243 325.8056 332.16914 339.11427 343.41844 353.26658 359.02226 364.27394 369.37635 375.99186 382.23139 388.70277 394.45845 398.80485 405.42036 409.00883 415.0064 419.3528 425.96833 433.4395 440.05503 445.09504 449.3992 452.28208 462.11009 467.86576"> 10.826/2003, que disp&#x00f5;e sobre o Sistema Nacional de Armas, qual foi o crime </tspan><tspan y="103.53935" x="-42.392877 -37.141199 -31.113356 -21.285355 -15.277675 -11.447274 -8.574474 -2.3349543 3.662646 7.2511265 13.490645 19.246325 22.119126 28.116726 31.705206 37.944726 43.942327 46.583288 50.17177 56.411287 62.408887 67.66057 71.04745 76.299129 80.411769 83.28457 89.28217 95.75353 101.00521 106.79113 112.04281 117.57673 121.093128">cometido pelo pai das crian&#x00e7;as?  </tspan></text>
</g>
</svg>
