<svg xmlns="http://www.w3.org/2000/svg" xmlns:xlink="http://www.w3.org/1999/xlink" xmlns:inkscape="http://www.inkscape.org/namespaces/inkscape" version="1.1" width="595.44" height="841.92" viewBox="0 0 595.44 841.92">
<g>
<text xml:space="preserve" transform="matrix(1 0 -0 1 0 841.92)" font-size="7.92" font-family="Verdana"><tspan y="-795.58" x="42.504 47.541124 52.578245 57.615365 62.652486 68.17272 73.68504 79.197368 84.22656 89.26368 95.259128 101.96736 107.00448 113.00784">945_BASE_NM_DM</tspan></text>
<text xml:space="preserve" transform="matrix(1 0 -0 1 0 841.92)" font-size="7.92" font-family="Verdana"><tspan y="-795.58" x="120.05"> </tspan></text>
<text xml:space="preserve" transform="matrix(1 0 -0 1 0 841.92)" font-size="7.92" font-family="Verdana"><tspan y="-795.58" x="460.51 465.55003 470.59004 474.1886 479.2286 484.26863 487.8672 492.9072 498.1848 503.22483 508.26484 511.13475 516.17477 521.2147 524.8133 529.8533 535.1229 538.7215 543.7615">10/01/2025 15:14:17</tspan></text>
<text xml:space="preserve" transform="matrix(1 0 -0 1 0 841.92)" font-size="10.08" font-family="Verdana"><tspan y="-795.58" x="549.1"> </tspan></text>
<path transform="matrix(1,0,0,-1,0,841.92)" d="M41.064 804.48H554.614V804.95999H41.064Z" fill-rule="evenodd"/>
<text xml:space="preserve" transform="matrix(1 0 -0 1 0 841.92)" font-size="9.12" font-family="Verdana"><tspan y="-25.92" x="42.504 48.26784 53.54832 59.0568 63.6168 69.389759 74.16863 79.44911 84.984958 89.052478 92.17152 97.44288 103.215839 108.72431 114.24191 119.75039 123.343669 128.63327">Execu&#x00e7;&#x00e3;o: Fundatec</tspan></text>
<text xml:space="preserve" transform="matrix(1 0 -0 1 0 841.92)" font-size="9.12" font-family="Verdana"><tspan y="-25.92" x="133.25"> </tspan></text>
<path transform="matrix(1,0,0,-1,0,841.92)" d="M41.064 35.76H554.374V36.24004H41.064Z" fill-rule="evenodd"/>
<text xml:space="preserve" transform="matrix(1 0 -0 1 0 841.92)" font-size="9.12" font-family="Verdana"><tspan y="-14.88" x="250.9 257.85856 264.57087 270.80894 277.04704 284.00559 290.24366 293.3627 300.80464 307.51695 314.23838 317.84077 324.31596 327.91835 333.4177 339.65577">GUARDA MUNICIPAL</tspan></text>
<text xml:space="preserve" transform="matrix(1 0 -0 1 0 841.92)" font-size="9.12" font-family="Verdana"><tspan y="-14.88" x="344.54"> </tspan></text>
<text xml:space="preserve" transform="matrix(1 0 -0 1 0 841.92)" font-size="10.08" font-family="Verdana" font-weight="bold"><tspan y="-783.82" x="42.504 51.13248 59.31744 66.01056 73.1976 79.92096 87.60192 96.2304 101.018398 108.20543">QUEST&#x00c3;O 31</tspan></text>
<text xml:space="preserve" transform="matrix(1 0 -0 1 0 841.92)" font-size="10.08" font-family="Verdana" font-weight="bold"><tspan y="-783.82" x="115.49"> </tspan></text>
<text xml:space="preserve" transform="matrix(1 0 -0 1 0 841.92)" font-size="10.08" font-family="Verdana" font-weight="bold"><tspan y="-783.82" x="120.29">&#x2013;</tspan></text>
<text xml:space="preserve" transform="matrix(1 0 -0 1 0 841.92)" font-size="10.08" font-family="Verdana" font-weight="bold"><tspan y="-783.82" x="127.49"> </tspan></text>
<text xml:space="preserve" transform="matrix(1 0 -0 1 0 841.92)" font-size="10.08" font-family="Verdana"><tspan y="-783.82" x="132.29 139.71895 149.54695 154.57688 159.82855 165.83623 170.17063 175.9263 178.7991 185.03864 191.03624 195.11864 200.39048 204.23096 207.10376 210.94425 217.18378 220.05658 226.05417 230.35832 235.64025 241.63785 247.64553 252.66536 257.91706 263.97514 268.2793 274.50874 280.50633 285.53623 291.5439 295.1223 301.13 304.96043 307.83323 313.82075 319.57643 324.84828 331.0878 336.84349 342.11534 348.35487 354.82624 360.82383 365.128 371.40785 377.14335 382.17326 392.00126 398.24079 404.71217 407.35313 412.6048 415.50785 421.74739 427.50306 430.144 435.41587 440.66755 446.69538 450.28385 454.588 460.36387 466.6034 471.87525 478.11479 487.71095 492.9828 498.98039 504.23207 507.1351 513.1327 519.1404 525.3698 529.21029 535.21798 540.47976 546.71926 552.4749">Um servidor titular de cargo efetivo de guarda municipal sofreu um acidente de </tspan></text>
<text xml:space="preserve" transform="matrix(1 0 -0 1 0 841.92)" font-size="10.08" font-family="Verdana"><tspan y="-771.58" x="42.504 46.57632 50.88048 56.89824 63.137758 68.389438 71.06064 75.13296 81.13056 86.4024 92.399997 98.87135 103.175518 108.951358 115.19087 119.26319 125.270877 130.29071 136.53025 146.35825 152.35584 157.38576 163.37328 166.24608 172.24367 178.24127 184.24895 193.84511 199.11695 205.5883 211.34398 216.61582 222.85535 228.86302 232.93534 235.80814 241.80574 248.04528 254.04288 259.31474 265.31236 271.32005 276.33988 279.92835 285.68403 289.9882 292.87107 298.86866 303.90867 309.1805 315.1882 318.54487 323.8167 329.8244 339.42057 344.6924 350.93196 356.68763 361.9393 367.96714 372.2713 376.59565 382.35133 388.8227 393.8627 396.7355 402.7331 408.00495 414.00257 416.87538 421.91539 427.16706 433.1949 436.79347 441.82337 445.8957 451.90339 457.87074 463.65666 468.68656 475.15794 484.98594 490.7416 496.01347 502.253 508.25059 513.2906 518.56246 524.80197 530.5576 534.86178 541.3432 547.3408 552.38088">tr&#x00e2;nsito durante uma viagem no per&#x00ed;odo de f&#x00e9;rias e, em decorr&#x00ea;ncia disso, teve uma das pernas </tspan></text>
<text xml:space="preserve" transform="matrix(1 0 -0 1 0 841.92)" font-size="10.08" font-family="Verdana"><tspan y="-759.34" x="42.504 48.501604 58.3296 64.56912 70.80864 74.88096 80.87856 87.11808 93.115688 98.36736 101.75424 106.06848 113.0136 118.76929 125.24065 131.48018 137.47779 141.79203 147.5477 152.79938 157.86962 160.74242 170.57042 173.92705 178.24129 181.82976 187.82736">amputadas. Sendo assim, foi</tspan></text>
<text xml:space="preserve" transform="matrix(1 0 -0 1 0 841.92)" font-size="10.08" font-family="Verdana"><tspan y="-759.34" x="190.87">-</tspan></text>
<text xml:space="preserve" transform="matrix(1 0 -0 1 0 841.92)" font-size="10.08" font-family="Verdana"><tspan y="-759.34" x="195.19 197.83097 204.30233 210.058 214.37224 219.62392 225.65177 231.8913 237.14298 243.15065 249.4305 252.28314 258.52268 264.27836 268.5926 273.6326 280.10398 285.85966 290.1739 296.17149 302.411 308.4086 313.66029 319.4462 325.91758 329.9899 335.9875 342.22703 348.2246 352.307 355.1798 361.1774 365.24974 371.48927 377.48686 381.79103 385.8734 388.74623 394.98576 400.97328 406.97087 409.61183 412.48463 418.72416 424.73185 429.76176 434.076 440.31553 446.3232 450.39555 460.22355 465.97923">lhe concedida sua aposentadoria por invalidez perman</tspan></text>
<text xml:space="preserve" transform="matrix(1 0 -0 1 0 841.92)" font-size="10.08" font-family="Verdana"><tspan y="-759.34" x="472.75 478.7577 484.98713 489.05946 495.06715 498.4238 502.73805 509.69325 515.6908 525.5188 531.2745 535.5887 540.8404 546.8985 552.86587">ente. Como s&#x00e3;o </tspan></text>
<text xml:space="preserve" transform="matrix(1 0 -0 1 0 841.92)" font-size="10.08" font-family="Verdana"><tspan y="-747.34" x="42.504 47.755685 53.813764 56.656324 61.696325 68.16769 71.04049 77.03809 83.27761 89.275218 94.315219 97.903697 103.9013 109.15298 112.77169 118.75921 124.51489 127.387699 133.3853 137.68946 143.69713 148.74721 152.33568 158.57521 164.57282 169.8245 173.4432 179.68274 183.9869 190.00466 195.76033 201.768 207.99745 212.06978 218.06739 223.31906 226.70594 233.17729 239.18497 244.21489 249.46657 255.52465 259.0728 264.3648 270.12049 276.59187 282.8314 285.47236 290.72404 296.7821 302.74946">calculados os valores dos proventos nessa condi&#x00e7;&#x00e3;o?</tspan></text>
<text xml:space="preserve" transform="matrix(1 0 -0 1 0 841.92)" font-size="10.08" font-family="Verdana"><tspan y="-747.34" x="308.52"> </tspan></text>
<text xml:space="preserve" transform="matrix(1 0 -0 1 0 841.92)" font-size="10.08" font-family="Verdana"><tspan y="-735.1" x="42.504"> </tspan></text>
<text xml:space="preserve" transform="matrix(1 0 -0 1 0 841.92)" font-size="10.08" font-family="Verdana"><tspan y="-723.1" x="42.504 49.46402">A)</tspan></text>
<text xml:space="preserve" transform="matrix(1 0 -0 1 0 841.92)" font-size="10.08" font-family="ArialMT"><tspan y="-723.1" x="53.784"> </tspan></text>
<text xml:space="preserve" transform="matrix(1 0 -0 1 0 841.92)" font-size="10.08" font-family="Verdana"><tspan y="-723.1" x="56.664 60.97824 67.21776 71.29008 77.29776 83.5272 87.83136 93.6072 96.48 101.73168 105.36048 108.94896 113.98896 119.99664 126.457927 132.69745 138.69506 142.0517 148.52306 154.76258 161.23394 172.02962 175.38626 181.6258 187.6234 191.21187 197.4514 203.92276 209.67844 213.2669 217.57106 223.57874 228.62882 234.63649 240.86594 243.73874 249.49442 253.08289 259.32243 265.7938 271.54948 278.02085 284.26039 290.25798 293.84645 299.6021 303.67445 306.54725 312.53477 318.53236">Integrais, sendo 100% do que recebia quando ativo.</tspan></text>
<text xml:space="preserve" transform="matrix(1 0 -0 1 0 841.92)" font-size="10.08" font-family="Verdana"><tspan y="-723.1" x="322.2"> </tspan></text>
<text xml:space="preserve" transform="matrix(1 0 -0 1 0 841.92)" font-size="10.08" font-family="Verdana"><tspan y="-710.83" x="42.504 49.46398">B)</tspan></text>
<text xml:space="preserve" transform="matrix(1 0 -0 1 0 841.92)" font-size="10.08" font-family="ArialMT"><tspan y="-710.83" x="53.784"> </tspan></text>
<text xml:space="preserve" transform="matrix(1 0 -0 1 0 841.92)" font-size="10.08" font-family="Verdana"><tspan y="-710.83" x="56.664 63.13536 66.72384 72.963359 77.26752 83.04336 89.030879 91.67184 96.923519 101.02608 107.02368 110.38032 116.85168 123.0912 133.88689 137.47536 143.71489 149.7125 153.30097 159.29857 165.76993 171.7776 175.356 179.4384 185.44608 190.69776 196.70543 202.72319 205.596 211.59358 215.18206 221.17966 227.65102 233.6486 240.11997 246.3595 252.3571 255.94557 261.70127 265.54176 268.41456 274.40208 280.39967">&#x00c9; previsto 70% do que recebia quando ativo.</tspan></text>
<text xml:space="preserve" transform="matrix(1 0 -0 1 0 841.92)" font-size="10.08" font-family="Verdana"><tspan y="-710.83" x="284.28"> </tspan></text>
<text xml:space="preserve" transform="matrix(1 0 -0 1 0 841.92)" font-size="10.08" font-family="Verdana"><tspan y="-698.59" x="42.504 49.464044">C)</tspan></text>
<text xml:space="preserve" transform="matrix(1 0 -0 1 0 841.92)" font-size="10.08" font-family="ArialMT"><tspan y="-698.59" x="54.024"> </tspan></text>
<text xml:space="preserve" transform="matrix(1 0 -0 1 0 841.92)" font-size="10.08" font-family="Verdana"><tspan y="-698.59" x="56.664 62.661603 66.96576 72.98352 79.22304 85.22064 89.5248 94.806728 97.67953 103.67713 110.14849 115.904178 118.77698 122.365459 128.36305 134.36066 137.7173 141.78963 147.7973 157.60515 163.885 169.87252 173.46099 179.45859 185.46627 189.04467 194.29634 200.08226 206.55362 210.62595 214.70835 217.58115 223.57875 230.05011 232.92292 238.17459 244.23267 250.20003">Proporcional ao tempo de contribui&#x00e7;&#x00e3;o.</tspan></text>
<text xml:space="preserve" transform="matrix(1 0 -0 1 0 841.92)" font-size="10.08" font-family="Verdana"><tspan y="-698.59" x="253.78"> </tspan></text>
<text xml:space="preserve" transform="matrix(1 0 -0 1 0 841.92)" font-size="10.08" font-family="Verdana"><tspan y="-686.59" x="42.504 50.183984">D)</tspan></text>
<text xml:space="preserve" transform="matrix(1 0 -0 1 0 841.92)" font-size="10.08" font-family="ArialMT"><tspan y="-686.59" x="54.744"> </tspan></text>
<text xml:space="preserve" transform="matrix(1 0 -0 1 0 841.92)" font-size="10.08" font-family="Verdana"><tspan y="-686.59" x="56.664 62.661603 66.96576 72.98352 79.22304 85.22064 89.5248 94.806728 97.67953 103.67713 110.14849 115.904178 118.77698 122.365459 128.36305 134.36066 137.7173 141.78963 147.7973 157.60515 163.885 169.87252 173.46099 179.45859 185.46627 189.04467 194.29634 200.08226 206.55362 210.62595 214.70835 217.58115 223.57875 230.05011 232.92292 238.17459 244.23267 250.20003 253.79859 257.1552 262.4069 268.43473 274.9061 278.49458 284.49217 288.57456 298.17073 304.1784 307.7568 313.7544">Proporcional ao tempo de contribui&#x00e7;&#x00e3;o, conforme a </tspan></text>
<text xml:space="preserve" transform="matrix(1 0 -0 1 0 841.92)" font-size="10.08" font-family="Verdana"><tspan y="-686.59" x="317.64 320.51283 326.75236 332.50804 338.74757 344.75526 348.11189 354.58326 360.58085 364.1693 367.75779 373.51347 377.5858 383.58338">idade no fato.</tspan></text>
<text xml:space="preserve" transform="matrix(1 0 -0 1 0 841.92)" font-size="10.08" font-family="Verdana"><tspan y="-686.59" x="387.26"> </tspan></text>
<text xml:space="preserve" transform="matrix(1 0 -0 1 0 841.92)" font-size="10.08" font-family="Verdana"><tspan y="-674.35" x="42.504 48.983564">E)</tspan></text>
<text xml:space="preserve" transform="matrix(1 0 -0 1 0 841.92)" font-size="10.08" font-family="ArialMT"><tspan y="-674.35" x="53.304"> </tspan></text>
<text xml:space="preserve" transform="matrix(1 0 -0 1 0 841.92)" font-size="10.08" font-family="Verdana"><tspan y="-674.35" x="56.664 62.661603 66.96576 72.98352 79.22304 85.22064 89.5248 94.806728 97.67953 103.67713 110.14849 115.904178 118.77698 122.37554 125.96402 131.2157 137.24355 146.8397 150.42818 156.66771 160.97187 166.97954 172.7453 175.6181 180.86978 186.92786 192.89522 196.48369 202.4813 208.48897 212.06737 218.30689 224.77825 235.57393 239.1624 245.40193 251.15761 254.74608 260.9856 267.45698 273.21266 276.80113 281.1053 287.11299 292.16307 297.91874 304.15827 307.03108 313.02867 316.61714 322.61476 329.08613 335.0837 341.55509 347.79463 353.7922 357.38069 363.13636 367.20869 369.84965 375.83717 381.83476 385.43333 389.0218">Proporcional, com previs&#x00e3;o de 60% do que recebia quando ativo.  </tspan></text>
<text xml:space="preserve" transform="matrix(1 0 -0 1 0 841.92)" font-size="10.08" font-family="Verdana"><tspan y="-674.35" x="392.78"> </tspan></text>
<text xml:space="preserve" transform="matrix(1 0 -0 1 0 841.92)" font-size="10.08" font-family="Verdana" font-weight="bold"><tspan y="-662.11" x="42.504"> </tspan></text>
<path transform="matrix(1,0,0,-1,0,841.92)" d="M41.064 658.51H554.374V658.99H41.064Z" fill-rule="evenodd"/>
<text xml:space="preserve" transform="matrix(1 0 -0 1 0 841.92)" font-size="10.08" font-family="Verdana" font-weight="bold"><tspan y="-648.43" x="42.504"> </tspan></text>
<text xml:space="preserve" transform="matrix(1 0 -0 1 0 841.92)" font-size="10.08" font-family="Verdana" font-weight="bold"><tspan y="-636.41" x="42.504 51.13248 59.31744 66.01056 73.1976 79.92096 87.60192 96.2304 100.776477 107.96351 115.15054">QUEST&#x00c3;O 32 </tspan></text>
<text xml:space="preserve" transform="matrix(1 0 -0 1 0 841.92)" font-size="10.08" font-family="Verdana" font-weight="bold"><tspan y="-636.41" x="119.81">&#x2013;</tspan></text>
<text xml:space="preserve" transform="matrix(1 0 -0 1 0 841.92)" font-size="10.08" font-family="Verdana" font-weight="bold"><tspan y="-636.41" x="127.01"> </tspan></text>
<text xml:space="preserve" transform="matrix(1 0 -0 1 0 841.92)" font-size="10.08" font-family="Verdana"><tspan y="-636.41" x="131.57 138.5252 144.28089 150.75225 154.34072 160.33832 164.64247 174.2588 180.26648 185.0444 191.042 195.83 201.8276 204.70041 209.95209 216.23194 222.21945 227.25945 231.33177 237.32938 242.11737 248.58873 254.58634 259.13243 265.6038 270.6438 274.71614 280.7137 284.5542 291.02558 295.0979 301.0955 305.88349 312.12303 318.1206 323.1606 327.9486 333.70429 339.94383 346.4152 351.4552 354.328 360.3256 366.79698 372.79457 376.87696 379.74977 385.74736 390.99903 395.81727 401.57295 408.0443 414.04194 416.91474 419.78755 425.0392 431.06706 436.10707 440.89506 447.13459 453.13218 457.92018 466.3168 472.55635 478.79588 481.66868 486.92036 489.8234 495.821 498.69383 504.6914 509.4794 515.7189 521.47457 526.0206 532.01828 538.0158 542.31997 546.40237 552.3999">Conforme o disposto no Estatuto dos Funcion&#x00e1;rios P&#x00fa;blicos do Munic&#x00ed;pio de Porto </tspan></text>
<text xml:space="preserve" transform="matrix(1 0 -0 1 0 841.92)" font-size="10.08" font-family="Verdana"><tspan y="-624.41" x="42.504 49.44912 52.32192 58.329599 64.317119 68.62128">Alegre</tspan></text>
<text xml:space="preserve" transform="matrix(1 0 -0 1 0 841.92)" font-size="10.08" font-family="Verdana"><tspan y="-624.41" x="74.664 79.24032 86.18544">/RS</tspan></text>
<text xml:space="preserve" transform="matrix(1 0 -0 1 0 841.92)" font-size="10.08" font-family="Verdana"><tspan y="-624.41" x="93.168"> </tspan></text>
<text xml:space="preserve" transform="matrix(1 0 -0 1 0 841.92)" font-size="10.08" font-family="Verdana"><tspan y="-624.41" x="96.288 100.86432 106.368007 112.12369 114.99649 118.121288 125.076488 131.07408 140.90209 146.89969 149.77249 155.78017 165.37633 171.384 177.61345 181.68578 187.68337 191.98752 194.88048">(Lei Complementar n</tspan></text>
<text xml:space="preserve" transform="matrix(1 0 -0 1 0 841.92)" font-size="10.08" font-family="MicrosoftSansSerif"><tspan y="-624.41" x="201.43">&#x00ba;</tspan></text>
<text xml:space="preserve" transform="matrix(1 0 -0 1 0 841.92)" font-size="10.08" font-family="Verdana"><tspan y="-624.41" x="205.03"> </tspan></text>
<text xml:space="preserve" transform="matrix(1 0 -0 1 0 841.92)" font-size="10.08" font-family="Verdana"><tspan y="-624.41" x="208.15 214.62136 220.86087 227.33223 231.90856 238.12792 244.59928 250.83879 257.31016 261.88648 265.47499 268.59977 272.6721 278.66969 284.6673 290.6649 293.78968 297.37815 303.84953 310.08906 315.34074 318.24378 323.99946 330.47084 336.4684 340.77259 343.65547 349.65306 352.77784 359.01737 365.01496 368.13975 376.53639 382.7759 389.24729 391.88825 397.13993 400.04298 406.0406 408.9134 414.91099 418.03578 424.2753 430.74668 436.75437 439.62718 445.63487 450.66477 454.7371 460.74479 464.10145 470.09904 473.22383 479.6952 485.69279 488.81758 495.0571 501.0648 506.31648 512.09237 521.92037 527.91799 533.92568 540.3869 546.8582 552.6139">133/1985), todo funcion&#x00e1;rio do Munic&#x00ed;pio que esteja no desempenho </tspan></text>
<text xml:space="preserve" transform="matrix(1 0 -0 1 0 841.92)" font-size="10.08" font-family="Verdana"><tspan y="-612.17" x="42.504 48.74352 54.751199 58.81344 63.853437 70.3248 76.3224 81.57408 85.434719 89.02319 95.26271 101.73407 106.98575 113.01359 119.02127 124.051189 128.1235 131.96399 137.97167 147.56783 151.64014 157.87967 160.75247 164.83487 170.84255 173.47342 177.54575 183.54335 187.61566 193.61325 197.44365 203.91501 213.74301 219.49869 223.571 229.81053 234.11469 239.89052 243.96285 246.6038 250.19228 253.06508 258.31678 264.1027 269.35438 275.41246 281.3798 285.21018 291.68156 297.67915 301.75148 307.50715 310.37995 313.0209 319.49229 325.48988 329.32026 334.57194 340.59977 344.90394 349.22828 355.23597 360.48765 366.7675 372.5131 378.98448 385.224 390.97969 397.45106 401.52339 407.27906 411.35139 417.34898 421.4213 426.4613 432.93269 438.68836 442.76069 447.06486 453.07255 462.67878 468.9183 475.38969 481.39738 485.70155 491.7092 496.96089 503.01896 508.9863 512.8167 522.6447 528.4004 534.8717 540.1234 546.1815 549.0241 552.38076">de suas fun&#x00e7;&#x00f5;es tem direito a uma gratifica&#x00e7;&#x00e3;o natalina correspondente &#x00e0; sua remunera&#x00e7;&#x00e3;o mensal. </tspan></text>
<text xml:space="preserve" transform="matrix(1 0 -0 1 0 841.92)" font-size="10.08" font-family="Verdana"><tspan y="-599.93" x="42.504 50.436964 54.01536 60.002885 66.00049 68.87329 74.870899 78.95329 82.54177 88.78129 94.77889 98.36737 104.60689 108.91105 114.68689 118.52737 121.40017 124.98865 127.62961 132.88129 138.93936 144.19104 150.18863 156.18624 159.7747 165.02639 171.05423 175.13663 179.44078 185.44846 190.73038 196.96991 202.96752 209.43888 215.43648 221.44416 225.7483 231.75598 235.34445 241.34204">O valor da gratifica&#x00e7;&#x00e3;o corresponder&#x00e1; a:</tspan></text>
<text xml:space="preserve" transform="matrix(1 0 -0 1 0 841.92)" font-size="10.08" font-family="Verdana"><tspan y="-599.93" x="245.86"> </tspan></text>
<text xml:space="preserve" transform="matrix(1 0 -0 1 0 841.92)" font-size="10.08" font-family="Verdana"><tspan y="-587.69" x="42.504"> </tspan></text>
<path transform="matrix(1,0,0,-1,0,841.92)" d="M56.664 573.77H456.884V586.01H56.664Z" fill="#ffffff" fill-rule="evenodd"/>
<text xml:space="preserve" transform="matrix(1 0 -0 1 0 841.92)" font-size="10.08" font-family="Verdana"><tspan y="-575.69" x="42.504 49.46402">A)</tspan></text>
<text xml:space="preserve" transform="matrix(1 0 -0 1 0 841.92)" font-size="10.08" font-family="ArialMT"><tspan y="-575.69" x="53.784"> </tspan></text>
<text xml:space="preserve" transform="matrix(1 0 -0 1 0 841.92)" font-size="10.08" font-family="Verdana"><tspan y="-575.69" x="56.664 64.092967 73.92096 77.277599 82.529277 88.58736 91.42992 97.42752 101.50992 104.38272 110.380329 113.9688 123.564968 126.205928 132.67728 135.31824 145.14624 151.14385 154.73232 159.03647 165.04415 171.05184 173.92464 179.92224 186.3936 192.14928 195.02208 198.61055 204.85009 210.84769 214.20433 224.03234 230.04001 235.06993 238.6584 244.89794 250.90561 254.48401 260.72355 266.73124 271.76115 277.76884 287.57667 293.8565 297.91877 303.91636 307.51493 311.1034 317.34294 323.3405">Um sal&#x00e1;rio m&#x00ed;nimo regional do m&#x00ea;s de dezembro, por</tspan></text>
<text xml:space="preserve" transform="matrix(1 0 -0 1 0 841.92)" font-size="10.08" font-family="Verdana"><tspan y="-575.69" x="327.96"> </tspan></text>
<text xml:space="preserve" transform="matrix(1 0 -0 1 0 841.92)" font-size="10.08" font-family="Verdana"><tspan y="-575.69" x="331.56 341.388 347.3957 352.4256 356.01408 362.2536 368.2613 371.8397 377.59538 381.18385 387.19154 391.02195 393.89476 399.88227 405.87986 409.23649 415.24418 421.21153 427.2192 431.3117 436.5634 439.2346 444.48628 447.3893 453.3869">m&#x00ea;s de efetivo exerc&#x00ed;cio.</tspan></text>
<text xml:space="preserve" transform="matrix(1 0 -0 1 0 841.92)" font-size="10.08" font-family="Verdana"><tspan y="-575.69" x="456.89"> </tspan></text>
<path transform="matrix(1,0,0,-1,0,841.92)" d="M56.664 561.53H457.844V573.77H56.664Z" fill="#ffffff" fill-rule="evenodd"/>
<text xml:space="preserve" transform="matrix(1 0 -0 1 0 841.92)" font-size="10.08" font-family="Verdana"><tspan y="-563.45" x="42.504 49.46398">B)</tspan></text>
<text xml:space="preserve" transform="matrix(1 0 -0 1 0 841.92)" font-size="10.08" font-family="ArialMT"><tspan y="-563.45" x="53.784"> </tspan></text>
<text xml:space="preserve" transform="matrix(1 0 -0 1 0 841.92)" font-size="10.08" font-family="Verdana"><tspan y="-563.45" x="56.664 64.092967 73.92096 77.277599 82.529277 88.58736 91.42992 97.42752 101.50992 104.38272 110.380329 113.9688 123.564968 126.205928 132.67728 135.31824 145.14624 151.14385 154.73232 161.20368 166.95935 172.21103 175.11408 180.86975 187.34111 193.3387 195.97966 199.56813 205.80767 211.80527 215.39374 225.22174 230.97742 236.2291 239.84781 246.08734 251.84302 255.43149 261.67103 267.6787 272.9707 278.70625 288.53425 294.77378 298.85618 304.85377 308.45234 312.0408 318.28034 324.27793 328.5821 332.19075 342.01875 348.02644 353.05635 356.6448 362.88435 368.89204 372.47044 378.2261 381.81459 387.82228 391.65269 394.52549 400.513 406.5106 409.86723 415.8749 421.84226 427.84996 431.94245 437.19413 439.86534 445.117 448.02006 454.01765">Um sal&#x00e1;rio m&#x00ed;nimo nacional do m&#x00ea;s de dezembro, por m&#x00ea;s de efetivo exerc&#x00ed;cio.</tspan></text>
<text xml:space="preserve" transform="matrix(1 0 -0 1 0 841.92)" font-size="10.08" font-family="Verdana"><tspan y="-563.45" x="457.85"> </tspan></text>
<path transform="matrix(1,0,0,-1,0,841.92)" d="M56.664 549.26H253.054V561.524H56.664Z" fill="#ffffff" fill-rule="evenodd"/>
<text xml:space="preserve" transform="matrix(1 0 -0 1 0 841.92)" font-size="10.08" font-family="Verdana"><tspan y="-551.18" x="42.504 49.464044">C)</tspan></text>
<text xml:space="preserve" transform="matrix(1 0 -0 1 0 841.92)" font-size="10.08" font-family="ArialMT"><tspan y="-551.18" x="54.024"> </tspan></text>
<text xml:space="preserve" transform="matrix(1 0 -0 1 0 841.92)" font-size="10.08" font-family="Verdana"><tspan y="-551.18" x="56.664 63.13536 69.60672 80.17056 83.75904 89.99856 95.99616 99.58464 105.57216 111.32784 114.200649 120.19825 124.50241 128.11106 134.35059 140.34818 143.93665 148.01905 154.02672 163.62288 170.09424 176.33377 182.34145 186.6456 192.65328 197.90496 203.96303 209.93039 213.28704 223.11504 229.12271 235.35216 240.60384 246.66191 249.50447">50% do valor da remunera&#x00e7;&#x00e3;o mensal.</tspan></text>
<text xml:space="preserve" transform="matrix(1 0 -0 1 0 841.92)" font-size="10.08" font-family="Verdana"><tspan y="-551.18" x="253.06"> </tspan></text>
<path transform="matrix(1,0,0,-1,0,841.92)" d="M56.664 537.26H253.054V549.5H56.664Z" fill="#ffffff" fill-rule="evenodd"/>
<text xml:space="preserve" transform="matrix(1 0 -0 1 0 841.92)" font-size="10.08" font-family="Verdana"><tspan y="-539.18" x="42.504 50.183984">D)</tspan></text>
<text xml:space="preserve" transform="matrix(1 0 -0 1 0 841.92)" font-size="10.08" font-family="ArialMT"><tspan y="-539.18" x="54.744"> </tspan></text>
<text xml:space="preserve" transform="matrix(1 0 -0 1 0 841.92)" font-size="10.08" font-family="Verdana"><tspan y="-539.18" x="56.664 63.13536 69.60672 80.17056 83.75904 89.99856 95.99616 99.58464 105.57216 111.32784 114.200649 120.19825 124.50241 128.11106 134.35059 140.34818 143.93665 148.01905 154.02672 163.62288 170.09424 176.33377 182.34145 186.6456 192.65328 197.90496 203.96303 209.93039 213.28704 223.11504 229.12271 235.35216 240.60384 246.66191 249.50447">80% do valor da remunera&#x00e7;&#x00e3;o mensal.</tspan></text>
<text xml:space="preserve" transform="matrix(1 0 -0 1 0 841.92)" font-size="10.08" font-family="Verdana"><tspan y="-539.18" x="253.06"> </tspan></text>
<path transform="matrix(1,0,0,-1,0,841.92)" d="M56.664 525.02H552.93399V537.26H56.664Z" fill="#ffffff" fill-rule="evenodd"/>
<text xml:space="preserve" transform="matrix(1 0 -0 1 0 841.92)" font-size="10.08" font-family="Verdana"><tspan y="-526.94" x="42.504 48.983564">E)</tspan></text>
<text xml:space="preserve" transform="matrix(1 0 -0 1 0 841.92)" font-size="10.08" font-family="ArialMT"><tspan y="-526.94" x="53.304"> </tspan></text>
<text xml:space="preserve" transform="matrix(1 0 -0 1 0 841.92)" font-size="10.08" font-family="Verdana"><tspan y="-526.94" x="56.664 64.092967 73.689128 78.003368 84.24288 90.240489 95.532489 101.54017 105.83424 111.58993 117.577449 123.57505 128.82674 132.92929 137.50562 143.9568 148.28113 154.75249 161.22385 165.54817 169.86241 176.10195 182.09955 186.17186 192.15938 198.15697 201.02977 207.02738 211.10977 215.42401 221.66355 227.41922 231.73346 236.03762 241.81345 251.64145 257.88099 264.35237 270.36006 274.6642 280.42997 285.68165 291.73973 297.70707 301.7794 311.6074 317.61509 323.8445 329.0962 335.15428 337.76499 342.07923 348.31877 354.32646 360.08213 362.95494 369.19447 374.95014 379.26438 385.73576 391.49143 395.80567 405.63368 411.38935 416.64103 420.97544 426.97306 432.98075 437.2849 443.28254 449.29023 454.5822 460.5899 470.39775 476.40544 480.7096 486.72737 490.32594 494.64018 500.8797">Um doze avos (1/12) do valor da remunera&#x00e7;&#x00e3;o mensal devida no m&#x00ea;s de dezembro, po</tspan></text>
<text xml:space="preserve" transform="matrix(1 0 -0 1 0 841.92)" font-size="10.08" font-family="Verdana"><tspan y="-526.94" x="507.31 511.3924 515.7066 525.5346 531.2903 536.542 540.8764 546.874 552.8817">r m&#x00ea;s de </tspan></text>
<path transform="matrix(1,0,0,-1,0,841.92)" d="M56.664 512.78H141.888V525.02H56.664Z" fill="#ffffff" fill-rule="evenodd"/>
<text xml:space="preserve" transform="matrix(1 0 -0 1 0 841.92)" font-size="10.08" font-family="Verdana"><tspan y="-514.7" x="56.664 62.67168 66.250087 72.25777 76.088169 78.96097 84.94849 90.94609 94.53457 100.29025 106.27777 112.28545 116.35777 121.60945 124.51249 129.55249 132.4253 138.4229">efetivo exerc&#x00ed;cio.</tspan></text>
<text xml:space="preserve" transform="matrix(1 0 -0 1 0 841.92)" font-size="10.08" font-family="Verdana"><tspan y="-514.7" x="141.89"> </tspan></text>
<text xml:space="preserve" transform="matrix(1 0 -0 1 0 841.92)" font-size="10.08" font-family="Verdana"><tspan y="-502.7" x="42.504"> </tspan></text>
<path transform="matrix(1,0,0,-1,0,841.92)" d="M41.064 499.1H554.374V499.58003H41.064Z" fill-rule="evenodd"/>
<text xml:space="preserve" transform="matrix(1 0 -0 1 0 841.92)" font-size="10.08" font-family="Verdana"><tspan y="-489.02" x="42.504"> </tspan></text>
<text xml:space="preserve" transform="matrix(1 0 -0 1 0 841.92)" font-size="10.08" font-family="Verdana" font-weight="bold"><tspan y="-476.78" x="42.504 51.13248 59.31744 66.01056 73.1976 79.92096 87.60192 96.2304 100.776477 107.96351 115.15054">QUEST&#x00c3;O 33 </tspan></text>
<text xml:space="preserve" transform="matrix(1 0 -0 1 0 841.92)" font-size="10.08" font-family="Verdana" font-weight="bold"><tspan y="-476.78" x="119.81">&#x2013;</tspan></text>
<text xml:space="preserve" transform="matrix(1 0 -0 1 0 841.92)" font-size="10.08" font-family="Verdana" font-weight="bold"><tspan y="-476.78" x="127.01"> </tspan></text>
<text xml:space="preserve" transform="matrix(1 0 -0 1 0 841.92)" font-size="10.08" font-family="Verdana"><tspan y="-476.78" x="131.57 139.50296 144.28089 147.86936 154.10889 160.58025 165.62024 168.49304 174.49065 180.962 186.9596 191.04199 193.9148 199.9124 204.7004 210.93993 217.41129 223.40889 226.2817 228.92266 234.17433 240.20218 244.99018 254.81818 261.0577 267.29725 270.17005 275.42173 278.32478 284.3224 290.31999 293.19279 297.98078 304.45216 310.44975 315.23774 321.24543 327.21278 332.9987 337.30287 342.363 345.2358 350.4875 353.39054 359.38813 364.17613 370.41566 376.41325 381.66493 386.24125 391.49293 397.99455 403.99214 409.2438 414.06205 419.81773 423.89006 426.531 432.51853 435.39134 441.63087 447.62846 453.62608 459.63377 464.88545 469.6936 475.93315 481.94084 487.6965 493.7042 498.48213 504.4797 510.71925 515.0234 521.03109 526.0812 532.08889 538.5501 542.62246 548.3781 552.4605">O funcion&#x00e1;rio p&#x00fa;blico municipal no exerc&#x00ed;cio das suas atividades deve apresentar </tspan></text>
<text xml:space="preserve" transform="matrix(1 0 -0 1 0 841.92)" font-size="10.08" font-family="Verdana"><tspan y="-464.76" x="42.504 47.755685 53.783525 60.254884 66.4944 72.73392 76.80624 82.56192 89.507038 95.50464 101.744159 107.75184 113.73936 120.21072 126.20832 132.44785 138.44544 145.39055 151.38814 157.14382 164.08893 169.3406 175.39868 179.70284 185.93228 191.68796 198.63307 204.63068 211.10204 216.85771 223.80283 229.8105 235.77787 241.78554 245.878 251.12969 257.13737 260.51417 267.4593 271.53163 277.2873 283.52684 289.76637 295.76396 302.70909 308.70668 311.57948 317.5771 324.04847 330.288 335.53968 342.2731 348.51264 354.52033 360.48768 366.49537 370.58787 376.59556 381.62547 388.5706 394.81013 400.8178 406.0695 411.36149 417.11717 424.0623 429.1023 435.11 441.33943 445.41175 448.28456 454.52409 460.52168 463.87834 470.82347 478.5044 484.97578 490.97337 493.61433 500.55946 506.79899 512.7966 517.8366 524.54989 529.8016 535.8597 541.1114 547.10897 552.36068">conduta adequada ao cargo que exerce, tendo alguns deveres nesse sentido. Qual dos casos </tspan></text>
<text xml:space="preserve" transform="matrix(1 0 -0 1 0 841.92)" font-size="10.08" font-family="Verdana"><tspan y="-452.52" x="42.504 48.501604 54.74112 59.04528 65.05296 70.334888 76.09057 82.56193 86.63425 92.63185 98.87137 104.86897 109.90897 113.49745 119.495059 125.73457 131.73217 134.60497 140.59249 146.59009 150.17856 157.37567 164.32079 172.25376 175.60031 181.60799 184.96463 191.43599 201.26399 204.85247 210.85007 216.85774 222.8251 228.83278 232.92525 236.51372 242.75325 248.75086 252.33933 255.69597 262.16734 268.40687 273.65855">apresentados abaixo N&#x00c3;O &#x00e9; um dever do funci</tspan></text>
<text xml:space="preserve" transform="matrix(1 0 -0 1 0 841.92)" font-size="10.08" font-family="Verdana"><tspan y="-452.52" x="276.84 282.59568 289.06706 295.06465 299.3688 302.25169 308.24928 313.5312">on&#x00e1;rio? </tspan></text>
<text xml:space="preserve" transform="matrix(1 0 -0 1 0 841.92)" font-size="10.08" font-family="Verdana"><tspan y="-452.52" x="316.92"> </tspan></text>
<text xml:space="preserve" transform="matrix(1 0 -0 1 0 841.92)" font-size="10.08" font-family="Verdana"><tspan y="-440.28" x="42.504"> </tspan></text>
<path transform="matrix(1,0,0,-1,0,841.92)" d="M56.664 426.36H552.93399V438.59999H56.664Z" fill="#ffffff" fill-rule="evenodd"/>
<text xml:space="preserve" transform="matrix(1 0 -0 1 0 841.92)" font-size="10.08" font-family="Verdana"><tspan y="-428.28" x="42.504 49.46402">A)</tspan></text>
<text xml:space="preserve" transform="matrix(1 0 -0 1 0 841.92)" font-size="10.08" font-family="ArialMT"><tspan y="-428.28" x="53.784"> </tspan></text>
<text xml:space="preserve" transform="matrix(1 0 -0 1 0 841.92)" font-size="10.08" font-family="Verdana"><tspan y="-428.28" x="56.664 64.59696 70.8264 76.07808 82.08576 86.420169 92.407688 98.40529 102.487689 109.4328 115.430408 120.470409 127.41552 133.88687 139.88448 143.96688 153.79488 159.79247 165.04415 172.0195 178.0171 184.02478 190.9699 196.22158 202.22925 208.24701 214.71837 219.02252 224.79836 231.26972 236.5214 242.30731 249.25243 255.2601 261.9633 271.7913 277.79899 284.0284 286.66938 291.92106 294.59226 300.8318 306.82939 313.7745 320.01405 326.01164 332.95677 337.02909 341.33326 347.351 353.59056 359.34623 361.98719 368.45857 374.45616 381.40129 387.40898 392.43888 396.5112 402.5088 408.74833 414.756 417.3869 423.3946 428.4245 431.2973 437.53684 443.53443 448.7861 452.41493 459.36006 465.59959 471.35527 481.18327 488.1284 493.38008 499.166 508.994 514.9916 521.9367 527.93429 534.6475 541.11886 546.1589 552.3883">Observar as normas de seguran&#x00e7;a e medicina do trabalho estabelecidas, bem como o uso </tspan></text>
<path transform="matrix(1,0,0,-1,0,841.92)" d="M56.664 414.12H484.514V426.36H56.664Z" fill="#ffffff" fill-rule="evenodd"/>
<text xml:space="preserve" transform="matrix(1 0 -0 1 0 841.92)" font-size="10.08" font-family="Verdana"><tspan y="-416.04" x="56.664 62.661603 68.90112 73.205287 76.088169 82.32768 88.32529 92.397609 98.39521 102.47761 105.35041 111.348018 114.93649 121.17601 127.173618 132.4253 135.81217 142.28353 148.52306 154.76259 157.63539 163.87493 169.6306 179.4586 185.46628 191.69573 195.76805 201.76566 207.01734 210.63605 216.63365 222.64133 226.21973 232.21733 236.52149 242.53925 246.61157 252.36725 257.61894 263.677 269.64436 273.23283 277.31523 283.7866 289.7842 292.657 298.64454 301.2855 307.52503 313.9964 319.994 322.63496 326.22343 330.79975 337.25096 343.00663 347.32087 351.8972 355.4756 361.4732 367.94459 373.95228 377.3089 379.94987 386.42124 392.42893 396.00733 399.5958 405.59339 409.67579 415.68348 425.4913 428.87818 432.46665 438.46424 442.7684 449.24986 455.00553 460.2572 463.16026 469.39979 475.39738 480.64906">obrigat&#x00f3;rio dos Equipamentos de Prote&#x00e7;&#x00e3;o Individual (EPI) que lhe forem fornecidos.</tspan></text>
<text xml:space="preserve" transform="matrix(1 0 -0 1 0 841.92)" font-size="10.08" font-family="Verdana"><tspan y="-416.04" x="484.51"> </tspan></text>
<path transform="matrix(1,0,0,-1,0,841.92)" d="M56.664 401.88H436.964V414.12H56.664Z" fill="#ffffff" fill-rule="evenodd"/>
<text xml:space="preserve" transform="matrix(1 0 -0 1 0 841.92)" font-size="10.08" font-family="Verdana"><tspan y="-403.8" x="42.504 49.46398">B)</tspan></text>
<text xml:space="preserve" transform="matrix(1 0 -0 1 0 841.92)" font-size="10.08" font-family="ArialMT"><tspan y="-403.8" x="53.784"> </tspan></text>
<text xml:space="preserve" transform="matrix(1 0 -0 1 0 841.92)" font-size="10.08" font-family="Verdana"><tspan y="-403.8" x="56.664 62.893445 67.1976 73.21536 77.28768 83.285289 87.36768 90.95616 96.20784 102.23568 111.83184 115.42032 121.89168 126.19584 132.47568 138.2112 144.45073 147.32353 153.56307 159.56066 165.80019 171.80786 175.38626 181.38385 186.42385 190.01232 196.25185 202.24944 206.33184 210.40416 216.41184 221.66352 225.28223 228.8707 234.62638 238.6987 244.45438 250.92574 257.16526 262.92094 269.3923 275.63185">Tratar com urbanidade as partes, atendendo</tspan></text>
<text xml:space="preserve" transform="matrix(1 0 -0 1 0 841.92)" font-size="10.08" font-family="Verdana"><tspan y="-403.8" x="281.88">-</tspan></text>
<text xml:space="preserve" transform="matrix(1 0 -0 1 0 841.92)" font-size="10.08" font-family="Verdana"><tspan y="-403.8" x="286.44 292.4376 297.68928 301.07615 306.32783 312.3355 322.18367 325.77214 331.76976 336.0739 342.0816 345.68019 351.43586 355.74003 361.7477 367.9973 373.249 376.15205 382.14964 387.18965 390.7781 397.01765 403.02534 408.05525 413.30693 419.33476 425.33235 428.20515 433.45683">as sem prefer&#x00ea;ncias pessoais.</tspan></text>
<text xml:space="preserve" transform="matrix(1 0 -0 1 0 841.92)" font-size="10.08" font-family="Verdana"><tspan y="-403.8" x="436.97"> </tspan></text>
<path transform="matrix(1,0,0,-1,0,841.92)" d="M56.664 389.88H399.284V402.12H56.664Z" fill="#ffffff" fill-rule="evenodd"/>
<text xml:space="preserve" transform="matrix(1 0 -0 1 0 841.92)" font-size="10.08" font-family="Verdana"><tspan y="-391.8" x="42.504 49.464044">C)</tspan></text>
<text xml:space="preserve" transform="matrix(1 0 -0 1 0 841.92)" font-size="10.08" font-family="ArialMT"><tspan y="-391.8" x="54.024"> </tspan></text>
<text xml:space="preserve" transform="matrix(1 0 -0 1 0 841.92)" font-size="10.08" font-family="Verdana"><tspan y="-391.8" x="56.664 64.34496 70.352649 75.604328 81.61201 91.45009 97.689609 103.44529 109.68481 116.156169 122.15377 126.45793 130.06658 135.31826 141.10417 150.93218 154.52065 159.81266 165.55825 168.43105 174.42865 178.01712 184.0248 187.6032 193.6008 197.90496 203.91263 208.9627 213.03504 219.04271 224.33472 230.31215 233.90062 239.89823 244.93822 248.52669 252.36717 256.67134 262.6891 268.92863 274.9262 277.56718 284.03855 290.03614 295.2878 298.67469 304.9142 310.9219 314.5003 319.5403 326.0117 332.00929 337.26097 340.87968 346.63536 350.70768 355.01185 357.66288 363.9024 370.14195 373.01475 378.26643 384.29426 390.30195 395.55363">Desempenhar com zelo e presteza os trabalhos de suas atribui&#x00e7;&#x00f5;es.</tspan></text>
<text xml:space="preserve" transform="matrix(1 0 -0 1 0 841.92)" font-size="10.08" font-family="Verdana"><tspan y="-391.8" x="399.29"> </tspan></text>
<path transform="matrix(1,0,0,-1,0,841.92)" d="M56.664 377.62H552.93399V389.884H56.664Z" fill="#ffffff" fill-rule="evenodd"/>
<text xml:space="preserve" transform="matrix(1 0 -0 1 0 841.92)" font-size="10.08" font-family="Verdana"><tspan y="-379.54" x="42.504 50.183984">D)</tspan></text>
<text xml:space="preserve" transform="matrix(1 0 -0 1 0 841.92)" font-size="10.08" font-family="ArialMT"><tspan y="-379.54" x="54.744"> </tspan></text>
<text xml:space="preserve" transform="matrix(1 0 -0 1 0 841.92)" font-size="10.08" font-family="Verdana"><tspan y="-379.54" x="56.664 63.609125 68.8608 74.918888 78.96096 84.716648 89.020809 94.54464 100.55232 106.056 111.30768 117.57744 127.40543 133.64496 137.72736 140.60016 144.90431 150.42815 156.42574 161.67742 167.21134 173.20894 177.51309 183.79294 189.52846 195.99982 201.2515 206.78542 213.02495 219.02256 224.27423 229.80815 235.05983 240.84575 247.31711 252.56879 258.1027 263.1427 269.61408 275.8536 281.8613 285.93363 288.80644 294.80403 298.8864 304.8941 310.14579 315.6797 321.91923 324.79203 330.7997 335.10389 341.11155 345.4157 351.43348 357.90486 360.5458 365.7975 371.82533 377.077 380.7058 386.21958 396.04759 402.05528 407.08518 416.91319 422.91078 428.42454 434.66407 441.13545 446.8911 453.3625 459.60203 465.5996 471.11338 480.94139 486.93898 493.1785 496.0513 499.40794 505.41563 510.6673 514.75979 520.51547 530.34347 536.0991 542.3386 546.41098 552.41867">Acatar e cumprir as ordens dos seus superiores hier&#x00e1;rquicos, mesmo quando manifestamente </tspan></text>
<path transform="matrix(1,0,0,-1,0,841.92)" d="M56.664 365.38H91.968V377.62H56.664Z" fill="#ffffff" fill-rule="evenodd"/>
<text xml:space="preserve" transform="matrix(1 0 -0 1 0 841.92)" font-size="10.08" font-family="Verdana"><tspan y="-367.3" x="56.664 59.5368 62.4096 68.41728 74.64672 80.402408 83.27521 88.526889">ilegais.</tspan></text>
<text xml:space="preserve" transform="matrix(1 0 -0 1 0 841.92)" font-size="10.08" font-family="Verdana"><tspan y="-367.3" x="91.968"> </tspan></text>
<path transform="matrix(1,0,0,-1,0,841.92)" d="M56.664 353.38H552.93399V365.62H56.664Z" fill="#ffffff" fill-rule="evenodd"/>
<text xml:space="preserve" transform="matrix(1 0 -0 1 0 841.92)" font-size="10.08" font-family="Verdana"><tspan y="-355.3" x="42.504 48.983564">E)</tspan></text>
<text xml:space="preserve" transform="matrix(1 0 -0 1 0 841.92)" font-size="10.08" font-family="ArialMT"><tspan y="-355.3" x="53.304"> </tspan></text>
<text xml:space="preserve" transform="matrix(1 0 -0 1 0 841.92)" font-size="10.08" font-family="Verdana"><tspan y="-355.3" x="56.664 63.6192 69.616809 79.4448 85.91616 92.15568 95.02848 100.28016 106.33824 110.3904 113.5152 119.5128 122.637599 127.6776 133.68527 140.14656 143.02944 148.28112 154.55088 160.55855 164.13695 170.14463 173.01743 175.89023 185.48639 191.49407 197.72351 200.59632 206.35199 210.42432 216.42192 219.54673 222.18769 226.49184 230.81615 236.82382 242.81136 249.28272 252.15552 258.1531 262.2355 265.1083 271.34785 277.34544 283.58497 289.34065 294.59233 297.50544 303.74497 309.75267 312.86738 319.1069 325.57829 331.33396 334.45875 338.29924 341.17204 347.15956 352.91523 357.2194 360.35429 365.60597 371.39189 377.86326 384.33464 390.0903 395.34199 398.01319 407.8412 413.59687 420.06825 424.14057 430.13816 433.02104 439.4924 445.49 448.61479 454.61238 458.91654 465.19639 471.17384 477.17143 480.2962 486.3039 495.90007 499.02485 505.26438 511.5039 517.5116 520.62637 525.87808 531.664">Comunicar a seu chefe imediato irregularidades de que tiver conhecimento no &#x00f3;rg&#x00e3;o em que ser</tspan></text>
<text xml:space="preserve" transform="matrix(1 0 -0 1 0 841.92)" font-size="10.08" font-family="Verdana"><tspan y="-355.3" x="536.38 542.1357 545.0085 549.3126">vir.</tspan></text>
<text xml:space="preserve" transform="matrix(1 0 -0 1 0 841.92)" font-size="10.08" font-family="Verdana"><tspan y="-355.3" x="552.94"> </tspan></text>
<text xml:space="preserve" transform="matrix(1 0 -0 1 0 841.92)" font-size="10.08" font-family="Verdana"><tspan y="-343.06" x="42.504"> </tspan></text>
<path transform="matrix(1,0,0,-1,0,841.92)" d="M41.064 339.46H554.374V339.93998H41.064Z" fill-rule="evenodd"/>
<text xml:space="preserve" transform="matrix(1 0 -0 1 0 841.92)" font-size="10.08" font-family="Verdana"><tspan y="-329.38" x="42.504"> </tspan></text>
<path transform="matrix(1,0,0,-1,0,841.92)" d="M130.37 315.46H552.94V327.69999H130.37Z" fill="#ffffff" fill-rule="evenodd"/>
<text xml:space="preserve" transform="matrix(1 0 -0 1 0 841.92)" font-size="10.08" font-family="Verdana" font-weight="bold"><tspan y="-317.38" x="42.504 51.13248 59.31744 66.01056 73.1976 79.92096 87.60192 96.2304 100.54464 107.49984 114.686878">QUEST&#x00c3;O 34 </tspan></text>
<text xml:space="preserve" transform="matrix(1 0 -0 1 0 841.92)" font-size="10.08" font-family="Verdana" font-weight="bold"><tspan y="-317.38" x="119.09">&#x2013;</tspan></text>
<text xml:space="preserve" transform="matrix(1 0 -0 1 0 841.92)" font-size="10.08" font-family="Verdana" font-weight="bold"><tspan y="-317.38" x="126.29"> </tspan></text>
<text xml:space="preserve" transform="matrix(1 0 -0 1 0 841.92)" font-size="10.08" font-family="Verdana"><tspan y="-317.38" x="130.37 138.30295 144.76424 150.51992 156.99127 163.2308 169.22841 173.54265 180.014 186.0116 191.76728 196.31336 202.78472 208.54039 215.01175 220.99927 227.00695 231.07926 235.62534 241.86487 247.86246 254.10199 260.09959 265.1396 269.68568 274.72569">Quando n&#x00e3;o houver dados su</tspan></text>
<text xml:space="preserve" transform="matrix(1 0 -0 1 0 841.92)" font-size="10.08" font-family="Verdana"><tspan y="-317.38" x="281.4 284.75663 287.39759 292.64927 295.5523 301.30799 307.77937 311.85169 317.60737 322.85905 327.19346 333.43299 339.43058 343.73475 349.7525 354.29859 360.05427 364.60035 370.83988 376.59556 380.66789 386.67558 390.7479 400.5759 403.21687 409.68824 415.68583 420.9375 426.99559 432.721 437.2671 443.50663 449.2623 453.80839 460.0479 466.28746 472.29515 476.5993 482.83885">ficientes para a determina&#x00e7;&#x00e3;o de que um</tspan></text>
<text xml:space="preserve" transform="matrix(1 0 -0 1 0 841.92)" font-size="10.08" font-family="Verdana"><tspan y="-317.38" x="492.91"> </tspan></text>
<text xml:space="preserve" transform="matrix(1 0 -0 1 0 841.92)" font-size="10.08" font-family="Verdana"><tspan y="-317.38" x="497.23 500.81849 507.058 513.52938 518.5694 521.4422 527.43978 533.9111 539.9087 544.2128 547.0957 552.8514">funcion&#x00e1;rio </tspan></text>
<text xml:space="preserve" transform="matrix(1 0 -0 1 0 841.92)" font-size="10.08" font-family="Verdana"><tspan y="-317.38" x="556.3"> </tspan></text>
<path transform="matrix(1,0,0,-1,0,841.92)" d="M42.504 303.19H552.934V315.454H42.504Z" fill="#ffffff" fill-rule="evenodd"/>
<text xml:space="preserve" transform="matrix(1 0 -0 1 0 841.92)" font-size="10.08" font-family="Verdana"><tspan y="-305.11" x="42.504 47.755685 53.783525 63.611524 69.6192 73.68144 79.437129">cometeu</tspan></text>
<text xml:space="preserve" transform="matrix(1 0 -0 1 0 841.92)" font-size="10.08" font-family="Verdana"><tspan y="-305.11" x="85.944"> </tspan></text>
<text xml:space="preserve" transform="matrix(1 0 -0 1 0 841.92)" font-size="10.08" font-family="Verdana"><tspan y="-305.11" x="89.304 95.54352 105.37151 111.36912 114.957599 118.546077 124.30176 127.17456 131.24689 137.24448 140.84304 144.4315 150.42911 156.90047 162.65615 165.52895 168.88559 171.75839 178.22975 183.26975 187.34207 191.42447 197.89583 207.49199 213.49967 219.72911 223.80144 229.79904 233.38751 236.02848 242.03615 248.2656 254.26319 257.136 260.4926 266.73216 272.73985 278.70719 284.4931 287.84974 293.1014 299.1091 303.4435 306.80015 313.2715 317.112 319.9848 322.62577 325.49858 330.79057 336.77809 343.0176 349.0152 352.60368 358.8432 364.59889 367.47169 373.46928 377.05775 382.81343 389.2848 393.35713 399.3547 403.4371 406.3099 412.54945 418.54704 424.78657 430.79426 434.37266 440.37028 446.84165 452.59733 456.1858 460.02629 462.89909 468.8866 474.64228 478.94645 482.55509 487.80677 493.8346 500.07414 506.5455 512.30117 517.55288 520.22409 529.82028 535.82797 542.2892 546.3615 552.3591">uma falta, qual instrumento legal deve ser utilizado pela autoridade que tiver conhecimento </tspan></text>
<path transform="matrix(1,0,0,-1,0,841.92)" d="M42.504 290.95H397.824V303.19H42.504Z" fill="#ffffff" fill-rule="evenodd"/>
<text xml:space="preserve" transform="matrix(1 0 -0 1 0 841.92)" font-size="10.08" font-family="Verdana"><tspan y="-292.87" x="42.504 46.092485 52.090085 56.394247 66.24241 72.24001 74.880977 78.46945 84.70897 90.71665 94.07329 96.94609 103.18561 106.774089 112.77169 117.07585 126.92401 132.9216 138.17328 144.23136 149.95679 153.54526 158.79694 164.82479 171.06432 175.36847 181.37615 184.9747 190.73038 194.31885 197.90732 203.663 206.5358 210.60813 216.3638 219.95227 223.30892 229.78028 236.25164 241.29163 244.16443 250.16204 256.6334 262.38908 265.26188 268.6185 273.87019 280.3718 286.36943 292.367 297.61869 301.72126 307.71885 317.54685 323.30253 329.7739 333.61439 339.62208 343.20048 349.44 353.74418 359.76194 365.0136 371.0213 377.03907 379.91188 386.1514 392.149">formal de informa&#x00e7;&#x00e3;o sobre a falta funcional supostamente procedida?</tspan></text>
<text xml:space="preserve" transform="matrix(1 0 -0 1 0 841.92)" font-size="10.08" font-family="Verdana"><tspan y="-292.87" x="397.82"> </tspan></text>
<text xml:space="preserve" transform="matrix(1 0 -0 1 0 841.92)" font-size="10.08" font-family="Verdana"><tspan y="-280.87" x="42.504"> </tspan></text>
<path transform="matrix(1,0,0,-1,0,841.92)" d="M56.664 266.71H236.254V278.94999H56.664Z" fill="#ffffff" fill-rule="evenodd"/>
<text xml:space="preserve" transform="matrix(1 0 -0 1 0 841.92)" font-size="10.08" font-family="Verdana"><tspan y="-268.63" x="42.504 49.46402">A)</tspan></text>
<text xml:space="preserve" transform="matrix(1 0 -0 1 0 841.92)" font-size="10.08" font-family="ArialMT"><tspan y="-268.63" x="53.784"> </tspan></text>
<text xml:space="preserve" transform="matrix(1 0 -0 1 0 841.92)" font-size="10.08" font-family="Verdana"><tspan y="-268.63" x="56.664 60.97824 67.4496 73.4472 79.91856 85.92624 89.99856 92.87136 96.94368 102.941287 106.52976 112.52737 118.52496 128.35297 130.99393 137.23346 140.10626 145.14626 149.21858 153.52274 159.5405 163.38098 166.25379 172.2413 178.2389 181.82738 187.82498 192.12914 198.13681 200.78786 203.66066 213.25682 215.89778 222.36914 228.36673 232.67089">Inqu&#x00e9;rito administrativo preliminar.</tspan></text>
<text xml:space="preserve" transform="matrix(1 0 -0 1 0 841.92)" font-size="10.08" font-family="Verdana"><tspan y="-268.63" x="236.26"> </tspan></text>
<path transform="matrix(1,0,0,-1,0,841.92)" d="M56.664 254.47H116.688V266.71H56.664Z" fill="#ffffff" fill-rule="evenodd"/>
<text xml:space="preserve" transform="matrix(1 0 -0 1 0 841.92)" font-size="10.08" font-family="Verdana"><tspan y="-256.39" x="42.504 49.46398">B)</tspan></text>
<text xml:space="preserve" transform="matrix(1 0 -0 1 0 841.92)" font-size="10.08" font-family="ArialMT"><tspan y="-256.39" x="53.784"> </tspan></text>
<text xml:space="preserve" transform="matrix(1 0 -0 1 0 841.92)" font-size="10.08" font-family="Verdana"><tspan y="-256.39" x="56.664 63.609125 66.250087 72.72144 78.96096 81.60192 86.8536 92.91168 99.12096 104.372638 107.27567 113.27328">Sindic&#x00e2;ncia.</tspan></text>
<text xml:space="preserve" transform="matrix(1 0 -0 1 0 841.92)" font-size="10.08" font-family="Verdana"><tspan y="-256.39" x="116.69"> </tspan></text>
<path transform="matrix(1,0,0,-1,0,841.92)" d="M56.664 242.47H172.874V254.71H56.664Z" fill="#ffffff" fill-rule="evenodd"/>
<text xml:space="preserve" transform="matrix(1 0 -0 1 0 841.92)" font-size="10.08" font-family="Verdana"><tspan y="-244.39" x="42.504 49.464044">C)</tspan></text>
<text xml:space="preserve" transform="matrix(1 0 -0 1 0 841.92)" font-size="10.08" font-family="ArialMT"><tspan y="-244.39" x="54.024"> </tspan></text>
<text xml:space="preserve" transform="matrix(1 0 -0 1 0 841.92)" font-size="10.08" font-family="Verdana"><tspan y="-244.39" x="56.664 63.6192 69.616809 76.088169 81.33984 87.34753 90.008647 96.48 102.47761 106.066089 112.3056 118.06129 121.649768 129.33074 132.20354 137.24353 142.49521 145.39826 151.39586 154.26866 156.90962 163.38098 169.37857">Conselho de Disciplina.</tspan></text>
<text xml:space="preserve" transform="matrix(1 0 -0 1 0 841.92)" font-size="10.08" font-family="Verdana"><tspan y="-244.39" x="172.87"> </tspan></text>
<path transform="matrix(1,0,0,-1,0,841.92)" d="M56.664 230.23H239.614V242.47H56.664Z" fill="#ffffff" fill-rule="evenodd"/>
<text xml:space="preserve" transform="matrix(1 0 -0 1 0 841.92)" font-size="10.08" font-family="Verdana"><tspan y="-232.15" x="42.504 50.183984">D)</tspan></text>
<text xml:space="preserve" transform="matrix(1 0 -0 1 0 841.92)" font-size="10.08" font-family="ArialMT"><tspan y="-232.15" x="54.744"> </tspan></text>
<text xml:space="preserve" transform="matrix(1 0 -0 1 0 841.92)" font-size="10.08" font-family="Verdana"><tspan y="-232.15" x="56.664 63.6192 69.616809 76.088169 81.33984 87.609607 90.48241 94.554729 100.31041 103.89889 110.138408 116.13601 122.37553 128.61505 131.48786 137.48545 141.7896 145.40831 148.99678">Consulta popular, a</tspan></text>
<text xml:space="preserve" transform="matrix(1 0 -0 1 0 841.92)" font-size="10.08" font-family="Verdana"><tspan y="-232.15" x="154.87 164.698 170.93753 173.81034 179.80792 183.16457 189.17224 192.52889 195.40169 199.70584 204.03015 209.78583 215.0375 219.14008 223.22248 226.09528 230.1676 236.16519">mpla e irrestrita.</tspan></text>
<text xml:space="preserve" transform="matrix(1 0 -0 1 0 841.92)" font-size="10.08" font-family="Verdana"><tspan y="-232.15" x="239.62"> </tspan></text>
<path transform="matrix(1,0,0,-1,0,841.92)" d="M56.664 218.21H153.432V230.474H56.664Z" fill="#ffffff" fill-rule="evenodd"/>
<text xml:space="preserve" transform="matrix(1 0 -0 1 0 841.92)" font-size="10.08" font-family="Verdana"><tspan y="-220.13" x="42.504 48.983564">E)</tspan></text>
<text xml:space="preserve" transform="matrix(1 0 -0 1 0 841.92)" font-size="10.08" font-family="ArialMT"><tspan y="-220.13" x="53.304"> </tspan></text>
<text xml:space="preserve" transform="matrix(1 0 -0 1 0 841.92)" font-size="10.08" font-family="Verdana"><tspan y="-220.13" x="56.664 60.97824 67.4496 73.4472 79.91856 85.92624 89.99856 92.87136 96.94368 102.941287 106.29792 109.17072 118.766887 124.77457 131.00402 133.87682 139.63249 143.70482 149.70243">Inqu&#x00e9;rito imediato.</tspan></text>
<text xml:space="preserve" transform="matrix(1 0 -0 1 0 841.92)" font-size="10.08" font-family="Verdana"><tspan y="-220.13" x="153.43"> </tspan></text>
<text xml:space="preserve" transform="matrix(1 0 -0 1 0 841.92)" font-size="10.08" font-family="Verdana"><tspan y="-207.89" x="42.504"> </tspan></text>
<path transform="matrix(1,0,0,-1,0,841.92)" d="M41.064 204.29H554.374V204.77004H41.064Z" fill-rule="evenodd"/>
<text xml:space="preserve" transform="matrix(1 0 -0 1 0 841.92)" font-size="10.08" font-family="Verdana"><tspan y="-194.21" x="42.504"> </tspan></text>
<text xml:space="preserve" transform="matrix(1 0 -0 1 0 841.92)" font-size="10.08" font-family="Verdana" font-weight="bold"><tspan y="-181.97" x="42.504 51.13248 59.31744 66.01056 73.1976 79.92096 87.60192 96.2304 99.11327 106.30031 113.48734">QUEST&#x00c3;O 35 </tspan></text>
<text xml:space="preserve" transform="matrix(1 0 -0 1 0 841.92)" font-size="10.08" font-family="Verdana" font-weight="bold"><tspan y="-181.97" x="116.45">&#x2013;</tspan></text>
<text xml:space="preserve" transform="matrix(1 0 -0 1 0 841.92)" font-size="10.08" font-family="Verdana" font-weight="bold"><tspan y="-181.97" x="123.65"> </tspan></text>
<text xml:space="preserve" transform="matrix(1 0 -0 1 0 841.92)" font-size="10.08" font-family="Verdana"><tspan y="-181.97" x="126.53 133.96904 140.4404 144.74456 150.52039 156.99175 161.06407 166.81975 169.70262 176.17398 185.77014 188.89495 194.90262 200.86998 206.6559 212.89543 216.96776 222.96537 226.09017 232.08777 238.55913 244.79866 247.43962 250.31243 255.5641 261.59193 264.4748 270.94618 276.94377 281.98377 284.86665 291.10618 295.41035 301.4281 307.41563 310.28843 319.88459 322.7574 328.99693 334.9945 341.23405 347.24174 352.27165 355.39643 361.63597 367.63356 370.75834 376.75596 381.06013 387.0678 393.3174 396.19023 401.9459 405.07069 411.3102 417.3078 420.4326 426.4302 430.73439 436.51023 440.0987 445.85438 448.72718 452.56767 459.03904 463.3432 469.11906 472.24385 480.64048 486.88 493.35139 495.99235 501.24403 504.14707 510.3866 516.1423 519.0151 522.61367 525.4965 531.96786 537.96548 543.7211 546.59396 552.59158">Durante um evento p&#x00fa;blico nas proximidades do pr&#x00e9;dio da Prefeitura Municipal, havia </tspan></text>
<text xml:space="preserve" transform="matrix(1 0 -0 1 0 841.92)" font-size="10.08" font-family="Verdana"><tspan y="-169.97" x="42.504 48.501604 51.3744 57.61392 63.85344 73.681438 79.67904 84.71904 88.79136 95.030879 101.03856 106.068477 111.32015 117.34799 123.3456 128.59728 132.45792 138.46559 144.43296 150.44063 154.5331 159.78478 165.79245 172.05214 178.29167 184.28928 188.36159 194.11727 198.18958 204.18717 208.02765 210.90045 216.65613 219.52893 225.76847 231.76605 238.00559 243.76126 247.83358 253.08525 258.87117 265.34254 271.8139 277.56959 282.82127 285.49247 291.732 297.72959 301.8019 307.0536 313.08143 322.90943 328.6651 332.73744 337.29359 340.6502 343.523 349.5206 355.99198 361.74766 364.3886 367.2614 373.50096 379.97233 385.9699 390.52607 394.12464 397.95503 403.2067 409.23454 415.47407 419.77824 425.796 432.26737 438.5069 444.26258 448.3349 454.57444 460.3301 463.2029 469.2005 473.27284 479.0285 484.28019 488.38276 494.13844 499.3901 502.29316 508.29075 514.7621 520.51779 530.11398 536.12167 542.5829 546.6552 552.4109">algumas pessoas exercendo a atividade conhecida como &#x201c;flanelinha&#x201d;, cobrando pelo estacionamento </tspan></text>
<text xml:space="preserve" transform="matrix(1 0 -0 1 0 841.92)" font-size="10.08" font-family="Verdana"><tspan y="-157.73" x="42.504 48.51168 58.31952 65.294879 71.282398 74.1552 80.1528 87.097919 93.09551 99.56687 105.56447 108.43727 111.310077 116.56175 122.619838 126.188159 133.13327 141.06623">em via p&#x00fa;blica. O </tspan></text>
<text xml:space="preserve" transform="matrix(1 0 -0 1 0 841.92)" font-size="10.08" font-family="Verdana"><tspan y="-157.73" x="148.13 154.12761 160.59897 166.59656 170.90071 177.18056 183.15799 190.1031 199.69927 205.9388 212.41016 215.05112 220.3028 223.20584 229.44538 235.20105 238.07386 245.01897 251.02664 260.83448 267.8098 272.84983 278.8575 282.92985 288.91737 291.79017 297.04185 303.06968 310.0148 316.0124 319.85289 326.32426 332.32185 338.7932 345.73835 350.99003 356.77595 363.2473 366.8358 372.83338 376.91578 386.74378 392.75148 399.6966 405.69419 412.6393 415.51213 421.5198 427.50733 430.38014 435.42015 438.29295 444.29054 449.5422 455.60029 461.56764 468.51277 474.7523 480.74989 485.05406 491.0718 498.01695 504.01454 510.95967 516.21139 518.88259 522.723 529.19436 535.19198 540.44369 546.5018 552.4691">guarda municipal em servi&#x00e7;o atuou conforme a legisla&#x00e7;&#x00e3;o para a situa&#x00e7;&#x00e3;o </tspan></text>
<text xml:space="preserve" transform="matrix(1 0 -0 1 0 841.92)" font-size="10.08" font-family="Verdana"><tspan y="-145.73" x="42.504 47.755685 53.783525 60.254884 63.611524 66.48432 72.72384 79.1952 83.49936 89.51712 95.75664 101.75424 105.352809 110.62464 117.57984 123.335529 129.80689 133.39536 139.39296 143.69712 153.54528 159.55295 164.8147 170.81229 176.08412 181.60797 187.36365 190.23645 195.50829 202.46349 208.46109 218.2891 224.2867 227.1595 233.16718 242.97502 248.76094 255.00048 259.07279 265.07038 269.37455 274.65647">configurada. Conforme a Lei Complementar n</tspan></text>
<text xml:space="preserve" transform="matrix(1 0 -0 1 0 841.92)" font-size="10.08" font-family="MicrosoftSansSerif"><tspan y="-145.73" x="281.4">&#x00ba;</tspan></text>
<text xml:space="preserve" transform="matrix(1 0 -0 1 0 841.92)" font-size="10.08" font-family="Verdana"><tspan y="-145.73" x="284.76"> </tspan></text>
<text xml:space="preserve" transform="matrix(1 0 -0 1 0 841.92)" font-size="10.08" font-family="Verdana"><tspan y="-145.73" x="290.04 296.51139 302.98277 309.2223 313.7986 320.01799 326.48936 332.72889 339.20027 342.79884 348.07069 354.06828 359.34013 365.3377 369.41004 372.051 378.0385 380.91133 387.15086 393.14845 399.14607 405.15376 410.4155 416.65504 422.66273 427.92448 434.164 440.63539 446.39106 450.69523 456.97508 462.9525 469.19206 475.18965 479.4938 484.77574 490.77333 497.01286 501.08518 507.08277 513.5541 519.55166 529.1478 535.1454 540.41726 546.65676 552.6644">874/2020, a atividade de guardador aut&#x00f4;nomo de </tspan></text>
<text xml:space="preserve" transform="matrix(1 0 -0 1 0 841.92)" font-size="10.08" font-family="Verdana"><tspan y="-133.46" x="42.504 48.491525 54.499204 57.361925 62.40192 68.64144 71.514247 77.51185 82.76353 86.38224 92.137928 98.60928 102.6816 108.67921 118.5072 124.262889 128.3352 134.33281 138.63697 144.64464 149.92656">ve&#x00ed;culos automotores </tspan></text>
<text xml:space="preserve" transform="matrix(1 0 -0 1 0 841.92)" font-size="10.08" font-family="Verdana"><tspan y="-133.46" x="153.43">&#x2013;</tspan></text>
<text xml:space="preserve" transform="matrix(1 0 -0 1 0 841.92)" font-size="10.08" font-family="Verdana"><tspan y="-133.46" x="159.91"> </tspan></text>
<text xml:space="preserve" transform="matrix(1 0 -0 1 0 841.92)" font-size="10.08" font-family="Verdana"><tspan y="-133.46" x="163.51 167.83432 171.42279 174.2956 180.05127 186.52263 192.5303 195.16118 197.80214 204.2735 210.74486 216.74245 221.29862 224.89717 228.48564 234.24132 240.71268 244.30115 250.29874 255.33873 260.59043 266.5981 276.44627 282.20195 284.8429 291.31428 297.31187 303.5514 309.54899 314.80067">&#x201c;flanelinha&#x201d;, ou assemelhados </tspan></text>
<text xml:space="preserve" transform="matrix(1 0 -0 1 0 841.92)" font-size="10.08" font-family="Verdana"><tspan y="-133.46" x="318.36">&#x2013;</tspan></text>
<text xml:space="preserve" transform="matrix(1 0 -0 1 0 841.92)" font-size="10.08" font-family="Verdana"><tspan y="-133.46" x="324.84"> </tspan></text>
<text xml:space="preserve" transform="matrix(1 0 -0 1 0 841.92)" font-size="10.08" font-family="Verdana"><tspan y="-133.46" x="328.2 334.6714 340.66899 345.92066 349.30754 355.29505 358.16786 364.16545 369.20545 372.7939 379.2653 385.26289 388.85136 397.01615 403.25569 409.72706 412.59986 417.63987 420.51268 426.51029 429.3831 435.38069 438.96916 445.20869 451.21638 454.79478 460.7924 466.78999 470.87239 474.9447 480.9423 484.53077 491.25413 494.12693 500.1346 506.36405 510.6682">nas vias no Munic&#x00ed;pio de Porto Alegre</tspan></text>
<text xml:space="preserve" transform="matrix(1 0 -0 1 0 841.92)" font-size="10.08" font-family="Verdana"><tspan y="-133.46" x="516.67">/</tspan></text>
<text xml:space="preserve" transform="matrix(1 0 -0 1 0 841.92)" font-size="10.08" font-family="Verdana"><tspan y="-133.46" x="521.23 527.9496">RS</tspan></text>
<text xml:space="preserve" transform="matrix(1 0 -0 1 0 841.92)" font-size="10.08" font-family="Verdana"><tspan y="-133.46" x="534.94"> </tspan></text>
<text xml:space="preserve" transform="matrix(1 0 -0 1 0 841.92)" font-size="10.08" font-family="Verdana"><tspan y="-133.46" x="538.54 544.54">&#x00e9;:</tspan></text>
<text xml:space="preserve" transform="matrix(1 0 -0 1 0 841.92)" font-size="10.08" font-family="Verdana"><tspan y="-133.46" x="548.86"> </tspan></text>
<text xml:space="preserve" transform="matrix(1 0 -0 1 0 841.92)" font-size="10.08" font-family="Verdana"><tspan y="-121.22" x="42.504"> </tspan></text>
<text xml:space="preserve" transform="matrix(1 0 -0 1 0 841.92)" font-size="10.08" font-family="Verdana"><tspan y="-109.22" x="42.504 49.46402">A)</tspan></text>
<text xml:space="preserve" transform="matrix(1 0 -0 1 0 841.92)" font-size="10.08" font-family="ArialMT"><tspan y="-109.22" x="53.784"> </tspan></text>
<text xml:space="preserve" transform="matrix(1 0 -0 1 0 841.92)" font-size="10.08" font-family="Verdana"><tspan y="-109.22" x="56.664 62.661603 66.96576 72.98352 75.85632 82.09584 84.96864 91.20816 97.205768">Proibida.</tspan></text>
<text xml:space="preserve" transform="matrix(1 0 -0 1 0 841.92)" font-size="10.08" font-family="Verdana"><tspan y="-109.22" x="100.61"> </tspan></text>
<text xml:space="preserve" transform="matrix(1 0 -0 1 0 841.92)" font-size="10.08" font-family="Verdana"><tspan y="-96.984" x="42.504 49.46398">B)</tspan></text>
<text xml:space="preserve" transform="matrix(1 0 -0 1 0 841.92)" font-size="10.08" font-family="ArialMT"><tspan y="-96.984" x="53.784"> </tspan></text>
<text xml:space="preserve" transform="matrix(1 0 -0 1 0 841.92)" font-size="10.08" font-family="Verdana"><tspan y="-96.984" x="56.664 62.661603 68.66928 72.97344 82.81152 85.452487 89.5248 92.165767 98.40528 104.402889 107.99136 117.587528 123.59521 129.82465 132.69745 138.45313 144.92449 148.76497 154.77265 158.35105 162.6552 168.66287 174.67057 177.54337 182.58336 186.65569 190.95984 196.9776 200.56607 203.92272 209.93039 216.15984 222.16751 226.47167 232.23743 235.11023">Permitida mediante registro federal.</tspan></text>
<text xml:space="preserve" transform="matrix(1 0 -0 1 0 841.92)" font-size="10.08" font-family="Verdana"><tspan y="-96.984" x="238.9"> </tspan></text>
<text xml:space="preserve" transform="matrix(1 0 -0 1 0 841.92)" font-size="10.08" font-family="Verdana"><tspan y="-84.744" x="42.504 49.464044">C)</tspan></text>
<text xml:space="preserve" transform="matrix(1 0 -0 1 0 841.92)" font-size="10.08" font-family="ArialMT"><tspan y="-84.744" x="54.024"> </tspan></text>
<text xml:space="preserve" transform="matrix(1 0 -0 1 0 841.92)" font-size="10.08" font-family="Verdana"><tspan y="-84.744" x="56.664 63.609125 69.84864 73.92096 79.918567 84.222728 87.105609 92.397609 98.38513 104.62465 110.38033 113.96881 119.966419 126.20593 131.96161 138.43297 144.43056 149.68224 153.30095 159.05663">Autorizada apenas em</tspan></text>
<text xml:space="preserve" transform="matrix(1 0 -0 1 0 841.92)" font-size="10.08" font-family="Verdana"><tspan y="-84.744" x="169.03"> </tspan></text>
<text xml:space="preserve" transform="matrix(1 0 -0 1 0 841.92)" font-size="10.08" font-family="Verdana"><tspan y="-84.744" x="172.63 178.6276 182.70999 188.71767 194.70519 199.95687 203.57558 209.81511 215.81272 219.40119 226.35639 232.11206 238.3516 242.42392 246.72808 252.74584 256.10249 263.77336 266.64616 271.68617 275.75849 281.75608 285.83848 288.71128 293.96296 299.74888">&#x00e1;reas do Centro Hist&#x00f3;rico.</tspan></text>
<text xml:space="preserve" transform="matrix(1 0 -0 1 0 841.92)" font-size="10.08" font-family="Verdana"><tspan y="-84.744" x="303.48"> </tspan></text>
<text xml:space="preserve" transform="matrix(1 0 -0 1 0 841.92)" font-size="10.08" font-family="Verdana"><tspan y="-72.744" x="42.504 50.183984">D)</tspan></text>
<text xml:space="preserve" transform="matrix(1 0 -0 1 0 841.92)" font-size="10.08" font-family="ArialMT"><tspan y="-72.744" x="54.744"> </tspan></text>
<text xml:space="preserve" transform="matrix(1 0 -0 1 0 841.92)" font-size="10.08" font-family="Verdana"><tspan y="-72.744" x="56.664 62.661603 68.66928 72.97344 82.81152 85.452487 89.5248 92.165767 98.40528 104.402889 107.99136 114.46272 120.21841 125.470088 129.0888 132.44545 135.31826 141.78961 147.54529 150.41809 155.45809 159.04656 165.28609 171.29376 174.87216 179.91216 185.91983 195.72768 201.5136 207.98496 213.98255 217.57102 223.32669 226.91516 232.92284 242.519 246.10747 252.347 255.2198 260.9755 266.22718 269.8459 276.08543 282.0931 285.44975 289.0382 295.0459 299.11824 301.7592 307.75679 313.9963 319.9939 323.58238 333.41038 339.6499 346.12129 348.76225 354.01393 356.91697 363.1565 368.91218 371.78498">Permitida nos finais de semana e em dias de feriado municipal.</tspan></text>
<text xml:space="preserve" transform="matrix(1 0 -0 1 0 841.92)" font-size="10.08" font-family="Verdana"><tspan y="-72.744" x="375.5"> </tspan></text>
<text xml:space="preserve" transform="matrix(1 0 -0 1 0 841.92)" font-size="10.08" font-family="Verdana"><tspan y="-60.504" x="42.504 48.983564">E)</tspan></text>
<text xml:space="preserve" transform="matrix(1 0 -0 1 0 841.92)" font-size="10.08" font-family="ArialMT"><tspan y="-60.504" x="53.304"> </tspan></text>
<text xml:space="preserve" transform="matrix(1 0 -0 1 0 841.92)" font-size="10.08" font-family="Verdana"><tspan y="-60.504" x="56.664 64.10304 70.10065 76.09825 79.68673 85.69441 89.27281 95.51233 99.81649 105.83425 108.707057 114.70465 117.57745 123.81697 129.81456 133.41312 137.00159 146.82959 152.58527 157.83695 161.45566 167.69519 173.70287 179.45854 185.46622 189.04462 194.2963 200.08222 204.38637 207.99501 211.35166 217.35933 219.9902 224.06253 230.06012 233.64859 238.90027 244.68619 254.51419 257.87083 264.3422 270.58174 273.45454 277.043 283.0406 287.123 296.71916 302.72685 306.30525 312.54478 318.54237 324.7819 329.08607 335.10383 341.1014">N&#x00e3;o &#x00e9; proibida, mas deve ser feita com uniforme padr&#x00e3;o.</tspan></text>
<text xml:space="preserve" transform="matrix(1 0 -0 1 0 841.92)" font-size="10.08" font-family="Verdana"><tspan y="-60.504" x="345.02"> </tspan></text>
</g>
</svg>
