<svg xmlns="http://www.w3.org/2000/svg" xmlns:xlink="http://www.w3.org/1999/xlink" xmlns:inkscape="http://www.inkscape.org/namespaces/inkscape" version="1.1" width="595.44" height="841.92" viewBox="0 0 595.44 841.92">
<g>
<text xml:space="preserve" transform="matrix(1 0 -0 1 0 841.92)" font-size="7.92" font-family="Verdana"><tspan y="-795.58" x="42.504 47.541124 52.578245 57.615365 62.652486 68.17272 73.68504 79.197368 84.22656 89.26368 95.259128 101.96736 107.00448 113.00784">945_BASE_NM_DM</tspan></text>
<text xml:space="preserve" transform="matrix(1 0 -0 1 0 841.92)" font-size="7.92" font-family="Verdana"><tspan y="-795.58" x="120.05"> </tspan></text>
<text xml:space="preserve" transform="matrix(1 0 -0 1 0 841.92)" font-size="7.92" font-family="Verdana"><tspan y="-795.58" x="460.51 465.55003 470.59004 474.1886 479.2286 484.26863 487.8672 492.9072 498.1848 503.22483 508.26484 511.13475 516.17477 521.2147 524.8133 529.8533 535.1229 538.7215 543.7615">10/01/2025 15:14:17</tspan></text>
<text xml:space="preserve" transform="matrix(1 0 -0 1 0 841.92)" font-size="10.08" font-family="Verdana"><tspan y="-795.58" x="549.1"> </tspan></text>
<path transform="matrix(1,0,0,-1,0,841.92)" d="M41.064 804.48H554.614V804.95999H41.064Z" fill-rule="evenodd"/>
<text xml:space="preserve" transform="matrix(1 0 -0 1 0 841.92)" font-size="9.12" font-family="Verdana"><tspan y="-25.92" x="42.504 48.26784 53.54832 59.0568 63.6168 69.389759 74.16863 79.44911 84.984958 89.052478 92.17152 97.44288 103.215839 108.72431 114.24191 119.75039 123.343669 128.63327">Execu&#x00e7;&#x00e3;o: Fundatec</tspan></text>
<text xml:space="preserve" transform="matrix(1 0 -0 1 0 841.92)" font-size="9.12" font-family="Verdana"><tspan y="-25.92" x="133.25"> </tspan></text>
<path transform="matrix(1,0,0,-1,0,841.92)" d="M41.064 35.76H554.374V36.24004H41.064Z" fill-rule="evenodd"/>
<text xml:space="preserve" transform="matrix(1 0 -0 1 0 841.92)" font-size="9.12" font-family="Verdana"><tspan y="-14.88" x="250.9 257.85856 264.57087 270.80894 277.04704 284.00559 290.24366 293.3627 300.80464 307.51695 314.23838 317.84077 324.31596 327.91835 333.4177 339.65577">GUARDA MUNICIPAL</tspan></text>
<text xml:space="preserve" transform="matrix(1 0 -0 1 0 841.92)" font-size="9.12" font-family="Verdana"><tspan y="-14.88" x="344.54"> </tspan></text>
<text xml:space="preserve" transform="matrix(1 0 -0 1 0 841.92)" font-size="6" font-family="Verdana"><tspan y="-714.91" x="42.504"> </tspan></text>
<text xml:space="preserve" transform="matrix(1 0 -0 1 0 841.92)" font-size="10.08" font-family="Verdana"><tspan y="-691.384" x="42.504 49.46402">A)</tspan></text>
<text xml:space="preserve" transform="matrix(1 0 -0 1 0 841.92)" font-size="10.08" font-family="ArialMT"><tspan y="-691.384" x="53.784"> </tspan></text>
<text xml:space="preserve" transform="matrix(1 0 -0 1 0 841.92)" font-size="10.08" font-family="Verdana"><tspan y="-691.384" x="56.664 63.143983">11</tspan></text>
<text xml:space="preserve" transform="matrix(1 0 -0 1 0 841.92)" font-size="10.08" font-family="Verdana"><tspan y="-691.384" x="69.624"> </tspan></text>
<text xml:space="preserve" transform="matrix(1 0 -0 1 0 841.92)" font-size="10.08" font-family="Verdana"><tspan y="-691.384" x="73.224 78.97968 85.45104 91.44865 96.700328">anos.</tspan></text>
<text xml:space="preserve" transform="matrix(1 0 -0 1 0 841.92)" font-size="10.08" font-family="Verdana"><tspan y="-691.384" x="100.13"> </tspan></text>
<text xml:space="preserve" transform="matrix(1 0 -0 1 0 841.92)" font-size="10.08" font-family="Verdana"><tspan y="-679.384" x="42.504 49.46398">B)</tspan></text>
<text xml:space="preserve" transform="matrix(1 0 -0 1 0 841.92)" font-size="10.08" font-family="ArialMT"><tspan y="-679.384" x="53.784"> </tspan></text>
<text xml:space="preserve" transform="matrix(1 0 -0 1 0 841.92)" font-size="10.08" font-family="Verdana"><tspan y="-679.384" x="56.664 63.13536 69.60672 73.1952 78.95088 85.42224 91.419849 96.671527">12 anos.</tspan></text>
<text xml:space="preserve" transform="matrix(1 0 -0 1 0 841.92)" font-size="10.08" font-family="Verdana"><tspan y="-679.384" x="100.13"> </tspan></text>
<text xml:space="preserve" transform="matrix(1 0 -0 1 0 841.92)" font-size="10.08" font-family="Verdana"><tspan y="-667.144" x="42.504 49.464044">C)</tspan></text>
<text xml:space="preserve" transform="matrix(1 0 -0 1 0 841.92)" font-size="10.08" font-family="ArialMT"><tspan y="-667.144" x="54.024"> </tspan></text>
<text xml:space="preserve" transform="matrix(1 0 -0 1 0 841.92)" font-size="10.08" font-family="Verdana"><tspan y="-667.144" x="56.664 63.13536 69.60672 73.1952 78.95088 85.42224 91.419849 96.671527">14 anos.</tspan></text>
<text xml:space="preserve" transform="matrix(1 0 -0 1 0 841.92)" font-size="10.08" font-family="Verdana"><tspan y="-667.144" x="100.13"> </tspan></text>
<text xml:space="preserve" transform="matrix(1 0 -0 1 0 841.92)" font-size="10.08" font-family="Verdana"><tspan y="-655.144" x="42.504 50.183984">D)</tspan></text>
<text xml:space="preserve" transform="matrix(1 0 -0 1 0 841.92)" font-size="10.08" font-family="ArialMT"><tspan y="-655.144" x="54.744"> </tspan></text>
<text xml:space="preserve" transform="matrix(1 0 -0 1 0 841.92)" font-size="10.08" font-family="Verdana"><tspan y="-655.144" x="56.664 63.13536 69.60672 73.1952 78.95088 85.42224 91.419849 96.671527">16 anos.</tspan></text>
<text xml:space="preserve" transform="matrix(1 0 -0 1 0 841.92)" font-size="10.08" font-family="Verdana"><tspan y="-655.144" x="100.13"> </tspan></text>
<text xml:space="preserve" transform="matrix(1 0 -0 1 0 841.92)" font-size="10.08" font-family="Verdana"><tspan y="-642.904" x="42.504 48.983564">E)</tspan></text>
<text xml:space="preserve" transform="matrix(1 0 -0 1 0 841.92)" font-size="10.08" font-family="ArialMT"><tspan y="-642.904" x="53.304"> </tspan></text>
<text xml:space="preserve" transform="matrix(1 0 -0 1 0 841.92)" font-size="10.08" font-family="Verdana"><tspan y="-642.904" x="56.664 63.13536 69.60672 73.1952 78.95088 85.42224 91.419849 96.671527">18 anos.</tspan></text>
<text xml:space="preserve" transform="matrix(1 0 -0 1 0 841.92)" font-size="10.08" font-family="Verdana"><tspan y="-642.904" x="100.13"> </tspan></text>
<text xml:space="preserve" transform="matrix(1 0 -0 1 0 841.92)" font-size="6" font-family="Verdana"><tspan y="-634.744" x="42.504"> </tspan></text>
<path transform="matrix(1,0,0,-1,0,853.92599)" d="M41.064 644.11H554.374V644.58999H41.064Z" fill-rule="evenodd"/>
<text xml:space="preserve" transform="matrix(1 0 -0 1 0 841.92)" font-size="6" font-family="Verdana"><tspan y="-626.104" x="42.504"> </tspan></text>
<text xml:space="preserve" transform="matrix(1 0 -0 1 0 841.92)" font-size="6" font-family="Verdana" font-weight="bold"><tspan y="-557.924" x="42.504"> </tspan></text>
<text xml:space="preserve" transform="matrix(1 0 -0 1 0 841.92)" font-size="10.08" font-family="Verdana"><tspan y="-546.644" x="42.504 49.46402">A)</tspan></text>
<text xml:space="preserve" transform="matrix(1 0 -0 1 0 841.92)" font-size="10.08" font-family="ArialMT"><tspan y="-546.644" x="53.784"> </tspan></text>
<text xml:space="preserve" transform="matrix(1 0 -0 1 0 841.92)" font-size="10.08" font-family="Verdana"><tspan y="-546.644" x="56.664 63.609125 67.1976 73.43712 79.43472 83.51712 87.58944 90.46224 94.54464 98.13312 104.372638 110.37024 113.95872 119.95632 126.19584 132.19344 137.44512 143.23104 149.47057 153.5429 159.54048 165.78002 171.77762 176.08177 178.96465 184.72032 188.30879 194.54833 198.85248 204.87024 208.45871 211.09967 216.35135 221.42159 224.29439 230.29199 236.76335 242.76094 245.63375 248.99037 252.57884 257.83055 263.85838 273.45454 277.043 283.28254 289.7539 295.50959 298.15055 304.39009 310.86146 316.86915 321.1733 324.54005 327.41285 333.65238 339.64997 345.8895 351.8972">A partir da aposentadoria profissional, com qualquer idade.</tspan></text>
<text xml:space="preserve" transform="matrix(1 0 -0 1 0 841.92)" font-size="10.08" font-family="Verdana"><tspan y="-546.644" x="355.58"> </tspan></text>
<text xml:space="preserve" transform="matrix(1 0 -0 1 0 841.92)" font-size="10.08" font-family="Verdana"><tspan y="-534.374" x="42.504 49.46398">B)</tspan></text>
<text xml:space="preserve" transform="matrix(1 0 -0 1 0 841.92)" font-size="10.08" font-family="ArialMT"><tspan y="-534.374" x="53.784"> </tspan></text>
<text xml:space="preserve" transform="matrix(1 0 -0 1 0 841.92)" font-size="10.08" font-family="Verdana"><tspan y="-534.374" x="56.664 63.6192 69.616809 79.4448 83.03328 89.03088 95.2704 101.268009 106.519687 112.52737 118.78705 122.85937 128.85697 135.0965 141.0941 145.39826 148.28113 154.0368 157.62528 163.6128 169.6104 172.25136 178.49089 184.96225 189.03458 195.03217 199.11457 201.98737 207.98496 211.3416 217.34928 220.92768 230.75568 236.51136 239.38416 244.42415 248.01262 254.25215 260.25984 263.61647 270.08784 276.32737 279.91584 285.91343 292.3848 298.14048 303.39216 307.01087 313.2504 319.2581 322.61473 325.48753 331.72706 337.72465 343.96418 349.97187">Com aposentadoria volunt&#x00e1;ria e mais de 50 anos de idade.</tspan></text>
<text xml:space="preserve" transform="matrix(1 0 -0 1 0 841.92)" font-size="10.08" font-family="Verdana"><tspan y="-534.374" x="353.66"> </tspan></text>
<text xml:space="preserve" transform="matrix(1 0 -0 1 0 841.92)" font-size="10.08" font-family="Verdana"><tspan y="-522.134" x="42.504 49.464044">C)</tspan></text>
<text xml:space="preserve" transform="matrix(1 0 -0 1 0 841.92)" font-size="10.08" font-family="ArialMT"><tspan y="-522.134" x="54.024"> </tspan></text>
<text xml:space="preserve" transform="matrix(1 0 -0 1 0 841.92)" font-size="10.08" font-family="Verdana"><tspan y="-522.134" x="56.664 63.609125 67.1976 73.43712 79.43472 83.51712 87.58944 90.46224 94.54464 98.13312 104.372638 110.37024 115.62192 119.0088 125.480159 131.71968 135.30815 141.30574 147.7771 153.7747 158.8147 162.40317 168.6427 174.65038 178.00702 180.87982 187.11936 193.11695 199.35648 205.36415">A partir dos 60 anos de idade.</tspan></text>
<text xml:space="preserve" transform="matrix(1 0 -0 1 0 841.92)" font-size="10.08" font-family="Verdana"><tspan y="-522.134" x="208.87"> </tspan></text>
<text xml:space="preserve" transform="matrix(1 0 -0 1 0 841.92)" font-size="10.08" font-family="Verdana"><tspan y="-510.134" x="42.504 50.183984">D)</tspan></text>
<text xml:space="preserve" transform="matrix(1 0 -0 1 0 841.92)" font-size="10.08" font-family="ArialMT"><tspan y="-510.134" x="54.744"> </tspan></text>
<text xml:space="preserve" transform="matrix(1 0 -0 1 0 841.92)" font-size="10.08" font-family="Verdana"><tspan y="-510.134" x="56.664 63.624025">A </tspan></text>
<text xml:space="preserve" transform="matrix(1 0 -0 1 0 841.92)" font-size="10.08" font-family="Verdana"><tspan y="-510.134" x="67.224 73.46352 79.46112 83.54352 87.61584 90.48864 94.57104 98.159519 104.39903 110.39664 115.648319 119.035198 125.50655 131.74608 135.33455 141.33214 147.8035 153.8011 158.8411 162.42957 168.6691 174.67678 178.03342 180.90622 187.14575 193.14334 199.38288 205.39055">partir dos 65 anos de idade.</tspan></text>
<text xml:space="preserve" transform="matrix(1 0 -0 1 0 841.92)" font-size="10.08" font-family="Verdana"><tspan y="-510.134" x="208.87"> </tspan></text>
<text xml:space="preserve" transform="matrix(1 0 -0 1 0 841.92)" font-size="10.08" font-family="Verdana"><tspan y="-497.894" x="42.504 48.983564">E)</tspan></text>
<text xml:space="preserve" transform="matrix(1 0 -0 1 0 841.92)" font-size="10.08" font-family="ArialMT"><tspan y="-497.894" x="53.304"> </tspan></text>
<text xml:space="preserve" transform="matrix(1 0 -0 1 0 841.92)" font-size="10.08" font-family="Verdana"><tspan y="-497.894" x="56.664 63.13536 72.963359 76.31999 82.55951 89.03087 94.78655 97.659358 103.89887 110.13839 116.14607 120.45023 123.81695 126.68975 132.92928 138.92687 145.1664 151.17407 154.76255 158.35102 164.34862 170.81998 176.81757 183.0571 189.29663 195.29424 198.8827 204.89038 214.48654 218.07501 223.32669 225.9979 229.83838 236.30974 242.30733 247.559 253.61708 259.5844 263.17289 269.4124 275.1681 278.75657 281.39753 287.8689 293.8564 299.6121 302.4849 305.3577 311.59724 317.60493 322.8969">Em qualquer idade, quando em situa&#x00e7;&#x00e3;o de invalidez.</tspan></text>
<text xml:space="preserve" transform="matrix(1 0 -0 1 0 841.92)" font-size="10.08" font-family="Verdana"><tspan y="-497.894" x="326.52"> </tspan></text>
<text xml:space="preserve" transform="matrix(1 0 -0 1 0 841.92)" font-size="6" font-family="Verdana"><tspan y="-489.734" x="42.504"> </tspan></text>
<path transform="matrix(1,0,0,-1,0,853.92599)" d="M41.064 499.1H554.374V499.58003H41.064Z" fill-rule="evenodd"/>
<text xml:space="preserve" transform="matrix(1 0 -0 1 0 841.92)" font-size="6" font-family="Verdana"><tspan y="-481.094" x="42.504"> </tspan></text>
<text xml:space="preserve" transform="matrix(1 0 -0 1 0 841.92)" font-size="6" font-family="Verdana"><tspan y="-400.914" x="42.504"> </tspan></text>
<text xml:space="preserve" transform="matrix(1 0 -0 1 0 841.92)" font-size="6" font-family="Verdana"><tspan y="-332.734" x="42.504"> </tspan></text>
<path transform="matrix(1,0,0,-1,0,853.92599)" d="M41.064 341.86H554.374V342.33998H41.064Z" fill-rule="evenodd"/>
<text xml:space="preserve" transform="matrix(1 0 -0 1 0 841.92)" font-size="6" font-family="Verdana"><tspan y="-323.854" x="42.504"> </tspan></text>
<text xml:space="preserve" transform="matrix(1 0 -0 1 0 841.92)" font-size="10.08" font-family="Verdana" font-weight="bold"><tspan y="-312.574" x="42.504 51.13248 59.31744 66.01056 73.1976 79.92096 87.60192 96.2304 101.260318 108.44735 115.634387">QUEST&#x00c3;O 49 </tspan></text>
<text xml:space="preserve" transform="matrix(1 0 -0 1 0 841.92)" font-size="10.08" font-family="Verdana" font-weight="bold"><tspan y="-312.574" x="120.77">&#x2013;</tspan></text>
<text xml:space="preserve" transform="matrix(1 0 -0 1 0 841.92)" font-size="10.08" font-family="Verdana"><tspan y="-312.574" x="127.97"> </tspan></text>
<text xml:space="preserve" transform="matrix(1 0 -0 1 0 841.92)" font-size="10.08" font-family="Verdana"><tspan y="-312.574" x="133.25 140.68904 147.1604 151.46456 157.48232 163.72185 167.79418 173.80185 178.82169 184.07337 190.57497 196.57256 201.84439 207.60007 211.6724 214.31336 220.30088 223.17368 229.41321 235.4108 241.4084 247.41608 252.67783 258.91737 264.92506 270.1868 276.42634 280.7305 286.50636 290.57868 296.58638 301.83805 307.8558 313.8534 319.12525 325.12284 331.12043 336.39228 342.6318 348.6294 352.70173 356.78413 359.65693 369.48493 375.2406 381.71199 384.58479 390.58238 395.85423 401.6099 411.4379 416.70976 422.94929 432.77729 438.04914 444.28868 450.28627 454.59043 460.6082 467.07957 473.08726 478.1071 487.9351 494.17463 500.646 503.28697 508.53865 511.44169 517.68118 523.4368 526.30966 531.33956 536.59127 542.6191 552.4471">Durante sua atividade de prote&#x00e7;&#x00e3;o ao patrim&#x00f4;nio em um parque municipal com </tspan></text>
<text xml:space="preserve" transform="matrix(1 0 -0 1 0 841.92)" font-size="10.08" font-family="Verdana"><tspan y="-300.334" x="42.504 48.74352 53.04768 59.065439 65.5368 71.77631 77.532 80.88863 86.88624 91.1904 97.19808 102.963848 106.32048 112.56 118.31568 121.67232 127.428 133.43569 139.66513 145.6728 149.73505 155.49073 160.7424 166.80048 172.76784 176.3664 179.4912 185.96256 195.55872 198.91536 204.91297 211.38433 217.38191 221.68607 227.96591 233.70143 237.05808 246.65424 253.1256 259.3651 262.2379 267.27793 270.15074 276.39027 282.38786 285.0288 288.38545 294.1411 300.6125 305.86418 311.892 318.13154 322.20387 326.50804 332.5258 338.76533 341.8901 348.36149 357.95765 361.31428 366.56596 372.35188 378.5914 382.66374 388.67143 391.3023 395.60649 401.62425 405.2228 408.57945 414.81898 420.57466 423.93128 429.92887 436.1684 440.47257 446.49034 452.246 455.1188 464.9468 470.9444 477.18394 482.9396 492.7676 498.5233 504.99467 509.067 514.82266 517.94747 524.18698 530.6583 533.78317 543.61117 549.12496 552.48159">grande &#x00e1;rea de vegeta&#x00e7;&#x00e3;o, um guarda municipal encontrou um canteiro, de aproximadamente 30 m&#x00b2;, </tspan></text>
<text xml:space="preserve" transform="matrix(1 0 -0 1 0 841.92)" font-size="10.08" font-family="Verdana"><tspan y="-288.304" x="42.504 48.51168 58.31952 61.706399 71.53439 77.542079 80.40479 86.16048 89.748958 95.74656 100.78656 104.37504 110.37264 114.6768 120.68449 126.68209 130.98625 136.76209 142.01377 145.64257 149.23104 154.48271 160.51056 170.10672 173.46337 179.93473 189.76273 195.5184 199.10688 205.3464 208.21921 213.97489 220.21442 224.28675 230.28433 235.53601 241.59409 247.56145 251.14992 257.38945 263.1451 266.73359 276.56159 282.31727 287.35728 293.35487 299.82624 306.2976 312.2952 315.89378 319.2504 326.19554 329.55216 335.7917 341.79939 347.05107 352.34306 358.34065 364.0963">em meio &#x00e0;s &#x00e1;rvores, com uma planta&#x00e7;&#x00e3;o de maconha. A pessoa </tspan></text>
<text xml:space="preserve" transform="matrix(1 0 -0 1 0 841.92)" font-size="10.08" font-family="Verdana"><tspan y="-288.304" x="368.06 372.36418 378.37187 383.65379 389.8933 395.649 402.12037 407.37205 413.4301 419.39747 425.16325 427.8042 431.39268 437.6322 443.6399 446.50263 452.2583 455.84678 461.8444 464.7172 470.71479 476.9543 481.02665 487.02424 492.2759 498.33399 504.30134 507.65797 510.29893 516.77029 520.35879 526.3563 530.4387 540.2667 546.2643 552.7356">respons&#x00e1;vel pela planta&#x00e7;&#x00e3;o informou </tspan></text>
<text xml:space="preserve" transform="matrix(1 0 -0 1 0 841.92)" font-size="10.08" font-family="Verdana"><tspan y="-276.064" x="42.504 48.74352 55.21488 61.22256 65.52672 71.766239 77.77392 84.00336 89.75904 96.2304 102.46992 105.34272 111.340328 115.654567 121.89408 127.891689 132.20594 138.20354 141.07634 147.07393 153.31346 157.38579 163.38338 167.69762 173.93715 179.93474 184.23889 190.25666 194.57089 197.92754 200.5685 207.03986 212.29154 216.62593 226.45394 232.46161 238.44915 241.32195 246.36194 249.23474 255.7061 261.4618 264.3346 269.58628 273.9207 279.92839 283.9906 290.23014 296.7015 302.7092 306.2977 310.61195 316.60954 319.48234 325.238 335.066 339.38026 345.61979 348.26075 353.51243 358.8145 364.8121 368.41069 372.7249 379.1963 384.44798 390.2339 396.2214 402.219 406.53324 412.53083 416.84507 423.0846 425.9574 431.71308 438.18446 442.25679 448.25437 453.50605 459.56413 465.53147 469.8457 475.09739 481.1252 490.95323 496.9508 501.26506 510.8612 516.8689 519.7316 525.4873 529.8015 536.041 542.03866 546.3428 552.36056">que dependia da planta para fins medicinais e que, al&#x00e9;m disso, usava a planta&#x00e7;&#x00e3;o como meio para </tspan></text>
<text xml:space="preserve" transform="matrix(1 0 -0 1 0 841.92)" font-size="10.08" font-family="Verdana"><tspan y="-263.824" x="42.504 48.501604 54.74112 58.81344 64.82112 69.12528 72.72384 76.80624 82.81392 87.843837 94.31519 98.619358 103.901279 109.89888 115.15056 118.53744 122.125919 124.76688 131.23824 136.99391 143.46527 148.71695 154.50287 157.37567 161.67983 167.69759 172.94927 176.56798 182.80751 188.56319 192.86734 198.8851 202.47357 207.51357 213.98493 219.98252 223.33916 228.59084 234.61869 240.85822 245.16237 251.17005 256.9358 259.8086 265.7961 271.5518 278.02317 283.06318 285.70414 291.70173 295.3003 298.88877 305.84397 311.84156 318.31294 323.5646 326.46766 332.46528 338.47297 342.77714 348.7848 355.02433 361.26387 367.26145 370.8499 376.8475 380.43598 386.4336 392.90498 398.90257 405.1421 409.44627 415.46403 419.0525 425.05009 431.2896 435.59379 441.36964 446.6213 452.629 458.88868 462.961 468.9586 475.19813 481.1957 484.78419 490.53987 494.12834 500.12593 503.48255 506.35536 512.36306 518.3506 521.2234 526.4751 529.1463 535.1439 540.3956 546.45376 552.4211">obter recursos financeiros para sua sobreviv&#x00ea;ncia. Considerando o quadro apresentado e a legisla&#x00e7;&#x00e3;o </tspan></text>
<text xml:space="preserve" transform="matrix(1 0 -0 1 0 841.92)" font-size="10.08" font-family="Verdana"><tspan y="-251.824" x="42.504 48.491525 51.364324 57.60384 63.35952 69.83088 73.67136 79.67904 83.26752 86.855998 92.86368 96.220317 101.47199 107.49983 111.80399 116.12831 122.135997 126.198238 131.9539 135.54238 141.53997 145.12844 147.7694 152.07355">vigente, &#x00e9; correto afirm</tspan></text>
<text xml:space="preserve" transform="matrix(1 0 -0 1 0 841.92)" font-size="10.08" font-family="Verdana"><tspan y="-251.824" x="162.07 168.0676 172.15 175.73847 181.978 188.21753 194.2252">ar que:</tspan></text>
<text xml:space="preserve" transform="matrix(1 0 -0 1 0 841.92)" font-size="10.08" font-family="Verdana"><tspan y="-251.824" x="198.55"> </tspan></text>
<text xml:space="preserve" transform="matrix(1 0 -0 1 0 841.92)" font-size="6" font-family="Verdana"><tspan y="-243.664" x="42.504"> </tspan></text>
<text xml:space="preserve" transform="matrix(1 0 -0 1 0 841.92)" font-size="6" font-family="Verdana"><tspan y="-175.724" x="42.504"> </tspan></text>
<path transform="matrix(1,0,0,-1,0,853.92599)" d="M41.064 184.85H554.374V185.33005H41.064Z" fill-rule="evenodd"/>
<text xml:space="preserve" transform="matrix(1 0 -0 1 0 841.92)" font-size="6" font-family="Verdana"><tspan y="-166.844" x="42.504"> </tspan></text>
<text xml:space="preserve" transform="matrix(1 0 -0 1 0 841.92)" font-size="10.08" font-family="Verdana" font-weight="bold"><tspan y="-155.804" x="42.504 51.13248 59.31744 66.01056 73.1976 79.92096 87.60192 96.2304 101.018398 108.20543 115.39246">QUEST&#x00c3;O 50 </tspan></text>
<text xml:space="preserve" transform="matrix(1 0 -0 1 0 841.92)" font-size="10.08" font-family="Verdana" font-weight="bold"><tspan y="-155.804" x="120.29">&#x2013;</tspan></text>
<text xml:space="preserve" transform="matrix(1 0 -0 1 0 841.92)" font-size="10.08" font-family="Verdana" font-weight="bold"><tspan y="-155.804" x="127.49"> </tspan></text>
<text xml:space="preserve" transform="matrix(1 0 -0 1 0 841.92)" font-size="10.08" font-family="Verdana"><tspan y="-155.804" x="132.29 139.2452 145.2428 151.71416 155.30263 161.30023 165.60439 175.45255 181.20822 186.48006 192.23574 197.50757 203.03142 209.0391 211.66997 216.69989">Conforme a Lei n</tspan></text>
<text xml:space="preserve" transform="matrix(1 0 -0 1 0 841.92)" font-size="10.08" font-family="MicrosoftSansSerif"><tspan y="-155.804" x="223.3">&#x00ba;</tspan></text>
<text xml:space="preserve" transform="matrix(1 0 -0 1 0 841.92)" font-size="10.08" font-family="Verdana"><tspan y="-155.804" x="226.66"> </tspan></text>
<text xml:space="preserve" transform="matrix(1 0 -0 1 0 841.92)" font-size="10.08" font-family="Verdana"><tspan y="-155.804" x="231.94 238.17952 244.65088 248.24944 254.7208 260.96034 267.4317 271.756 278.2274 284.46693 290.9383">11.343/2006</tspan></text>
<text xml:space="preserve" transform="matrix(1 0 -0 1 0 841.92)" font-size="10.08" font-family="Verdana"><tspan y="-155.804" x="297.48 300.83668 306.10853 312.34806 318.34565 322.6498 328.42567 333.6975 339.6951 343.53559 349.54328 356.00456 362.24409 367.99977 372.30393 377.58586 383.34153 388.37144 391.9599 394.60087 401.07225 407.06983 409.7108 412.5836 418.82313 424.8207 431.06025 436.81593 442.08778 448.3273 454.08299">, para atender &#x00e0; finalidade de </tspan></text>
<text xml:space="preserve" transform="matrix(1 0 -0 1 0 841.92)" font-size="10.08" font-family="Verdana"><tspan y="-155.804" x="459.53 465.5276 469.61 473.45048 476.32328 481.57496 487.84474 490.71754 496.71513 501.0193 504.3961 509.66795 512.30886 518.54837 522.62069 528.37637 534.61587 538.92 544.93777 549.2419 552.8606">articular, integrar, </tspan></text>
<text xml:space="preserve" transform="matrix(1 0 -0 1 0 841.92)" font-size="10.08" font-family="Verdana"><tspan y="-143.324" x="42.504 48.501604 52.805765 59.0856 65.06304 71.5344 74.4072 79.6992 85.68673 89.76913 94.55712 100.312808 105.1008 110.35248 116.38032 122.37792 126.68208 132.96193 138.69745 145.16881 151.1664 155.2488 160.03679 166.03438 171.07437 175.86237 181.85996 185.70044 188.57324 194.32892 197.20172 203.44126 209.43885 215.67838 221.68605 226.71598 231.50397 235.80812 241.58396 244.45676 250.45435 255.49434 258.36714 264.36473 270.8361 276.83369 282.8313 288.8289">organizar e coordenar as atividades relacionadas</tspan></text>
<text xml:space="preserve" transform="matrix(1 0 -0 1 0 841.92)" font-size="10.08" font-family="Verdana"><tspan y="-143.324" x="294.36"> </tspan></text>
<text xml:space="preserve" transform="matrix(1 0 -0 1 0 841.92)" font-size="10.08" font-family="Verdana"><tspan y="-143.324" x="299.16 304.41169 310.4395 320.03569 324.82368 330.57936 335.36735 341.60688 345.91105 351.6869 357.6744 363.6821 369.91154 375.1632 381.22129 387.18864 391.97663 398.21617 403.97184 408.75984 415.2312 420.48289 426.2688 431.0568 433.69776 440.16914 446.40867 452.16435 458.15187 461.02467 467.2642 473.26179 476.61845 481.40644 487.40403 492.19203 497.9477 502.02003 507.7757 514.247 519.4987 525.28469 531.2822 536.07028 542.07797 546.85586 552.6115">com a preven&#x00e7;&#x00e3;o do uso indevido, a aten&#x00e7;&#x00e3;o e a </tspan></text>
<text xml:space="preserve" transform="matrix(1 0 -0 1 0 841.92)" font-size="10.08" font-family="Verdana"><tspan y="-131.084" x="42.504 46.808164 52.81584 55.46688 61.93824 67.18992 73.1976 77.30016 82.55184 88.609928 94.577289 98.165767 103.41744 109.44528 114.48528 117.358089 123.35569 125.99665 129.58513 135.82466 141.83234 145.18898 151.66034 156.70034 163.17169 169.16928 173.25168 176.12448 182.12209 187.37377 190.99248 196.74816 200.33663 206.57616 212.58383 218.81328 224.56896 231.04032 237.27985 243.03553 249.50688 253.57921 259.33488 264.58656 268.20527 274.4448 280.20048 283.5571 289.79664 294.1008 300.11857 306.3581 312.35569 317.60737 321.23619 324.82466 330.82225 334.4107 338.71488 344.72257 350.73027 355.03443 361.0421 366.32405 371.5757 377.6338 383.35923 386.9477 393.18724 399.1848 402.7733 409.01283 413.317 419.33476 425.33238 431.80375 437.05543 443.1135 449.08085 452.43748 458.90885 464.90644 470.90403 474.4925 480.49009 486.7296 490.80195 496.79954 500.88194 503.75474 509.04673 515.03427 521.27377 527.0294 530.6179 536.6256 540.204 546.4435 552.44107">reinser&#x00e7;&#x00e3;o social de usu&#x00e1;rios e dependentes de drogas, a repress&#x00e3;o da produ&#x00e7;&#x00e3;o n&#x00e3;o autorizada e do </tspan></text>
<text xml:space="preserve" transform="matrix(1 0 -0 1 0 841.92)" font-size="10.08" font-family="Verdana"><tspan y="-119.054" x="42.504 46.57632 50.88048 56.89824 60.25488 63.127679 68.37936 74.407199 77.995677 80.636638 83.50944 86.1504 91.40208 94.07328 98.1456 104.1432 107.73168 113.9712 119.97888 123.55728 129.79682 134.10097 140.11873 146.35826 152.35585 157.60753 161.23633 164.8248 170.8224 174.41088 181.13423 184.00704 189.04703 193.11936 199.12703 208.93488 214.9627 218.55118 225.99022 231.98781 237.0278 239.9006 245.89821 252.36957 258.12525 260.99806 264.58653 270.82606 276.83375 280.41215 286.16783 292.1654 295.0382 297.911 301.7515 304.6243 309.87599 315.6619 320.91358 324.5323 330.5299 337.00129 342.9989 345.8717 348.51268 353.76435 359.82243 365.0741 368.66258 373.91426 379.94209 386.1816 390.48579 396.49348 400.09205 407.77299 412.07716 418.0949 424.33445 430.33204 435.5837 439.20243 443.52674 450.2501 453.1229 458.37458 464.8762 470.63188 476.8714 481.44773 485.02613 489.09846 494.85414 504.68214 510.92167 516.9293 526.7372 530.1241 536.1217 540.19406 546.66537 552.421">tr&#x00e1;fico il&#x00ed;cito de drogas, o Sistema Nacional de Pol&#x00ed;ticas P&#x00fa;blicas sobre Drogas (Sisnad) tamb&#x00e9;m atua </tspan></text>
<text xml:space="preserve" transform="matrix(1 0 -0 1 0 841.92)" font-size="10.08" font-family="Verdana"><tspan y="-106.814" x="42.504 48.51168 58.31952 61.93824 67.935848 72.01824 76.09056">em arti</tspan></text>
<text xml:space="preserve" transform="matrix(1 0 -0 1 0 841.92)" font-size="10.08" font-family="Verdana"><tspan y="-106.814" x="78.744 83.99568 90.26544 93.138248 99.13585 104.38753 110.44561 116.41297 120.00145 125.25313 131.03905 140.86705 144.45552 150.45313 155.7048 159.09168 164.34336 170.35103 176.36879 182.84015 185.48111 191.95247 195.79296 201.80063 207.0523 210.66095 215.70095 218.57375 223.61374 227.68607 233.44174 243.26975 249.26734 254.51902 258.13774 264.37727 270.13294 273.7214 279.96095 285.7166 288.58943 291.23039 295.3027 297.94367 303.19535 309.25343 314.5051 318.09358 324.0912 330.56257 336.56019 339.43299 342.3058 347.55747 353.34339 358.59507">cula&#x00e7;&#x00e3;o com os seguintes sistemas de pol&#x00ed;ticas p&#x00fa;blicas:</tspan></text>
<text xml:space="preserve" transform="matrix(1 0 -0 1 0 841.92)" font-size="10.08" font-family="Verdana"><tspan y="-106.814" x="363.26"> </tspan></text>
<text xml:space="preserve" transform="matrix(1 0 -0 1 0 841.92)" font-size="6" font-family="Verdana"><tspan y="-98.654" x="42.504"> </tspan></text>
<text xml:space="preserve" transform="matrix(1 0 -0 1 0 841.92)" font-size="10.08" font-family="Verdana"><tspan y="-87.378" x="42.504 49.46402">A)</tspan></text>
<text xml:space="preserve" transform="matrix(1 0 -0 1 0 841.92)" font-size="10.08" font-family="ArialMT"><tspan y="-87.378" x="53.784"> </tspan></text>
<text xml:space="preserve" transform="matrix(1 0 -0 1 0 841.92)" font-size="10.08" font-family="Verdana"><tspan y="-87.378" x="56.664 63.609125 66.481929 71.52193 75.594249 81.34993 91.177928 97.17553 100.76401 109.160648 115.40016 121.63968 124.51248 129.55248 132.42528 138.66481 144.6624 147.30336 150.89183 157.13137 163.13904 166.71744 173.67264 179.67024 185.90978 189.9821 194.28626 200.30402 202.94498 208.95265 212.53105 219.25441 221.89537 224.76818 234.59618 240.35186 246.59139 250.66371 256.66133 260.96549 264.57414 270.3298 273.91828 280.64164 283.51445 288.55445 292.62678 298.38246 308.21046 314.20805 317.7965 324.51988 330.7594 334.83174 337.70454 342.74455 347.99623 354.0039 360.02168 366.49305 372.50074 377.53065 381.60298 385.90715 391.9249">Sistema Municipal de Controle Alimentar e Sistema Antissequestro.</tspan></text>
<text xml:space="preserve" transform="matrix(1 0 -0 1 0 841.92)" font-size="10.08" font-family="Verdana"><tspan y="-87.378" x="395.9"> </tspan></text>
<text xml:space="preserve" transform="matrix(1 0 -0 1 0 841.92)" font-size="10.08" font-family="Verdana"><tspan y="-75.138" x="42.504 49.46398">B)</tspan></text>
<text xml:space="preserve" transform="matrix(1 0 -0 1 0 841.92)" font-size="10.08" font-family="ArialMT"><tspan y="-75.138" x="53.784"> </tspan></text>
<text xml:space="preserve" transform="matrix(1 0 -0 1 0 841.92)" font-size="10.08" font-family="Verdana"><tspan y="-75.138" x="56.664 63.609125 66.481929 71.52193 75.594249 81.34993 91.177928 97.17553 100.532169 107.003528 112.2552 118.53504 124.542728 129.56256 132.43537 138.19104 141.06385 144.65232 150.89185 156.88945 160.47792 167.43312 173.4408 179.42833 182.30113 191.8973 197.90497 201.48337 208.42848 214.42609 219.46608 222.33889 228.09456 230.96736 234.55583 240.5635 243.92015 250.86527 253.50623 258.7579 262.62864 268.63633 278.44416 284.472 288.06047 294.05809 299.81376 303.40223 310.34736 316.58689 320.66929 323.54209 328.5821 335.05348 337.69444 341.76676 348.0063 352.31047 358.32823 361.68486 368.15623 374.39576 380.63529 385.88697 391.94505 397.19673 400.06953 405.8252 412.29658 418.29417 421.16697">Sistema Especial do Regime Social e Sistema de Agricultura Educacional.</tspan></text>
<text xml:space="preserve" transform="matrix(1 0 -0 1 0 841.92)" font-size="10.08" font-family="Verdana"><tspan y="-75.138" x="424.97"> </tspan></text>
<text xml:space="preserve" transform="matrix(1 0 -0 1 0 841.92)" font-size="10.08" font-family="Verdana"><tspan y="-63.138" x="42.504 49.464044">C)</tspan></text>
<text xml:space="preserve" transform="matrix(1 0 -0 1 0 841.92)" font-size="10.08" font-family="ArialMT"><tspan y="-63.138" x="54.024"> </tspan></text>
<text xml:space="preserve" transform="matrix(1 0 -0 1 0 841.92)" font-size="10.08" font-family="Verdana"><tspan y="-63.138" x="56.664 63.609125 66.481929 71.52193 75.594249 81.34993 91.177928 97.17553 100.76401 107.96113 114.200649 117.07345 122.32513 128.35297 131.94144 138.18097 143.93665 147.52512 154.47023 160.2259 166.69727 172.9368 178.94448 182.30112 188.30879 191.88719 198.61055 201.48336 206.52335 210.59568 216.35135 226.17935 232.17694 235.76541 242.96253 249.20206 252.07486 257.32655 263.35438 266.94285 273.18238 279.19007 282.5467 289.49183 294.53184 299.57185 302.44465 307.69633 311.56706 317.57475 323.80418 329.05586 331.9589 337.95649">Sistema &#x00da;nico de Sa&#x00fa;de e Sistema &#x00da;nico de Assist&#x00ea;ncia </tspan></text>
<text xml:space="preserve" transform="matrix(1 0 -0 1 0 841.92)" font-size="10.08" font-family="Verdana"><tspan y="-63.138" x="341.66 348.60514 354.60273 359.64274 362.51554 368.51313 371.38594">Social.</tspan></text>
<text xml:space="preserve" transform="matrix(1 0 -0 1 0 841.92)" font-size="10.08" font-family="Verdana"><tspan y="-63.138" x="374.78"> </tspan></text>
<text xml:space="preserve" transform="matrix(1 0 -0 1 0 841.92)" font-size="10.08" font-family="Verdana"><tspan y="-50.898" x="42.504 50.183984">D)</tspan></text>
<text xml:space="preserve" transform="matrix(1 0 -0 1 0 841.92)" font-size="10.08" font-family="ArialMT"><tspan y="-50.898" x="54.744"> </tspan></text>
<text xml:space="preserve" transform="matrix(1 0 -0 1 0 841.92)" font-size="10.08" font-family="Verdana"><tspan y="-50.898" x="56.664 63.609125 66.481929 71.52193 75.594249 81.34993 91.177928 97.17553 100.76401 107.487369 113.49505 118.74673 123.08113 128.8368 132.90914 138.90674 142.49521 149.93425 155.93184 160.97183 163.84464 169.84224 176.3136 182.06928 184.94208 188.53055 194.53823 197.89487 204.61823 207.49103 212.7427 216.61344 222.62111 232.42896 238.45679 242.04526 248.04286 254.05054 257.62895 264.58415 270.58174 276.82127 280.8936 285.19776 291.2155 293.85649 299.61216 303.20063 309.44017 315.44786 319.02626 325.2557 329.55989 335.33573 341.8071 346.8471 349.48808 353.5604 359.55799 363.14646 370.09159 376.08918 381.12919 384.00199 389.99958 392.87239">Sistema Secreto Nacional e Sistema de Controle de Tr&#x00e2;nsito Social.</tspan></text>
<text xml:space="preserve" transform="matrix(1 0 -0 1 0 841.92)" font-size="10.08" font-family="Verdana"><tspan y="-50.898" x="396.62"> </tspan></text>
<text xml:space="preserve" transform="matrix(1 0 -0 1 0 841.92)" font-size="10.08" font-family="Verdana"><tspan y="-38.634" x="42.504 48.983564">E)</tspan></text>
<text xml:space="preserve" transform="matrix(1 0 -0 1 0 841.92)" font-size="10.08" font-family="ArialMT"><tspan y="-38.634" x="53.304"> </tspan></text>
<text xml:space="preserve" transform="matrix(1 0 -0 1 0 841.92)" font-size="10.08" font-family="Verdana"><tspan y="-38.634" x="56.664 63.609125 66.481929 71.52193 75.594249 81.34993 91.177928 97.17553 100.76401 106.761608 111.801609 114.67441 119.92609 125.953929 128.82672 134.82433 140.82193 143.69474 148.94641 154.97426 158.56273 165.51793 171.2736 177.74497 181.58545 185.8896 191.90737 194.78017 198.13681 204.14449 207.72289 214.44625 217.31905 222.35904 226.43137 232.18704 242.01505 248.01264 251.6011 258.32447 261.19728 267.19486 270.06767 276.06526 282.06288 284.93568 290.18736 296.21519 299.5718 305.81135 311.81904 315.39744 322.35264 328.36033 330.9912 337.4626 342.71427 348.50019 352.80436 358.08628 364.08387 370.08146 373.68003">Sistema Psicol&#x00f3;gico Central e Sistema Biol&#x00f3;gico de Reinser&#x00e7;&#x00e3;o. </tspan></text>
<text xml:space="preserve" transform="matrix(1 0 -0 1 0 841.92)" font-size="10.08" font-family="Verdana"><tspan y="-38.634" x="377.42"> </tspan></text>
<text xml:space="preserve" transform="matrix(1 0 -0 1 42.504 423.167)" font-size="10.08" font-family="Verdana" font-weight="bold"><tspan y="-50.8206" x="0 8.62848 16.81344 23.50656 30.6936 37.41696 45.09792 53.7264 57.31488 64.27008 71.457118">QUEST&#x00c3;O 48 </tspan></text>
<text xml:space="preserve" transform="matrix(1 0 -0 1 42.504 423.167)" font-size="10.08" font-family="Verdana" font-weight="bold"><tspan y="-50.8206" x="75.146">&#x2013;</tspan></text>
<text xml:space="preserve" transform="matrix(1 0 -0 1 42.504 423.167)" font-size="10.08" font-family="Verdana" font-weight="bold"><tspan y="-50.8206" x="82.346"> </tspan></text>
<text xml:space="preserve" transform="matrix(1 0 -0 1 42.504 423.167)" font-size="10.08" font-family="Verdana"><tspan y="-50.8206" x="85.946 92.9012 98.8988 108.494968 112.32536 118.56488 124.320568 129.57225 135.35817 139.18857 145.65993 151.4156 155.246 161.48552 166.7372 170.83977 176.59545 180.66777 186.9073 190.97963 196.7353 200.5657 206.80524 212.80283 216.63323 222.63083 228.3865 233.63819 238.94026 244.69594 250.69353 254.52393 258.83818 265.0777 271.0753 276.32698 282.38505 285.71147 289.54185 295.29753 299.396 305.3936 310.64527 315.7155 321.7232 327.95265 334.19218 338.49635 344.5141 350.75364 356.75123 360.5816 366.33729 370.16767 375.92335 379.99568 386.00337 392.2328 397.48448 403.54255 409.5099 413.09837 415.97117 422.2107 426.28303 432.2907 438.27824 442.5824 448.60017 451.24113 455.0715 460.82719 464.65757 469.90925 475.69517 482.16654 488.16416 494.17185 497.99217 504.2317 510.22929">Com base no Estatuto da Pessoa Idosa, &#x00e9; assegurada a aten&#x00e7;&#x00e3;o integral &#x00e0; sa&#x00fa;de da </tspan><tspan y="-38.8006" x="0 6.23952 12.2472 17.49888 22.79088 28.78848 34.786085 38.616487 41.489286 47.7288 53.726404 58.97808 65.03616 68.362567 72.19296 78.43248 84.430088 88.734249 92.34288 95.21568 101.4552 105.52752 111.5352 115.60752 125.43552 131.44319 137.67264 140.54544 146.30112 150.13152 156.37105 162.36865 166.19905 172.92241 175.79521 180.8352 184.90753 190.9152 200.72306 206.50897 210.33937 217.53649 224.00785 226.6488 231.90048 237.92833 241.5168 247.75634 253.764 257.58433 264.52946 270.28514 276.7565 282.99604 289.00373 292.82405 297.14836 304.09349 311.29063 318.23576 322.81208 326.40058 330.23097 336.4705 342.46809 346.77226 352.5481 358.78764 362.85997 365.50093 371.9723 378.21183 384.62614 389.18614 391.8271 398.29847 404.30616 408.12648 413.88215 417.76615 423.76374 429.0154 435.0231 440.08326 445.33494 451.36277 455.19316 461.43269 467.90406 470.545 476.53254 482.54023 486.61256 491.86424 497.9223 500.76487 504.59526 510.35093">pessoa idosa, por interm&#x00e9;dio do Sistema &#x00da;nico de Sa&#x00fa;de (SUS), garantindo-lhe o acesso universal e </tspan><tspan y="-26.780598" x="0 2.8728 9.11232 15.58368 21.33936 24.21216 26.85312 30.92544 36.923044 41.005445 43.878244 49.875844 53.474405 58.504327 64.51201 74.31985 79.36993 84.621608 90.407527 96.87888 100.23553 106.475048 112.9464 117.01872 123.01633 128.04625 134.04384 138.12624 142.19857 144.83953 150.0912 156.36096 159.23377 165.23136 171.47089 177.46849 182.49842 188.50609 193.52593 198.7776 204.80545 211.04499 214.88547 217.75827 223.9978 230.46916 236.46677 241.25476 247.4943 253.49188 258.74357 263.8037 269.8013 275.05299 281.0808 287.0885 292.34019 297.39027 303.39796 308.4178 313.4578 319.46549 323.76966 329.5354 332.4082 337.65989 343.6877 348.9394 352.5682 357.5981 363.83766 369.83525 374.1394 380.15718 385.18708 391.18467 396.21458 402.4541 406.5365 412.5442 418.51155 424.29747 430.76884 436.0205 442.07859 448.04594 451.6445 456.6744 462.91395 467.2181 473.23588 482.83204 488.82963 494.0813 500.13938 506.10673 509.93714">igualit&#x00e1;rio, em conjunto articulado e cont&#x00ed;nuo das a&#x00e7;&#x00f5;es e servi&#x00e7;os, para a preven&#x00e7;&#x00e3;o, promo&#x00e7;&#x00e3;o, </tspan><tspan y="-14.760597" x="0 6.23952 10.54368 16.561442 20.63376 26.641442 31.893122 37.91088 43.90848 53.73648 59.49216 69.32016 73.62432 79.632 84.68208 91.15344 97.39296 103.40064 107.7048 113.470569 118.722248 124.78033 130.74768 140.57569 146.81522 152.8128 162.64081 167.89249 173.6784 180.14977 186.3893 192.39698 195.98545 205.57152 208.44432 214.68386 219.93553 222.60674 229.0781 231.71906 238.19042 244.18802 250.18563 260.0136 266.0112 275.8392 281.8368 285.90913 291.6648 298.13618 303.38786 309.44593 315.41328 325.24128 331.24897 336.50065 342.5184 348.5261 353.556 356.4288 362.4264 365.2992 375.1272 380.88288 386.13456 395.9928 402.23234 408.22993 413.9856 420.45698 425.70866 431.76673 437.0184 446.8464 452.84403 459.3154 465.07109 474.89909 480.89668 484.2533 490.261 494.32325 500.32084 509.917">prote&#x00e7;&#x00e3;o e recupera&#x00e7;&#x00e3;o da sa&#x00fa;de, incluindo a aten&#x00e7;&#x00e3;o especial &#x00e0;s doen&#x00e7;as que afetam </tspan><tspan y="-2.7408972" x="0 6.23952 10.54368 16.551362 20.149922 26.1576 30.461762 36.22752 42.698884 47.73888 50.61168 56.60928 59.25024 69.07824 74.83392 81.30528 85.14576 91.15344 94.02624 100.02384 105.27552 108.18864 114.428157 120.43584 125.46575 130.71744 136.74529 142.74288 147.99456 150.90767 153.78047 160.02 166.01761 171.26929 177.32736 182.57904 186.07599 189.67598 195.9155 205.7435 208.62638 214.8659 221.356 227.11609 229.996 232.896 237.93599 240.80879 244.64928 251.12064 257.11824 262.3699 268.42799 274.39533 277.2782 283.2758 286.17594 289.04875 295.28828 301.28587 306.53755">preferencialmente as pessoas idosas. Em qual situa&#x00e7;&#x00e3;o o idoso</tspan></text>
<text xml:space="preserve" transform="matrix(1 0 -0 1 42.504 423.167)" font-size="10.08" font-family="Verdana"><tspan y="-2.7408972" x="312.6562"> </tspan></text>
<text xml:space="preserve" transform="matrix(1 0 -0 1 42.504 423.167)" font-size="10.08" font-family="Verdana"><tspan y="-2.7408972" x="316.12516 319.00517 328.83317 334.83076 337.70356 343.70115 348.0053 350.89826 356.89588 362.90357 365.77638 372.0159 378.48728 381.37016 387.36775 393.8391 399.8367 405.01927"> maior de 80 anos </tspan></text>
<text xml:space="preserve" transform="matrix(1 0 -0 1 42.504 423.167)" font-size="10.08" font-family="Verdana"><tspan y="-2.7408972" x="408.56736"> </tspan></text>
<text xml:space="preserve" transform="matrix(1 0 -0 1 42.504 423.167)" font-size="10.08" font-family="Verdana"><tspan y="-2.7408972" x="411.4373 418.8763 425.59968 433.53263 436.39533 440.46766 446.47535 450.7795 456.78718 459.67005 465.66767 469.97184 472.8547 478.8523 482.9347 485.57566 491.8152 497.81278 504.0523 510.06">N&#x00c3;O ter&#x00e1; prioridade </tspan><tspan y="9.299303" x=".0002746582 6.2397949 12.247475 15.825875 21.823475 25.895794 31.651473 38.122835 44.12043 46.99323 56.82123 62.576913 69.04827 73.12059 78.876277 82.46475 88.70427 93.00843 99.01611 102.38283 108.39051 112.69467 118.460437 124.93179 130.18347 133.08652 138.8422 141.715 145.07164 150.32332 156.35117 162.5907 166.89485 172.90253 176.50109 182.49868 187.53867 191.12714 197.36667 203.37435 213.18219 218.96811 221.84091 226.8809 230.46938 236.70891 242.46459 247.71627 253.01834 259.01594 265.01353 270.2652 273.65208 276.52488 282.7644 288.762 294.01368 300.07176 305.32344">de atendimento preferencial sobre as demais pessoas idosas?</tspan></text>
<text xml:space="preserve" transform="matrix(1 0 -0 1 42.504 423.167)" font-size="10.08" font-family="Verdana" font-weight="bold"><tspan y="9.299303" x="310.91627"> </tspan></text>
<text xml:space="preserve" transform="matrix(1 0 -0 1 42.048727 135.068)" font-size="10.08" font-family="Verdana" font-weight="bold"><tspan y="-76.9131" x="0 8.62848 16.81344 23.50656 30.6936 37.41696 45.09792 53.745035 56.869836 64.05687 71.26254">QUEST&#x00c3;O 46 </tspan></text>
<text xml:space="preserve" transform="matrix(1 0 -0 1 42.048727 135.068)" font-size="10.08" font-family="Verdana" font-weight="bold"><tspan y="-76.9131" x="74.4633">&#x2013;</tspan></text>
<text xml:space="preserve" transform="matrix(1 0 -0 1 42.048727 135.068)" font-size="10.08" font-family="Verdana" font-weight="bold"><tspan y="-76.9131" x="81.68193"> </tspan></text>
<text xml:space="preserve" transform="matrix(1 0 -0 1 42.048727 135.068)" font-size="10.08" font-family="Verdana"><tspan y="-76.9131" x="84.80193 91.04145 100.888088 104.01288 110.48424 120.31223 126.08655 129.44319 135.45087 140.70255 145.99454 151.75022 154.62302 160.7178 164.0778 170.31734 176.09165 179.44829 185.44589 191.4435 195.74765 199.83007 205.8463 208.9711 215.91622 218.78902 224.79669 230.78423 235.08838 241.2051 244.58037 247.93701 254.40837 264.2364 270.0107 273.36735 277.20783 283.6792 287.7616 297.5896 303.68104 307.04103 312.2927 318.32054 328.14854 334.38807 340.38566 345.42567 349.498 355.51423 358.87086 365.11039 371.10798 375.209 378.56565 384.56324 390.80278 396.80036 399.67317 405.68086 410.71076 415.96244 421.74836 428.21974 432.29206 438.04774 443.31806 446.70494 451.9566 457.98445 467.5992 470.95585 477.19538 483.68537">Em uma escola de Porto Alegre, uma turma composta por adolescentes com 12 </tspan></text>
<text xml:space="preserve" transform="matrix(1 0 -0 1 42.048727 135.068)" font-size="10.08" font-family="Verdana"><tspan y="-76.9131" x="487.23396"> </tspan></text>
<text xml:space="preserve" transform="matrix(1 0 -0 1 42.048727 135.068)" font-size="10.08" font-family="Verdana"><tspan y="-76.9131" x="490.34867 496.34626 502.81764 508.81523 514.0669">anos </tspan><tspan y="-64.6529" x=".0006713867 6.2401916 13.76215 17.125632 19.998433 26.237954 32.235555 38.23315 45.67447 49.03795 53.34211 59.11795 64.36963 70.39747 73.27027 79.25779 85.01347 92.76727 96.13075 102.12836 106.43252 112.71236 118.6898 124.92931 127.80212 133.09412 139.08164 144.6783 148.04178 154.28131 164.10932 171.62119 174.98467 180.74034 186.72786 191.76786 198.23921 202.54337 207.82529 213.82288 221.33475 224.69823 230.93776 236.69344 240.99759 248.52962 251.66126 259.17314 262.5366 269.48173 275.4894 279.56175 283.8659 291.39796 294.52958 302.44239 308.43998 314.6795 319.93119 326.4328 332.4304 337.30134">de idade resolveu organizar uma excurs&#x00e3;o para a Serra Ga&#x00fa;cha. </tspan></text>
<text xml:space="preserve" transform="matrix(1 0 -0 1 42.048727 135.068)" font-size="10.08" font-family="Verdana"><tspan y="-64.6529" x="340.85667 347.22724 349.98918 355.98677 362.74266 366.28758">Eles j</tspan></text>
<text xml:space="preserve" transform="matrix(1 0 -0 1 42.048727 135.068)" font-size="10.08" font-family="Verdana"><tspan y="-64.6529" x="369.75508 375.96437 382.2039 386.2762 392.2738 396.57798 402.59574 413.70619 417.06965 424.5815 427.94499 433.9325 439.68818 442.56098 448.55857 454.377">untaram o valor </tspan></text>
<text xml:space="preserve" transform="matrix(1 0 -0 1 42.048727 135.068)" font-size="10.08" font-family="Verdana"><tspan y="-64.6529" x="457.92518"> </tspan></text>
<text xml:space="preserve" transform="matrix(1 0 -0 1 42.048727 135.068)" font-size="10.08" font-family="Verdana"><tspan y="-64.6529" x="461.05683 467.5282 473.5359 478.5658 484.5735 489.82518 495.11717 501.11476 505.19715 508.06996 514.0675">necess&#x00e1;rio </tspan><tspan y="-52.3927" x=".0008239746 6.240344 12.237944 16.320343 22.313292 25.669932 31.667532 36.70288 40.25104 46.49056 52.498239 57.749917 64.029758 70.03744 75.289119 81.28672 86.32207 90.152469 95.903499 99.733898 104.98557 111.01341 117.25293 121.32525 125.62941 131.40525 135.47757 141.47516 145.77931 151.79708 161.38858 164.97705 171.44841 181.03992 184.87032 190.86792 197.10746 199.98026 206.21979 212.45932 217.70635 221.56699 227.80652 233.80411 237.8865 241.72699 244.5998 249.63979 256.11116 258.98396 264.98155 269.0593 272.88969 279.1292 284.8849 289.18907 295.20216 299.03254 301.6735 307.68119 313.64854 319.91444 324.23445 327.10725 333.10484 338.3565 341.98066 345.81105 353.48735 357.31773 367.14573 372.9014 376.97373 382.9713 387.27549 390.15837 395.19837 399.2707 405.26829 408.86219 412.45066 418.45835 424.68778 428.7601 434.7577 440.75529 444.34919 448.17958 453.43125 459.45909 462.10005 464.97285 470.01286 472.6538 476.72615 482.72373 489.40574 493.72575 496.59855 503.06993 508.8256">para as despesas e contrataram um &#x00f4;nibus particular para lev&#x00e1;-los. O motorista, ent&#x00e3;o, solicitou-lhes</tspan><tspan y="-40.152704" x=".0008239746 5.756504 8.397465 14.636985 21.108344 27.347863 33.042329 36.59049 42.830007 48.827608 54.079286 60.580884 70.40888 76.164569 82.40408 86.4764 92.47401 98.16847 102.029109 108.26862 114.02431 119.275989 124.578067 130.57567 136.65926 139.30022 144.5519 148.62348 152.45388 158.20955 164.68091 168.5214 172.82555 179.276 182.87456 188.88224 191.74495 197.50063 203.19509 207.05573 213.25418 217.08458 223.08217 229.3217 233.39403 239.39163 243.69579 246.34683 251.63884 257.62638 262.87806 268.93614 275.34629 278.93476 285.1743 291.17189 296.86634 300.72697 306.9665 312.96409 315.60505 321.2995 325.16014 331.39967 337.39726 341.70143 347.92005 351.75044 357.5061 360.3789 366.3765 369.73316 375.73075 380.0349 386.0426 396.0916 399.922 406.16154 412.16923 417.4209 423.19676 428.44844 434.47627 444.30427 450.5438 456.29948 462.77085 469.24223 475.2398 481.47935 487.47694 492.7286 496.5583 500.38868 508.0696">alguns documentos pessoais, entre eles a autoriza&#x00e7;&#x00e3;o dos pais para viajarem desacompanhados. De</tspan><tspan y="-27.912703" x=".0008239746 5.756504 11.008184 17.036026 21.340188 27.620028 34.086423 37.634584 42.88626 48.9141 59.231058 66.90706 73.393619 81.06961 83.94241 89.6981 95.937618 98.81042 103.85042 106.72322 112.720829 117.9725 124.03059 130.4869 138.16289 144.40242 150.1581 154.46225 158.32289 161.1957 167.43523 173.4429 179.67235 183.74468 189.75235 193.82978 201.50577 207.7453 213.74289 218.04705 224.55376">acordo com a legisla&#x00e7;&#x00e3;o pertinente, para </tspan></text>
<text xml:space="preserve" transform="matrix(1 0 -0 1 42.048727 135.068)" font-size="10.08" font-family="Verdana"><tspan y="-27.912703" x="228.10182"> </tspan></text>
<text xml:space="preserve" transform="matrix(1 0 -0 1 42.048727 135.068)" font-size="10.08" font-family="Verdana"><tspan y="-27.912703" x="235.52582 241.99718 252.0823 259.63047 265.62806 271.86759 277.86518 280.73799 286.74568 291.77558 297.02726 303.03495 309.29463 313.36695 319.8636 327.41175 333.65129 339.64888 345.8884 351.8961 356.6892 364.13337 370.12089 372.99369 378.99128 382.34794 388.34553 393.13865 400.6868 406.92634 412.682 417.9337 423.99177 429.24345 435.24104 445.06904 451.30857 457.06425 463.30378 469.77516 475.77275 482.01228 488.4988 496.04698 502.2865 508.2841 513.53579">um adolescente poder viajar desacompanhado dos </tspan><tspan y="-15.652503" x=".0008239746 6.240344 12.237944 14.878904 21.694769 30.849194 36.846796 45.094018 48.642179 52.94634 58.954019 64.23594 70.47546 76.47306 82.94442 88.1961 93.98202 99.969539 105.97722 108.6081 115.63564 119.25436 125.49387 131.49147 135.79563 143.34732 146.93579 150.52426 156.52187 160.82602 168.61965 172.20812 178.44765 185.97919 189.56766 194.60765 197.48046 203.71999 209.71758 215.9571 223.74065 227.31905 233.07472 239.54608 245.78562 253.56916 256.92579 266.75379 272.75138 277.05555 284.84916 288.43763 293.6893 299.47523 311.07908 314.66755 320.67524 326.64259 332.6704 336.97459 342.98228 348.2642 353.51588 361.07765 364.6661 370.6637 376.90324 380.97557 386.97315 391.2773 393.92835 399.22035 405.20787 410.45954 416.5176 424.26084 427.8493 431.20597 437.67735 443.67497 446.54777 451.58778 454.46058 460.45817 463.33097 468.70539 472.29386 479.82539">pais ou respons&#x00e1;veis para fora da cidade onde mora sem expressa autoriza&#x00e7;&#x00e3;o judicial, a </tspan></text>
<text xml:space="preserve" transform="matrix(1 0 -0 1 42.048727 135.068)" font-size="10.08" font-family="Verdana"><tspan y="-15.652503" x="483.3738"> </tspan></text>
<text xml:space="preserve" transform="matrix(1 0 -0 1 42.048727 135.068)" font-size="10.08" font-family="Verdana"><tspan y="-15.652503" x="486.9522 489.825 496.06455 502.06214 508.05976 514.06747">idade </tspan><tspan y="-3.3923035" x=".0012207031 9.597381 12.732182 19.20354 21.844502 31.672503 37.428186 41.016668 47.024347 51.600667">m&#x00ed;nima &#x00e9;: </tspan></text>
<text xml:space="preserve" transform="matrix(1 0 -0 1 42.504 278.38899)" font-size="10.08" font-family="Verdana" font-weight="bold"><tspan y="-51.4003" x="0 8.62848 16.81344 23.50656 30.6936 37.41696 45.09792 53.7264 57.08304 64.27007 71.45711">QUEST&#x00c3;O 47 </tspan></text>
<text xml:space="preserve" transform="matrix(1 0 -0 1 42.504 278.38899)" font-size="10.08" font-family="Verdana" font-weight="bold"><tspan y="-51.4003" x="74.906">&#x2013;</tspan></text>
<text xml:space="preserve" transform="matrix(1 0 -0 1 42.504 278.38899)" font-size="10.08" font-family="Verdana" font-weight="bold"><tspan y="-51.4003" x="82.105998"> </tspan></text>
<text xml:space="preserve" transform="matrix(1 0 -0 1 42.504 278.38899)" font-size="10.08" font-family="Verdana"><tspan y="-51.4003" x="85.465999 93.39896 96.977359 103.448719 108.70039 112.802959 118.55864 122.63096 128.87049 132.94281 138.94042 142.52889 148.76842 154.766 158.35448 164.35208 170.35976 175.61144 180.90343 186.90103 192.89862 196.48709 200.80133 207.04087 213.03847 218.29015 224.47599 228.076 231.67598 237.19983 242.9555 245.82831 249.41678">O Estatuto da Pessoa Idosa, Lei n</tspan></text>
<text xml:space="preserve" transform="matrix(1 0 -0 1 42.504 278.38899)" font-size="10.08" font-family="MicrosoftSansSerif"><tspan y="-51.4003" x="255.93598">&#x00ba;</tspan></text>
<text xml:space="preserve" transform="matrix(1 0 -0 1 42.504 278.38899)" font-size="10.08" font-family="Verdana"><tspan y="-51.4003" x="259.53599 263.136 269.37553 275.8469 279.44548 285.685 292.15638 298.62776 302.95207 309.42344 315.66297 322.13435 328.67613 332.2747 335.86317 342.1027 347.85838 351.44685 354.0878 360.55918 366.56687 370.14527 376.14289 382.61427 388.62196 392.20036 398.30619 401.9062 407.91389 414.37516 420.13084 426.13853 428.7694 435.24079 441.24848 446.27839 449.15119 458.9792 464.73487 470.9744 475.04673 481.0443 484.63279 490.64048 494.21888 500.69026 510.2864"> 10.741/2003, define que o envelhecimento &#x00e9; um </tspan><tspan y="-39.1603" x="-.000030517579 6.2394897 9.112289 13.41645 19.19229 22.06509 26.13741 32.13501 36.92301 43.16253 48.91821 53.22237 58.50429 64.50189 70.97325 76.728939 79.60174 82.2427 87.49438 92.56461 95.437419 105.26541 111.263019 116.05101 121.806697 126.59469 132.59229 137.38028 142.42028 148.89163 154.88922 159.67722 165.91675 170.2209 175.99674 180.06906 186.07674 191.32842 197.34618 203.34378 208.13178 213.88745 218.67545 224.91498 234.74298 239.28907 245.5286 248.4014 252.70555 258.48139 261.3542 265.4265 271.4241 275.97019 281.22187 287.2497 292.50138 295.40443 301.1601 304.0329 307.63148 312.41947 317.67115 323.45707 329.92845 336.16798 342.16557 346.95356 352.95115 359.19068 363.27308 366.14588 372.3854 378.383 383.63468 389.69276 395.6601 400.4481 406.68763 412.6852 417.2313 423.70268 428.74269 432.815 438.8126 445.05213">direito personal&#x00ed;ssimo e a sua prote&#x00e7;&#x00e3;o &#x00e9; um direito social, sendo obriga&#x00e7;&#x00e3;o do Estado</tspan></text>
<text xml:space="preserve" transform="matrix(1 0 -0 1 42.504 278.38899)" font-size="10.08" font-family="Verdana"><tspan y="-39.1603" x="451.17097"> </tspan></text>
<text xml:space="preserve" transform="matrix(1 0 -0 1 42.504 278.38899)" font-size="10.08" font-family="Verdana"><tspan y="-39.1603" x="454.6385 459.42649 465.66603 471.6636 475.96778 481.74363 488.215 492.05549 494.92829 499.23246 504.04063 509.7963"> garantir &#x00e0; </tspan><tspan y="-26.9001" x=".00048828127 6.2400085 12.247688 17.499369 22.791369 28.788969 34.78657 40.30033 43.17313 49.412649 55.410249 60.661928 66.447849 72.19344 78.19105 83.936649 89.93424 94.2384 100.256168 104.32848 110.33617 115.587848 121.605609 127.36129 133.10689 138.86257 144.60816 150.36383 153.23664 159.47617 165.47376 170.98752 176.9952 182.74079 188.49646 194.24205 199.49373 205.27965 211.751 217.99054 223.99822 227.35485 233.10044 242.6966 248.70427 254.93372 257.80653 263.8041 270.04365 274.11598 279.87165 285.61726 291.62495 294.98158 300.98927 304.81968 307.69248 313.68 319.67759 324.92927 330.98735 336.71278 342.45838 348.6979 354.45359 360.1992 366.43873 372.4363 375.07728 377.95008 381.79057 384.66337 389.91505 395.70097 400.95265 406.48655 411.73823 417.76606 423.01774 425.92079 431.67646 434.54927 439.58927 445.33488 451.3325 457.80387 464.0434 466.68437 469.55717 474.80885 480.8669 485.87669 491.62229 497.86183 504.10136 509.85704">pessoa idosa a prote&#x00e7;&#x00e3;o &#x00e0; vida e &#x00e0; sa&#x00fa;de, mediante efetiva&#x00e7;&#x00e3;o de pol&#x00ed;ticas sociais p&#x00fa;blicas que </tspan><tspan y="-14.660101" x=".00048828127 6.2400085 12.247688 16.55185 26.389929 29.03089 33.10321 38.85889 48.686895 53.001134 59.472497 69.06866 73.61473 79.370418 85.841777 91.59746 97.60514 100.23602 106.70738 112.715068 117.74498 120.61778 130.21395 136.22162 142.45107 146.52339 152.521 156.83524 162.08692 168.14499 174.58612 180.82566 186.58133 192.56885 198.57653 201.2074 205.75348 211.50916 216.05524 221.81092 231.67652 236.25652 241.29651 247.29412 253.76548 260.005 262.8778 268.1295 274.15733 280.165 285.19493 289.741 295.73863 301.7463 306.2924 312.29 315.1628 321.16044 327.6318 330.5046 336.74415 342.74174 348.98127 354.98896">permitam um envelhecimento saud&#x00e1;vel e em condi&#x00e7;&#x00f5;es de dignidade.</tspan></text>
<text xml:space="preserve" transform="matrix(1 0 -0 1 42.504 278.38899)" font-size="10.08" font-family="Verdana" font-weight="bold"><tspan y="-14.660101" x="358.70649"> </tspan></text>
<text xml:space="preserve" transform="matrix(1 0 -0 1 42.504 278.38899)" font-size="10.08" font-family="Verdana"><tspan y="-14.660101" x="362.78648 370.71943 377.1807 382.93638 389.40776 395.64729 401.40296 405.94905 412.18858 422.01658 427.77226 432.31834 438.55787 444.56556 449.81724 455.10923 461.1068 466.8625 471.40858 477.6481 483.40379 488.65547 493.95756 499.95515 504.50123 510.2569">Quando uma pessoa passa a </tspan><tspan y="-2.4201012" x=".00045776368 5.252138 11.259818 15.594218 19.182698 24.434378 30.220299 36.691659 41.731657 44.604455 50.84397 56.85165 61.15581 67.16349 73.40301 79.40061 82.75725 85.63005 91.86957 97.86717 103.11885 109.17693 112.72509 118.74285 124.750537 128.32894 134.32653 139.5782 145.60605 149.9102 156.19005 162.1675 165.52414 170.77582 176.80367 186.63167 190.22014 196.21773 199.57437 202.44718 208.45485 214.44239 217.31519 222.35518 225.22798 231.22557 236.47725 242.26317 248.26078 254.01647">ser considerada idosa de acordo com a legisla&#x00e7;&#x00e3;o? </tspan></text>
<text xml:space="preserve" transform="matrix(1 0 -0 1 42.799596 503.50099)" font-size="10.08" font-family="Verdana"><tspan y="-50.6499" x="0 6.96002">A)</tspan></text>
<text xml:space="preserve" transform="matrix(1 0 -0 1 42.799596 503.50099)" font-size="10.08" font-family="ArialMT"><tspan y="-50.6499" x="11.28"> </tspan></text>
<text xml:space="preserve" transform="matrix(1 0 -0 1 42.799596 503.50099)" font-size="10.08" font-family="Verdana"><tspan y="-50.6499" x="14.16 20.63136 30.45936 33.815999 40.28736 46.28496 51.536645 57.564485 60.437284 64.509609 70.26529 73.13809 78.17809 81.76657 88.00609 94.00369 98.30785 102.168498 105.0413 110.0813 116.55266 119.42546 125.181148 129.4853 135.49298 140.7749 144.28601">Em hospitais particulares. </tspan><tspan y="-38.629899" x="0 6.9599807">B)</tspan></text>
<text xml:space="preserve" transform="matrix(1 0 -0 1 42.799596 503.50099)" font-size="10.08" font-family="ArialMT"><tspan y="-38.629899" x="11.28"> </tspan></text>
<text xml:space="preserve" transform="matrix(1 0 -0 1 42.799596 503.50099)" font-size="10.08" font-family="Verdana"><tspan y="-38.629899" x="14.16 21.599041 27.596642 31.185122 36.436803 42.49488 47.74656 53.74416 57.33264 63.57216 69.57984 73.15824 76.74672 82.5024 85.143367 89.21568 95.21329 98.801769 105.04128 110.79697 114.385448 124.21344 130.22112 136.20865 139.08145 144.33313 150.11905 159.94705 165.95473 172.18418 176.2565 182.2541 187.50579 191.11602">No caso de falta de medicamentos. </tspan><tspan y="-26.610199" x="0 6.96004">C)</tspan></text>
<text xml:space="preserve" transform="matrix(1 0 -0 1 42.799596 503.50099)" font-size="10.08" font-family="ArialMT"><tspan y="-26.610199" x="11.52"> </tspan></text>
<text xml:space="preserve" transform="matrix(1 0 -0 1 42.799596 503.50099)" font-size="10.08" font-family="Verdana"><tspan y="-26.610199" x="14.160001 22.09296 28.554242 34.55184 40.79136 47.030878 53.028478">Quando </tspan></text>
<text xml:space="preserve" transform="matrix(1 0 -0 1 42.799596 503.50099)" font-size="10.08" font-family="Verdana"><tspan y="-26.610199" x="56.5766 62.94716 68.99516 75.103649 78.64172 85.01228 91.120769 97.491329 103.44861 109.446208">n&#x00e3;o houver</tspan></text>
<text xml:space="preserve" transform="matrix(1 0 -0 1 42.799596 503.50099)" font-size="10.08" font-family="Verdana"><tspan y="-26.610199" x="113.51849 117.10697 121.41113 127.418819 133.66841 137.97257 143.7484 147.33687 153.80823 159.80583 165.05751 171.08536 173.95816 178.03049 183.78617 186.65897 192.65656 196.73896 200.32743 206.56696 212.57463 215.93128 218.80408 225.04361 227.91641 234.15595 240.15354 243.71817"> regra hospitalar definida. </tspan><tspan y="-14.569999" x="-.00050354006 7.6794769">D)</tspan></text>
<text xml:space="preserve" transform="matrix(1 0 -0 1 42.799596 503.50099)" font-size="10.08" font-family="ArialMT"><tspan y="-14.569999" x="12.239496"> </tspan></text>
<text xml:space="preserve" transform="matrix(1 0 -0 1 42.799596 503.50099)" font-size="10.08" font-family="Verdana"><tspan y="-14.569999" x="14.159496 21.598538 27.596138 32.847818 36.466539 41.718217 44.389417 48.229898 54.701257 60.698858 65.95054 71.97838 77.98606 83.23774 86.846378 92.84397 98.851657 102.43005 107.68173 113.46765 119.93901 125.19069 130.97661 135.28076 138.65756 142.72989 148.73757 153.04172 162.64797 165.28893 171.76029 177.75788 180.63068 184.15547">Nas situa&#x00e7;&#x00f5;es de c&#x00e2;ncer terminal. </tspan><tspan y="-2.5499984" x="-.00050354006 6.479057">E)</tspan></text>
<text xml:space="preserve" transform="matrix(1 0 -0 1 42.799596 503.50099)" font-size="10.08" font-family="ArialMT"><tspan y="-2.5499984" x="10.799497"> </tspan></text>
<text xml:space="preserve" transform="matrix(1 0 -0 1 42.799596 503.50099)" font-size="10.08" font-family="Verdana"><tspan y="-2.5499984" x="14.159496 20.630856 30.458857 33.815496 39.067178 45.125257 50.376939 56.37454 61.62622 65.244937 71.24253 77.25021 80.90549 86.66117 96.48917 102.49685 106.80101 113.050609 118.80629 125.27765 130.31764 133.19045 139.18804 142.60547">Em casos de emerg&#x00ea;ncia. </tspan></text>
<text xml:space="preserve" transform="matrix(1 0 -0 1 42.799596 661.07998)" font-size="10.08" font-family="Verdana"><tspan y="-51.4003" x="0 6.96002">A)</tspan></text>
<text xml:space="preserve" transform="matrix(1 0 -0 1 42.799596 661.07998)" font-size="10.08" font-family="ArialMT"><tspan y="-51.4003" x="11.28"> </tspan></text>
<text xml:space="preserve" transform="matrix(1 0 -0 1 42.799596 661.07998)" font-size="10.08" font-family="Verdana"><tspan y="-51.4003" x="14.16 22.09296 28.554242 34.55184 37.42464 43.422239 49.8936 55.90128 59.973604 63.562086 69.801609 72.67441 78.43009 84.66961 88.74193 91.61473 97.612339 101.20081 106.9565 110.544979 116.78449 122.792179 126.864498 136.69249 139.33345 143.40578 146.04674 152.28627 158.28388 161.87235 167.88002 177.47618 181.06465 183.93746 189.93506 195.18674 200.97266 203.84546 207.43393 213.43154 219.9029 226.14243 228.78339 231.65619 236.90787 242.93572 246.57604">Qualquer plantio &#x00e9; permitido em local p&#x00fa;blico. </tspan><tspan y="-39.1603" x="0 6.9599807">B)</tspan></text>
<text xml:space="preserve" transform="matrix(1 0 -0 1 42.799596 661.07998)" font-size="10.08" font-family="ArialMT"><tspan y="-39.1603" x="11.28"> </tspan></text>
<text xml:space="preserve" transform="matrix(1 0 -0 1 42.799596 661.07998)" font-size="10.08" font-family="Verdana"><tspan y="-39.1603" x="14.16 21.12002 24.720002 30.959523 33.83232 39.588 45.827524 49.89984 55.89744 61.149126 67.20721 73.17457 76.76305 82.51873 86.10721 92.346729 98.35441 102.65857 112.26481 114.90577 118.97809 121.85089 128.09043 134.08802 137.68657 141.04322 150.87122 156.87889 161.90882 171.73682 177.73442 181.32289 187.07857 196.90657 200.26322 203.13602 209.13362 214.3853 220.44338 223.28594 226.8744 232.87201 239.34337 245.34098 248.21378 250.85474 255.89473 261.8923 265.49089 269.07936 275.31889 281.31648 284.18928 289.44096 293.05967 299.05726 302.64573 306.9499 312.72575 317.97743 324.25727 330.24479 336.71617 341.96784 347.75376 353.74128 359.74897 362.37986 365.96833 371.976 375.5544 381.55204 387.55973 393.78916 399.79685 406.25813 412.25575 418.26344 424.49287 428.5652 434.57289 438.15129 444.3908 450.14649 453.73497 459.9745 462.8473 468.60298 474.8425 478.91484 484.9124 489.0761">A planta&#x00e7;&#x00e3;o &#x00e9; permitida, mesmo em local p&#x00fa;blico, pois o respons&#x00e1;vel &#x00e9; dependente da planta. </tspan><tspan y="-26.920302" x=".0000019073487 6.960042">C)</tspan></text>
<text xml:space="preserve" transform="matrix(1 0 -0 1 42.799596 661.07998)" font-size="10.08" font-family="ArialMT"><tspan y="-26.920302" x="11.520002"> </tspan></text>
<text xml:space="preserve" transform="matrix(1 0 -0 1 42.799596 661.07998)" font-size="10.08" font-family="Verdana"><tspan y="-26.920302" x="14.160003 21.105122 24.693602 30.933123 33.80592 39.5616 45.801118 49.873437 55.871038 61.12272 67.1808 73.14816 76.73664 82.492328 86.0808 92.32032 98.328 102.632167 112.2384 114.879367 118.95168 121.824489 128.06401">A planta&#x00e7;&#x00e3;o &#x00e9; permitida</tspan></text>
<text xml:space="preserve" transform="matrix(1 0 -0 1 42.799596 661.07998)" font-size="10.08" font-family="Verdana"><tspan y="-26.920302" x="134.122">,</tspan></text>
<text xml:space="preserve" transform="matrix(1 0 -0 1 42.799596 661.07998)" font-size="10.08" font-family="Verdana"><tspan y="-26.920302" x="137.47864 141.06711 147.30664 153.30425 156.17705 161.21704 164.80551 170.8031 174.39157 180.38916 184.69332 190.70099 196.46675 200.05522 206.29476 209.16756 214.92324 221.39459 225.46692 231.46451 237.70404 243.45972 247.04819 253.05587 256.63429 262.6319 268.6396 274.86903 281.3404 287.09608 293.56745"> pois a &#x00e1;rea plantada &#x00e9; pequena</tspan></text>
<text xml:space="preserve" transform="matrix(1 0 -0 1 42.799596 661.07998)" font-size="10.08" font-family="Verdana"><tspan y="-26.920302" x="299.62565">.</tspan></text>
<text xml:space="preserve" transform="matrix(1 0 -0 1 42.799596 661.07998)" font-size="10.08" font-family="Verdana"><tspan y="-26.920302" x="303.58534"> </tspan><tspan y="-14.660102" x=".00033569337 7.680316">D)</tspan></text>
<text xml:space="preserve" transform="matrix(1 0 -0 1 42.799596 661.07998)" font-size="10.08" font-family="ArialMT"><tspan y="-14.660102" x="12.240335"> </tspan></text>
<text xml:space="preserve" transform="matrix(1 0 -0 1 42.799596 661.07998)" font-size="10.08" font-family="Verdana"><tspan y="-14.660102" x="14.160336 21.105456 27.103056 33.100656 36.689138 42.928655 47.232816 53.250577 56.123376 62.12097 64.993778 71.23329 77.230899 82.482578 85.86945 89.94177 96.02634 102.265857 106.33817 112.33578 115.924259 121.92186 125.51034 131.50794 134.38074 140.37833 146.61786 150.69019 153.56299 159.31867 163.00635 169.01403 172.59243 178.59001 181.94666 187.93418 193.68985 200.16121 206.40074 212.39833 216.07633 222.07393 228.54529 234.54288 240.78241 244.85474 250.85234 254.20899 260.20658 263.79505 270.26643 275.5181 281.54594 285.1344 291.37394 297.37153 300.96 306.71568 311.01985 317.02754 323.0352 326.51634">S&#x00e3;o proibidos tanto o plantio e a venda quanto o uso da &#x00e1;rea. </tspan><tspan y="-2.4201022" x=".00033569337 6.479896">E)</tspan></text>
<text xml:space="preserve" transform="matrix(1 0 -0 1 42.799596 661.07998)" font-size="10.08" font-family="ArialMT"><tspan y="-2.4201022" x="10.800336"> </tspan></text>
<text xml:space="preserve" transform="matrix(1 0 -0 1 42.799596 661.07998)" font-size="10.08" font-family="Verdana"><tspan y="-2.4201022" x="14.160336 21.105456 24.693936 30.681456 36.437139 42.9085 49.148019 55.14562 58.7341 64.97362 70.7293 74.31778 84.145778 89.90146 95.15314 101.18098 107.420497 113.89185 119.88946 123.477939 128.72962 134.75746 144.58547 150.58307 153.93972 157.52819 163.52579 169.76532 173.83765 179.84532 183.42372 189.66326 195.41893 199.0074 203.31156 209.08739 215.55875 221.79828 227.79587 231.15251 237.62387 243.62146 249.61907 253.20754 258.9632 262.55168 267.80335 273.83119 280.30256 285.34257 288.21537 294.4549 300.4626 304.76676 310.7744 317.01396 322.76963 326.3581 328.99906 331.87187 334.51283 339.7645 342.4357 346.50804 352.5056 356.30635">A venda da maconha como fonte de renda n&#x00e3;o &#x00e9; considerada il&#x00ed;cita. </tspan></text>
</g>
</svg>
