<svg xmlns="http://www.w3.org/2000/svg" xmlns:xlink="http://www.w3.org/1999/xlink" xmlns:inkscape="http://www.inkscape.org/namespaces/inkscape" version="1.1" width="595.44" height="841.92" viewBox="0 0 595.44 841.92">
<g>
<text xml:space="preserve" transform="matrix(1 0 -0 1 0 841.92)" font-size="7.92" font-family="Verdana"><tspan y="-795.58" x="42.504 47.541124 52.578245 57.615365 62.652486 68.17272 73.68504 79.197368 84.22656 89.26368 95.259128 101.96736 107.00448 113.00784">945_BASE_NM_DM</tspan></text>
<text xml:space="preserve" transform="matrix(1 0 -0 1 0 841.92)" font-size="7.92" font-family="Verdana"><tspan y="-795.58" x="120.05"> </tspan></text>
<text xml:space="preserve" transform="matrix(1 0 -0 1 0 841.92)" font-size="7.92" font-family="Verdana"><tspan y="-795.58" x="460.51 465.55003 470.59004 474.1886 479.2286 484.26863 487.8672 492.9072 498.1848 503.22483 508.26484 511.13475 516.17477 521.2147 524.8133 529.8533 535.1229 538.7215 543.7615">10/01/2025 15:14:17</tspan></text>
<text xml:space="preserve" transform="matrix(1 0 -0 1 0 841.92)" font-size="10.08" font-family="Verdana"><tspan y="-795.58" x="549.1"> </tspan></text>
<path transform="matrix(1,0,0,-1,0,841.92)" d="M41.064 804.48H554.614V804.95999H41.064Z" fill-rule="evenodd"/>
<text xml:space="preserve" transform="matrix(1 0 -0 1 0 841.92)" font-size="9.12" font-family="Verdana"><tspan y="-25.92" x="42.504 48.26784 53.54832 59.0568 63.6168 69.389759 74.16863 79.44911 84.984958 89.052478 92.17152 97.44288 103.215839 108.72431 114.24191 119.75039 123.343669 128.63327">Execu&#x00e7;&#x00e3;o: Fundatec</tspan></text>
<text xml:space="preserve" transform="matrix(1 0 -0 1 0 841.92)" font-size="9.12" font-family="Verdana"><tspan y="-25.92" x="133.25"> </tspan></text>
<path transform="matrix(1,0,0,-1,0,841.92)" d="M41.064 35.76H554.374V36.24004H41.064Z" fill-rule="evenodd"/>
<text xml:space="preserve" transform="matrix(1 0 -0 1 0 841.92)" font-size="9.12" font-family="Verdana"><tspan y="-14.88" x="250.9 257.85856 264.57087 270.80894 277.04704 284.00559 290.24366 293.3627 300.80464 307.51695 314.23838 317.84077 324.31596 327.91835 333.4177 339.65577">GUARDA MUNICIPAL</tspan></text>
<text xml:space="preserve" transform="matrix(1 0 -0 1 0 841.92)" font-size="9.12" font-family="Verdana"><tspan y="-14.88" x="344.54"> </tspan></text>
<path transform="matrix(1,0,0,-1,0,841.92)" d="M41.064 646.51H554.374V646.99H41.064Z" fill-rule="evenodd"/>
<path transform="matrix(1,0,0,-1,0,841.92)" d="M41.064 499.1H554.374V499.58003H41.064Z" fill-rule="evenodd"/>
<path transform="matrix(1,0,0,-1,0,841.92)" d="M41.064 363.94H554.374V364.42H41.064Z" fill-rule="evenodd"/>
<path transform="matrix(1,0,0,-1,0,841.92)" d="M41.064 228.55H554.374V229.02999H41.064Z" fill-rule="evenodd"/>
<text xml:space="preserve" transform="matrix(1 0 -0 1 42.504 342.171)" font-size="10.08" font-family="Verdana" font-weight="bold"><tspan y="-136.943" x="0"> </tspan><tspan y="-124.702999" x="0 8.62848 16.81344 23.50656 30.6936 37.41696 45.09792 53.7264 57.5568 64.743839 71.93087">QUEST&#x00c3;O 27 </tspan></text>
<text xml:space="preserve" transform="matrix(1 0 -0 1 42.504 342.171)" font-size="10.08" font-family="Verdana" font-weight="bold"><tspan y="-124.702999" x="75.626">&#x2013;</tspan></text>
<text xml:space="preserve" transform="matrix(1 0 -0 1 42.504 342.171)" font-size="10.08" font-family="Verdana" font-weight="bold"><tspan y="-124.702999" x="82.826"> </tspan></text>
<text xml:space="preserve" transform="matrix(1 0 -0 1 42.504 342.171)" font-size="10.08" font-family="Verdana"><tspan y="-124.702999" x="86.66599 93.86311 103.69111 107.52151 111.109989 117.3495 123.82086 128.86086 131.73366 137.73126 144.20262 150.20021 154.28261 157.15541 163.15302 166.98342 172.23509 178.26294 188.09095 191.92134 198.16086 204.63222 208.70453 214.4602 220.93157 226.92917 232.18085 236.2834 242.281 248.28868 252.35092 255.22373 261.46327 267.46086 273.45848 279.46617 283.776 290.01554 295.7712 301.0229 303.92594 309.92356 312.5645 319.0359 323.10823 328.14823 334.1559 337.97624 343.2279 349.28599 355.7271 361.72474 364.59754 370.83708 376.83467 380.90699 386.66267 390.96684 395.04924 400.8049 404.87724 410.87486 415.17903 421.1867 424.55345 430.56114 433.19203 437.26435 443.26194 447.09233 453.5637 459.56129 463.6336 471.7984 478.26979 484.5093 487.15028 492.40196 495.305 501.54454 504.41734 510.173">Um funcion&#x00e1;rio com 18 anos de idade decidiu se candidatar a Prefeito no Munic&#x00ed;pio </tspan><tspan y="-112.463" x="-.0000076293949 6.4713528 12.468952 17.256953 23.254553 29.725913 35.723516 38.399995 43.19999 47.04047 51.34463 57.36239 63.601907 69.59951 72.24047 78.71183 84.467517 89.25551 94.50719 100.53503 110.36302 116.36063 121.14862 127.14622 133.61757 139.61516 143.91931 150.19916 155.93468 160.72267 170.31884 176.55837 183.02973 185.67069 190.92237 193.82541 200.06494 205.82062 208.69342 212.29198 217.07997 224.51902 230.51662 235.0627 240.81838 247.28974 251.36206 257.11775 263.5891 267.66145 273.65904 277.0157 281.80369 288.0432 294.0509 299.30259 304.59458 310.59217 316.8317 320.9141 323.55506 330.02644 334.81443 340.81205 347.28343 353.0391 357.8271 364.29847 370.05415 376.04167 378.91447 384.67015 389.21623 395.6876 405.5156 411.27128 416.05928 418.70024 421.57304 431.1692 434.042 438.11433 443.87 449.12168 455.17976 461.1471 465.9351 472.17463 477.9303 482.7183 485.35926 491.5988 497.59638 503.8359 509.8436">no qual trabalha como guarda municipal. No entanto, descobriu que havia uma limita&#x00e7;&#x00e3;o de idade </tspan><tspan y="-100.223" x="-.0000076293949 6.2395126 12.237112 16.541272 22.559033 26.147513 32.145116 35.733598 40.985277 47.013116 53.484476 59.48207 62.35487 67.60655 73.664638 79.631999 83.220478 89.45999 95.467678 99.046077 104.80176 107.67456 113.68224 119.66976 122.542568 128.78209 131.42305 134.29586 137.16866 143.40819 149.40578 155.40338 161.41106 164.99953 168.588 176.26897 182.27664 185.85504 191.85263 197.10431 203.13216 207.43631 213.71616 219.6936 223.28208 228.53376 234.5616 244.15776 247.74623 253.74382">para a condi&#x00e7;&#x00e3;o de elegibilidade. De acordo com a </tspan></text>
<text xml:space="preserve" transform="matrix(1 0 -0 1 42.504 342.171)" font-size="10.08" font-family="Verdana"><tspan y="-100.223" x="257.292 264.32783 271.33345 277.11936">CRFB</tspan></text>
<text xml:space="preserve" transform="matrix(1 0 -0 1 42.504 342.171)" font-size="10.08" font-family="Verdana"><tspan y="-100.223" x="284.00779 287.60636 291.19483 297.43437 303.90574 309.6614 312.5342 316.12269 322.13038 325.70878 331.70637 335.063 337.9358 344.17533 350.1729 356.41246 362.42015 365.77677 375.60478 378.24574 384.7171 387.35807 397.18608 403.18367 406.77214 413.01167 419.00926 423.31343 429.33119 432.91966 437.95967 443.96736 447.54576 452.79743 458.58335 465.05473 471.29426 474.16706 480.4066 486.16227 490.2346 496.23219 500.53636 504.145 509.90068">, qual &#x00e9; a idade m&#x00ed;nima para se candidatar a </tspan><tspan y="-87.9628" x="-.00021362305 5.997387 10.301547 16.309227 19.907788 25.915467 28.546347 32.618669 38.61627 43.91979">Prefeito? </tspan><tspan y="-75.7228" x="-.00021362305"> </tspan><tspan y="-63.482805" x="-.00021362305 6.9598066">A)</tspan></text>
<text xml:space="preserve" transform="matrix(1 0 -0 1 42.504 342.171)" font-size="10.08" font-family="ArialMT"><tspan y="-63.482805" x="11.279786"> </tspan></text>
<text xml:space="preserve" transform="matrix(1 0 -0 1 42.504 342.171)" font-size="10.08" font-family="Verdana"><tspan y="-63.482805" x="14.159786 20.631148 27.102507 30.690987 36.446668 42.95979 48.95739 54.20907 57.62579">18 anos. </tspan><tspan y="-51.242807" x="-.00021362305 6.959767">B)</tspan></text>
<text xml:space="preserve" transform="matrix(1 0 -0 1 42.504 342.171)" font-size="10.08" font-family="ArialMT"><tspan y="-51.242807" x="11.279786"> </tspan></text>
<text xml:space="preserve" transform="matrix(1 0 -0 1 42.504 342.171)" font-size="10.08" font-family="Verdana"><tspan y="-51.242807" x="14.159786 20.631148 27.102507 30.690987 36.446668 42.91803 48.91563 54.167314 57.625795">21 anos. </tspan><tspan y="-39.002809" x="-.00021362305 6.9598267">C)</tspan></text>
<text xml:space="preserve" transform="matrix(1 0 -0 1 42.504 342.171)" font-size="10.08" font-family="ArialMT"><tspan y="-39.002809" x="11.519787"> </tspan></text>
<text xml:space="preserve" transform="matrix(1 0 -0 1 42.504 342.171)" font-size="10.08" font-family="Verdana"><tspan y="-39.002809" x="14.159787 20.631148 27.102507 30.690987 36.446668 42.91803 48.91563 54.167314 57.625795">30 anos. </tspan><tspan y="-26.762808" x="-.00021266937 7.6797678">D)</tspan></text>
<text xml:space="preserve" transform="matrix(1 0 -0 1 42.504 342.171)" font-size="10.08" font-family="ArialMT"><tspan y="-26.762808" x="12.239787"> </tspan></text>
<text xml:space="preserve" transform="matrix(1 0 -0 1 42.504 342.171)" font-size="10.08" font-family="Verdana"><tspan y="-26.762808" x="14.159787 20.631148 27.102507 30.690987 36.446668 42.91803 48.91563 54.167314 57.625795">35 anos. </tspan><tspan y="-14.522808" x="-.00021266937 6.4793479">E)</tspan></text>
<text xml:space="preserve" transform="matrix(1 0 -0 1 42.504 342.171)" font-size="10.08" font-family="ArialMT"><tspan y="-14.522808" x="10.7997879"> </tspan></text>
<text xml:space="preserve" transform="matrix(1 0 -0 1 42.504 342.171)" font-size="10.08" font-family="Verdana"><tspan y="-14.522808" x="14.159787 20.631148 27.102507 30.690987 36.446668 42.91803 48.91563 54.167314 57.625795">45 anos. </tspan><tspan y="-2.2828084" x="-.00021266937"> </tspan></text>
<text xml:space="preserve" transform="matrix(1 0 -0 1 42.43344 796.147)" font-size="10.08" font-family="Verdana" font-weight="bold"><tspan y="-443.096" x="0"> </tspan><tspan y="-430.85603" x="0 8.62848 16.81344 23.50656 30.6936 37.41696 45.09792 55.313516 61.688634 68.87567 77.649829">QUEST&#x00c3;O 28 </tspan></text>
<text xml:space="preserve" transform="matrix(1 0 -0 1 42.43344 796.147)" font-size="10.08" font-family="Verdana" font-weight="bold"><tspan y="-430.85603" x="84.1345">&#x2013;</tspan></text>
<text xml:space="preserve" transform="matrix(1 0 -0 1 42.43344 796.147)" font-size="10.08" font-family="Verdana" font-weight="bold"><tspan y="-430.85603" x="92.921619"> </tspan></text>
<text xml:space="preserve" transform="matrix(1 0 -0 1 42.43344 796.147)" font-size="10.08" font-family="Verdana"><tspan y="-430.85603" x="99.30874 106.25386 110.09434 116.5657 122.5633 125.20426 135.03226 140.78794 147.2593 151.33162 157.3393 162.51488 169.13191 176.71663 183.33367 188.37366 191.24646 197.486 203.48358 209.72312 217.3179 223.92485 230.16439 237.75917 244.36612 250.36373 256.3613 260.66548 264.52613 272.11085 278.72789 285.673 288.5458 294.5535 300.78294 305.0871">Atualmente, a cidade de Porto Alegre</tspan></text>
<text xml:space="preserve" transform="matrix(1 0 -0 1 42.43344 796.147)" font-size="10.08" font-family="Verdana"><tspan y="-430.85603" x="311.09474 315.67106 322.67668">/RS</tspan></text>
<text xml:space="preserve" transform="matrix(1 0 -0 1 42.43344 796.147)" font-size="10.08" font-family="Verdana"><tspan y="-430.85603" x="331.14845"> </tspan></text>
<text xml:space="preserve" transform="matrix(1 0 -0 1 42.43344 796.147)" font-size="10.08" font-family="Verdana"><tspan y="-430.85603" x="337.77555"> </tspan></text>
<text xml:space="preserve" transform="matrix(1 0 -0 1 42.43344 796.147)" font-size="10.08" font-family="Verdana"><tspan y="-430.85603" x="341.31364 347.0693 352.32099 356.42356 364.00828 370.6253 375.87699 381.6629 393.078 399.69505 409.52305 415.52064 418.1616 425.0004 431.64768 437.8872 445.48204 452.089 458.32853 469.74363 476.36067 485.95683 488.82963 491.47059 497.94197 503.93955 509.93714">est&#x00e1; com mais de um milh&#x00e3;o,</tspan><tspan y="-418.59584" x="-.00036621095 4.071954 8.376114 14.383794 19.433875 25.441555 31.670996 35.51148 41.50908 47.447408 53.194219 59.888547 63.436708 68.688388 71.35959 77.83095 84.070468 90.541828 96.29751 102.537029 106.609348 113.293598 119.25208 128.84824 131.72104 135.28049 140.99706 147.46842 153.466 159.70554 162.3465 166.41883 172.41641 178.65595 182.72827 188.48395 193.73563 198.05107 204.00955 209.26123 215.2689 221.76044 227.99997 234.68422 240.6427 246.6403 253.11167 259.806 265.7544 272.43864 278.39714 284.63667 291.10804 296.8637 303.10325 307.17558 310.04838 316.046 322.04359 328.2831 334.97746 340.92585 347.16539 353.8597 359.8081 365.79563 371.8033 376.10749 382.11518 388.11277 394.3523 400.34989 404.65406 410.4299 416.36824 422.35697 429.0513 434.9997 441.23924 445.5434 451.56117 457.8007 463.79829 468.10246 473.38438 476.25718 482.01286 488.48423 494.4818 498.04127 503.99977">trezentos e cinquenta mil habitantes, sendo que a quantidade de vereadores &#x00e9; proporcional &#x00e0;</tspan><tspan y="-406.35585" x="-.00036621095 6.239154 12.236753 18.234354 24.705714 27.578515 33.576116 38.827798 44.885877 50.611318 54.209119 57.75728 65.43824 71.44517 74.993328 80.99093 86.24261 92.27045 96.57461 102.85445 108.83113 112.41961 117.67129 123.69913 133.52637 137.11484 142.86975 146.45822 153.41342 160.36862 166.12432 173.06945 176.66724 180.2557 186.25331 192.72467 198.72226 201.36246 204.95093 210.95784 214.53624 220.29116 224.07395 230.31348 236.78484 242.54051 249.01187 252.85236 255.72516 261.9647 267.96229 274.2018 279.95677 283.54524 289.78477 295.7917 299.14833 305.13584 311.14353 315.21586 321.22355 327.21107 333.4506 339.44819 343.75236 349.76005 355.0412 358.62968 364.8692 370.8668 375.17097 380.94606 384.53453 390.5422 395.79389 401.08589 406.8408 410.42927 414.01774 419.7734 422.6462 428.63374 434.63056 438.21903 444.45857 450.2135 453.76167 460.23304 466.23063 472.22825 474.8692 478.94154 484.93913 491.17866 495.25099 501.25868 506.28858">popula&#x00e7;&#x00e3;o. De acordo com a CRFB, qual &#x00e9; a quantidade de vereadores para essa faixa de habitantes?</tspan><tspan y="-394.11585" x="-.00036621095"> </tspan><tspan y="-381.87586" x="-.00036621095 6.959654">A)</tspan></text>
<text xml:space="preserve" transform="matrix(1 0 -0 1 42.43344 796.147)" font-size="10.08" font-family="ArialMT"><tspan y="-381.87586" x="11.2796339"> </tspan></text>
<text xml:space="preserve" transform="matrix(1 0 -0 1 42.43344 796.147)" font-size="10.08" font-family="Verdana"><tspan y="-381.87586" x="14.159634 20.639615 27.119595 30.479634">20. </tspan><tspan y="-369.63587" x="-.00036621095 6.9596145">B)</tspan></text>
<text xml:space="preserve" transform="matrix(1 0 -0 1 42.43344 796.147)" font-size="10.08" font-family="ArialMT"><tspan y="-369.63587" x="11.2796339"> </tspan></text>
<text xml:space="preserve" transform="matrix(1 0 -0 1 42.43344 796.147)" font-size="10.08" font-family="Verdana"><tspan y="-369.63587" x="14.159634 20.639615 27.119595 30.479634">25. </tspan><tspan y="-357.39588" x="-.00036621095 6.959674">C)</tspan></text>
<text xml:space="preserve" transform="matrix(1 0 -0 1 42.43344 796.147)" font-size="10.08" font-family="ArialMT"><tspan y="-357.39588" x="11.519634"> </tspan></text>
<text xml:space="preserve" transform="matrix(1 0 -0 1 42.43344 796.147)" font-size="10.08" font-family="Verdana"><tspan y="-357.39588" x="14.159635 20.639615 27.119595 30.479634">30. </tspan><tspan y="-345.15589" x="-.00036621095 7.679614">D)</tspan></text>
<text xml:space="preserve" transform="matrix(1 0 -0 1 42.43344 796.147)" font-size="10.08" font-family="ArialMT"><tspan y="-345.15589" x="12.239634"> </tspan></text>
<text xml:space="preserve" transform="matrix(1 0 -0 1 42.43344 796.147)" font-size="10.08" font-family="Verdana"><tspan y="-345.15589" x="14.159634 20.639615 27.119595 30.479634">37. </tspan><tspan y="-332.9159" x="-.00036621095 6.479194">E)</tspan></text>
<text xml:space="preserve" transform="matrix(1 0 -0 1 42.43344 796.147)" font-size="10.08" font-family="ArialMT"><tspan y="-332.9159" x="10.799634"> </tspan></text>
<text xml:space="preserve" transform="matrix(1 0 -0 1 42.43344 796.147)" font-size="10.08" font-family="Verdana"><tspan y="-332.9159" x="14.159634 20.639615 27.119595 30.479634">40. </tspan><tspan y="-320.6759" x="-.00036621095"> </tspan></text>
<text xml:space="preserve" transform="matrix(1 0 -0 1 42.43344 796.147)" font-size="10.08" font-family="Verdana" font-weight="bold"><tspan y="-308.4359" x="-.00036621095"> </tspan><tspan y="-296.19593" x="-.00036621095 8.628114 16.813075 23.506194 30.693234 37.416597 45.097555 53.729135 57.085775 64.27281 71.46295">QUEST&#x00c3;O 29 </tspan></text>
<text xml:space="preserve" transform="matrix(1 0 -0 1 42.43344 796.147)" font-size="10.08" font-family="Verdana" font-weight="bold"><tspan y="-296.19593" x="74.911838">&#x2013;</tspan></text>
<text xml:space="preserve" transform="matrix(1 0 -0 1 42.43344 796.147)" font-size="10.08" font-family="Verdana" font-weight="bold"><tspan y="-296.19593" x="82.11494"> </tspan></text>
<text xml:space="preserve" transform="matrix(1 0 -0 1 42.43344 796.147)" font-size="10.08" font-family="Verdana"><tspan y="-296.19593" x="85.47494 93.1559 99.16668 102.74508 108.74268 113.99436 120.0222 124.32636 130.6062 136.58675 140.17522 145.4269 151.45475 161.05402 164.64249 170.64319 174.23166 180.22925 184.5334 188.61582 192.21747 195.57411 202.04547 208.51993 211.87657 218.1161 224.1168 227.70528 234.66048 241.38384 247.13953 254.08466 257.6863 261.27479 267.27549 270.86396 277.80909 283.8067 293.6347 296.27568 302.5152 305.388 310.63969 314.5104 318.81459 324.83235 330.084 336.1421 342.11256 345.70103 351.69865 358.17 364.16764 367.04045 369.6814 374.93309 380.99427 384.54243 390.56019 393.43299 397.73716 403.513 407.58534 413.58604 417.1745 423.1853 426.54194 429.41474 435.8861 441.88374 444.75654 449.0607 454.83656 458.90888 464.90959 468.49806 474.49565 480.73518 486.49085 492.73039 498.73808 503.98976 509.99745">De acordo com o art. 37 da CRFB, a Administra&#x00e7;&#x00e3;o P&#x00fa;blica direta e indireta obedece </tspan><tspan y="-283.95594" x="-.00036621095 5.997233 9.122033 15.119633 17.992434 23.990035 30.461394 36.700914 41.95259 45.097555 51.09515 55.39931 58.05035 64.52171 69.561717 72.43452 78.674037 81.54684 87.54444 92.79612 96.183 99.30779 106.988758 113.46011 119.45772 125.92908 132.16861 138.16622 141.04909 147.28862 157.11663 160.24143 165.4931 171.27902 177.75038 182.79038 189.26174 193.56589 198.84781 204.60349 207.72829 213.96782 219.96541 224.26956 230.28733 233.1702 239.40973 249.23773 252.36254 257.61424 263.40016 267.7043 273.98417 279.9616 282.84449 289.31587 295.31346 298.43824 306.83488 313.0744 319.31394 322.18675 327.43843 330.34147 336.33909 339.21189 345.20948 348.09236 354.56373 360.5613 366.5589 369.6837 375.43937 378.56416 384.31983 390.7912 397.03074 403.5021 408.5421 411.41493 417.4125 423.65205 429.64964 432.5325 442.3605 448.3682 454.59764 457.47044 463.2261 469.46565 473.53797 479.54566 482.41847 488.42616 494.65559 497.52839 501.6007 507.35639 509.99736">a alguns princ&#x00ed;pios. Quando um concurso para um cargo no Munic&#x00ed;pio n&#x00e3;o &#x00e9; anunciado mediante edital </tspan><tspan y="-271.71595" x="-.00036621095 6.239154 12.236753 16.540913 22.558674 26.147154 31.398835 37.426675 43.66619 50.13755 56.14523 61.17515 64.04795 73.64411 79.651798 85.88123 89.95355 95.95116 99.539638 105.77915 111.77676 117.028438 120.64715 126.886669 132.64234 136.71466 142.72234 148.95178 154.20346 157.1065 162.86219 165.73499 170.98667 174.37354 179.62522 185.68329 192.12442 198.12203 200.99483 207.23436 212.99004 217.06237 223.05997 228.31165 231.94045 235.52892 241.52652 247.99788 253.99547 256.6364 260.22489 266.46443 270.7686 273.41963 279.891 284.931 287.8038 294.04335 296.91615 302.6718 306.59565 314.03468 320.9798 328.91563 332.2756 338.2833 343.3132 347.38554 353.38313 356.9716 362.22328 368.0092 374.48057 380.7201 386.7856 390.38563 396.1413 400.21363 406.2213 412.45075 418.69029 421.56309 427.8026 433.8002 439.12565">para conhecimento dos potenciais candidatos, qual princ&#x00ed;pio N&#x00c3;O est&#x00e1; sendo atendido? </tspan><tspan y="-259.47596" x="-.00036621095"> </tspan><tspan y="-247.23595" x="-.00036621095 6.959654">A)</tspan></text>
<text xml:space="preserve" transform="matrix(1 0 -0 1 42.43344 796.147)" font-size="10.08" font-family="ArialMT"><tspan y="-247.23595" x="11.2796339"> </tspan></text>
<text xml:space="preserve" transform="matrix(1 0 -0 1 42.43344 796.147)" font-size="10.08" font-family="Verdana"><tspan y="-247.23595" x="14.159634 20.630993 23.987633 26.860434 32.112115 34.783315 40.790994 47.02043 52.27211 55.17515 61.172754 64.58563">Efici&#x00ea;ncia. </tspan><tspan y="-234.99594" x="-.00036621095 6.9596145">B)</tspan></text>
<text xml:space="preserve" transform="matrix(1 0 -0 1 42.43344 796.147)" font-size="10.08" font-family="ArialMT"><tspan y="-234.99594" x="11.2796339"> </tspan></text>
<text xml:space="preserve" transform="matrix(1 0 -0 1 42.43344 796.147)" font-size="10.08" font-family="Verdana"><tspan y="-234.99594" x="14.159634 21.114832 27.112433 33.120115 37.424276 42.706197 48.703798 54.701398 58.34564">Coer&#x00e7;&#x00e3;o. </tspan><tspan y="-222.75594" x="-.00036621095 6.959674">C)</tspan></text>
<text xml:space="preserve" transform="matrix(1 0 -0 1 42.43344 796.147)" font-size="10.08" font-family="ArialMT"><tspan y="-222.75594" x="11.519634"> </tspan></text>
<text xml:space="preserve" transform="matrix(1 0 -0 1 42.43344 796.147)" font-size="10.08" font-family="Verdana"><tspan y="-222.75594" x="14.159635 22.556275 28.553875 32.858037 38.875795 41.748594 44.62139 50.86091 56.85851 63.098028 69.105709 72.50562">Moralidade. </tspan><tspan y="-210.51593" x="-.00036525727 7.679615">D)</tspan></text>
<text xml:space="preserve" transform="matrix(1 0 -0 1 42.43344 796.147)" font-size="10.08" font-family="ArialMT"><tspan y="-210.51593" x="12.2396349"> </tspan></text>
<text xml:space="preserve" transform="matrix(1 0 -0 1 42.43344 796.147)" font-size="10.08" font-family="Verdana"><tspan y="-210.51593" x="14.159635 18.473875 28.301877 34.541395 40.549074 45.57899 50.830675 56.858514 62.856115 65.49707 68.36987 74.60939 80.606998 86.84651 92.854198 96.26563">Impessoalidade. </tspan><tspan y="-198.27593" x="-.00036525727 6.479195">E)</tspan></text>
<text xml:space="preserve" transform="matrix(1 0 -0 1 42.43344 796.147)" font-size="10.08" font-family="ArialMT"><tspan y="-198.27593" x="10.799635"> </tspan></text>
<text xml:space="preserve" transform="matrix(1 0 -0 1 42.43344 796.147)" font-size="10.08" font-family="Verdana"><tspan y="-198.27593" x="14.159635 20.157235 26.628594 32.86811 35.50907 38.38187 43.42187 46.29467 52.534189 58.531789 64.77131 70.77899 74.18563">Publicidade. </tspan><tspan y="-186.03592" x="-.00036525727"> </tspan><tspan y="-173.79592" x="-.00036525727"> </tspan></text>
<text xml:space="preserve" transform="matrix(1 0 -0 1 42.43344 796.147)" font-size="10.08" font-family="Verdana" font-weight="bold"><tspan y="-161.55591" x="-.00036525727 8.628115 16.813076 23.506196 30.693234 37.416597 45.097555 55.032796 61.611398 68.87915 77.38591">QUEST&#x00c3;O 30 </tspan></text>
<text xml:space="preserve" transform="matrix(1 0 -0 1 42.43344 796.147)" font-size="10.08" font-family="Verdana" font-weight="bold"><tspan y="-161.55591" x="83.97263">&#x2013;</tspan></text>
<text xml:space="preserve" transform="matrix(1 0 -0 1 42.43344 796.147)" font-size="10.08" font-family="Verdana" font-weight="bold"><tspan y="-161.55591" x="92.47939"> </tspan></text>
<text xml:space="preserve" transform="matrix(1 0 -0 1 42.43344 796.147)" font-size="10.08" font-family="Verdana"><tspan y="-161.55591" x="99.066158 106.263278 117.39803 124.21855 130.45809 136.92945 142.68512 146.98928 153.26912 160.55332 167.37383 176.96999 183.44135 189.68088 192.55368 197.59368 200.46648 206.70601 212.7036 216.88317 223.46176 229.7013 237.00566 243.82617 252.22281 258.46235 264.93373 267.57469 272.82637 275.7294 281.72703 284.59983 291.90419 298.7247 304.96424 312.2787 319.0891 325.08674 331.08433 335.3885 339.4709 346.77525 353.59577 360.31913 363.19194 369.19963 375.42906 379.51145">Um guarda municipal do Munic&#x00ed;pio de Porto Alegre</tspan></text>
<text xml:space="preserve" transform="matrix(1 0 -0 1 42.43344 796.147)" font-size="10.08" font-family="Verdana"><tspan y="-161.55591" x="385.51918 390.0955 397.1011">/RS</tspan></text>
<text xml:space="preserve" transform="matrix(1 0 -0 1 42.43344 796.147)" font-size="10.08" font-family="Verdana"><tspan y="-161.55591" x="403.98579 408.88105 415.70158 421.69917 427.9387 433.93629 440.49473 447.3354 453.57493 464.7097 471.5302 477.5278 483.99919 491.30354 498.12406 504.3636 510.37129">, ap&#x00f3;s um ano de </tspan><tspan y="-149.29572" x="-.00021362305 5.7554666 9.827786 12.468747 18.456269 21.097229 27.33675 33.33435 39.573869 45.581548 49.843294 53.391454 58.643136 64.670978 67.54378 70.41658 75.45658 78.09754 82.16986 88.167469 95.31209 99.38441 104.636089 110.422008 117.56663 121.88087 128.12039 133.87607 138.18022 141.0631 147.0607 153.30023 159.9711 164.28534 170.52487 176.95381 181.26805 184.85652 190.6122 194.91635 197.79923 203.79682 209.51007 213.82431 220.06385 226.06143 230.36559 236.81468 241.12892 244.71739 250.71498 256.007 261.7526 266.73 271.05433 276.81 279.6828 285.92234 292.16188 301.75804 307.7556 313.68055 318.01496 323.77064 326.64344 332.64103 338.88056 344.63624 351.1076 356.35929 360.66136 364.9756 370.0156 376.0233 382.48457 388.7241 395.15306 399.4673 404.71897 410.77705 416.98634 423.6572 427.72953 434.2009 444.0289 450.45783 454.77207 461.0116 466.76728 469.64009 475.63768 481.35093 485.66517 490.91685 496.94468 506.77268 510.37126">atividade, solicitou seu per&#x00ed;odo de f&#x00e9;rias para fazer algumas viagens, sendo cada uma delas com, </tspan><tspan y="-137.05571" x="-.00021362305 6.4711468 14.018284 20.16518 29.993182 32.63414 38.873659 41.746458 51.57446 57.57206 62.720159 66.26832 72.73968 82.56767 90.114818 97.40995 102.66163 108.66931 118.51747 124.273159 130.7445 138.29164 145.82869 152.06822 159.62545 167.15242 173.15003 179.62139 183.92554 189.9433 195.19498 201.25305 207.22042 212.3685 219.66364 226.60875 234.15589 241.69293 246.94461 252.97246 259.44383 264.48384 270.72337 273.59617 277.6685 283.66609 289.51979 297.67173 305.21888 312.514 317.7657 324.2673 330.02299 333.3796 340.93684 348.4638 354.70335 362.2505 369.78755 375.0392 381.0469 385.1394 391.137 396.9907 404.5479 410.54554 418.10276 425.62974 431.86927 437.87696 443.12864 448.42063 454.4182 460.1739 464.59623 472.13328 478.3728 485.91993 493.45698 498.49699 504.96836 510.96595">no m&#x00ed;nimo, uma semana de dura&#x00e7;&#x00e3;o. Ao consultar o chefe do setor de pessoal da sua </tspan><tspan y="-124.81571" x="-.00021362305 4.3039467 10.311626 16.561228 22.316908 26.621068 30.481707 33.354505 38.606187 44.664266 50.631628 54.76334 61.28401 65.58817 71.595859 76.645938 82.65362 88.88306 94.89074 101.65333 105.201488 108.07429 114.313808 117.90228 123.89989 128.20404 138.0522 144.04979 149.30147 155.32932 161.33699 166.90006 174.37833 179.63 185.65785 191.89739 196.20154 202.74237 210.23072 216.2283 221.80146 229.27973 233.58388 239.59156 245.84116 250.14531 256.1631 261.73625 269.2145 275.45405 281.9254 288.21427 295.69255 301.93208 307.93977 311.2964 314.1692 320.40873 326.4164 336.7574 344.2659 350.79667 358.0431 364.28263 370.2802 375.5722 382.09288 389.57115 395.81068 402.3515 409.82978 416.30116 423.30567 430.78395 436.78157 439.65437 445.65196 451.43678 458.94529 465.1848 471.47367 478.95195 482.5404 488.5481 492.62043 495.49324 501.4908 506.7425 510.3713">reparti&#x00e7;&#x00e3;o, recebeu informa&#x00e7;&#x00f5;es sobre as regras que definem o gozo de 30 dias de f&#x00e9;rias. </tspan><tspan y="-112.575717" x="-.00021362305 6.9549868 12.952587 19.192107 24.443787 27.346827 33.586347 39.342027 43.646188 49.663946 56.135309 62.374826 68.37243 75.31754 81.31515 88.02843 93.280109 99.33819 104.58987 110.58747 114.13563 120.13323 126.37275 130.67691 136.68459 141.9665 147.72219 154.19355 158.26587 164.26346 170.50299 176.5006 180.09915 183.68762 189.68523 196.15659 202.15418 204.79514 210.04682 213.66553 218.9172 224.97528 230.94264 234.53112 240.28679 245.53847 249.15718 255.39672 261.3943 266.64598 271.71623 274.58903 280.82856 283.4695 286.11048 288.98329 295.2228 301.2204 307.45994 313.46763 318.7193 322.0961 328.33564 334.33323 337.9217 344.16123 350.1588 355.4508 361.43833 365.0268 371.26634 377.27403 380.85243 384.4409 390.44859 394.5209 397.3937 403.3913 408.4313 414.01164">Considerando o caso apresentado, quais s&#x00e3;o as possibilidades do gozo de f&#x00e9;rias? </tspan><tspan y="-100.33572" x="-.00021362305"> </tspan><tspan y="-88.09572" x="-.00021362305 6.9598066">A)</tspan></text>
<text xml:space="preserve" transform="matrix(1 0 -0 1 42.43344 796.147)" font-size="10.08" font-family="ArialMT"><tspan y="-88.09572" x="11.279786"> </tspan></text>
<text xml:space="preserve" transform="matrix(1 0 -0 1 42.43344 796.147)" font-size="10.08" font-family="Verdana"><tspan y="-88.09572" x="14.159786 20.631146 30.459147 34.007307 40.299146 46.054826 48.927625 54.179307 57.556108 63.795625 69.80331 73.875629 76.74843 82.74603 88.98555 94.983158 100.23483 103.853549 110.09306 116.100749 119.689228 123.04586 129.51721 135.51482 139.10329 148.69945 151.57225 157.81179 160.68459 170.51259 176.5102 180.10875 183.4654 189.87627 193.42443 199.45227 202.09323 208.09082 213.3425 216.9713 220.75754">Em dois per&#x00ed;odos de, no m&#x00ed;nimo, 7 dias.  </tspan><tspan y="-75.85572" x="-.00021362305 6.959767">B)</tspan></text>
<text xml:space="preserve" transform="matrix(1 0 -0 1 42.43344 796.147)" font-size="10.08" font-family="ArialMT"><tspan y="-75.85572" x="11.279786"> </tspan></text>
<text xml:space="preserve" transform="matrix(1 0 -0 1 42.43344 796.147)" font-size="10.08" font-family="Verdana"><tspan y="-75.85572" x="14.159786 20.631146 30.459147 34.007307 40.226667 45.982347 48.855146 54.106828 57.483629 63.723146 69.73083 73.80315 76.67595 82.67355 88.91307 94.910678 100.16235 103.78107 110.020587 116.02827 119.616748 122.97338 129.44474 135.44234 139.0308 148.62697 151.49977 157.7393 160.6121 170.44011 176.43772 180.03627 183.39292 189.86428 196.00299 199.59146 205.831 208.47196 214.46955 219.72122 223.35002 227.22602">Em dois per&#x00ed;odos de, no m&#x00ed;nimo, 10 dias.  </tspan><tspan y="-63.615724" x="-.00021362305 6.9598267">C)</tspan></text>
<text xml:space="preserve" transform="matrix(1 0 -0 1 42.43344 796.147)" font-size="10.08" font-family="ArialMT"><tspan y="-63.615724" x="11.519787"> </tspan></text>
<text xml:space="preserve" transform="matrix(1 0 -0 1 42.43344 796.147)" font-size="10.08" font-family="Verdana"><tspan y="-63.615724" x="14.159787 20.631148 30.459149 33.75531 37.82763 42.13179 47.90763 53.15931 56.75787 62.997388 68.75307 73.05723 75.94011 81.93771 88.17723 94.174839 99.42651 103.04523 109.04282 115.05051 118.62891 124.86842 131.33979 134.92826 140.92586 143.79866 149.79625 155.04793 158.67673 162.2668">Em tr&#x00ea;s per&#x00ed;odos de 10 dias.  </tspan><tspan y="-51.375726" x="-.00021266937 7.6797678">D)</tspan></text>
<text xml:space="preserve" transform="matrix(1 0 -0 1 42.43344 796.147)" font-size="10.08" font-family="ArialMT"><tspan y="-51.375726" x="12.239787"> </tspan></text>
<text xml:space="preserve" transform="matrix(1 0 -0 1 42.43344 796.147)" font-size="10.08" font-family="Verdana"><tspan y="-51.375726" x="14.159787 20.631148 30.459149 34.00731 39.994829 46.466188 52.221868 56.294187 60.598348 66.7169 70.2953 76.53482 82.290508 86.594669 89.47755 95.47515 101.71467 107.71227 112.96395 116.582668 122.82218 128.82987 132.1865 135.77497 142.24633 148.24393 151.60057 161.42858 164.06954 170.30907 173.18187 183.00988 189.00748 192.60604 196.1945 202.35338 205.94185 212.18138 215.05419 221.05178 226.30345 229.99417">Em quatro per&#x00ed;odos de, no m&#x00ed;nimo, 5 dias. </tspan><tspan y="-39.135728" x="-.00021266937 6.4793479">E)</tspan></text>
<text xml:space="preserve" transform="matrix(1 0 -0 1 42.43344 796.147)" font-size="10.08" font-family="ArialMT"><tspan y="-39.135728" x="10.7997879"> </tspan></text>
<text xml:space="preserve" transform="matrix(1 0 -0 1 42.43344 796.147)" font-size="10.08" font-family="Verdana"><tspan y="-39.135728" x="14.159787 20.631148 30.459149 33.75531 39.00699 45.014669 47.67579 52.927469 56.526029 62.765546 68.521228 72.825389 75.70827 81.70587 87.94539 93.94299 99.19467 102.813388 108.81098 114.818668 118.40714 121.99562 128.46698 134.46459 137.82123 147.41739 150.29019 156.52973 159.40253 169.23053 175.22814 178.82669 182.18334 188.59421 192.1726 198.17021 200.81118 206.80876 212.38156 215.98155">Em seis per&#x00ed;odos de, no m&#x00ed;nimo, 5 dias. </tspan><tspan y="-26.895728" x="-.00021266937"> </tspan></text>
<text xml:space="preserve" transform="matrix(1 0 -0 1 42.43344 796.147)" font-size="10.08" font-family="Verdana" font-weight="bold"><tspan y="-14.655727" x="-.00021266937"> </tspan><tspan y="-2.4157277" x="-.00021266937"> </tspan></text>
<text xml:space="preserve" transform="matrix(1 0 -0 1 42.504 195.09699)" font-size="10.08" font-family="Verdana" font-weight="bold"><tspan y="-136.943" x="0 8.62848 16.81344 23.50656 30.6936 37.41696 45.09792 53.7264 56.8512 64.03824 71.22527">QUEST&#x00c3;O 26 </tspan></text>
<text xml:space="preserve" transform="matrix(1 0 -0 1 42.504 195.09699)" font-size="10.08" font-family="Verdana" font-weight="bold"><tspan y="-136.943" x="74.426">&#x2013;</tspan></text>
<text xml:space="preserve" transform="matrix(1 0 -0 1 42.504 195.09699)" font-size="10.08" font-family="Verdana" font-weight="bold"><tspan y="-136.943" x="81.626"> </tspan></text>
<text xml:space="preserve" transform="matrix(1 0 -0 1 42.504 195.09699)" font-size="10.08" font-family="Verdana"><tspan y="-136.943" x="84.746 91.94312 101.77112 107.76872 111.12536 117.364879 123.37256 128.40248 133.65416 139.682 145.6796 149.03624 155.02376 160.77944 163.65224 169.64984 173.00649 179.24602 185.2436 188.60025 195.32361 199.62776 205.90761 211.88504 218.12458 221.96506 224.83786 231.30922 237.30681 240.43161 246.67115 252.66873 257.9204 263.2225 269.2201 273.696 277.056 283.05598 288.096 291.456 295.04447 301.05216 305.12449 307.99729 313.99488 319.24656 322.3915 328.86289 334.86048 338.2171 344.9405 347.8133 353.81089 357.1675 365.08033 369.3845 375.16035 381.6317 387.87126 393.62693 396.98356 403.22309 409.22068 412.5773 419.30067 425.77204 428.64485 432.2434 435.3682 441.83958 447.83717 451.1938 456.44548 462.23139 468.70277 474.9423 477.58326 482.62327 488.62086 494.61845 497.97508 504.2146 510.2223">Uma pessoa veio da Argentina passar as f&#x00e9;rias no Rio Grande do Sul, na condi&#x00e7;&#x00e3;o de </tspan><tspan y="-124.702999" x="0 4.07232 10.54368 14.6260809 17.49888 22.538882 26.6112 32.608804 36.207365 42.194887 49.140008 55.137609 61.36705 66.40705 72.414737 76.718898 82.95841 88.714099 92.786418 98.5421 105.01346 111.252979 114.12578 120.365299 126.12098 132.35042 138.3581 147.95426 154.18369 160.42322 170.25122 176.23874 180.5429 186.55057 191.60065 195.67298 201.67057 207.9101 212.21425 218.23201 224.47154 228.54387 234.55155 238.14002 244.12754 248.43169 254.43936 259.72129 262.5941 268.34977 278.17778 284.17536 290.4149 296.64433 302.6419 308.6395 314.86894 321.10847 325.41264 331.4304 337.66993 341.75233 344.62513 350.6328 354.69508 360.45075 364.7549 367.6378 373.63539 379.6229 385.86244 392.3338 398.08949 404.077 410.54838 416.54597 422.54356 428.77299 434.02467 440.0525 446.29203 451.5437 457.5514 463.56916 470.04054 472.91334 478.669 484.89845 487.5394 493.5471 497.85127 504.09077 509.84645">turista. Ao ser atendido em um restaurante, reclamou ao propriet&#x00e1;rio que n&#x00e3;o conseguia ler o </tspan><tspan y="-112.463" x="0 5.2516806 11.309761 15.613921 21.84336 27.840962 34.08048 36.953279 42.95088 46.54944 50.13792 55.8936 65.721599 69.310077 72.66671 78.90623 85.37759 90.629268 96.68735 102.65471 106.24319 112.482707 118.48031 121.836948 124.70975 130.94928 133.82209 139.57776 149.40576 155.40335 159.0019 162.59038 170.52335 174.10175 180.09935 184.4035 190.42127 196.6608 200.96495 203.84783 209.6035 213.67583 219.67342 223.75582 226.62862 232.62622 236.21469 242.21228 244.85324 250.86092 257.09034 263.08793 269.5593 273.14778 279.1454 285.61677 291.62446 295.20286 301.20045 304.55708 308.6294 314.6371 320.39277 324.4651 330.46269 334.05116 339.80683 345.0585 349.16108 355.15867 361.14619 366.90187 370.49034 376.72987 382.73756 386.31596 392.07164 397.3233 403.35115 407.6553 413.93516 419.9126 423.50108 428.75276 434.78059 444.37675 447.9652 453.9628 457.55128 460.19224 466.19993 472.42936 475.0703 480.322 483.22505 488.9807 494.2324 500.29048 506.2578 509.85639">card&#x00e1;pio, em fun&#x00e7;&#x00e3;o do idioma. O propriet&#x00e1;rio alegou que o texto estava de acordo com a legisla&#x00e7;&#x00e3;o, </tspan><tspan y="-100.223" x="0 6.47136 12.46896 15.825601 21.077282 26.863204 32.114885 38.142724 41.499364 47.255044 50.611684 57.566884 64.52209 70.27776 77.222888 80.57953 83.936168 90.407527 96.26601 99.626 102.4988 108.4964 111.3692 117.366809 127.1948 132.95049 136.30713 142.30474 145.8932 148.53417 153.78585 156.68889 162.44457 165.08553 168.44217 174.6817 180.67929 184.03594 190.99114 196.99881 202.98635 209.4577 215.4553 218.32811 220.96907 226.22075 232.27883 235.60523 241.12908 247.13675 253.3662 259.37388 263.67805 269.6857 273.52619 276.399 282.3865 288.14219 291.4988 297.73835 303.73594 306.86073 313.80586 318.11003 324.12779 329.1678 332.0406 334.9134 338.27006 341.39485 347.8662 357.46238 360.819 367.05854 373.826 379.58607 382.22599 385.58598 388.45878 394.4564 397.3292 403.32679 413.1548 418.91047 422.2671 428.26469 431.6213 436.873 442.6589 446.96308 453.24293 459.22038 465.4599 468.3327 474.166 477.52598 483.28166 488.53334 492.6359 498.63349 504.621 510.37669">no caso a CRFB, no idioma oficial da Rep&#x00fa;blica Federativa do Brasil. Em qual idioma o card&#x00e1;pio estava </tspan><tspan y="-87.983" x="-.000030517579 6.0076496 11.25933 16.551329 20.633728 23.506529 27.578848 33.599969 38.879968">escrito? </tspan><tspan y="-75.743007" x="-.000030517579"> </tspan><tspan y="-63.503007" x="-.000030517579 6.9599897">A)</tspan></text>
<text xml:space="preserve" transform="matrix(1 0 -0 1 42.504 195.09699)" font-size="10.08" font-family="ArialMT"><tspan y="-63.503007" x="11.279969"> </tspan></text>
<text xml:space="preserve" transform="matrix(1 0 -0 1 42.504 195.09699)" font-size="10.08" font-family="Verdana"><tspan y="-63.503007" x="14.082209 20.452769 30.25053 33.78861 36.55053 39.31245 45.68301 51.96285 58.33341 64.38141 67.91949 73.91708 79.15868 85.43852 91.48653 97.857089 104.227649 110.33613 113.098049">Em l&#x00ed;ngua espanhola</tspan></text>
<text xml:space="preserve" transform="matrix(1 0 -0 1 42.504 195.09699)" font-size="10.08" font-family="Verdana"><tspan y="-63.503007" x="119.14621 122.73533">. </tspan><tspan y="-51.242807" x=".00020599365 6.9601867">B)</tspan></text>
<text xml:space="preserve" transform="matrix(1 0 -0 1 42.504 195.09699)" font-size="10.08" font-family="ArialMT"><tspan y="-51.242807" x="11.280206"> </tspan></text>
<text xml:space="preserve" transform="matrix(1 0 -0 1 42.504 195.09699)" font-size="10.08" font-family="Verdana"><tspan y="-51.242807" x="14.160206 20.631566 30.459567 33.816205 37.656686 44.128046 50.36756 53.304204 57.866205 63.8638 70.33516 76.33276 80.636928 86.412769 92.884128 95.75693 99.14621">Em tupi-guarani. </tspan><tspan y="-39.002809" x=".00020599365 6.960246">C)</tspan></text>
<text xml:space="preserve" transform="matrix(1 0 -0 1 42.504 195.09699)" font-size="10.08" font-family="ArialMT"><tspan y="-39.002809" x="11.520206"> </tspan></text>
<text xml:space="preserve" transform="matrix(1 0 -0 1 42.504 195.09699)" font-size="10.08" font-family="Verdana"><tspan y="-39.002809" x="14.160207 20.631567 30.459568 33.816209 36.45717 39.329969 45.80133 51.798929 58.270288 64.26789 67.85637 74.09589 80.09349 84.17589 88.24821 94.487728 100.72724 107.1986 112.954288 118.20596 124.264049 127.96621">Em l&#x00ed;ngua portuguesa. </tspan><tspan y="-26.762808" x=".00020694733 7.680187">D)</tspan></text>
<text xml:space="preserve" transform="matrix(1 0 -0 1 42.504 195.09699)" font-size="10.08" font-family="ArialMT"><tspan y="-26.762808" x="12.240207"> </tspan></text>
<text xml:space="preserve" transform="matrix(1 0 -0 1 42.504 195.09699)" font-size="10.08" font-family="Verdana"><tspan y="-26.762808" x="14.160207 21.599247 27.596848 31.185328 34.058126 40.29764 43.17044 49.16804 58.996046 64.751728 68.3402 71.213008 76.96869 79.84149 85.09317 91.12101 94.58621">No idioma laico. </tspan><tspan y="-14.522808" x=".00020694733 6.4797675">E)</tspan></text>
<text xml:space="preserve" transform="matrix(1 0 -0 1 42.504 195.09699)" font-size="10.08" font-family="ArialMT"><tspan y="-14.522808" x="10.800207"> </tspan></text>
<text xml:space="preserve" transform="matrix(1 0 -0 1 42.504 195.09699)" font-size="10.08" font-family="Verdana"><tspan y="-14.522808" x="14.160207 21.599247 27.596848 31.185328 37.172849 43.180528 47.484689 53.966127 59.721807 64.97349 71.24325 74.11605 80.113658 83.70213 86.574939 92.33062 96.1711 99.0439 105.51526 111.51286 115.006229">No vern&#x00e1;culo latino. </tspan><tspan y="-2.2828084" x=".00020694733"> </tspan></text>
</g>
</svg>
