<svg xmlns="http://www.w3.org/2000/svg" xmlns:xlink="http://www.w3.org/1999/xlink" xmlns:inkscape="http://www.inkscape.org/namespaces/inkscape" version="1.1" width="595.44" height="841.92" viewBox="0 0 595.44 841.92">
<g>
<text xml:space="preserve" transform="matrix(1 0 -0 1 0 841.92)" font-size="7.92" font-family="Verdana"><tspan y="-795.58" x="42.504 47.541124 52.578245 57.615365 62.652486 68.17272 73.68504 79.197368 84.22656 89.26368 95.259128 101.96736 107.00448 113.00784">945_BASE_NM_DM</tspan></text>
<text xml:space="preserve" transform="matrix(1 0 -0 1 0 841.92)" font-size="7.92" font-family="Verdana"><tspan y="-795.58" x="120.05"> </tspan></text>
<text xml:space="preserve" transform="matrix(1 0 -0 1 0 841.92)" font-size="7.92" font-family="Verdana"><tspan y="-795.58" x="460.51 465.55003 470.59004 474.1886 479.2286 484.26863 487.8672 492.9072 498.1848 503.22483 508.26484 511.13475 516.17477 521.2147 524.8133 529.8533 535.1229 538.7215 543.7615">10/01/2025 15:14:17</tspan></text>
<text xml:space="preserve" transform="matrix(1 0 -0 1 0 841.92)" font-size="10.08" font-family="Verdana"><tspan y="-795.58" x="549.1"> </tspan></text>
<path transform="matrix(1,0,0,-1,0,841.92)" d="M41.064 804.48H554.614V804.95999H41.064Z" fill-rule="evenodd"/>
<text xml:space="preserve" transform="matrix(1 0 -0 1 0 841.92)" font-size="9.12" font-family="Verdana"><tspan y="-25.92" x="42.504 48.26784 53.54832 59.0568 63.6168 69.389759 74.16863 79.44911 84.984958 89.052478 92.17152 97.44288 103.215839 108.72431 114.24191 119.75039 123.343669 128.63327">Execu&#x00e7;&#x00e3;o: Fundatec</tspan></text>
<text xml:space="preserve" transform="matrix(1 0 -0 1 0 841.92)" font-size="9.12" font-family="Verdana"><tspan y="-25.92" x="133.25"> </tspan></text>
<path transform="matrix(1,0,0,-1,0,841.92)" d="M41.064 35.76H554.374V36.24004H41.064Z" fill-rule="evenodd"/>
<text xml:space="preserve" transform="matrix(1 0 -0 1 0 841.92)" font-size="9.12" font-family="Verdana"><tspan y="-14.88" x="250.9 257.85856 264.57087 270.80894 277.04704 284.00559 290.24366 293.3627 300.80464 307.51695 314.23838 317.84077 324.31596 327.91835 333.4177 339.65577">GUARDA MUNICIPAL</tspan></text>
<text xml:space="preserve" transform="matrix(1 0 -0 1 0 841.92)" font-size="9.12" font-family="Verdana"><tspan y="-14.88" x="344.54"> </tspan></text>
<text xml:space="preserve" transform="matrix(1 0 -0 1 0 841.92)" font-size="10.08" font-family="Verdana" font-weight="bold"><tspan y="-783.82" x="42.504 51.13248 59.31744 66.01056 73.1976 79.92096 87.60192 96.2304 99.11327 106.30031 113.48734">QUEST&#x00c3;O 10 </tspan></text>
<text xml:space="preserve" transform="matrix(1 0 -0 1 0 841.92)" font-size="10.08" font-family="Verdana" font-weight="bold"><tspan y="-783.82" x="116.45">&#x2013;</tspan></text>
<text xml:space="preserve" transform="matrix(1 0 -0 1 0 841.92)" font-size="10.08" font-family="Verdana" font-weight="bold"><tspan y="-783.82" x="123.65"> </tspan></text>
<text xml:space="preserve" transform="matrix(1 0 -0 1 0 841.92)" font-size="10.08" font-family="Verdana"><tspan y="-783.82" x="126.53 133.47512 138.72679 144.02887 146.66983 153.14119 159.13878 161.77974 167.78742 170.90213 176.89972 180.02452 186.02211 188.66307 192.7354 198.74308 202.81539 209.28675 215.28433 219.12482 221.99762 227.98514 233.98273 237.10753 243.10514 249.57649 255.58417 258.45698 261.32978 267.80116 273.79878 276.67158 281.92326 287.70918 290.83396 296.83155 299.95634 305.208 308.11106 314.10865 319.36033 324.43058 327.30339 330.66 333.5328 338.7845 344.84257 350.09425 356.09184 362.08943 365.2142 370.46589 376.4937 380.79789 384.89039 390.89808 394.96034 400.95793 404.0827 410.32225 416.31983 419.4446 424.48463 430.956 434.31266 440.32035 442.95124 447.02357 453.02116 456.14595 462.38548 468.38307 471.50785 477.50544 481.8096 487.82737 493.07905 499.13713 505.10447 508.22926 514.22689 517.3517 522.6034 528.38937 534.62887 541.10018 543.97299 548.05538 552.63168">Assinale a alternativa que indica a classifica&#x00e7;&#x00e3;o correta do sujeito da ora&#x00e7;&#x00e3;o a seguir: </tspan></text>
<text xml:space="preserve" transform="matrix(1 0 -0 1 0 841.92)" font-size="10.08" font-family="Verdana"><tspan y="-771.58" x="42.504">&#x201c;</tspan></text>
<text xml:space="preserve" transform="matrix(1 0 -0 1 0 841.92)" font-size="10.08" font-family="Verdana"><tspan y="-771.58" x="47.064 53.53536 58.78704 62.8896 68.64528 78.473278 84.47088 89.72256 93.109439 97.181758 103.17936 109.17696 112.76544 115.4064 125.2344 131.24208 135.31439 140.56607 146.59392 151.8456 155.23247 161.70383 167.70143 171.2899 181.1179 187.11551 193.35504 199.35265 202.94112 208.9387 214.69438 217.56719 223.56478">Estamos t&#x00e3;o imersos no modo avi&#x00e3;o</tspan></text>
<text xml:space="preserve" transform="matrix(1 0 -0 1 0 841.92)" font-size="10.08" font-family="Verdana"><tspan y="-771.58" x="229.78">&#x201d;</tspan></text>
<text xml:space="preserve" transform="matrix(1 0 -0 1 0 841.92)" font-size="10.08" font-family="Verdana"><tspan y="-771.58" x="234.34">.</tspan></text>
<text xml:space="preserve" transform="matrix(1 0 -0 1 0 841.92)" font-size="10.08" font-family="Verdana"><tspan y="-771.58" x="237.94"> </tspan></text>
<text xml:space="preserve" transform="matrix(1 0 -0 1 0 841.92)" font-size="7.92" font-family="Verdana"><tspan y="-761.5" x="42.504"> </tspan></text>
<text xml:space="preserve" transform="matrix(1 0 -0 1 0 841.92)" font-size="10.08" font-family="Verdana"><tspan y="-749.74" x="42.504 49.46402">A)</tspan></text>
<text xml:space="preserve" transform="matrix(1 0 -0 1 0 841.92)" font-size="10.08" font-family="ArialMT"><tspan y="-749.74" x="53.784"> </tspan></text>
<text xml:space="preserve" transform="matrix(1 0 -0 1 0 841.92)" font-size="10.08" font-family="Verdana"><tspan y="-749.74" x="56.664 63.609125 70.08048 73.437129 79.19281 82.06561 86.13793 92.13554 95.724018 101.72162 106.76162 113.23298 115.87394 119.94626 125.94386">Sujeito oculto.</tspan></text>
<text xml:space="preserve" transform="matrix(1 0 -0 1 0 841.92)" font-size="10.08" font-family="Verdana"><tspan y="-749.74" x="129.41"> </tspan></text>
<text xml:space="preserve" transform="matrix(1 0 -0 1 0 841.92)" font-size="10.08" font-family="Verdana"><tspan y="-737.5" x="42.504 49.46398">B)</tspan></text>
<text xml:space="preserve" transform="matrix(1 0 -0 1 0 841.92)" font-size="10.08" font-family="ArialMT"><tspan y="-737.5" x="53.784"> </tspan></text>
<text xml:space="preserve" transform="matrix(1 0 -0 1 0 841.92)" font-size="10.08" font-family="Verdana"><tspan y="-737.5" x="56.664 63.609125 70.08048 73.437129 79.19281 82.06561 86.13793 92.13554">Sujeito </tspan></text>
<text xml:space="preserve" transform="matrix(1 0 -0 1 0 841.92)" font-size="10.08" font-family="Verdana"><tspan y="-737.5" x="95.568 100.81968 103.49088 113.31888 119.558399 122.4312 128.18688">simples</tspan></text>
<text xml:space="preserve" transform="matrix(1 0 -0 1 0 841.92)" font-size="10.08" font-family="Verdana"><tspan y="-737.5" x="133.49">.</tspan></text>
<text xml:space="preserve" transform="matrix(1 0 -0 1 0 841.92)" font-size="10.08" font-family="Verdana"><tspan y="-737.5" x="137.09"> </tspan></text>
<text xml:space="preserve" transform="matrix(1 0 -0 1 0 841.92)" font-size="10.08" font-family="Verdana"><tspan y="-725.5" x="42.504 49.464044">C)</tspan></text>
<text xml:space="preserve" transform="matrix(1 0 -0 1 0 841.92)" font-size="10.08" font-family="ArialMT"><tspan y="-725.5" x="54.024"> </tspan></text>
<text xml:space="preserve" transform="matrix(1 0 -0 1 0 841.92)" font-size="10.08" font-family="Verdana"><tspan y="-725.5" x="56.664 63.609125 70.08048 73.437129 79.19281 82.06561 86.13793 92.13554">Sujeito </tspan></text>
<text xml:space="preserve" transform="matrix(1 0 -0 1 0 841.92)" font-size="10.08" font-family="Verdana"><tspan y="-725.5" x="95.568 100.81968 106.84752 116.675518 122.91503 128.91263 134.1643 138.26688">composto</tspan></text>
<text xml:space="preserve" transform="matrix(1 0 -0 1 0 841.92)" font-size="10.08" font-family="Verdana"><tspan y="-725.5" x="144.29">.</tspan></text>
<text xml:space="preserve" transform="matrix(1 0 -0 1 0 841.92)" font-size="10.08" font-family="Verdana"><tspan y="-725.5" x="147.65"> </tspan></text>
<text xml:space="preserve" transform="matrix(1 0 -0 1 0 841.92)" font-size="10.08" font-family="Verdana"><tspan y="-713.23" x="42.504 50.183984">D)</tspan></text>
<text xml:space="preserve" transform="matrix(1 0 -0 1 0 841.92)" font-size="10.08" font-family="ArialMT"><tspan y="-713.23" x="54.744"> </tspan></text>
<text xml:space="preserve" transform="matrix(1 0 -0 1 0 841.92)" font-size="10.08" font-family="Verdana"><tspan y="-713.23" x="56.664 63.609125 70.08048 73.437129 79.19281 82.06561 86.13793">Sujeito</tspan></text>
<text xml:space="preserve" transform="matrix(1 0 -0 1 0 841.92)" font-size="10.08" font-family="Verdana"><tspan y="-713.23" x="92.208"> </tspan></text>
<text xml:space="preserve" transform="matrix(1 0 -0 1 0 841.92)" font-size="10.08" font-family="Verdana"><tspan y="-713.23" x="95.568 98.4408 104.91216 110.90976 116.91744 120.97968 126.73537 131.03952 140.65586 143.52866 150.00002 155.9976 162.23714">indeterminado</tspan></text>
<text xml:space="preserve" transform="matrix(1 0 -0 1 0 841.92)" font-size="10.08" font-family="Verdana"><tspan y="-713.23" x="168.31">.</tspan></text>
<text xml:space="preserve" transform="matrix(1 0 -0 1 0 841.92)" font-size="10.08" font-family="Verdana"><tspan y="-713.23" x="171.67"> </tspan></text>
<text xml:space="preserve" transform="matrix(1 0 -0 1 0 841.92)" font-size="10.08" font-family="Verdana"><tspan y="-700.99" x="42.504 48.983564">E)</tspan></text>
<text xml:space="preserve" transform="matrix(1 0 -0 1 0 841.92)" font-size="10.08" font-family="ArialMT"><tspan y="-700.99" x="53.304"> </tspan></text>
<text xml:space="preserve" transform="matrix(1 0 -0 1 0 841.92)" font-size="10.08" font-family="Verdana"><tspan y="-700.99" x="56.664 64.59696 68.90112 74.908809 80.160488 86.21857 92.18593 95.77441 101.026088 106.812007 116.64 120.22848 125.26848 131.73984 135.09647 141.10414 143.73502 147.80735 153.80495">Ora&#x00e7;&#x00e3;o sem sujeito.</tspan></text>
<text xml:space="preserve" transform="matrix(1 0 -0 1 0 841.92)" font-size="10.08" font-family="Verdana"><tspan y="-700.99" x="157.27"> </tspan></text>
<text xml:space="preserve" transform="matrix(1 0 -0 1 0 841.92)" font-size="6.96" font-family="Verdana"><tspan y="-692.11" x="42.504"> </tspan></text>
<path transform="matrix(1,0,0,-1,0,841.92)" d="M41.064 678.43H554.374V690.43H41.064Z" fill="#bfbfbf" fill-rule="evenodd"/>
<text xml:space="preserve" transform="matrix(1 0 -0 1 0 841.92)" font-size="10.08" font-family="Verdana" font-weight="bold"><tspan y="-680.35" x="261.94 268.41139 275.3565 283.53138 288.79316 295.9802 302.21974 310.13255 317.32966 325.01063">LEGISLA&#x00c7;&#x00c3;O</tspan></text>
<text xml:space="preserve" transform="matrix(1 0 -0 1 0 841.92)" font-size="10.08" font-family="Verdana" font-weight="bold"><tspan y="-680.35" x="333.48"> </tspan></text>
<text xml:space="preserve" transform="matrix(1 0 -0 1 0 841.92)" font-size="7.92" font-family="Verdana" font-weight="bold"><tspan y="-670.51" x="42.504"> </tspan></text>
<text xml:space="preserve" transform="matrix(1 0 -0 1 0 841.92)" font-size="7.92" font-family="Verdana"><tspan y="-636.41" x="42.504"> </tspan></text>
<text xml:space="preserve" transform="matrix(1 0 -0 1 0 841.92)" font-size="10.08" font-family="Verdana"><tspan y="-624.41" x="48.744 53.06398">I.</tspan></text>
<text xml:space="preserve" transform="matrix(1 0 -0 1 0 841.92)" font-size="10.08" font-family="ArialMT"><tspan y="-624.41" x="56.664"> </tspan></text>
<text xml:space="preserve" transform="matrix(1 0 -0 1 0 841.92)" font-size="10.08" font-family="Verdana"><tspan y="-624.41" x="63.864 70.80912 74.3976 81.3528 87.3504 93.34801 97.65217 103.93201 109.90945 116.380809 122.37841 128.61794 134.61554 138.69794 141.57074">A Coordenadoria</tspan></text>
<text xml:space="preserve" transform="matrix(1 0 -0 1 0 841.92)" font-size="10.08" font-family="Verdana"><tspan y="-624.41" x="147.65">-</tspan></text>
<text xml:space="preserve" transform="matrix(1 0 -0 1 0 841.92)" font-size="10.08" font-family="Verdana"><tspan y="-624.41" x="151.97 159.8828 165.89048 170.19463 175.96039 178.83319 182.42166 188.6612 194.66887 198.24727 204.00296 210.01064 214.31479 216.96584 222.21752 225.12056 231.11815 236.15814 239.74662 245.75429 249.11093 255.58229 265.17848 268.76695 274.76454 279.0687 285.34855 291.326 297.32359 300.91206 306.90968 312.90727 316.49574 321.7474 327.7551 334.03495 340.2543 344.55848 350.57624 356.81578 362.06745 368.12553 371.67369 377.69145 384.1628 390.40235 393.0433 395.9161 401.1678 407.22587">Geral de Per&#x00ed;cias &#x00e9; um &#x00f3;rg&#x00e3;o da seguran&#x00e7;a p&#x00fa;blica.</tspan></text>
<text xml:space="preserve" transform="matrix(1 0 -0 1 0 841.92)" font-size="10.08" font-family="Verdana"><tspan y="-624.41" x="410.81"> </tspan></text>
<text xml:space="preserve" transform="matrix(1 0 -0 1 0 841.92)" font-size="10.08" font-family="Verdana"><tspan y="-612.41" x="44.664 48.983983 53.303964">II.</tspan></text>
<text xml:space="preserve" transform="matrix(1 0 -0 1 0 841.92)" font-size="10.08" font-family="ArialMT"><tspan y="-612.41" x="56.664"> </tspan></text>
<text xml:space="preserve" transform="matrix(1 0 -0 1 0 841.92)" font-size="10.08" font-family="Verdana"><tspan y="-612.41" x="63.864 70.80912 76.79664 79.66944 85.425128 88.066089 94.295528 100.53504 103.407848 108.447849 113.699527 116.60256 122.60016 125.47296 128.11392 134.58528 140.58287 144.88703 150.66286 156.89229 162.64797 168.8774 174.875 179.17916 185.459 191.19452 197.66588 200.53868 205.83069 211.8182 217.06989 223.12796 228.8534 235.08283 240.8385 247.06793 252.82361">A lei disciplinar&#x00e1; a organiza&#x00e7;&#x00e3;o e o </tspan></text>
<text xml:space="preserve" transform="matrix(1 0 -0 1 0 841.92)" font-size="10.08" font-family="Verdana"><tspan y="-612.41" x="259.3 262.65663 269.128 275.36753 280.6192 283.52226 289.51985 295.9912 301.7469 311.5749 317.58259 323.812 327.88435 333.88194 340.11137 346.3509 352.34849 357.3885 363.61793 369.6155 373.91969 380.19953 386.17698 392.17457 397.21458 403.444 407.5264 413.5341 418.78578 425.0656 431.04307 437.2826 442.53428 448.59236 454.5597 460.32548 463.19828 468.23829 474.4677 480.70726 486.46293 489.33573 495.3333 501.32084 506.5725 512.5802 518.59799 525.0693 529.3734 535.3912 541.6307 546.6707 552.66836">funcionamento dos &#x00f3;rg&#x00e3;os respons&#x00e1;veis pela seguran&#x00e7;a </tspan></text>
<text xml:space="preserve" transform="matrix(1 0 -0 1 0 841.92)" font-size="10.08" font-family="Verdana"><tspan y="-575.93" x="63.864 69.11568 75.12336 81.614879 86.65488 90.243358 96.48287 102.238559 108.709918 113.96159 117.59039 121.17887 126.21887 132.22655 136.5307 142.29647 145.16927 150.42095 156.44879 161.70047 165.08734 171.09502 174.67342 177.31438 183.78574 188.82573 192.89806 198.65373 201.52654 207.52413 212.7758 218.80365 224.81133 230.063 233.68172 237.03836 242.29004 248.31789 254.78925 258.37773">seus bens, servi&#x00e7;os e instala&#x00e7;&#x00f5;es, confo</tspan></text>
<text xml:space="preserve" transform="matrix(1 0 -0 1 0 841.92)" font-size="10.08" font-family="Verdana"><tspan y="-575.93" x="264.58 268.66239 278.4904 284.49809 288.07649 294.0741 296.9469 302.19859 308.2264 314.69779 319.94947 325.95716 330.05973 333.6482 339.64579 343.0024 345.8752 351.8829">rme dispuser a lei</tspan></text>
<text xml:space="preserve" transform="matrix(1 0 -0 1 0 841.92)" font-size="10.08" font-family="Verdana"><tspan y="-575.93" x="354.86">.</tspan></text>
<text xml:space="preserve" transform="matrix(1 0 -0 1 0 841.92)" font-size="10.08" font-family="Verdana"><tspan y="-575.93" x="358.22"> </tspan></text>
<text xml:space="preserve" transform="matrix(1 0 -0 1 0 841.92)" font-size="7.92" font-family="Verdana"><tspan y="-565.85" x="42.504"> </tspan></text>
<text xml:space="preserve" transform="matrix(1 0 -0 1 0 841.92)" font-size="10.08" font-family="Verdana"><tspan y="-554.06" x="42.504 50.436964 56.898244 62.895845 65.536808 70.78848 74.407199 80.16288 85.41456 89.51712 95.514728 101.51233 105.10081 110.352489 116.380329 120.46272 124.766887 130.77457 134.85698 140.61266 145.86434">Quais est&#x00e3;o corretas?</tspan></text>
<text xml:space="preserve" transform="matrix(1 0 -0 1 0 841.92)" font-size="10.08" font-family="Verdana"><tspan y="-554.06" x="151.25"> </tspan></text>
<text xml:space="preserve" transform="matrix(1 0 -0 1 0 841.92)" font-size="7.92" font-family="Verdana"><tspan y="-543.98" x="42.504"> </tspan></text>
<text xml:space="preserve" transform="matrix(1 0 -0 1 0 841.92)" font-size="10.08" font-family="Verdana"><tspan y="-531.98" x="42.504 49.46402">A)</tspan></text>
<text xml:space="preserve" transform="matrix(1 0 -0 1 0 841.92)" font-size="10.08" font-family="ArialMT"><tspan y="-531.98" x="53.784"> </tspan></text>
<text xml:space="preserve" transform="matrix(1 0 -0 1 0 841.92)" font-size="10.08" font-family="Verdana"><tspan y="-531.98" x="56.664 63.609125 69.84864 75.85632 82.317607 88.07329 93.32497 96.94368 101.25792">Apenas I.</tspan></text>
<text xml:space="preserve" transform="matrix(1 0 -0 1 0 841.92)" font-size="10.08" font-family="Verdana"><tspan y="-531.98" x="104.69"> </tspan></text>
<text xml:space="preserve" transform="matrix(1 0 -0 1 0 841.92)" font-size="10.08" font-family="Verdana"><tspan y="-519.98" x="42.504 49.46398">B)</tspan></text>
<text xml:space="preserve" transform="matrix(1 0 -0 1 0 841.92)" font-size="10.08" font-family="ArialMT"><tspan y="-519.98" x="53.784"> </tspan></text>
<text xml:space="preserve" transform="matrix(1 0 -0 1 0 841.92)" font-size="10.08" font-family="Verdana"><tspan y="-519.98" x="56.664 63.609125 69.84864 75.85632 82.317607 88.07329 93.32497 96.94368 101.026088 105.340328">Apenas II.</tspan></text>
<text xml:space="preserve" transform="matrix(1 0 -0 1 0 841.92)" font-size="10.08" font-family="Verdana"><tspan y="-519.98" x="108.77"> </tspan></text>
<text xml:space="preserve" transform="matrix(1 0 -0 1 0 841.92)" font-size="10.08" font-family="Verdana"><tspan y="-507.74" x="42.504 49.464044">C)</tspan></text>
<text xml:space="preserve" transform="matrix(1 0 -0 1 0 841.92)" font-size="10.08" font-family="ArialMT"><tspan y="-507.74" x="54.024"> </tspan></text>
<text xml:space="preserve" transform="matrix(1 0 -0 1 0 841.92)" font-size="10.08" font-family="Verdana"><tspan y="-507.74" x="56.664 63.609125 69.84864 75.85632 82.317607 88.07329 93.32497 96.94368 101.026088 104.61456 110.622249 113.97888 118.29312 122.60736">Apenas I e II.</tspan></text>
<text xml:space="preserve" transform="matrix(1 0 -0 1 0 841.92)" font-size="10.08" font-family="Verdana"><tspan y="-507.74" x="126.05"> </tspan></text>
<text xml:space="preserve" transform="matrix(1 0 -0 1 0 841.92)" font-size="10.08" font-family="Verdana"><tspan y="-495.74" x="42.504 50.183984">D)</tspan></text>
<text xml:space="preserve" transform="matrix(1 0 -0 1 0 841.92)" font-size="10.08" font-family="ArialMT"><tspan y="-495.74" x="54.744"> </tspan></text>
<text xml:space="preserve" transform="matrix(1 0 -0 1 0 841.92)" font-size="10.08" font-family="Verdana"><tspan y="-495.74" x="56.664 63.609125 69.84864 75.85632 82.317607 88.07329 93.32497 96.94368 101.026088 105.340328 108.9288 114.68449 118.272968 122.35537 126.66961 130.98384">Apenas II e III.</tspan></text>
<text xml:space="preserve" transform="matrix(1 0 -0 1 0 841.92)" font-size="10.08" font-family="Verdana"><tspan y="-495.74" x="134.45"> </tspan></text>
<text xml:space="preserve" transform="matrix(1 0 -0 1 0 841.92)" font-size="10.08" font-family="Verdana"><tspan y="-483.5" x="42.504 48.983564">E)</tspan></text>
<text xml:space="preserve" transform="matrix(1 0 -0 1 0 841.92)" font-size="10.08" font-family="ArialMT"><tspan y="-483.5" x="53.304"> </tspan></text>
<text xml:space="preserve" transform="matrix(1 0 -0 1 0 841.92)" font-size="10.08" font-family="Verdana"><tspan y="-483.5" x="56.664 60.97824 64.576808 68.16528 72.24769 76.56193 80.150409 86.15809 89.514728 93.828968 97.91137 102.22561">I, II e III.</tspan></text>
<text xml:space="preserve" transform="matrix(1 0 -0 1 0 841.92)" font-size="10.08" font-family="Verdana"><tspan y="-483.5" x="105.65"> </tspan></text>
<text xml:space="preserve" transform="matrix(1 0 -0 1 0 841.92)" font-size="7.92" font-family="Verdana"><tspan y="-473.42" x="42.504"> </tspan></text>
<path transform="matrix(1,0,0,-1,0,841.92)" d="M41.064 470.28H554.374V470.76H41.064Z" fill-rule="evenodd"/>
<text xml:space="preserve" transform="matrix(1 0 -0 1 0 841.92)" font-size="7.92" font-family="Verdana"><tspan y="-462.36" x="42.504"> </tspan></text>
<text xml:space="preserve" transform="matrix(1 0 -0 1 0 841.92)" font-size="10.08" font-family="Verdana" font-weight="bold"><tspan y="-450.36" x="42.504 51.13248 59.31744 66.01056 73.1976 79.92096 87.60192 96.2304 99.355197 106.54223 113.72926">QUEST&#x00c3;O 12 </tspan></text>
<text xml:space="preserve" transform="matrix(1 0 -0 1 0 841.92)" font-size="10.08" font-family="Verdana" font-weight="bold"><tspan y="-450.36" x="116.69">&#x2013;</tspan></text>
<text xml:space="preserve" transform="matrix(1 0 -0 1 0 841.92)" font-size="10.08" font-family="Verdana" font-weight="bold"><tspan y="-450.36" x="123.89"> </tspan></text>
<text xml:space="preserve" transform="matrix(1 0 -0 1 0 841.92)" font-size="10.08" font-family="Verdana"><tspan y="-450.36" x="127.01 134.69097 140.44664 143.80329 149.80088 155.05255 161.0804 165.38455 171.6644 177.64185 180.76665 186.01833 192.04618">De acordo com</tspan></text>
<text xml:space="preserve" transform="matrix(1 0 -0 1 0 841.92)" font-size="10.08" font-family="Verdana"><tspan y="-450.36" x="201.67"> </tspan></text>
<text xml:space="preserve" transform="matrix(1 0 -0 1 0 841.92)" font-size="10.08" font-family="Verdana"><tspan y="-450.36" x="205.03 211.0276 214.1524 220.62377 225.66376 229.73609 235.73368 239.57416 246.04552 250.11785 255.8735 259.23014 266.66917 272.66676 277.91844 280.82148 286.57716 293.04853 299.0461 301.68708 305.0437 311.28324 317.0389 320.39555 324.70979 330.7074 337.17878 343.17637 346.04917 352.2887 358.2863 364.2839 370.2916 373.64823 380.60343 386.3591 391.61079 394.51383 400.2695 403.1423 406.74089">o Estatuto Nacional da Igualdade Racial, </tspan></text>
<text xml:space="preserve" transform="matrix(1 0 -0 1 0 841.92)" font-size="10.08" font-family="Verdana"><tspan y="-450.36" x="410.33 416.08567 422.55705 428.55464 431.1956 434.0684 439.32008">analise</tspan></text>
<text xml:space="preserve" transform="matrix(1 0 -0 1 0 841.92)" font-size="10.08" font-family="Verdana"><tspan y="-450.36" x="445.13"> </tspan></text>
<text xml:space="preserve" transform="matrix(1 0 -0 1 0 841.92)" font-size="10.08" font-family="Verdana"><tspan y="-450.36" x="448.49 454.48759 459.5276 462.88423 468.8818 473.9218 479.1735 485.18119 489.28376 493.35609 495.99705 501.98457 507.98216 513.02218 516.3788 522.3764 528.374 534.37167 537.24447 543.23196 549.2295 552.82809">as assertivas abaixo, </tspan></text>
<text xml:space="preserve" transform="matrix(1 0 -0 1 0 841.92)" font-size="10.08" font-family="Verdana"><tspan y="-438.12" x="42.504 48.501604 53.75328 59.05536 61.69632 68.16768 74.16528 77.038089 82.79377 89.26513 95.50465">assinalando</tspan></text>
<text xml:space="preserve" transform="matrix(1 0 -0 1 0 841.92)" font-size="10.08" font-family="Verdana"><tspan y="-438.12" x="101.57"> </tspan></text>
<text xml:space="preserve" transform="matrix(1 0 -0 1 0 841.92)" font-size="10.08" font-family="Verdana"><tspan y="-438.12" x="104.93">V</tspan></text>
<text xml:space="preserve" transform="matrix(1 0 -0 1 0 841.92)" font-size="10.08" font-family="Verdana"><tspan y="-438.12" x="111.89 115.48856 119.07704 124.32872 130.11464 133.70311 139.69063 145.6983 150.00246 156.25206 162.24965 168.24726 174.25493 177.11765 181.4218 187.19763 192.44931 196.07811 199.66658 205.66419 211.90372 215.49219 221.24788 224.84644 228.4349 233.68659 239.4725 243.06098 246.64945 252.40512 255.27793 260.5296 266.58769">, se verdadeiras, ou F, se falsas</tspan></text>
<text xml:space="preserve" transform="matrix(1 0 -0 1 0 841.92)" font-size="10.08" font-family="Verdana"><tspan y="-438.12" x="272.02">.</tspan></text>
<text xml:space="preserve" transform="matrix(1 0 -0 1 0 841.92)" font-size="10.08" font-family="Verdana"><tspan y="-438.12" x="275.64"> </tspan></text>
<text xml:space="preserve" transform="matrix(1 0 -0 1 0 841.92)" font-size="10.08" font-family="Verdana"><tspan y="-438.12" x="279"> </tspan></text>
<text xml:space="preserve" transform="matrix(1 0 -0 1 0 841.92)" font-size="7.92" font-family="Verdana"><tspan y="-428.28" x="42.504"> </tspan></text>
<text xml:space="preserve" transform="matrix(1 0 -0 1 0 841.92)" font-size="10.08" font-family="Verdana"><tspan y="-416.28" x="42.504 47.080324 50.658723 54.247205">(  )</tspan></text>
<text xml:space="preserve" transform="matrix(1 0 -0 1 0 841.92)" font-size="10.08" font-family="ArialMT"><tspan y="-416.28" x="58.584"> </tspan></text>
<text xml:space="preserve" transform="matrix(1 0 -0 1 0 841.92)" font-size="10.08" font-family="Verdana"><tspan y="-416.28" x="63.864 71.79696 75.14352 81.14111 84.013919 88.31808 94.32576 96.9768 101.04912 107.04672 110.40336 116.15904 119.28384 122.15664 125.02944 131.02704 137.03472 141.33887 147.58847 153.58606 159.82559 165.58127 168.93791 175.17745 180.93312 184.28977 189.54145 195.56929 201.80883 207.0605 212.36258 215.00354 221.01122 227.24066 232.49234 235.39539 241.15106 244.5077 250.26338 253.62003 259.85957 265.61524 268.97187 274.22355 278.55796 284.31364 290.785 296.03669 301.8226 304.9474 310.95509 314.3117 320.3093 326.3069 329.43168 332.30448 334.94544 340.93296 345.23713 351.01298 354.3696 360.3773 366.13298 372.14067 376.44483 381.4949 384.3677 389.4077 392.28053 398.2781 401.63475 407.87428 413.87187 418.91188 422.2685 427.3085 433.77989 436.42085 440.49317 446.49076 451.74244 454.8874 459.19157 465.19926 467.85029 470.72309 476.7207 479.5935 485.5911 490.84278 496.8706 502.12229 505.50917 511.50679 517.51449 520.6292 530.4572 536.45486 540.52719 544.60958 547.2505 552.5425">O direito &#x00e0; liberdade de consci&#x00ea;ncia e de cren&#x00e7;a e ao livre exerc&#x00ed;cio dos cultos religiosos de matriz </tspan></text>
<text xml:space="preserve" transform="matrix(1 0 -0 1 0 841.92)" font-size="10.08" font-family="Verdana"><tspan y="-404.28" x="63.864 69.8616 73.45008 77.75424 80.63712 85.8888 91.67472 98.14608 104.143688 112.05648 117.30816 123.09408 132.92208 139.1616 143.46576 149.47344 155.2392 161.71056 167.95009 173.95777 181.86048 187.85807 195.77086 199.1275 205.36704 211.8384 218.07793 224.07552 229.3272 235.38527 241.35263 249.26543 255.2731 263.1758 269.1734 277.0862 286.9142 292.6699 298.90943 305.3808 309.22129 315.22898 321.69026 326.94194 333 338.96736 342.56593 350.47874 356.71827 362.71586 367.02003 374.9429 377.58387 384.05525 386.6962 391.94789 394.85093 400.6066 404.67893 407.3199 413.3074 419.305 427.2178 433.45735 437.53974 440.41255 446.40007 452.39765 458.63719 464.63478 468.23335 476.14616 482.38569 488.39338 496.05418 498.92698 505.39836 510.43836 514.2788 517.1516 520.99209 527.4634 530.1043 535.356 541.38388 547.39157 552.4215">africana compreende a funda&#x00e7;&#x00e3;o e a manuten&#x00e7;&#x00e3;o, por iniciativa privada, de institui&#x00e7;&#x00f5;es </tspan></text>
<text xml:space="preserve" transform="matrix(1 0 -0 1 0 841.92)" font-size="10.08" font-family="Verdana"><tspan y="-392.04" x="63.864 70.103519 76.1112 82.57248 88.58016 91.9368 94.8096 100.06128 105.8472 112.086719 116.159038 122.16672 127.418399 130.7952 133.43616 136.30896 142.5485 148.54608 154.78562 160.7832 166.03488 169.6536 175.40927 180.66095 184.27967 188.58382 194.35965 199.61133 205.89118 211.89885 216.91869 220.99102 223.63198 229.61949 235.61708 240.86876 244.25563 249.50731 255.53516 262.00654 267.7622 270.635 275.8867 281.18879 287.18638 292.94206 298.19374 301.81245 305.89485 311.90254 314.76527 317.63807 323.63569 326.50849 332.50608 337.75776 343.81584">beneficentes ligadas &#x00e0;s respectivas convic&#x00e7;&#x00f5;es religiosas</tspan></text>
<text xml:space="preserve" transform="matrix(1 0 -0 1 0 841.92)" font-size="10.08" font-family="Verdana"><tspan y="-392.04" x="349.34">.</tspan></text>
<text xml:space="preserve" transform="matrix(1 0 -0 1 0 841.92)" font-size="10.08" font-family="Verdana"><tspan y="-392.04" x="352.7"> </tspan></text>
<text xml:space="preserve" transform="matrix(1 0 -0 1 0 841.92)" font-size="10.08" font-family="Verdana"><tspan y="-379.78" x="42.504 47.080324 50.658723 54.247205">(  )</tspan></text>
<text xml:space="preserve" transform="matrix(1 0 -0 1 0 841.92)" font-size="10.08" font-family="ArialMT"><tspan y="-379.78" x="58.584"> </tspan></text>
<text xml:space="preserve" transform="matrix(1 0 -0 1 0 841.92)" font-size="10.08" font-family="Verdana"><tspan y="-379.78" x="63.864 71.79696 76.091037 82.08863 88.086238 94.32575 100.333438 104.405757 108.71999 114.95951 120.94703 126.95471 131.98464 138.22417 142.2965 145.1693 151.15682 156.91249">O Poder Executivo </tspan></text>
<text xml:space="preserve" transform="matrix(1 0 -0 1 0 841.92)" font-size="10.08" font-family="Verdana"><tspan y="-379.78" x="161.35">F</tspan></text>
<text xml:space="preserve" transform="matrix(1 0 -0 1 0 841.92)" font-size="10.08" font-family="Verdana"><tspan y="-379.78" x="167.11 173.11768 179.34712 185.1028 189.40695 195.42472 198.06568 202.37992 208.13559 211.00839 217.00598 223.24552 229.24312 233.54727 239.56504 243.86919 249.64502 253.95926 259.71495 264.02919 270.2687 276.2764 281.52809 287.30393 293.7753 299.76283 305.5185 308.15946 314.14698 320.15467 324.45884 330.22459 334.53883 340.77836 346.77595 349.64875 352.2897 356.1302 359.003 364.25468 370.31275 375.3225 379.63676 385.63438 392.10575 398.34529 400.98625 403.85905 409.11073 415.1688 420.17857 424.4928 430.24848 435.50016 441.78 447.7877 452.80754 455.68034 461.67793 464.31889 469.57057 473.67314 479.66065 485.65824 488.2992 492.37153 498.3691 504.60865 510.60624 515.64627 519.96047 526.19998 532.1976 536.5017 542.2776 546.5918 552.58938">ederal elaborar&#x00e1; e desenvolver&#x00e1; pol&#x00ed;ticas p&#x00fa;blicas especiais voltadas para o </tspan></text>
<text xml:space="preserve" transform="matrix(1 0 -0 1 0 841.92)" font-size="10.08" font-family="Verdana"><tspan y="-367.78" x="63.864 70.103519 76.1112 81.36288 87.37056 93.620159 99.60767 105.60528 108.47808 114.233768 117.10657 126.70273 132.7104 138.93985 143.01218 149.00978 152.13459 157.17458 163.64594 168.68593 172.75826 178.51393 184.98529 189.05762 194.8133 200.80081 206.80849 209.43936 212.56417 218.8037 224.8013 229.8413 232.9661 237.27025 243.04608 252.87409 258.87168 265.1112 271.1189 276.37059 281.66258 287.41825 293.65779 297.7301 303.7378 308.7677 311.8925 318.13203 324.1296 329.16963 332.2944 337.54609 343.5739 353.17008 359.64146 365.88099 368.75379 374.99333 380.9909 387.23045 392.9861 398.2378 401.38276 407.62229 413.61988 418.65989 421.78468 427.7823 434.25367 436.89463 439.76744 445.765 455.59303 461.83256 467.83015 473.08183 476.46873 479.5935 483.89768 489.90538 495.1873 501.1849 507.1926 509.8235 513.8958 519.89346 526.36477 532.60427 538.3599 541.48477 547.48239 552.5224">desenvolvimento sustent&#x00e1;vel dos remanescentes das comunidades dos quilombos, respeitando as </tspan></text>
<text xml:space="preserve" transform="matrix(1 0 -0 1 0 841.92)" font-size="10.08" font-family="Verdana"><tspan y="-355.54" x="63.864 67.93632 72.24048 78.25824 84.49776 87.13872 92.390399 98.418239 104.42592 109.6776 113.28623 119.52575 125.28143 128.8699 135.10944 139.41359 145.43135 149.27184 155.27951 160.53119 166.54895 172.54656 176.13503 182.13262 191.96062 197.95822 200.83103 206.5867 213.05806 217.13039 222.88607 225.75887 229.34734 235.58687 241.34255 246.59423 250.21294 255.46462 261.49244 271.0886 277.32814 283.7995 286.6723 292.91184 298.90943 304.90705 310.91474 316.1664">tradi&#x00e7;&#x00f5;es de prote&#x00e7;&#x00e3;o ambiental das comunidades.</tspan></text>
<text xml:space="preserve" transform="matrix(1 0 -0 1 0 841.92)" font-size="10.08" font-family="Verdana"><tspan y="-355.54" x="320.04"> </tspan></text>
<text xml:space="preserve" transform="matrix(1 0 -0 1 0 841.92)" font-size="10.08" font-family="Verdana"><tspan y="-343.3" x="42.504 47.080324 50.658723 54.247205">(  )</tspan></text>
<text xml:space="preserve" transform="matrix(1 0 -0 1 0 841.92)" font-size="10.08" font-family="ArialMT"><tspan y="-343.3" x="58.584"> </tspan></text>
<text xml:space="preserve" transform="matrix(1 0 -0 1 0 841.92)" font-size="10.08" font-family="Verdana"><tspan y="-343.3" x="63.864 71.79696 77.04864 83.05631 89.05392 95.293437 101.04912 107.52048 111.360958 117.36864 122.620319 128.38608 131.97455 134.61551 141.08687 146.84255 153.3139 158.56558 164.3515">Os agentes financei</tspan></text>
<text xml:space="preserve" transform="matrix(1 0 -0 1 0 841.92)" font-size="10.08" font-family="Verdana"><tspan y="-343.3" x="167.35 171.65416 177.67192 182.9236 186.5524 192.53992 198.53752 205.00888 211.24842 213.88938 216.76218 222.01386 228.0417 233.0817 239.06922 245.06682 251.30635 257.29386 263.5334 267.61579 270.4886 276.4761 282.4737 288.71324 294.71083 299.9625 303.5913 309.3369 315.57646 319.8806 325.89839 335.72639 341.72398 347.7115 353.71919 358.02336 364.031 370.0286 376.0161 382.0137 387.26539 393.2932 399.0489 404.30058 410.31834 416.55787 422.55546 426.85963 432.63548 438.623 444.37867 447.25148 453.24906 459.4886 462.12956 465.00236 467.6433 472.9353 478.92283 483.227 489.23469 495.23228 501.2198 506.97547 512.2272 518.23489 523.29507 528.54678 534.5746 540.5621 546.8016 552.55728">ros, p&#x00fa;blicos ou privados, promover&#x00e3;o a&#x00e7;&#x00f5;es para viabilizar o acesso da </tspan></text>
<text xml:space="preserve" transform="matrix(1 0 -0 1 0 841.92)" font-size="10.08" font-family="Verdana"><tspan y="-331.3" x="63.864 70.103519 76.10112 82.34064 88.812 91.6848 97.6824 102.93408 108.992168 114.959529 118.31616 124.78752 130.7952 137.02465 141.3288 147.10463 150.6931 156.69069 162.6883 167.93997 171.55869 174.91533 177.55629 184.02765 190.02524 196.26477 201.51645 204.4195 210.17517 220.00318 226.01085 232.2403 236.31262 242.31023 247.5619 250.94878 257.42015 263.41773 269.41535 272.28816 276.36048 282.35807 287.39808 290.27088 296.26847 302.73985 308.4955 311.36833 316.62">popula&#x00e7;&#x00e3;o negra aos financiamentos habitacionais.</tspan></text>
<text xml:space="preserve" transform="matrix(1 0 -0 1 0 841.92)" font-size="10.08" font-family="Verdana"><tspan y="-331.3" x="320.28"> </tspan></text>
<text xml:space="preserve" transform="matrix(1 0 -0 1 0 841.92)" font-size="7.92" font-family="Verdana"><tspan y="-321.22" x="42.504"> </tspan></text>
<text xml:space="preserve" transform="matrix(1 0 -0 1 0 841.92)" font-size="10.08" font-family="Verdana"><tspan y="-309.46" x="42.504 49.44912 53.0376 59.035203 63.339365 69.6192 75.35472 85.18272 88.771198 94.02287 100.05071 104.35487 108.44736 114.45504 118.51728 124.514888 128.10337 134.10097 140.10865 143.68704 149.92658 154.23073 160.00656 166.01424 172.24369 177.49536 183.76512 186.63793 196.46593 202.2216 208.46114 212.53347 218.53107 222.11954 228.35907 234.35668 239.60836 243.22707 249.4666 255.46419 259.54658 265.55427 271.7837 275.85603 281.8637 286.89363 292.9013 298.15299 301.7717 305.36018 311.5997 317.6074 320.96403 326.2157 328.8869 338.7149 344.7125 348.30097 354.5405 360.5381 364.84226 370.6181 374.20658 380.4461 386.4437 389.3165 395.30403 401.3016 404.90019 408.2568 414.2645">A ordem correta de preenchimento dos par&#x00ea;nteses, de cima para baixo, &#x00e9;:</tspan></text>
<text xml:space="preserve" transform="matrix(1 0 -0 1 0 841.92)" font-size="10.08" font-family="Verdana"><tspan y="-309.46" x="418.97"> </tspan></text>
<text xml:space="preserve" transform="matrix(1 0 -0 1 0 841.92)" font-size="7.92" font-family="Verdana"><tspan y="-299.35" x="42.504"> </tspan></text>
<text xml:space="preserve" transform="matrix(1 0 -0 1 0 841.92)" font-size="10.08" font-family="Verdana"><tspan y="-287.35" x="42.504 49.46402">A)</tspan></text>
<text xml:space="preserve" transform="matrix(1 0 -0 1 0 841.92)" font-size="10.08" font-family="ArialMT"><tspan y="-287.35" x="53.784"> </tspan></text>
<text xml:space="preserve" transform="matrix(1 0 -0 1 0 841.92)" font-size="10.08" font-family="Verdana"><tspan y="-287.35" x="56.664 63.624025">V </tspan></text>
<text xml:space="preserve" transform="matrix(1 0 -0 1 0 841.92)" font-size="10.08" font-family="Verdana"><tspan y="-287.35" x="67.224">&#x2013;</tspan></text>
<text xml:space="preserve" transform="matrix(1 0 -0 1 0 841.92)" font-size="10.08" font-family="Verdana"><tspan y="-287.35" x="73.464"> </tspan></text>
<text xml:space="preserve" transform="matrix(1 0 -0 1 0 841.92)" font-size="10.08" font-family="Verdana"><tspan y="-287.35" x="77.064 83.78372">V </tspan></text>
<text xml:space="preserve" transform="matrix(1 0 -0 1 0 841.92)" font-size="10.08" font-family="Verdana"><tspan y="-287.35" x="87.384">&#x2013;</tspan></text>
<text xml:space="preserve" transform="matrix(1 0 -0 1 0 841.92)" font-size="10.08" font-family="Verdana"><tspan y="-287.35" x="93.888"> </tspan></text>
<text xml:space="preserve" transform="matrix(1 0 -0 1 0 841.92)" font-size="10.08" font-family="Verdana"><tspan y="-287.35" x="97.248 104.20802">V.</tspan></text>
<text xml:space="preserve" transform="matrix(1 0 -0 1 0 841.92)" font-size="10.08" font-family="Verdana"><tspan y="-287.35" x="107.57"> </tspan></text>
<text xml:space="preserve" transform="matrix(1 0 -0 1 0 841.92)" font-size="10.08" font-family="Verdana"><tspan y="-275.35" x="42.504 49.46398">B)</tspan></text>
<text xml:space="preserve" transform="matrix(1 0 -0 1 0 841.92)" font-size="10.08" font-family="ArialMT"><tspan y="-275.35" x="53.784"> </tspan></text>
<text xml:space="preserve" transform="matrix(1 0 -0 1 0 841.92)" font-size="10.08" font-family="Verdana"><tspan y="-275.35" x="56.664 63.624025">V </tspan></text>
<text xml:space="preserve" transform="matrix(1 0 -0 1 0 841.92)" font-size="10.08" font-family="Verdana"><tspan y="-275.35" x="67.224">&#x2013;</tspan></text>
<text xml:space="preserve" transform="matrix(1 0 -0 1 0 841.92)" font-size="10.08" font-family="Verdana"><tspan y="-275.35" x="73.464"> </tspan></text>
<text xml:space="preserve" transform="matrix(1 0 -0 1 0 841.92)" font-size="10.08" font-family="Verdana"><tspan y="-275.35" x="77.064 82.824008">F </tspan></text>
<text xml:space="preserve" transform="matrix(1 0 -0 1 0 841.92)" font-size="10.08" font-family="Verdana"><tspan y="-275.35" x="86.184">&#x2013;</tspan></text>
<text xml:space="preserve" transform="matrix(1 0 -0 1 0 841.92)" font-size="10.08" font-family="Verdana"><tspan y="-275.35" x="92.688"> </tspan></text>
<text xml:space="preserve" transform="matrix(1 0 -0 1 0 841.92)" font-size="10.08" font-family="Verdana"><tspan y="-275.35" x="96.048 103.00802">V.</tspan></text>
<text xml:space="preserve" transform="matrix(1 0 -0 1 0 841.92)" font-size="10.08" font-family="Verdana"><tspan y="-275.35" x="106.61"> </tspan></text>
<text xml:space="preserve" transform="matrix(1 0 -0 1 0 841.92)" font-size="10.08" font-family="Verdana"><tspan y="-263.11" x="42.504 49.464044">C)</tspan></text>
<text xml:space="preserve" transform="matrix(1 0 -0 1 0 841.92)" font-size="10.08" font-family="ArialMT"><tspan y="-263.11" x="54.024"> </tspan></text>
<text xml:space="preserve" transform="matrix(1 0 -0 1 0 841.92)" font-size="10.08" font-family="Verdana"><tspan y="-263.11" x="56.664 63.624025">V </tspan></text>
<text xml:space="preserve" transform="matrix(1 0 -0 1 0 841.92)" font-size="10.08" font-family="Verdana"><tspan y="-263.11" x="67.224">&#x2013;</tspan></text>
<text xml:space="preserve" transform="matrix(1 0 -0 1 0 841.92)" font-size="10.08" font-family="Verdana"><tspan y="-263.11" x="73.464"> </tspan></text>
<text xml:space="preserve" transform="matrix(1 0 -0 1 0 841.92)" font-size="10.08" font-family="Verdana"><tspan y="-263.11" x="77.064 83.78372">V </tspan></text>
<text xml:space="preserve" transform="matrix(1 0 -0 1 0 841.92)" font-size="10.08" font-family="Verdana"><tspan y="-263.11" x="87.384">&#x2013;</tspan></text>
<text xml:space="preserve" transform="matrix(1 0 -0 1 0 841.92)" font-size="10.08" font-family="Verdana"><tspan y="-263.11" x="93.888"> </tspan></text>
<text xml:space="preserve" transform="matrix(1 0 -0 1 0 841.92)" font-size="10.08" font-family="Verdana"><tspan y="-263.11" x="97.248 103.008">F.</tspan></text>
<text xml:space="preserve" transform="matrix(1 0 -0 1 0 841.92)" font-size="10.08" font-family="Verdana"><tspan y="-263.11" x="106.61"> </tspan></text>
<text xml:space="preserve" transform="matrix(1 0 -0 1 0 841.92)" font-size="10.08" font-family="Verdana"><tspan y="-251.11" x="42.504 50.183984">D)</tspan></text>
<text xml:space="preserve" transform="matrix(1 0 -0 1 0 841.92)" font-size="10.08" font-family="ArialMT"><tspan y="-251.11" x="54.744"> </tspan></text>
<text xml:space="preserve" transform="matrix(1 0 -0 1 0 841.92)" font-size="10.08" font-family="Verdana"><tspan y="-251.11" x="56.664 62.424005">F </tspan></text>
<text xml:space="preserve" transform="matrix(1 0 -0 1 0 841.92)" font-size="10.08" font-family="Verdana"><tspan y="-251.11" x="66.024">&#x2013;</tspan></text>
<text xml:space="preserve" transform="matrix(1 0 -0 1 0 841.92)" font-size="10.08" font-family="Verdana"><tspan y="-251.11" x="72.504"> </tspan></text>
<text xml:space="preserve" transform="matrix(1 0 -0 1 0 841.92)" font-size="10.08" font-family="Verdana"><tspan y="-251.11" x="76.104 81.62399">F </tspan></text>
<text xml:space="preserve" transform="matrix(1 0 -0 1 0 841.92)" font-size="10.08" font-family="Verdana"><tspan y="-251.11" x="85.224">&#x2013;</tspan></text>
<text xml:space="preserve" transform="matrix(1 0 -0 1 0 841.92)" font-size="10.08" font-family="Verdana"><tspan y="-251.11" x="91.488"> </tspan></text>
<text xml:space="preserve" transform="matrix(1 0 -0 1 0 841.92)" font-size="10.08" font-family="Verdana"><tspan y="-251.11" x="95.088 102.04802">V.</tspan></text>
<text xml:space="preserve" transform="matrix(1 0 -0 1 0 841.92)" font-size="10.08" font-family="Verdana"><tspan y="-251.11" x="105.41"> </tspan></text>
<text xml:space="preserve" transform="matrix(1 0 -0 1 0 841.92)" font-size="10.08" font-family="Verdana"><tspan y="-238.87" x="42.504 48.983564">E)</tspan></text>
<text xml:space="preserve" transform="matrix(1 0 -0 1 0 841.92)" font-size="10.08" font-family="ArialMT"><tspan y="-238.87" x="53.304"> </tspan></text>
<text xml:space="preserve" transform="matrix(1 0 -0 1 0 841.92)" font-size="10.08" font-family="Verdana"><tspan y="-238.87" x="56.664 62.424005">F </tspan></text>
<text xml:space="preserve" transform="matrix(1 0 -0 1 0 841.92)" font-size="10.08" font-family="Verdana"><tspan y="-238.87" x="66.024">&#x2013;</tspan></text>
<text xml:space="preserve" transform="matrix(1 0 -0 1 0 841.92)" font-size="10.08" font-family="Verdana"><tspan y="-238.87" x="72.504"> </tspan></text>
<text xml:space="preserve" transform="matrix(1 0 -0 1 0 841.92)" font-size="10.08" font-family="Verdana"><tspan y="-238.87" x="75.864 82.82402">V </tspan></text>
<text xml:space="preserve" transform="matrix(1 0 -0 1 0 841.92)" font-size="10.08" font-family="Verdana"><tspan y="-238.87" x="86.184">&#x2013;</tspan></text>
<text xml:space="preserve" transform="matrix(1 0 -0 1 0 841.92)" font-size="10.08" font-family="Verdana"><tspan y="-238.87" x="92.688"> </tspan></text>
<text xml:space="preserve" transform="matrix(1 0 -0 1 0 841.92)" font-size="10.08" font-family="Verdana"><tspan y="-238.87" x="96.288 102.048007">F.</tspan></text>
<text xml:space="preserve" transform="matrix(1 0 -0 1 0 841.92)" font-size="10.08" font-family="Verdana"><tspan y="-238.87" x="105.41"> </tspan></text>
<text xml:space="preserve" transform="matrix(1 0 -0 1 0 841.92)" font-size="7.92" font-family="Verdana"><tspan y="-228.79" x="42.504"> </tspan></text>
<text xml:space="preserve" transform="matrix(1 0 -0 1 0 841.92)" font-size="7.92" font-family="Verdana"><tspan y="-217.73" x="42.504"> </tspan></text>
<path transform="matrix(1,0,0,-1,0,841.92)" d="M41.064 226.63H554.374V227.11005H41.064Z" fill-rule="evenodd"/>
<text xml:space="preserve" transform="matrix(1 0 -0 1 0 841.92)" font-size="7.92" font-family="Verdana"><tspan y="-110.66" x="42.504"> </tspan></text>
<text xml:space="preserve" transform="matrix(1 0 -0 1 0 841.92)" font-size="10.08" font-family="Verdana"><tspan y="-98.664" x="42.504 49.46402">A)</tspan></text>
<text xml:space="preserve" transform="matrix(1 0 -0 1 0 841.92)" font-size="10.08" font-family="ArialMT"><tspan y="-98.664" x="53.784"> </tspan></text>
<text xml:space="preserve" transform="matrix(1 0 -0 1 0 841.92)" font-size="10.08" font-family="Verdana"><tspan y="-98.664" x="56.664 62.661603 67.913288 70.81632 76.068 82.09584 84.96864 90.96625 96.963848 99.83665 105.088329 111.14641">Psicol&#x00f3;gica.</tspan></text>
<text xml:space="preserve" transform="matrix(1 0 -0 1 0 841.92)" font-size="10.08" font-family="Verdana"><tspan y="-98.664" x="114.53"> </tspan></text>
<text xml:space="preserve" transform="matrix(1 0 -0 1 0 841.92)" font-size="10.08" font-family="Verdana"><tspan y="-86.664" x="42.504 49.46398">B)</tspan></text>
<text xml:space="preserve" transform="matrix(1 0 -0 1 0 841.92)" font-size="10.08" font-family="ArialMT"><tspan y="-86.664" x="53.784"> </tspan></text>
<text xml:space="preserve" transform="matrix(1 0 -0 1 0 841.92)" font-size="10.08" font-family="Verdana"><tspan y="-86.664" x="56.664 62.661603 68.6592 72.73152 77.03568 79.68672 89.51472 95.51232 101.75184 104.62464 110.622249 113.49505">Patrimonial.</tspan></text>
<text xml:space="preserve" transform="matrix(1 0 -0 1 0 841.92)" font-size="10.08" font-family="Verdana"><tspan y="-86.664" x="116.93"> </tspan></text>
<text xml:space="preserve" transform="matrix(1 0 -0 1 0 841.92)" font-size="10.08" font-family="Verdana"><tspan y="-74.424" x="42.504 49.464044">C)</tspan></text>
<text xml:space="preserve" transform="matrix(1 0 -0 1 0 841.92)" font-size="10.08" font-family="ArialMT"><tspan y="-74.424" x="54.024"> </tspan></text>
<text xml:space="preserve" transform="matrix(1 0 -0 1 0 841.92)" font-size="10.08" font-family="Verdana"><tspan y="-74.424" x="56.664 65.06064 71.05824 75.362407 81.380168 84.25297">Moral.</tspan></text>
<text xml:space="preserve" transform="matrix(1 0 -0 1 0 841.92)" font-size="10.08" font-family="Verdana"><tspan y="-74.424" x="87.864"> </tspan></text>
<text xml:space="preserve" transform="matrix(1 0 -0 1 0 841.92)" font-size="10.08" font-family="Verdana"><tspan y="-62.184" x="42.504 50.183984">D)</tspan></text>
<text xml:space="preserve" transform="matrix(1 0 -0 1 0 841.92)" font-size="10.08" font-family="ArialMT"><tspan y="-62.184" x="54.744"> </tspan></text>
<text xml:space="preserve" transform="matrix(1 0 -0 1 0 841.92)" font-size="10.08" font-family="Verdana"><tspan y="-62.184" x="56.664 63.609125 69.616809 75.37249 81.84385 87.84145 90.71426">Sexual.</tspan></text>
<text xml:space="preserve" transform="matrix(1 0 -0 1 0 841.92)" font-size="10.08" font-family="Verdana"><tspan y="-62.184" x="94.128"> </tspan></text>
<text xml:space="preserve" transform="matrix(1 0 -0 1 0 841.92)" font-size="10.08" font-family="Verdana"><tspan y="-50.16" x="42.504 48.983564">E)</tspan></text>
<text xml:space="preserve" transform="matrix(1 0 -0 1 0 841.92)" font-size="10.08" font-family="ArialMT"><tspan y="-50.16" x="53.304"> </tspan></text>
<text xml:space="preserve" transform="matrix(1 0 -0 1 0 841.92)" font-size="10.08" font-family="Verdana"><tspan y="-50.16" x="56.664">F</tspan></text>
<text xml:space="preserve" transform="matrix(1 0 -0 1 0 841.92)" font-size="10.08" font-family="Verdana"><tspan y="-50.16" x="62.424 65.2968 70.54848 73.21968 78.47136">&#x00ed;sica</tspan></text>
<text xml:space="preserve" transform="matrix(1 0 -0 1 0 841.92)" font-size="10.08" font-family="Verdana"><tspan y="-50.16" x="84.504">.</tspan></text>
<text xml:space="preserve" transform="matrix(1 0 -0 1 0 841.92)" font-size="10.08" font-family="Verdana"><tspan y="-50.16" x="87.864"> </tspan></text>
<text xml:space="preserve" transform="matrix(1 0 -0 1 40.344 256.107)" font-size="10.08" font-family="Verdana"><tspan y="-14.3568" x="23.52 29.759522 36.23088 42.470399 45.11136 47.984159 53.23584 59.29392 62.86224 66.45072 72.44832 78.456 82.0344 91.8624 97.61808 104.08944 109.84512 112.717929 117.02209 123.03985 126.62833 132.384 135.97248 141.97006 147.22174 152.52382 158.5315 164.51903 170.99039 175.29454 181.07038 185.59597 190.15596 192.79692 199.26828 205.27596 210.30588 213.89435 219.89194 223.48041 229.48809 232.84473 235.71753 240.75753 243.63033 249.386 255.85736 260.89738 263.53834 269.53593 273.1244 279.36393 285.3615 290.6132 294.2319 299.98759 304.0599 306.9327 312.6884 315.5612 321.80073 327.7983 334.03785 339.79353 345.23594 348.83595">p&#x00fa;blica, de maneira a assegurar-lhes a efici&#x00ea;ncia das atividades. </tspan><tspan y="-2.1168004" x="0 4.3199808 8.639961 12.959942">III.</tspan></text>
<text xml:space="preserve" transform="matrix(1 0 -0 1 40.344 256.107)" font-size="10.08" font-family="ArialMT"><tspan y="-2.1168004" x="16.32"> </tspan></text>
<text xml:space="preserve" transform="matrix(1 0 -0 1 40.344 256.107)" font-size="10.08" font-family="Verdana"><tspan y="-2.1168004" x="23.52 31.452961 36.704645 39.839525 48.004323 54.475687 60.715204 63.588 68.628009 71.50081 77.740329 80.61313 86.61073">Os Munic&#x00ed;pios</tspan></text>
<text xml:space="preserve" transform="matrix(1 0 -0 1 40.344 256.107)" font-size="10.08" font-family="Verdana"><tspan y="-2.1168004" x="91.8624"> </tspan></text>
<text xml:space="preserve" transform="matrix(1 0 -0 1 40.344 256.107)" font-size="10.08" font-family="Verdana"><tspan y="-2.1168004" x="95.091358 98.21135 104.45087 110.45855 116.42591 122.21183 126.51599 132.53376 138.55135 142.15134 145.27133 151.26894 157.50847 161.81262 164.6955 170.93503 176.6907 180.76303 186.76064 191.06479 193.94766 199.70334 209.53134 215.28702 221.75838 225.8307 231.94135 235.32134 238.44133 243.69301 249.72086 255.96039 261.21208 265.0828 267.72377 271.79609 278.0356 280.90843 284.9908 288.1156 294.35514 300.8265 306.8241 311.12828 317.4081 323.14363 328.3953 331.3084 341.1364 347.37596 353.61549 356.48829 361.73997 364.41117 370.6507 376.6483 379.5211 384.5611 387.68589 393.9254 399.9331 404.963 408.8035 411.6763 418.14768 424.14527 430.3848 436.14048 441.39216 444.5371 450.2928 453.41758 459.6571 463.96128 469.97904 474.05137 479.80705 485.05873 491.1168 497.08415 500.20893 506.44847 512.2041"> dever&#x00e3;o, obrigatoriamente, constituir guardas municipais destinadas &#x00e0; prote&#x00e7;&#x00e3;o de </tspan></text>
<text xml:space="preserve" transform="matrix(1 0 -0 1 42.79959 724.11099)" font-size="10.08" font-family="Verdana" font-weight="bold"><tspan y="-88.1686" x="0 8.62848 16.81344 23.52 30.707039 37.4304 45.11136 53.98295 57.81335 65.00039 72.430538">QUEST&#x00c3;O 13 </tspan></text>
<text xml:space="preserve" transform="matrix(1 0 -0 1 42.79959 724.11099)" font-size="10.08" font-family="Verdana" font-weight="bold"><tspan y="-88.1686" x="76.3522">&#x2013;</tspan></text>
<text xml:space="preserve" transform="matrix(1 0 -0 1 42.79959 724.11099)" font-size="10.08" font-family="Verdana" font-weight="bold"><tspan y="-88.1686" x="83.79531"> </tspan></text>
<text xml:space="preserve" transform="matrix(1 0 -0 1 42.79959 724.11099)" font-size="10.08" font-family="Verdana"><tspan y="-88.1686" x="87.63531 94.58043 97.22139 100.09419 106.56555 112.816349 116.878589 123.12938 126.9497 132.20139 138.25946 143.51114 149.50873 155.74826 161.98897 166.06128 171.31296 177.3408 187.41193 191.24233 198.18744 202.26984 206.34217 212.5817 219.05306 223.60031 227.45087 233.92223 240.16294 243.99333 250.7078 254.7801 260.7777 267.24909 273.24668 278.49836 282.37028 286.4426 292.6934 296.7556 302.99516 309.00285 314.25453 320.27229 326.52308 330.5853 336.826 340.89833 347.13786 353.13545 359.6068 365.84635 371.60203 381.43003 384.30284 390.54353 394.3739 400.3816 405.63328 409.72578 415.96647 419.79685 423.86918 428.17335 434.1911 440.43064 446.1863 449.0591 455.5305 461.28617 467.75755 473.99708 480.2378 484.31013 490.30775 496.7791 502.7767 508.02839 514.0361">Aline &#x00e9; casada com Arthur h&#x00e1; 7 anos, e desde a pandemia est&#x00e1; trabalhando quase </tspan><tspan y="-75.928607" x=".0000076293949 2.8728078 9.112328 13.184648 19.192328 25.421769 29.72593 35.501768 38.374567 48.202566 53.958246 60.19776 64.27008 70.53079 73.64551 79.65319 89.50238 92.85902 97.89902 104.37038 110.62101 113.977649 119.229328 125.01524 130.26692 136.325 140.14633 143.27114 146.14394 152.6153 158.85483 164.86354 168.22019 174.21778 178.2901 184.2988 187.65544 193.90607 197.03087 203.03855 208.29022 213.58222 217.66461 220.53742 224.60974 230.60735 234.68975 237.56255 243.81317 246.93798 252.93556 259.17509 265.18278 271.64405 277.64164 282.93467 286.2913 292.53083 302.35884 308.60945 311.96607 317.72175 324.44615 327.80278 333.80039 340.27177 346.26936 351.56239 354.919 360.90653 366.9142 371.94413 377.9518 383.23478 386.5914 392.83094 398.82853 403.3857 406.7625 411.80253 417.8102 427.61805 433.40397 439.87535 446.12596 449.48258 455.7221 461.47779 465.78196 472.05274 475.40937 480.66105 486.44697 492.6865 497.93818 500.60939 507.08076 509.95356 514.03598">integralmente em sua casa, indo at&#x00e9; o escrit&#x00f3;rio apenas uma ou duas vezes por semana para concluir </tspan><tspan y="-63.688608" x=".0000076293949 4.3041679 10.311848 13.194728 18.950407 23.022727 29.020327 33.324487 36.207368 42.204969 47.45665 51.330057 54.918539 62.851499 68.10318 74.12094 78.4251 82.74942 88.74971 92.58011 98.819629 105.05914 111.175228 115.01983 118.859828 124.61551 131.08687 136.12686 138.99967 145.2392 155.0672 161.06479 167.30432 173.54653 177.37693 183.61646 189.37213 192.24494 198.48714 202.31754 205.906 211.66168 215.73401 221.97621 225.80661 232.18402">relat&#x00f3;rios. Ocorre que, enciumado pelo fato de</tspan></text>
<text xml:space="preserve" transform="matrix(1 0 -0 1 42.79959 724.11099)" font-size="10.08" font-family="Verdana"><tspan y="-63.688608" x="237.9437"> </tspan></text>
<text xml:space="preserve" transform="matrix(1 0 -0 1 42.79959 724.11099)" font-size="10.08" font-family="Verdana"><tspan y="-63.688608" x="241.2304 244.85071 251.09291 254.92331 260.931 266.18269 272.46253 278.43998 283.69166 289.99433 293.54249 298.83448 304.83207 307.47303 312.0218 315.87236 322.11189 328.11219 331.94258 337.19425 343.25233 348.504 354.56913 358.17375 362.01374 368.95887 373.04127 376.88175 383.35313 389.8245 394.15153 398.0484 404.04603 410.5174 416.5251 422.75453 427.0587 433.07646 439.59306 443.43305 449.67527 453.50566 458.75733 464.54325 474.37126 480.61079 486.8503 490.6908 496.6884 502.92793 508.9255 513.41116 517.07858"> a esposa sair de casa, Arthur quebrou o computador  </tspan><tspan y="-51.428407" x=".0007019043 5.997227 9.597232 15.591357 19.179837 21.820797 31.648798 37.888319 42.19248 47.96832 53.22 58.52208 64.519687 68.823848">e a impressora</tspan></text>
<text xml:space="preserve" transform="matrix(1 0 -0 1 42.79959 724.11099)" font-size="10.08" font-family="Verdana"><tspan y="-51.428407" x="74.88193">,</tspan></text>
<text xml:space="preserve" transform="matrix(1 0 -0 1 42.79959 724.11099)" font-size="10.08" font-family="Verdana"><tspan y="-51.428407" x="78.49718 82.085659 87.83786 91.511859 97.75137 103.74898 109.02838 112.388378 115.97685 121.97446 128.21399 134.20812 137.79659 143.80426 153.39696 156.98543 161.05776 167.05536 173.29489 179.2925 184.5407 188.15941 194.15702 199.19355 202.78202 209.02155 215.01915 220.27083 226.54059 236.36859 242.12427 248.3638 252.43613 258.43373 263.68193 267.30064 273.54017 279.2924 282.88087 286.9532 291.25736 297.27513 303.51466 309.27033 311.9113 318.38267 324.3768 328.21418 334.4537 340.45793 343.81455 350.75968 353.40065 356.0416 362.51298 368.56074 372.15583 375.51246 381.98384 387.02384 391.09617 397.09376 401.39793 405.72227 411.72996 416.75987 419.63267 425.8722 431.8663 435.22294 440.4746 446.50245 456.32698 459.91545 465.90959 469.49806 475.49565 480.7473 486.77516 490.85755 495.1617 498.0446 504.28413 510.43684 514.03689"> e p&#x00f4;s fogo em todos os documentos de trabalho de Aline. Estarrecida com o ocorrido, </tspan><tspan y="-39.168207" x=".0006790161 6.945799 9.58676 12.459559 18.930918 24.86142 29.407502 35.64702 41.4027 46.65438 49.557424 55.79694 61.72744 66.27351 72.27111 78.74247 83.99415 89.29623 95.29383 99.551059 104.09713 109.85281 116.32417 122.31169 124.95265 127.59361 130.46642 136.63884 141.56067 147.8007 153.73548 158.47029 164.70983 174.53783 180.71024 185.25632 191.012 200.84 203.7128 209.95233 215.88283 220.42891 226.42652 232.89788 239.08037 243.38452 249.56702 254.1131 260.1107 266.35023 272.33775 278.33534 284.57487 290.57246 296.81199 302.80958 306.58296 311.5092 317.4397 321.98579 327.9834 334.45478 340.45237 343.29887 348.03367 350.67463 357.146 363.0765 367.6226 373.62019 377.92436 380.80723 386.5629 392.80244 396.87477 403.04719 407.59327 413.59089 420.06227 426.3682 430.6882 436.87074 441.1749 447.64628 453.65397 458.68388 464.69157 469.94325 475.23524 481.23283 485.31523 487.95619 494.1286 498.67469 503.92637 509.93406 514.0366">Aline decide buscar aux&#x00ed;lio de uma amiga que &#x00e9; advogada, a qual lhe orienta que &#x00e9; necess&#x00e1;rio ser </tspan><tspan y="-26.928206" x=".00047302247 3.5889533 9.596633 12.227513 16.299834 22.416005 27.322577 33.562097 43.508665 48.415235 54.65475 60.65235 63.52515 69.28083 73.35315 75.99411 85.940677 90.847248 97.08676 103.21301 108.1095 114.1071 119.35878 125.38662 129.69078 134.01509 139.77077 146.24213 151.475 154.34781 160.3454 164.06252 168.96909 175.20862 181.20623 184.07903 189.44928 194.3861 200.50226 205.40883 211.64836 217.8879 224.01415 228.91063 235.85575 239.93814 243.77863 250.24999 256.72135 261.14408 265.8289 269.41737 275.42506 280.8356 285.90785 291.15953 296.94544 303.4168 306.77345 309.64625 315.88578 322.1253 326.42948 332.5658 337.47236 343.71189 353.65846 358.64216 363.89384 369.9519 375.20359 381.31977 386.22633 392.46586 398.5921 403.4886 409.24427 412.11708 418.11466 420.7556 426.7633 433.22459 438.2646 441.1374 447.25355 452.1601 458.39964 464.39723 474.22523 479.9809 485.23258 489.1033 491.9761 497.22779 503.40443 508.28077 514.03646">feito um boletim de ocorr&#x00ea;ncia, pois o que Arthur fez configura um caso de viol&#x00ea;ncia dom&#x00e9;stica e </tspan><tspan y="-14.688206" x=".00047302247 3.5889533 9.586554 19.414555 22.055516 24.696476 27.569277 33.56688 37.87104 41.643323 47.7844 54.7396 60.7372 70.718769 76.85984 83.09936 88.85504 94.10672 100.26797 106.18729 112.658649 118.80981 124.95088 129.99088 132.86368 136.70417 143.17552 149.17311 154.42479 160.48287 166.60379 172.97208 178.96967 184.96727 189.27143 195.2791 200.56102 206.3167 212.78806 216.86038 222.85797 229.0975 235.0951 238.60529 244.50444 250.66568 256.79667 262.04835 268.07618 272.38035 276.70469 282.46037 286.53269 292.68385 298.82493 304.8225 308.17915 311.05195 315.3561 325.20426 330.95994 335.41767 341.5789 347.5765 354.04789 360.20915 366.1083 373.05345 377.3576 381.21827 387.4578 393.92918 398.3869 404.54814 410.78767 415.09184 420.86769 424.70817 427.58097 432.83265 438.86048 445.4854 451.38459 456.63627 462.6641 468.90364 472.97596 477.28013 483.45146 489.35063 496.29576 498.9367 501.8095 508.28089 514.03659">familiar. Com base na situa&#x00e7;&#x00e3;o apresentada, &#x00e9; correto afirmar que Arthur praticou contra Aline </tspan><tspan y="-2.448206" x=".00047302247 5.9879934 8.860793 14.858393 17.731194 23.486872 29.958231 34.99823 37.87103 43.86863 47.45711 53.69663 59.69423 63.05087 67.12319 69.76415 76.00367 82.001277 86.66647">viol&#x00ea;ncia do tipo: </tspan></text>
<text xml:space="preserve" transform="matrix(1 0 -0 1 42.503999 198.09894)" font-size="10.08" font-family="Verdana" font-weight="bold"><tspan y="-14.632" x="0 8.62848 16.81344 23.50656 30.6936 37.41696 45.09792 53.975439 59.254396 66.44143 73.8775">QUEST&#x00c3;O 11 </tspan></text>
<text xml:space="preserve" transform="matrix(1 0 -0 1 42.503999 198.09894)" font-size="10.08" font-family="Verdana" font-weight="bold"><tspan y="-14.632" x="79.2621">&#x2013;</tspan></text>
<text xml:space="preserve" transform="matrix(1 0 -0 1 42.503999 198.09894)" font-size="10.08" font-family="Verdana" font-weight="bold"><tspan y="-14.632" x="86.71114"> </tspan></text>
<text xml:space="preserve" transform="matrix(1 0 -0 1 42.503999 198.09894)" font-size="10.08" font-family="Verdana"><tspan y="-14.632" x="92.00018 99.036029 105.14451 111.51507 115.05315 121.16163 125.45571 135.25348">Conforme</tspan></text>
<text xml:space="preserve" transform="matrix(1 0 -0 1 42.503999 198.09894)" font-size="10.08" font-family="Verdana"><tspan y="-14.632" x="141.34888"> </tspan></text>
<text xml:space="preserve" transform="matrix(1 0 -0 1 42.503999 198.09894)" font-size="10.08" font-family="Verdana"><tspan y="-14.632" x="146.86975">a</tspan></text>
<text xml:space="preserve" transform="matrix(1 0 -0 1 42.503999 198.09894)" font-size="10.08" font-family="Verdana"><tspan y="-14.632" x="153.18007 158.70909 165.66429 171.6619 178.13326 183.38494 187.25566 189.89662 193.96895 200.20848 203.08129 208.33296 214.39104 220.60744 226.12831 232.36785 238.61449 244.13536 250.60672 255.8584 259.96098 265.71665 271.95619 278.20283 283.7237 289.96324 296.20988 301.73075 308.68595 311.55876 317.8054 323.32627 331.23908 335.54325 341.3191 347.79048 354.03 360.2867 365.79753 372.03706 378.2837 383.80458 390.52793 396.9993 399.8721 403.7197 409.27384 415.7452 421.99186 427.51274 433.75227 440.22364 446.48036 451.99116 457.03117 463.28788 468.79869 473.10285 479.11054 482.47727 488.23295 492.5371 498.9072 504.43623 510.43623"> Constitui&#x00e7;&#x00e3;o do Estado do Rio Grande do Sul, no que se refere &#x00e0; </tspan><tspan y="-2.3718005" x=".000076293948 5.2517569 11.259437 17.539277 23.990477 28.294636 34.070474 40.541833 45.79351 51.57943 55.16791 61.40743 67.87879 73.87639 76.74919 79.39015 84.64183 90.74607 94.34607 97.94607 103.70175 110.17311 116.170719 118.811679 121.68448 126.93616 132.72208 136.31055 142.30814 147.55982 151.17853 157.17612 162.21611 167.46779 173.47547 177.57802 181.65035 184.2913 190.27883 196.27642 201.52809 205.1468 211.1444 217.38393 223.1396 226.0124 231.99993 237.99753 242.49602">seguran&#x00e7;a p&#x00fa;blica, analise as assertivas abaixo: </tspan></text>
</g>
</svg>
