<svg xmlns="http://www.w3.org/2000/svg" xmlns:xlink="http://www.w3.org/1999/xlink" xmlns:inkscape="http://www.inkscape.org/namespaces/inkscape" version="1.1" width="595.44" height="841.92" viewBox="0 0 595.44 841.92">
<g>
<text xml:space="preserve" transform="matrix(1 0 -0 1 0 841.92)" font-size="7.92" font-family="Verdana"><tspan y="-795.58" x="42.504 47.541124 52.578245 57.615365 62.652486 68.17272 73.68504 79.197368 84.22656 89.26368 95.259128 101.96736 107.00448 113.00784">945_BASE_NM_DM</tspan></text>
<text xml:space="preserve" transform="matrix(1 0 -0 1 0 841.92)" font-size="7.92" font-family="Verdana"><tspan y="-795.58" x="120.05"> </tspan></text>
<text xml:space="preserve" transform="matrix(1 0 -0 1 0 841.92)" font-size="7.92" font-family="Verdana"><tspan y="-795.58" x="460.51 465.55003 470.59004 474.1886 479.2286 484.26863 487.8672 492.9072 498.1848 503.22483 508.26484 511.13475 516.17477 521.2147 524.8133 529.8533 535.1229 538.7215 543.7615">10/01/2025 15:14:17</tspan></text>
<text xml:space="preserve" transform="matrix(1 0 -0 1 0 841.92)" font-size="10.08" font-family="Verdana"><tspan y="-795.58" x="549.1"> </tspan></text>
<path transform="matrix(1,0,0,-1,0,841.92)" d="M41.064 804.48H554.614V804.95999H41.064Z" fill-rule="evenodd"/>
<text xml:space="preserve" transform="matrix(1 0 -0 1 0 841.92)" font-size="9.12" font-family="Verdana"><tspan y="-25.92" x="42.504 48.26784 53.54832 59.0568 63.6168 69.389759 74.16863 79.44911 84.984958 89.052478 92.17152 97.44288 103.215839 108.72431 114.24191 119.75039 123.343669 128.63327">Execu&#x00e7;&#x00e3;o: Fundatec</tspan></text>
<text xml:space="preserve" transform="matrix(1 0 -0 1 0 841.92)" font-size="9.12" font-family="Verdana"><tspan y="-25.92" x="133.25"> </tspan></text>
<path transform="matrix(1,0,0,-1,0,841.92)" d="M41.064 35.76H554.374V36.24004H41.064Z" fill-rule="evenodd"/>
<text xml:space="preserve" transform="matrix(1 0 -0 1 0 841.92)" font-size="9.12" font-family="Verdana"><tspan y="-14.88" x="250.9 257.85856 264.57087 270.80894 277.04704 284.00559 290.24366 293.3627 300.80464 307.51695 314.23838 317.84077 324.31596 327.91835 333.4177 339.65577">GUARDA MUNICIPAL</tspan></text>
<text xml:space="preserve" transform="matrix(1 0 -0 1 0 841.92)" font-size="9.12" font-family="Verdana"><tspan y="-14.88" x="344.54"> </tspan></text>
<path transform="matrix(1,0,0,-1,0,841.92)" d="M41.064 781.66H554.374V793.89999H41.064Z" fill="#bfbfbf" fill-rule="evenodd"/>
<text xml:space="preserve" transform="matrix(1 0 -0 1 0 841.92)" font-size="10.08" font-family="Verdana" font-weight="bold"><tspan y="-783.82" x="208.39 215.58713 224.2156 232.84409 241.0089 247.95403 255.15116 260.65486 270.02928 276.75263 285.3811 292.10447 300.73295 307.91999 311.04478 317.9899 325.17695 332.37406 339.31919 346.5163 352.02 358.5115 364.0152 370.99055 379.61903">CONHECIMENTOS ESPEC&#x00cd;FICOS</tspan></text>
<text xml:space="preserve" transform="matrix(1 0 -0 1 0 841.92)" font-size="10.08" font-family="Verdana" font-weight="bold"><tspan y="-783.82" x="386.78"> </tspan></text>
<text xml:space="preserve" transform="matrix(1 0 -0 1 0 841.92)" font-size="10.08" font-family="Verdana" font-weight="bold"><tspan y="-771.58" x="35.304"> </tspan></text>
<path transform="matrix(1,0,0,-1,0,841.92)" d="M41.064 610.01H554.374V610.49H41.064Z" fill-rule="evenodd"/>
<text xml:space="preserve" transform="matrix(1 0 -0 1 0 841.92)" font-size="10.08" font-family="Verdana"><tspan y="-599.93" x="42.504"> </tspan></text>
<text xml:space="preserve" transform="matrix(1 0 -0 1 0 841.92)" font-size="10.08" font-family="Verdana" font-weight="bold"><tspan y="-587.69" x="42.504 51.13248 59.31744 66.01056 73.1976 79.92096 87.60192 96.2304 99.587039 106.77407 113.961109">QUEST&#x00c3;O 22 </tspan></text>
<text xml:space="preserve" transform="matrix(1 0 -0 1 0 841.92)" font-size="10.08" font-family="Verdana" font-weight="bold"><tspan y="-587.69" x="117.17">&#x2013;</tspan></text>
<text xml:space="preserve" transform="matrix(1 0 -0 1 0 841.92)" font-size="10.08" font-family="Verdana" font-weight="bold"><tspan y="-587.69" x="124.37"> </tspan></text>
<text xml:space="preserve" transform="matrix(1 0 -0 1 0 841.92)" font-size="10.08" font-family="Verdana"><tspan y="-587.69" x="127.73 134.6852 140.6828 147.15416 150.74263 156.74024 160.82263 170.65064 176.40631 179.99478 186.23432 188.87528 194.12696 200.4068 206.39432 212.402 215.9804 221.73607 225.32454 232.27974 239.23494 244.99063 251.93576 255.29239 258.88087 264.87846 268.23509 275.66407 281.9036 284.54457 290.54216 296.53974 300.1282 306.36775 312.36534 317.617 322.9191 329.15864 331.7996 335.38807 341.38569 347.38328 353.6228 359.6305 363.93467 369.94236 374.98237 378.57084 381.2118 387.68318 393.9227 399.9304 406.15983 411.9155 418.38688 424.6264 430.38209 436.85346 440.69395 446.70164 451.73155 455.32 461.3277 464.68434 471.1557 477.1533 481.2357 491.0637 497.06129 503.3008 506.1736 511.4253 517.4531 522.49319 525.8498 531.8575 538.3187 542.1592 546.4633 552.471">Conforme disp&#x00f5;e a CRFB, a Uni&#x00e3;o possui Poderes independentes e harm&#x00f4;nicos entre </tspan></text>
<text xml:space="preserve" transform="matrix(1 0 -0 1 0 841.92)" font-size="10.08" font-family="Verdana"><tspan y="-575.69" x="42.504 47.755685 50.658727 54.257287 57.613927 64.559047 69.81072 74.88096 77.75376 84.22512 89.980808 92.85361 98.86129 102.43969 108.19537 111.78385 117.781459 120.42242 124.494739 130.50241 134.57472 141.04608 146.80176 150.87409 153.74689 159.7344 165.49008 169.07855 175.31809 181.55762 187.56529 190.92194 193.79474 200.2661 206.2637 209.1365 214.38819 220.44626 223.77266 229.78034 235.03202 240.324 246.07968 251.33136 254.71823 258.79057 263.09474 269.10243 274.1525 277.74098 283.49665 289.49424 295.73377 301.74147 306.04563 312.0533 317.305">si. Assinale a alternativa que indica esses tr&#x00ea;s Poderes.</tspan></text>
<text xml:space="preserve" transform="matrix(1 0 -0 1 0 841.92)" font-size="10.08" font-family="Verdana"><tspan y="-575.69" x="321.24"> </tspan></text>
<text xml:space="preserve" transform="matrix(1 0 -0 1 0 841.92)" font-size="10.08" font-family="Verdana"><tspan y="-563.45" x="42.504"> </tspan></text>
<text xml:space="preserve" transform="matrix(1 0 -0 1 0 841.92)" font-size="10.08" font-family="Verdana"><tspan y="-551.18" x="42.504 49.46402">A)</tspan></text>
<text xml:space="preserve" transform="matrix(1 0 -0 1 0 841.92)" font-size="10.08" font-family="ArialMT"><tspan y="-551.18" x="53.784"> </tspan></text>
<text xml:space="preserve" transform="matrix(1 0 -0 1 0 841.92)" font-size="10.08" font-family="Verdana"><tspan y="-551.18" x="56.664 63.609125 69.60673 74.858409 77.761447 83.51713 86.38993 89.988498 93.34513 99.81649 105.06817 111.09601 117.56737 123.56497 133.16114 136.03394 141.28562 147.31346 150.90193 156.65761 160.24608 167.20128 172.95696 175.82976 178.70256 184.70017 187.57297 193.57057 198.82225 204.8501">Social, Econ&#x00f4;mico e Religioso.</tspan></text>
<text xml:space="preserve" transform="matrix(1 0 -0 1 0 841.92)" font-size="10.08" font-family="Verdana"><tspan y="-551.18" x="208.63"> </tspan></text>
<text xml:space="preserve" transform="matrix(1 0 -0 1 0 841.92)" font-size="10.08" font-family="Verdana"><tspan y="-539.18" x="42.504 49.46398">B)</tspan></text>
<text xml:space="preserve" transform="matrix(1 0 -0 1 0 841.92)" font-size="10.08" font-family="ArialMT"><tspan y="-539.18" x="53.784"> </tspan></text>
<text xml:space="preserve" transform="matrix(1 0 -0 1 0 841.92)" font-size="10.08" font-family="Verdana"><tspan y="-539.18" x="56.664 63.13536 69.12288 75.13056 80.16048 86.399997 90.47231 93.11327 99.10079 105.0984 108.69696 112.28544 117.80928 123.81696 130.0464 132.9192 137.9592 140.832 146.58768 150.66 153.5328 159.52033 165.276 168.86447 174.87215">Executivo, Legislativo e </tspan></text>
<text xml:space="preserve" transform="matrix(1 0 -0 1 0 841.92)" font-size="10.08" font-family="Verdana"><tspan y="-539.18" x="178.63 182.95432 189.42568 195.6652 198.30617 203.55785 206.46089 212.45848 216.54088 219.41368 225.41129">Judici&#x00e1;rio.</tspan></text>
<text xml:space="preserve" transform="matrix(1 0 -0 1 0 841.92)" font-size="10.08" font-family="Verdana"><tspan y="-539.18" x="228.82"> </tspan></text>
<text xml:space="preserve" transform="matrix(1 0 -0 1 0 841.92)" font-size="10.08" font-family="Verdana"><tspan y="-526.94" x="42.504 49.464044">C)</tspan></text>
<text xml:space="preserve" transform="matrix(1 0 -0 1 0 841.92)" font-size="10.08" font-family="ArialMT"><tspan y="-526.94" x="54.024"> </tspan></text>
<text xml:space="preserve" transform="matrix(1 0 -0 1 0 841.92)" font-size="10.08" font-family="Verdana"><tspan y="-526.94" x="56.664 65.06064 67.93344 70.5744 73.447208 77.51952 83.51713 87.82129 91.19809 94.78657 101.026088 107.0136 113.021289 118.0512 124.52256 128.36304 131.23584 137.22336 143.22097 146.80944 152.56511 156.15358 162.3931 167.64478 173.67263 180.14398 186.14159 195.73775 198.61055 203.86223 209.89008">Militar, Executivo e Econ&#x00f4;mico.</tspan></text>
<text xml:space="preserve" transform="matrix(1 0 -0 1 0 841.92)" font-size="10.08" font-family="Verdana"><tspan y="-526.94" x="213.43"> </tspan></text>
<text xml:space="preserve" transform="matrix(1 0 -0 1 0 841.92)" font-size="10.08" font-family="Verdana"><tspan y="-514.7" x="42.504 50.183984">D)</tspan></text>
<text xml:space="preserve" transform="matrix(1 0 -0 1 0 841.92)" font-size="10.08" font-family="ArialMT"><tspan y="-514.7" x="54.744"> </tspan></text>
<text xml:space="preserve" transform="matrix(1 0 -0 1 0 841.92)" font-size="10.08" font-family="Verdana"><tspan y="-514.7" x="56.664 61.2504 67.69152 73.93104 76.572 81.82368 84.726718 90.72432 94.80672 97.67952 103.677127 107.27569 110.86417 118.54513 121.18609 125.49025 131.49793 134.14897 138.2213 144.2189 149.47058 152.85746 160.2965 166.76786 176.59586 182.35153 188.82289 194.8205 200.07218 203.69089 209.44657 213.03504 219.98015 225.97776 231.01775 233.89055 239.88814 242.76094">Judici&#x00e1;rio, Direitos Humanos e Social.</tspan></text>
<text xml:space="preserve" transform="matrix(1 0 -0 1 0 841.92)" font-size="10.08" font-family="Verdana"><tspan y="-514.7" x="246.34"> </tspan></text>
<text xml:space="preserve" transform="matrix(1 0 -0 1 0 841.92)" font-size="10.08" font-family="Verdana"><tspan y="-502.7" x="42.504 48.983564">E)</tspan></text>
<text xml:space="preserve" transform="matrix(1 0 -0 1 0 841.92)" font-size="10.08" font-family="ArialMT"><tspan y="-502.7" x="53.304"> </tspan></text>
<text xml:space="preserve" transform="matrix(1 0 -0 1 0 841.92)" font-size="10.08" font-family="Verdana"><tspan y="-502.7" x="56.664 63.6192 69.626888 72.4896 75.362407 81.36 84.2328 90.23041 95.482089 101.509929 105.10849 108.69697 117.09361 123.09122 129.56258 135.31826 139.39058 145.38817 149.47057 152.34337 158.34098 161.92945 167.93712 171.51552 175.83983 182.31119 188.30879 191.1816 196.43328 199.33632 205.092 207.9648">Religioso, Monet&#x00e1;rio e Judicial.</tspan></text>
<text xml:space="preserve" transform="matrix(1 0 -0 1 0 841.92)" font-size="10.08" font-family="Verdana"><tspan y="-502.7" x="211.51"> </tspan></text>
<text xml:space="preserve" transform="matrix(1 0 -0 1 0 841.92)" font-size="10.08" font-family="Verdana"><tspan y="-490.46" x="42.504"> </tspan></text>
<path transform="matrix(1,0,0,-1,0,841.92)" d="M41.064 486.86H554.374V487.34H41.064Z" fill-rule="evenodd"/>
<text xml:space="preserve" transform="matrix(1 0 -0 1 0 841.92)" font-size="10.08" font-family="Verdana" font-weight="bold"><tspan y="-476.78" x="42.504"> </tspan></text>
<text xml:space="preserve" transform="matrix(1 0 -0 1 0 841.92)" font-size="10.08" font-family="Verdana" font-weight="bold"><tspan y="-465" x="42.504 51.13248 59.31744 66.01056 73.1976 79.92096 87.60192 96.2304 100.54464 107.731678 114.91871">QUEST&#x00c3;O 23 </tspan></text>
<text xml:space="preserve" transform="matrix(1 0 -0 1 0 841.92)" font-size="10.08" font-family="Verdana" font-weight="bold"><tspan y="-465" x="119.09">&#x2013;</tspan></text>
<text xml:space="preserve" transform="matrix(1 0 -0 1 0 841.92)" font-size="10.08" font-family="Verdana" font-weight="bold"><tspan y="-465" x="126.29"> </tspan></text>
<text xml:space="preserve" transform="matrix(1 0 -0 1 0 841.92)" font-size="10.08" font-family="Verdana"><tspan y="-465" x="130.61 138.29097 142.83705 148.83464 153.1388 157.2212 160.57784 165.12392">O art. 5</tspan></text>
<text xml:space="preserve" transform="matrix(1 0 -0 1 0 841.92)" font-size="10.08" font-family="MicrosoftSansSerif"><tspan y="-465" x="171.67">&#x00ba;</tspan></text>
<text xml:space="preserve" transform="matrix(1 0 -0 1 0 841.92)" font-size="10.08" font-family="Verdana"><tspan y="-465" x="175.03"> </tspan></text>
<text xml:space="preserve" transform="matrix(1 0 -0 1 0 841.92)" font-size="10.08" font-family="Verdana"><tspan y="-465" x="179.59 185.82953 191.82712 196.3732 203.3284 210.2836 215.80745 222.75258 226.35114 230.89722 236.89482 243.36618 249.37386 253.67801 257.75035 262.0545 267.83036 271.90269 277.90028 282.2145 288.45405 294.45164 299.7033 304.27964 311.96058 314.83338 319.13755 324.9134 327.55436 331.62669 337.62428 342.87596 347.45228 353.20796 357.75404 365.43498 371.44267 377.41 383.19593 387.5001 393.50779 398.55787 403.10395 407.18635 413.6577 419.89726 422.5382 428.52574 431.39854 437.39616 443.86753 449.6232 452.496 457.74769 462.0821 468.08979 472.63587 479.59107 485.58866 488.46147 494.21714 498.05763 500.93043 506.91795 512.9155 518.16726 521.796 526.1102 532.1179 538.57919 542.4196 546.72378 552.49966">da CRFB, que trata dos Direitos e Deveres Individuais e Coletivos, entre </tspan></text>
<text xml:space="preserve" transform="matrix(1 0 -0 1 0 841.92)" font-size="10.08" font-family="Verdana"><tspan y="-452.52" x="42.504 48.501604 54.97296 59.04528 63.34944 69.3672 74.4072 79.67904 85.91856 91.91616 96.22032 101.99616 108.46752 112.308 115.1808 121.178409 126.430088 131.49024 135.0787 141.31824 147.7896 154.02913 160.02672 169.62288 175.63056 181.86 185.93233 191.92992 194.57088 199.82256 203.45136 208.72319 214.96273 217.60369 222.85536 229.13521 235.12273 241.1304 246.39215 252.38976 258.8611 264.8688">outras garantias fundamentais, disp&#x00f5;e que </tspan></text>
<text xml:space="preserve" transform="matrix(1 0 -0 1 0 841.92)" font-size="10.08" font-family="Verdana"><tspan y="-452.52" x="270.34 274.89616 280.65184 285.68174 288.55455 291.42735 297.183 301.48719 307.49488 312.7768 318.77439 323.8043 329.81199 335.77934 342.05918 346.36335 352.12913 357.3808 362.6829 368.68049 374.67808 379.94993 386.18946 392.18705 397.4589 403.21458 407.2869 409.92787 415.91539 418.78819 425.0277 431.0253 437.02293 443.0306 448.05046 450.92326 457.16279 461.2351 467.2428 469.8737 475.88139 480.9113 484.9836 491.455 497.21067 500.08348 503.68205 508.9539 514.9515 519.0339 523.1062 525.74716 530.7872 534.8595 537.7323 542.984 549.0421 552.6104">&#x201c;&#x00e9; livre a express&#x00e3;o da atividade intelectual, art&#x00ed;stica, </tspan></text>
<text xml:space="preserve" transform="matrix(1 0 -0 1 0 841.92)" font-size="10.08" font-family="Verdana"><tspan y="-440.28" x="42.504 47.755685 50.658727 56.414407 62.885766 66.72624 69.599048 72.95568 75.82848 81.08016 86.86608 91.412158 97.41984 101.96591 108.20543 113.96111 118.50719 123.758869 129.78672 139.38288 145.6224 152.09377 154.73473 159.9864 166.04448 171.29616 177.29375 183.29135 186.88991 191.43599 194.07695 200.54831 206.78784 212.79552 219.02497 224.78064 231.252 237.49153 243.24721 249.48674 253.55907 259.56675 269.37458 275.1605 281.40003 285.2405 291.2482 295.79429 302.0338 308.0415 312.34568 317.59736 323.60505 329.86473 335.1164 341.38618 345.69035 351.7081 356.25419 362.25178 368.4913 372.80555 375.67835 378.55116 383.59117 389.59886 396.06013 401.3118 407.36988 411.89579 415.25245 419.79853 426.52189 431.77357 437.07566 439.7166 446.188 451.94367 454.81648 460.82417 465.37025 471.12593 475.672 481.6696 484.31056 488.38288 494.39057 498.4629 504.93428 510.93186 514.77236 517.64517 523.6326 529.3883 533.9344 540.1739 546.6452 552.4009">cient&#x00ed;fica e de comunica&#x00e7;&#x00e3;o, independentemente de censura ou licen&#x00e7;a&#x201d;. Assinale a alternativa que </tspan></text>
<text xml:space="preserve" transform="matrix(1 0 -0 1 0 841.92)" font-size="10.08" font-family="Verdana"><tspan y="-428.28" x="42.504 48.501604 54.74112 59.04528 65.05296 70.334888 76.09057 82.56193 86.63425 92.63185 95.98849 102.228008 112.056 118.053607 121.64208 126.68208 129.55489 133.39537 139.86673 145.86432 151.116 157.17407 163.14144 166.7299 172.72751 179.19887 184.95455 188.54302 195.98206 202.92717 210.86014 214.2067 219.45838 225.46605 229.07469 234.83037 241.30173 247.29933 253.77069 259.76829 266.0078 270.31199 276.32975 279.68638 285.9259 291.9235 295.51197 301.7515 304.6243 309.87599 316.15583 322.14335 327.18336 331.25569 337.25328 340.84175 347.08128 353.08897 355.9517 361.70738 365.29585 371.29344 375.5976 379.45826 382.33106 388.5706 394.56819">apresenta uma situa&#x00e7;&#x00e3;o que N&#x00c3;O se enquadra no disposto pelo artigo.</tspan></text>
<text xml:space="preserve" transform="matrix(1 0 -0 1 0 841.92)" font-size="10.08" font-family="Verdana"><tspan y="-428.28" x="398.3"> </tspan></text>
<text xml:space="preserve" transform="matrix(1 0 -0 1 0 841.92)" font-size="10.08" font-family="Verdana"><tspan y="-416.04" x="42.504"> </tspan></text>
<text xml:space="preserve" transform="matrix(1 0 -0 1 0 841.92)" font-size="10.08" font-family="Verdana"><tspan y="-403.8" x="42.504 49.46402">A)</tspan></text>
<text xml:space="preserve" transform="matrix(1 0 -0 1 0 841.92)" font-size="10.08" font-family="ArialMT"><tspan y="-403.8" x="53.784"> </tspan></text>
<text xml:space="preserve" transform="matrix(1 0 -0 1 0 841.92)" font-size="10.08" font-family="Verdana"><tspan y="-403.8" x="56.664 64.34496 67.217769 72.469448 77.53968 84.01104 88.3152 93.59712 99.59473 103.183208 108.93889 118.766887 122.35536 128.35297 132.65712 138.67488 143.92656 149.98464 153.53279 159.55055 166.02191 172.26145 174.9024 177.7752 183.02689 188.8128 192.40128 198.40895 208.00511 211.59358 215.89774">Discurso em pra&#x00e7;a p&#x00fa;blica em re</tspan></text>
<text xml:space="preserve" transform="matrix(1 0 -0 1 0 841.92)" font-size="10.08" font-family="Verdana"><tspan y="-403.8" x="221.86 224.7328 230.7304 235.98207 242.04015 248.0075">la&#x00e7;&#x00e3;o </tspan></text>
<text xml:space="preserve" transform="matrix(1 0 -0 1 0 841.92)" font-size="10.08" font-family="Verdana"><tspan y="-403.8" x="251.62">a</tspan></text>
<text xml:space="preserve" transform="matrix(1 0 -0 1 0 841.92)" font-size="10.08" font-family="Verdana"><tspan y="-403.8" x="257.62 263.61759 267.20606 273.20365 279.44319 285.44078 289.52317 293.5955 299.59309">o aborto.</tspan></text>
<text xml:space="preserve" transform="matrix(1 0 -0 1 0 841.92)" font-size="10.08" font-family="Verdana"><tspan y="-403.8" x="303.24"> </tspan></text>
<text xml:space="preserve" transform="matrix(1 0 -0 1 0 841.92)" font-size="10.08" font-family="Verdana"><tspan y="-391.8" x="42.504 49.46398">B)</tspan></text>
<text xml:space="preserve" transform="matrix(1 0 -0 1 0 841.92)" font-size="10.08" font-family="ArialMT"><tspan y="-391.8" x="53.784"> </tspan></text>
<text xml:space="preserve" transform="matrix(1 0 -0 1 0 841.92)" font-size="10.08" font-family="Verdana"><tspan y="-391.8" x="56.664 63.6192 69.626888 76.088169 82.32768 85.200489 91.19809 97.195697 100.78417 107.02369 112.77937 116.36785 122.60737 128.61505 133.64498 138.89665 144.9245 150.92209 156.17377 159.79248 165.79009 172.26145 178.26912 181.84752 188.08705 193.84273 197.4312 203.43888 209.66832 215.90785 221.91553 231.51169 235.10016 241.09777 244.68624 250.92577 257.39714 263.63667 266.27763 271.5293 281.38755 287.38514">Reuni&#x00e3;o de pessoas que defendem o nudismo.</tspan></text>
<text xml:space="preserve" transform="matrix(1 0 -0 1 0 841.92)" font-size="10.08" font-family="Verdana"><tspan y="-391.8" x="291"> </tspan></text>
<text xml:space="preserve" transform="matrix(1 0 -0 1 0 841.92)" font-size="10.08" font-family="Verdana"><tspan y="-379.54" x="42.504 49.464044">C)</tspan></text>
<text xml:space="preserve" transform="matrix(1 0 -0 1 0 841.92)" font-size="10.08" font-family="ArialMT"><tspan y="-379.54" x="54.024"> </tspan></text>
<text xml:space="preserve" transform="matrix(1 0 -0 1 0 841.92)" font-size="10.08" font-family="Verdana"><tspan y="-379.54" x="56.664 63.13536 68.891048 71.76385 78.003368 80.87617 86.127849 92.18593 97.91137 101.49985 107.739368 113.74705 117.10368 126.93168 133.1712 138.42288 141.32593 146.5776 152.36353 155.952 161.95967 165.31632 170.568 176.62607 182.83536 186.90769 192.90529 196.49376 200.79792 206.57375 209.44655 212.31935 218.31696 221.18976 227.18737 232.43904 238.46689 242.05536 247.81104 257.63905 261.2275 266.9832 269.856 275.85359 279.44206 285.43968 291.91105 297.90867 300.54963 303.42243 308.6741 314.73219">Exibi&#x00e7;&#x00e3;o de m&#x00fa;sica e canto religioso em via p&#x00fa;blica.</tspan></text>
<text xml:space="preserve" transform="matrix(1 0 -0 1 0 841.92)" font-size="10.08" font-family="Verdana"><tspan y="-379.54" x="318.36"> </tspan></text>
<text xml:space="preserve" transform="matrix(1 0 -0 1 0 841.92)" font-size="10.08" font-family="Verdana"><tspan y="-367.3" x="42.504 50.183984">D)</tspan></text>
<text xml:space="preserve" transform="matrix(1 0 -0 1 0 841.92)" font-size="10.08" font-family="ArialMT"><tspan y="-367.3" x="54.744"> </tspan></text>
<text xml:space="preserve" transform="matrix(1 0 -0 1 0 841.92)" font-size="10.08" font-family="Verdana"><tspan y="-367.3" x="56.664 62.661603 65.5344 70.78608 77.287677 83.04336 88.29504 94.35312 100.32048 103.90896 110.148479 116.15616 119.512798 129.34079 135.3384 141.57793 148.04929 157.87729 163.63297 169.8725 173.94483 179.94243 183.5309 189.77043 195.7781 199.3565 205.35411 209.65827 215.67603 220.9277 226.98578 230.53394 236.5517 243.02306 249.26259 251.90355 254.77635 260.02806 266.08613">Picha&#x00e7;&#x00e3;o de monumento de pra&#x00e7;a p&#x00fa;blica.</tspan></text>
<text xml:space="preserve" transform="matrix(1 0 -0 1 0 841.92)" font-size="10.08" font-family="Verdana"><tspan y="-367.3" x="269.62"> </tspan></text>
<text xml:space="preserve" transform="matrix(1 0 -0 1 0 841.92)" font-size="10.08" font-family="Verdana"><tspan y="-355.3" x="42.504 48.983564">E)</tspan></text>
<text xml:space="preserve" transform="matrix(1 0 -0 1 0 841.92)" font-size="10.08" font-family="ArialMT"><tspan y="-355.3" x="53.304"> </tspan></text>
<text xml:space="preserve" transform="matrix(1 0 -0 1 0 841.92)" font-size="10.08" font-family="Verdana"><tspan y="-355.3" x="56.664 63.13536 69.12288 75.3624 81.36 86.4 89.272808 94.52448 100.582569 106.54993 110.138408 116.37792 122.133609 125.722087 131.72977 136.98145 142.04161 148.28115 151.15395 154.99443 161.46579 165.76995 171.7877 175.37618 181.37378 187.38146 190.95986 196.95746 201.26161 207.54146 213.51889 219.5165 224.76818 228.15505 233.40673 239.4144 245.19025 251.6616 257.6592 260.30018 265.55186">Exposi&#x00e7;&#x00e3;o de escultura de &#x00f3;rg&#x00e3;os sexuais.</tspan></text>
<text xml:space="preserve" transform="matrix(1 0 -0 1 0 841.92)" font-size="10.08" font-family="Verdana"><tspan y="-355.3" x="269.38"> </tspan></text>
<text xml:space="preserve" transform="matrix(1 0 -0 1 0 841.92)" font-size="10.08" font-family="Verdana"><tspan y="-343.06" x="42.504"> </tspan></text>
<path transform="matrix(1,0,0,-1,0,841.92)" d="M41.064 339.46H554.374V339.93998H41.064Z" fill-rule="evenodd"/>
<text xml:space="preserve" transform="matrix(1 0 -0 1 0 841.92)" font-size="10.08" font-family="Verdana"><tspan y="-220.13" x="56.664 62.661603 67.913288 73.92097 79.21297 85.21057 90.46225">acesas.</tspan></text>
<text xml:space="preserve" transform="matrix(1 0 -0 1 0 841.92)" font-size="10.08" font-family="Verdana"><tspan y="-220.13" x="93.888"> </tspan></text>
<text xml:space="preserve" transform="matrix(1 0 -0 1 0 841.92)" font-size="10.08" font-family="Verdana"><tspan y="-207.89" x="42.504"> </tspan></text>
<path transform="matrix(1,0,0,-1,0,841.92)" d="M41.064 204.29H554.374V204.77004H41.064Z" fill-rule="evenodd"/>
<text xml:space="preserve" transform="matrix(1 0 -0 1 0 841.92)" font-size="10.08" font-family="Verdana"><tspan y="-194.21" x="42.504"> </tspan></text>
<text xml:space="preserve" transform="matrix(1 0 -0 1 0 841.92)" font-size="10.08" font-family="Verdana" font-weight="bold"><tspan y="-181.97" x="42.504 51.13248 59.31744 66.01056 73.1976 79.92096 87.60192 96.2304 101.018398 108.20543 115.39246">QUEST&#x00c3;O 25 </tspan></text>
<text xml:space="preserve" transform="matrix(1 0 -0 1 0 841.92)" font-size="10.08" font-family="Verdana" font-weight="bold"><tspan y="-181.97" x="120.29">&#x2013;</tspan></text>
<text xml:space="preserve" transform="matrix(1 0 -0 1 0 841.92)" font-size="10.08" font-family="Verdana" font-weight="bold"><tspan y="-181.97" x="127.49"> </tspan></text>
<text xml:space="preserve" transform="matrix(1 0 -0 1 0 841.92)" font-size="10.08" font-family="Verdana"><tspan y="-181.97" x="132.29 139.2351 144.50695 151.46215 158.41735 164.17304 170.89641 176.16825 182.40778 185.04874 190.30042 196.58026 202.56778 208.57546 213.59529 218.84697 224.87482 231.11435 235.4185 241.42618 246.7081 252.46378 257.73564 263.97517 268.27934 274.05519 276.92799 283.1675 285.80848 291.06016 297.11824 303.08558 308.35743 314.59696 320.35264 325.62449 329.6968 334.00099 340.01875 346.25828 352.01396 354.6549 361.12629 367.12388 372.15379 378.62516 384.62275 388.46324 394.9346 399.23878 405.7202 411.7178 415.07447 420.3463 426.58586 432.59355 436.66587 439.53868 445.7782 451.7758 457.02748 463.0553 468.32716 474.08283">A CRFB disp&#x00f5;e sobre a proibi&#x00e7;&#x00e3;o de trabalho noturno, perigoso e </tspan></text>
<text xml:space="preserve" transform="matrix(1 0 -0 1 0 841.92)" font-size="10.08" font-family="Verdana"><tspan y="-181.97" x="479.47 482.3428 488.81419 494.06587 499.85179 502.49275 508.9641 515.2036 519.50778 525.2836 530.31356 536.55307 542.55068 546.8548 552.87258">insalubre para </tspan></text>
<text xml:space="preserve" transform="matrix(1 0 -0 1 0 841.92)" font-size="10.08" font-family="Verdana"><tspan y="-169.97" x="42.504 48.74352 54.751199 60.002878 65.294879 71.29248 77.290088 82.54176 88.55952 93.811199 99.597118 109.42511 115.41263 121.652149 127.40783 131.48015 137.48783 141.56014 151.38814 154.0291 160.50046 166.49805 172.73758 178.73517 184.48076 187.35356 193.5931 199.59069 205.83022 211.83789 215.42636 221.17195 228.6009 238.42891 244.4265 250.41402 256.41163 262.4193 267.671 272.96299 278.96058 284.71626 290.70378 294.29225 300.28984 303.16264 309.15016 315.14778 321.15547 327.3849 330.2577 334.3401 340.3276 346.56715 352.56474 356.8689 362.88667 368.63227 372.7046 377.00877 383.02653 389.26606 395.02174 397.89454 404.3659 410.3635 414.4459 420.4334 426.431 432.1766 438.64799 444.64558 447.28654 451.35887 457.36656 463.344 469.09968 478.92768 484.67329 491.14466 500.97267 506.96018 513.19967 518.9553 524.20706 528.0777 534.07528 540.06277 546.30227 552.30996">pessoas com determinada idade. Uma pessoa foi pedir para trabalhar &#x00e0; noite em um posto de </tspan></text>
<text xml:space="preserve" transform="matrix(1 0 -0 1 0 841.92)" font-size="10.08" font-family="Verdana"><tspan y="-157.73" x="42.504 48.501604 54.74112 60.73872 65.9904 70.092967 76.10065 81.13056 84.003368 93.599529 99.60721 105.83665 109.908969 115.90657 120.452648 126.69216 132.69985 137.004 142.25568 148.28353 158.11153 164.35106 170.59059 175.84227 179.713 182.5858 188.57332 194.329 197.2018 202.45348 206.08228 210.62836 216.86789 222.8655 227.16965 232.94548 242.77349 247.31957 253.31717 257.86326 264.10279 268.40696 274.4247 280.66426 284.74665 287.3876 293.3953 297.45756 303.45515 307.53755 310.41035 316.40794 320.954 326.9516 329.8244 335.8321 342.06153 347.8172 354.28858 358.83467 364.83229 371.30366 377.31135 381.6155 388.08689 394.08448 400.08207 404.62815 410.86769 416.86528 423.1048 429.1125 433.41667 436.29954 442.29713 446.61137 452.61906 462.42689 468.70674 472.76899 478.77668 485.0061">abastecimento de combust&#x00ed;veis, por&#x00e9;m o propriet&#x00e1;rio alegou que n&#x00e3;o poderia empreg&#x00e1;</tspan></text>
<text xml:space="preserve" transform="matrix(1 0 -0 1 0 841.92)" font-size="10.08" font-family="Verdana"><tspan y="-157.73" x="491.47">-</tspan></text>
<text xml:space="preserve" transform="matrix(1 0 -0 1 0 841.92)" font-size="10.08" font-family="Verdana"><tspan y="-157.73" x="496.03 498.9028 504.9004 509.44648 515.686 521.44168 527.42916 530.07009 536.3096 542.3071 546.8532 552.8508">lo devido &#x00e0; </tspan></text>
<text xml:space="preserve" transform="matrix(1 0 -0 1 0 841.92)" font-size="10.08" font-family="Verdana"><tspan y="-145.49" x="42.504 46.808164 52.81584 58.09776 61.93824 66.2424 69.12528 74.37696 80.43504 86.402408 89.75904 92.63184 98.63953 104.868968 110.86657 113.50753 117.09601 123.335529 129.33312 132.92159 138.91918 142.75966 145.63246 151.38814 154.26094 160.50048 166.49806 172.7376 178.74527 182.32367 188.5632 194.56079 198.86495 204.8827 208.23935 213.49103 219.99263 225.99022 229.34687 232.21967 238.4592 244.45679 250.69632 256.704 260.2925 263.88099 271.56193 277.5696 281.148 286.9037 292.15538 298.1832 302.48738 308.7672 314.74467 318.33314">restri&#x00e7;&#x00e3;o legal da atividade para sua idade. De acordo c</tspan></text>
<text xml:space="preserve" transform="matrix(1 0 -0 1 0 841.92)" font-size="10.08" font-family="Verdana"><tspan y="-145.49" x="323.88 329.8776 339.7056 343.29408 349.29167 352.88014 355.75294 361.5086 364.3814 367.97999 371.56846 377.57615 382.60606 387.85774 393.86543 397.24223 401.31455 404.18736 410.42689 416.42448 420.01295 426.25248 432.26017 435.83857 439.92097 445.92866 451.18034 455.041 459.34516 461.9962 467.24787 473.30595 479.2733 482.86177 488.11344 494.12113 497.72978 503.9693 506.61027 510.91444 516.9221 521.9722 524.84506 530.8426 537.3139 543.3115 546.9 552.6557">om a lei, esse tipo de restri&#x00e7;&#x00e3;o se direciona a </tspan></text>
<text xml:space="preserve" transform="matrix(1 0 -0 1 0 841.92)" font-size="10.08" font-family="Verdana"><tspan y="-133.46" x="42.504 48.74352 54.751199 60.002878 65.294879 71.29248 77.290088 82.54176">pessoas:</tspan></text>
<text xml:space="preserve" transform="matrix(1 0 -0 1 0 841.92)" font-size="10.08" font-family="Verdana"><tspan y="-133.46" x="86.904"> </tspan></text>
<text xml:space="preserve" transform="matrix(1 0 -0 1 0 841.92)" font-size="10.08" font-family="Verdana" font-weight="bold"><tspan y="-121.22" x="42.504"> </tspan></text>
<text xml:space="preserve" transform="matrix(1 0 -0 1 0 841.92)" font-size="10.08" font-family="Verdana"><tspan y="-109.22" x="42.504 49.46402">A)</tspan></text>
<text xml:space="preserve" transform="matrix(1 0 -0 1 0 841.92)" font-size="10.08" font-family="ArialMT"><tspan y="-109.22" x="53.784"> </tspan></text>
<text xml:space="preserve" transform="matrix(1 0 -0 1 0 841.92)" font-size="10.08" font-family="Verdana"><tspan y="-109.22" x="56.664 65.06064 71.06832 77.5296 83.52721 87.83137 93.83905 99.12097 102.47761 108.717128 114.72481 118.08144 124.5528 131.02417 134.61264 140.36832 146.83968 152.83728 158.08896">Menores de 18 anos.</tspan></text>
<text xml:space="preserve" transform="matrix(1 0 -0 1 0 841.92)" font-size="10.08" font-family="Verdana"><tspan y="-109.22" x="161.59"> </tspan></text>
<text xml:space="preserve" transform="matrix(1 0 -0 1 0 841.92)" font-size="10.08" font-family="Verdana"><tspan y="-96.984" x="42.504 49.46398">B)</tspan></text>
<text xml:space="preserve" transform="matrix(1 0 -0 1 0 841.92)" font-size="10.08" font-family="ArialMT"><tspan y="-96.984" x="53.784"> </tspan></text>
<text xml:space="preserve" transform="matrix(1 0 -0 1 0 841.92)" font-size="10.08" font-family="Verdana"><tspan y="-96.984" x="56.664 65.06064 71.06832 77.5296 83.52721 87.83137 93.83905 99.12097 102.47761 108.717128 114.72481 118.08144 124.5528 131.02417 134.61264 140.36832 146.83968 152.83728 158.08896">Menores de 21 anos.</tspan></text>
<text xml:space="preserve" transform="matrix(1 0 -0 1 0 841.92)" font-size="10.08" font-family="Verdana"><tspan y="-96.984" x="161.59"> </tspan></text>
<text xml:space="preserve" transform="matrix(1 0 -0 1 0 841.92)" font-size="10.08" font-family="Verdana"><tspan y="-84.744" x="42.504 49.464044">C)</tspan></text>
<text xml:space="preserve" transform="matrix(1 0 -0 1 0 841.92)" font-size="10.08" font-family="ArialMT"><tspan y="-84.744" x="54.024"> </tspan></text>
<text xml:space="preserve" transform="matrix(1 0 -0 1 0 841.92)" font-size="10.08" font-family="Verdana"><tspan y="-84.744" x="56.664 65.06064 71.06832 77.5296 83.52721 87.83137 93.83905 99.12097 102.47761 108.717128 114.72481 118.08144 124.5528 131.02417 134.61264 140.36832 146.83968 152.83728 158.08896">Menores de 35 anos.</tspan></text>
<text xml:space="preserve" transform="matrix(1 0 -0 1 0 841.92)" font-size="10.08" font-family="Verdana"><tspan y="-84.744" x="161.59"> </tspan></text>
<text xml:space="preserve" transform="matrix(1 0 -0 1 0 841.92)" font-size="10.08" font-family="Verdana"><tspan y="-72.744" x="42.504 50.183984">D)</tspan></text>
<text xml:space="preserve" transform="matrix(1 0 -0 1 0 841.92)" font-size="10.08" font-family="ArialMT"><tspan y="-72.744" x="54.744"> </tspan></text>
<text xml:space="preserve" transform="matrix(1 0 -0 1 0 841.92)" font-size="10.08" font-family="Verdana"><tspan y="-72.744" x="56.664 65.06064 71.05824 73.931049 79.92865 84.23281 90.24049 95.522418 99.11089 105.35041 111.106098 114.69457 120.9341 127.40546 130.99393 136.7496 143.22097 149.21857 154.47025">Maiores de 35 anos.</tspan></text>
<text xml:space="preserve" transform="matrix(1 0 -0 1 0 841.92)" font-size="10.08" font-family="Verdana"><tspan y="-72.744" x="157.99"> </tspan></text>
<text xml:space="preserve" transform="matrix(1 0 -0 1 0 841.92)" font-size="10.08" font-family="Verdana"><tspan y="-60.504" x="42.504 48.983564">E)</tspan></text>
<text xml:space="preserve" transform="matrix(1 0 -0 1 0 841.92)" font-size="10.08" font-family="ArialMT"><tspan y="-60.504" x="53.304"> </tspan></text>
<text xml:space="preserve" transform="matrix(1 0 -0 1 0 841.92)" font-size="10.08" font-family="Verdana"><tspan y="-60.504" x="56.664 65.06064 71.05824 73.931049 79.92865 84.23281 90.24049 95.522418 99.11089 105.35041 111.106098 114.69457 120.9341 127.40546 130.99393 136.7496 143.22097 149.21857 154.47025">Maiores de 60 anos.</tspan></text>
<text xml:space="preserve" transform="matrix(1 0 -0 1 0 841.92)" font-size="10.08" font-family="Verdana"><tspan y="-60.504" x="157.99"> </tspan></text>
<text xml:space="preserve" transform="matrix(1 0 -0 1 0 841.92)" font-size="10.08" font-family="Verdana"><tspan y="-48.24" x="78.504"> </tspan></text>
<text xml:space="preserve" transform="matrix(1 0 -0 1 42.504 230.39698)" font-size="10.08" font-family="Verdana" font-weight="bold"><tspan y="-147.817" x="0 8.62848 16.81344 23.50656 30.6936 37.41696 45.09792 53.750375 56.875177 63.83037 71.04139">QUEST&#x00c3;O 21 </tspan></text>
<text xml:space="preserve" transform="matrix(1 0 -0 1 42.504 230.39698)" font-size="10.08" font-family="Verdana" font-weight="bold"><tspan y="-147.817" x="74.234">&#x2013;</tspan></text>
<text xml:space="preserve" transform="matrix(1 0 -0 1 42.504 230.39698)" font-size="10.08" font-family="Verdana" font-weight="bold"><tspan y="-147.817" x="81.45798"> </tspan></text>
<text xml:space="preserve" transform="matrix(1 0 -0 1 42.504 230.39698)" font-size="10.08" font-family="Verdana"><tspan y="-147.817" x="84.337978 91.76694 101.59493 107.37459 110.731227 116.97074 122.726428 127.9781 133.28018 139.27779 145.29936 148.42417 154.6637 161.13506 166.9147 170.27135 176.02703 181.2787 185.38127 191.16092 194.28572 204.11373 210.11133 214.41548 220.43325 226.9046 233.14414 238.9238 242.0486 248.51996 254.54154 257.66633 261.9705 268.45195 274.44953 277.83015 280.95494 287.4263 293.66584 303.49385 309.2735 312.63014 318.86967 323.17384 329.1916 334.44328 340.25315 343.60978 349.6074 356.07878 362.3183 364.95927 367.83207 373.08375 378.89363 382.25025 388.48979 394.51136 397.86799 406.03279 412.2723 418.74369 421.38465 426.63633 429.53938 435.537 438.4098 444.40739 448.02995 451.38658 454.97505 460.7307 463.39567 466.7523 472.74989 478.9894 483.0718 489.0795 495.30894 498.18174 504.42127 510.41886">Uma pessoa que est&#x00e1; morando na rua, numa pra&#x00e7;a p&#x00fa;blica do Munic&#x00ed;pio, foi agredida </tspan><tspan y="-135.8174" x=".000076293948 6.8018248 10.864065 13.505026 19.976386 26.778134 30.840374 36.837976 41.142137 45.466459 51.222139 57.693498 62.945177 69.00326 73.30742 79.053028 89.675098 93.50549 97.57781 103.57542 109.81493 115.81254 121.858287 125.96084 131.95844 138.00418 142.10674 146.41089 152.18674 158.6581 164.89763 170.89522 176.1469 180.56977 184.84049 191.08002 196.8357 199.7085 205.69602 211.45169 217.92305 224.16259 230.95426 235.02657 240.27825 246.06417 253.32959 257.40193 262.6536 268.68144 272.9856 279.26545">e lhe arrancaram todas as roupas, deixando seu corpo</tspan></text>
<text xml:space="preserve" transform="matrix(1 0 -0 1 42.504 230.39698)" font-size="10.08" font-family="Verdana"><tspan y="-135.8174" x="286.1781 289.7162 295.99604 301.99363 307.23524 312.47685 318.58534 324.86518 330.86277 335.15684 339.12837"> descoberto</tspan></text>
<text xml:space="preserve" transform="matrix(1 0 -0 1 42.504 230.39698)" font-size="10.08" font-family="Verdana"><tspan y="-135.8174" x="345.0957 349.48835 353.56068 356.20164 362.673 367.713 370.58583 376.82536 382.07704 384.74824 390.73576 397.5375 401.59974 406.8514 412.63734 419.1087 425.15446 429.25703 435.2546 439.55879 445.83863 451.81608 457.81367 463.64775 467.72007 473.9596 479.9673 486.19673 488.83769 492.91 498.9076 501.7804 507.03208 510.41899">, inclusive seus &#x00f3;rg&#x00e3;os genitais. </tspan><tspan y="-123.7976" x="-.00030517579 7.428655 17.026816 21.099137 24.455777 30.927136 37.166658 42.418336 45.321378 51.318979 57.790338 63.546018 67.850177 70.733058 76.49074 80.56306 86.802577 92.80218 96.8745 102.87209 109.34345 115.34106 119.64522 125.92506 131.66259 135.7349 145.33106 151.80242 158.04195 160.91475 165.95475 168.82755 175.06708 181.06467 183.93747 187.2961 191.36841 197.366 203.3656 207.43791 213.19359 217.26592 223.02159 229.49295 235.73249 241.48816 245.79431 249.87671 255.8743 261.8739 265.94624 270.98625 277.4576 283.2133 293.0413 299.03889 305.2784 311.278 315.35035 321.58988 327.58747 331.89164 337.66947 341.7418 347.73939 353.9789 359.96644 362.6074 365.4802 368.353 374.10868 378.41487 382.49726 388.25294 393.5046 398.8067 404.56437 408.6367 414.87623 420.8839 426.1356 431.42759 437.42518 443.42277 446.79148 450.62187 454.69419 458.99836 465.0161 469.08845">Um funcion&#x00e1;rio da guarda municipal, ao atender ao chamado para auxiliar essa pessoa, trata</tspan></text>
<text xml:space="preserve" transform="matrix(1 0 -0 1 42.504 230.39698)" font-size="10.08" font-family="Verdana"><tspan y="-123.7976" x="475.1467 479.72303">-a</tspan></text>
<text xml:space="preserve" transform="matrix(1 0 -0 1 42.504 230.39698)" font-size="10.08" font-family="Verdana"><tspan y="-123.7976" x="485.4706 489.54295 494.79463 500.82246 510.4186"> com </tspan><tspan y="-111.7774" x="-.00039672853 5.2512838 11.279124 15.583284 19.665684 25.673363 30.703284 33.57608 39.57368 43.88792 49.8956 54.44168 60.19736 64.269687 70.02537 76.49673 81.748409 87.80649 93.77385 97.37241 101.91849 104.55945 111.03081 116.07081 118.71177 125.18313 130.43482 133.10602 139.09354 144.84922 149.3953 155.63483 159.70716 162.34812 164.98908 167.86188 173.15389 179.1414 185.61277 191.8523 197.60797 202.15406 207.40573 213.90734 219.66301 224.20909 227.56572 233.56331 239.56092 246.03227 252.03995 256.1022 261.85789 266.40397 272.6435 278.39918 282.94526 288.19694 294.20463 298.3072 304.2947 306.93568 312.18736 318.21519 322.76127 329.0008 334.99839 339.30256 345.0784 349.62449 354.87617 360.904 367.14353 371.22593 374.5457 379.10569 381.9785 387.73417 392.28025 396.12074 402.12843 411.93626 418.2161 424.2036 428.50779 434.52555 438.60795 441.48075 447.47834 457.30635 463.062 469.30155 473.37388 479.38157 482.83573 487.39573 495.32868 501.78996 507.54563 510.41844">cortesia e aten&#x00e7;&#x00e3;o, inclusive utilizando sua jaqueta de servi&#x00e7;o para cobri-la temporariamente. Qual </tspan><tspan y="-99.7774" x="-.00039672853 3.5880836 9.827603 16.298964 22.538485 28.536086 38.364088 44.119768 50.359285 54.431604 60.449666 65.74197 71.98148 74.85429 80.105968 86.3858 92.37332 97.41332 101.48564 107.5037 112.796 119.26736 125.28542 130.57773 137.53293 143.53054 149.77007 155.02175 158.89247 161.76528 165.60576 171.84529 174.7181 179.96977 186.02785 192.01567 197.30797 203.5475 209.56555 214.85785 221.81305 227.82073 234.05017 240.2897 246.52924 249.40204 252.27484 257.52653 263.60505 268.8671 274.39094 280.39863 286.62806 292.63575 296.9399 302.70567 306.77799 309.41896 315.40647 321.42454 326.71684 332.95637 338.97444 344.26673 351.21186 355.51603 361.53379 366.5738 369.4466 372.33985 377.63215 382.20848 389.15357 396.10877 401.6326 408.57774 413.1745 418.44664 424.68617 430.7143 435.7546 442.22599 448.4655 454.9369 461.4287 466.721 472.96055 478.95814 484.95576 490.9839 496.2661 500.33845 506.34614 510.41847">fundamento disposto na Constitui&#x00e7;&#x00e3;o da Rep&#x00fa;blica Federativa do Brasil (CRFB) de 1988 pode ter </tspan><tspan y="-87.7774" x="-.00039672853 5.9972035 10.301363 13.184243 19.191924 25.421364 29.493683 35.491285 41.7308 47.7284 51.316884 57.314485 60.671125 65.922809 71.950649 78.422008 84.4196 90.89096 94.96328 100.71896 104.30744 110.54696 116.54456 120.13304 126.37256 132.84392 138.5996 142.90375 149.1836 155.16103 158.7495 168.34566 174.58519 181.05655 183.69751 188.94919 191.85224 198.09177 203.84745 206.72025 212.23561">orientado a conduta do guarda municipal? </tspan><tspan y="-75.7774" x="-.00039672853"> </tspan><tspan y="-63.777399" x="-.00039672853 6.9596235">A)</tspan></text>
<text xml:space="preserve" transform="matrix(1 0 -0 1 42.504 230.39698)" font-size="10.08" font-family="ArialMT"><tspan y="-63.777399" x="11.279603"> </tspan></text>
<text xml:space="preserve" transform="matrix(1 0 -0 1 42.504 230.39698)" font-size="10.08" font-family="Verdana"><tspan y="-63.777399" x="14.159603 21.104723 24.693203 29.944884 35.97272 42.21224 48.219919 52.52408 58.289838 64.52936 67.40216 73.399768 77.065608">A soberania. </tspan><tspan y="-51.777399" x="-.00039672853 6.9595839">B)</tspan></text>
<text xml:space="preserve" transform="matrix(1 0 -0 1 42.504 230.39698)" font-size="10.08" font-family="ArialMT"><tspan y="-51.777399" x="11.279603"> </tspan></text>
<text xml:space="preserve" transform="matrix(1 0 -0 1 42.504 230.39698)" font-size="10.08" font-family="Verdana"><tspan y="-51.777399" x="14.159603 22.092564 25.670964 31.910485 34.551446 41.022806 45.326967 51.102804 53.9756 56.8484 61.8884 71.7164 77.714008 81.30248 87.542 93.539608 96.180568 99.05337 102.893848 105.76665 111.018329 117.046169 120.525608">O pluralismo pol&#x00ed;tico. </tspan><tspan y="-39.777399" x="-.00039672853 6.9596436">C)</tspan></text>
<text xml:space="preserve" transform="matrix(1 0 -0 1 42.504 230.39698)" font-size="10.08" font-family="ArialMT"><tspan y="-39.777399" x="11.519604"> </tspan></text>
<text xml:space="preserve" transform="matrix(1 0 -0 1 42.504 230.39698)" font-size="10.08" font-family="Verdana"><tspan y="-39.777399" x="14.159604 21.104725 24.693205 30.932726 33.573686 39.8132 46.05272 48.925519 55.165037 61.162637 67.40215 73.409839 76.988239 83.22775 88.98344 92.571918 98.81143 104.819118 109.84903 115.10071 121.12855 127.12615 130.71463 136.95417 143.42552 153.25353 159.0092 165.48056 171.47815 175.03559">A dignidade da pessoa humana. </tspan><tspan y="-27.777398" x="-.00039577485 7.6795847">D)</tspan></text>
<text xml:space="preserve" transform="matrix(1 0 -0 1 42.504 230.39698)" font-size="10.08" font-family="ArialMT"><tspan y="-27.777398" x="12.239604"> </tspan></text>
<text xml:space="preserve" transform="matrix(1 0 -0 1 42.504 230.39698)" font-size="10.08" font-family="Verdana"><tspan y="-27.777398" x="14.159604 22.092564 27.344244 30.952885 36.940408 42.696088 45.568887 51.566488 55.870649 61.878328 66.928409 70.516887 75.76856 81.7964 87.04808 89.95112 95.7068 98.579608 103.619609 107.208087 113.4476 119.445209 123.03368 126.87416 131.17832 137.19608 143.43561 149.4332 152.07416 158.54552 164.54312 168.13159 174.13927 177.71767 183.9572 189.71288 193.30135 195.9423 198.81511 204.80263 208.88503 214.8927 218.47557 221.34838 227.5879 230.46071 235.5007 238.3735 244.3711 248.21158 251.08438 256.84007 262.83766 266.49559">Os valores sociais do trabalho e da livre iniciativa. </tspan><tspan y="-15.777397" x="-.00039577485 6.4791648">E)</tspan></text>
<text xml:space="preserve" transform="matrix(1 0 -0 1 42.504 230.39698)" font-size="10.08" font-family="ArialMT"><tspan y="-15.777397" x="10.799604"> </tspan></text>
<text xml:space="preserve" transform="matrix(1 0 -0 1 42.504 230.39698)" font-size="10.08" font-family="Verdana"><tspan y="-15.777397" x="14.159604 22.092564 25.670964 31.910485 34.551446 41.022806 45.326967 51.102804 53.9756 56.8484 61.8884 71.7164 77.714008 81.30248 87.542 93.539608 96.89624 99.5372 102.41 108.39752 112.70168 118.47752 122.066 124.70696 131.17832 133.81928 139.07096 141.974 147.72968 151.802 154.44297 160.43048 166.42807 169.96558">O pluralismo da livre iniciativa. </tspan><tspan y="-3.7773972" x="-.00039577485"> </tspan></text>
<text xml:space="preserve" transform="matrix(1 0 -0 1 42.504 611.88699)" font-size="10.08" font-family="Verdana"><tspan y="-99.3468" x="0"> </tspan></text>
<text xml:space="preserve" transform="matrix(1 0 -0 1 42.504 611.88699)" font-size="10.08" font-family="Verdana" font-weight="bold"><tspan y="-87.3468" x="0 8.62848 16.81344 23.50656 30.6936 37.41696 45.09792 53.7264 56.8512 64.03824 71.22527">QUEST&#x00c3;O 24 </tspan></text>
<text xml:space="preserve" transform="matrix(1 0 -0 1 42.504 611.88699)" font-size="10.08" font-family="Verdana" font-weight="bold"><tspan y="-87.3468" x="74.426">&#x2013;</tspan></text>
<text xml:space="preserve" transform="matrix(1 0 -0 1 42.504 611.88699)" font-size="10.08" font-family="Verdana" font-weight="bold"><tspan y="-87.3468" x="81.626"> </tspan></text>
<text xml:space="preserve" transform="matrix(1 0 -0 1 42.504 611.88699)" font-size="10.08" font-family="Verdana"><tspan y="-87.3468" x="84.746 91.7012 97.69881 104.170169 107.758647 113.75625 118.06041 127.90857 133.91625 137.27289 143.27048 146.62712 153.58232 160.53752 166.29322 173.23834 176.8369 180.19355 185.94922 195.77722 199.13387 205.3734 211.84476 217.60044 220.47324 223.82988 230.06941 236.067 241.31868 244.46364 249.71532 252.61837 256.45884 262.9302 268.9278 274.17948 280.2073 285.96299 291.21467 294.60154 300.59913 306.83866 312.83625 315.70906 321.69657 327.69416 331.076 337.54737 347.37538 353.37297 356.72959 362.96913 368.7248 373.97648 379.27857 385.27616 391.27375 394.63038 400.8699 406.8675 413.10704 419.11473 422.47135 428.71089 434.71858 441.17985 446.93553 451.00785 455.312 461.32978 465.63395 468.76884 474.77653 484.58436 487.7293 492.981 499.03907 504.29075 510.28834">Conforme a CRFB, em qual das situa&#x00e7;&#x00f5;es abaixo uma pessoa pode penetrar em casa </tspan><tspan y="-75.3468" x="0 5.9976 8.870399 15.34176 21.097439 23.97024 29.96784 33.32448 38.576158 44.583837 54.200159 57.78864 63.04032 69.06816 75.30768 80.55936 86.56704 92.82672 96.89904 99.54 109.368 115.12368 121.59504 125.66736 131.66497 135.25344 141.49297 147.24864 150.83712 160.66512 166.66272 170.96688 176.98464 183.22417 189.22177 193.52593 199.03601">alheia sem consentimento do morador? </tspan><tspan y="-63.3468" x="0"> </tspan><tspan y="-51.3468" x="0 6.96002">A)</tspan></text>
<text xml:space="preserve" transform="matrix(1 0 -0 1 42.504 611.88699)" font-size="10.08" font-family="ArialMT"><tspan y="-51.3468" x="11.28"> </tspan></text>
<text xml:space="preserve" transform="matrix(1 0 -0 1 42.504 611.88699)" font-size="10.08" font-family="Verdana"><tspan y="-51.3468" x="14.16 21.10512 27.1128 30.480002 36.951364 42.948965 49.420328 55.176008 61.183687 65.48785 69.146 74.39768 80.1836 90.0116 93.600078 103.196239 109.43575 112.308559 116.380878 122.37848 125.96696 131.72264 134.59545 138.66777 144.42345 148.01192 154.01959 157.59799 163.83753 167.91992 173.9276 177.28423 183.75559 189.99512 192.63608 197.88776 203.94583 210.38697 216.6265 222.6241 226.21257 232.21018 237.25017 240.83864 246.59432 249.46712 254.75913 257.39 263.8614 270.33277 276.33036 281.58204 285.21604">Se houver som muito alto e prejudicando os vizinhos. </tspan><tspan y="-39.3468" x="0 6.9599807">B)</tspan></text>
<text xml:space="preserve" transform="matrix(1 0 -0 1 42.504 611.88699)" font-size="10.08" font-family="ArialMT"><tspan y="-39.3468" x="11.28"> </tspan></text>
<text xml:space="preserve" transform="matrix(1 0 -0 1 42.504 611.88699)" font-size="10.08" font-family="Verdana"><tspan y="-39.3468" x="14.16 20.157599 26.1552 30.459359 36.477117 40.065599 46.305116 52.312795 58.542234 64.53983 68.843997 72.220798 78.692157 88.288318 91.87679 97.8744 104.113918 106.98672 116.81471 122.5704 125.4432 129.03168 135.27121 141.02689 150.85489 156.86257 161.89249 165.96482 168.83762 174.0893 179.87522 183.46369 189.70322 196.17458 201.93025 205.51873 208.87537 215.34673 221.58626 224.22722 230.69858 234.28705 240.52658 246.28226 250.58641 256.36228 259.95075 265.94834 269.5368 275.77635 281.77394 285.6144 288.4872 294.4848 298.07328 304.3128 310.3104 313.89888 319.65455 322.52735 327.81935 330.45024 336.68977 343.16114 349.15873 353.156">Para pegar um animal dom&#x00e9;stico que fugiu para o p&#x00e1;tio do vizinho. </tspan><tspan y="-27.346802" x="0 6.96004">C)</tspan></text>
<text xml:space="preserve" transform="matrix(1 0 -0 1 42.504 611.88699)" font-size="10.08" font-family="ArialMT"><tspan y="-27.346802" x="11.52"> </tspan></text>
<text xml:space="preserve" transform="matrix(1 0 -0 1 42.504 611.88699)" font-size="10.08" font-family="Verdana"><tspan y="-27.346802" x="14.160001 22.09296 28.554242 34.55184 40.79136 47.030878 53.028478 56.61696 62.61456 66.20304 71.45472 77.5128 82.76448 88.520168 92.10864 98.116329 103.14624 107.21856 113.21616 116.5728 121.82448 127.83216 134.32369 140.56322 146.56082 149.91747 152.55843 159.02979 165.26932 171.74068 177.98021 183.9778 190.21733 196.21492 199.80339 205.55907 209.14754 215.14513 220.3968 223.78368 230.02321 236.03089 241.28256 246.57456 252.57216 258.32786 263.57954 267.19825 273.66963 279.6672 285.6648 289.02143 294.2731 300.30094 306.7723 312.024 317.8099 324.04945 330.5208 336.2765 346.1045 349.69297 354.94465 360.73057 363.60337 367.90754 371.66603">Quando a casa est&#x00e1; sendo inundada e as pessoas n&#x00e3;o conseguem sair. </tspan><tspan y="-15.347201" x=".0000009536743 7.679981">D)</tspan></text>
<text xml:space="preserve" transform="matrix(1 0 -0 1 42.504 611.88699)" font-size="10.08" font-family="ArialMT"><tspan y="-15.347201" x="12.240001"> </tspan></text>
<text xml:space="preserve" transform="matrix(1 0 -0 1 42.504 611.88699)" font-size="10.08" font-family="Verdana"><tspan y="-15.347201" x="14.160001 22.09296 28.554242 34.55184 40.79136 47.030878 53.028478 56.61696 63.088319 68.844 75.31536 81.30288 87.31056 91.38288">Quando houver </tspan></text>
<text xml:space="preserve" transform="matrix(1 0 -0 1 42.504 611.88699)" font-size="10.08" font-family="Verdana"><tspan y="-15.347201" x="94.93101 101.210849 105.50493 108.266849 112.238368 118.34685">gritos</tspan></text>
<text xml:space="preserve" transform="matrix(1 0 -0 1 42.504 611.88699)" font-size="10.08" font-family="Verdana"><tspan y="-15.347201" x="123.52801 127.116489 133.35602 139.1117 142.70017 148.9397 154.94738 160.19905 165.49105 171.48865 177.48624 180.84288 186.09456 192.1224 201.95041 205.53888 211.77841 217.77602 223.78369 230.01314 235.26482 241.32289 244.64929 254.4773 260.485 266.71443 270.78675 276.78434 279.4253 283.01377 289.2533 293.55747 299.57524 305.3309 311.3386 315.33229"> de pessoa com doen&#x00e7;a mental grave. </tspan><tspan y="-3.3270016" x=".0000076293949 6.479568">E)</tspan></text>
<text xml:space="preserve" transform="matrix(1 0 -0 1 42.504 611.88699)" font-size="10.08" font-family="ArialMT"><tspan y="-3.3270016" x="10.800008"> </tspan></text>
<text xml:space="preserve" transform="matrix(1 0 -0 1 42.504 611.88699)" font-size="10.08" font-family="Verdana"><tspan y="-3.3270016" x="14.160007 20.157607 26.155207 30.459366 35.267526 41.507043 47.51472 53.74416 56.61696 62.856477 68.85408 73.642078 79.88159 85.889278 90.66719 96.664798 102.90431 106.97663 111.28079 117.29855 122.55023 127.36847 133.12415 135.99695 141.28896 143.91983 150.15937 156.63072 162.62833 167.88 172.69824 178.93778 185.1773 191.18498 195.9629 198.60387 205.07523 208.6637 214.6613 218.7437 228.5717 234.56929 244.3973 249.18529 255.18289 261.65428 267.66197 272.43989 278.43748 283.68916 288.5074 294.74693 299.0511 305.06886 311.30839 315.39079 318.26359 324.27128 328.33354 334.0892 338.39338 341.27626 347.27384 352.5255 357.10185 363.08937 365.96217 371.95976 375.3164 381.314 385.61817 391.63594 401.46394 406.01 412.0177 416.79563 423.03517 429.04286 431.67375 437.66127 443.65885 447.963 453.98078 463.80879 468.59678 474.35246 479.60414 484.42237 487.06333 493.5347 498.57469 504.58238 509.83406">Por pedido de outros vizinhos que informam que os propriet&#x00e1;rios viajaram e deixaram as luzes </tspan></text>
</g>
</svg>
