<svg xmlns="http://www.w3.org/2000/svg" xmlns:xlink="http://www.w3.org/1999/xlink" id="Camada_1" x="0px" y="0px" viewBox="0 0 122.1 27.8" style="enable-background:new 0 0 122.1 27.8;" xml:space="preserve"><style type="text/css">	.st0-voemtxlogo{fill:url(#SVGID_1_);}	.st1-voemtxlogo{fill:url(#SVGID_2_);}	.st2-voemtxlogo{fill:url(#SVGID_3_);}	.st3-voemtxlogo{fill:url(#SVGID_4_);}	.st4-voemtxlogo{fill:#141414;}</style><g>	<g>		<linearGradient id="SVGID_1_" gradientUnits="userSpaceOnUse" x1="8.552" y1="0.2143" x2="8.552" y2="27.8323">			<stop offset="0" style="stop-color:#3A96DE"></stop>			<stop offset="1" style="stop-color:#3476E0"></stop>		</linearGradient>		<path class="st0-voemtxlogo" d="M14.1,10.4C10.2,6.2,3.2,0,3.2,0H2.3H0.9H0c0,0,6,6.1,9.6,10.7c3.6,4.6,3.2,8.3,1.9,11.7   c-1.3,3.5-2,5.4-2,5.4h0.9h2.5h0.9c0,0,0.9-2,2.3-5.6C17.5,18.7,17.9,14.7,14.1,10.4z"></path>		<linearGradient id="SVGID_2_" gradientUnits="userSpaceOnUse" x1="14.7161" y1="0.2143" x2="14.7161" y2="27.8323">			<stop offset="0" style="stop-color:#3A96DE"></stop>			<stop offset="1" style="stop-color:#3476E0"></stop>		</linearGradient>		<path class="st1-voemtxlogo" d="M21.3,10C17,6.3,7.9,0,7.9,0H7H5.5H4.7c0,0,8,6.2,12.1,10.2c4.1,4,3.8,8.3,2.1,11.9c-1.7,3.6-2.7,5.7-2.7,5.7   h0.9h2.5h0.9c0,0,1.2-2.2,3-5.8C25.3,18.4,25.6,13.7,21.3,10z"></path>		<linearGradient id="SVGID_3_" gradientUnits="userSpaceOnUse" x1="20.8758" y1="0.2143" x2="20.8758" y2="27.8323">			<stop offset="0" style="stop-color:#3A96DE"></stop>			<stop offset="1" style="stop-color:#3476E0"></stop>		</linearGradient>		<path class="st2-voemtxlogo" d="M28.5,9.6C23.7,6.5,12.6,0,12.6,0h-0.9h-1.5H9.4c0,0,10.1,6.4,14.7,9.8c4.6,3.4,4.3,8.4,2.3,12.1   c-2.1,3.7-3.4,6-3.4,6h0.9h2.5h0.9c0,0,1.5-2.4,3.8-6.1C33.1,18,33.3,12.7,28.5,9.6z"></path>		<linearGradient id="SVGID_4_" gradientUnits="userSpaceOnUse" x1="27.0288" y1="0.2143" x2="27.0288" y2="27.8323">			<stop offset="0" style="stop-color:#3A96DE"></stop>			<stop offset="1" style="stop-color:#3476E0"></stop>		</linearGradient>		<path class="st3-voemtxlogo" d="M39.9,14.3c-0.4-2.1-1.7-4-4.1-5.2C30.4,6.6,17.2,0,17.2,0h-0.9h-1.5h-0.9c0,0,12.2,6.5,17.2,9.4   c5.1,2.9,4.9,8.5,2.4,12.2c-2.5,3.7-4.1,6.2-4.1,6.2h0.9h2.5h0.9c0,0,1.8-2.6,4.5-6.4c0.8-1.2,1.4-2.5,1.7-3.9   c0,0,0.1-0.5,0.1-1.5C40,15,39.9,14.3,39.9,14.3z"></path>	</g>	<g>		<path class="st4-voemtxlogo" d="M50.5,15.2l-1.1-8.4l0-0.1h-3l1.9,13c0.1,0.6,0.5,1,1.2,1c0.6,0,1.2-0.3,1.5-1l6.7-13h-3L50.5,15.2z"></path>		<path class="st4-voemtxlogo" d="M63.3,6.6c-1.9,0-3.4,0.5-4.5,1.6c-1.1,1-1.8,2.7-2.2,4.8l-0.2,1c-0.4,2.3-0.3,4.1,0.4,5.1   c0.7,1.1,2,1.6,3.9,1.6c1.9,0,3.4-0.5,4.5-1.6c1.1-1,1.8-2.7,2.2-5l0.2-1c0.4-2.1,0.2-3.7-0.5-4.8C66.5,7.1,65.2,6.6,63.3,6.6z    M64.8,13.3L64.6,14c-0.2,0.9-0.4,1.7-0.7,2.4c-0.2,0.4-0.4,0.7-0.6,0.9c-0.2,0.2-0.5,0.4-0.9,0.6c-0.4,0.2-0.8,0.2-1.2,0.2   c-0.5,0-0.9-0.1-1.2-0.2c-0.3-0.2-0.5-0.4-0.6-0.6c-0.3-0.5-0.4-1.6-0.1-3.2l0.1-0.7c0.2-1.2,0.5-2.2,0.9-2.9   c0.5-0.8,1.3-1.2,2.4-1.2c1.1,0,1.8,0.4,2,1.2C65,11.1,65,12.1,64.8,13.3z"></path>		<path class="st4-voemtxlogo" d="M68.7,16.8c-0.2,1.4-0.1,2.3,0.4,2.9c0.5,0.5,1.6,0.8,3.1,0.8h4.9l0.5-2.6H73c-0.6,0-1-0.1-1.2-0.3   c-0.2-0.2-0.2-0.5-0.1-1l0.3-1.8h4.4l0.5-2.6h-4.4L73,9.3h6.3l0.5-2.6h-9.2L68.7,16.8z"></path>		<path class="st4-voemtxlogo" d="M90.7,14.4l-2.4-7.7h-2.8L83,20.5H86l1.4-7.7l1.4,4.6c0.2,0.8,0.7,1.2,1.2,1.2c0.6,0,1.1-0.4,1.6-1.1l3-4.6   l-1.4,7.7h2.9l2.5-13.8h-2.8L90.7,14.4z"></path>		<polygon class="st4-voemtxlogo" points="109.9,6.7 99.7,6.7 99.3,9.3 102.9,9.3 100.8,20.5 103.8,20.5 105.8,9.3 109.4,9.3   "></polygon>		<polygon class="st4-voemtxlogo" points="116.5,13.4 122.1,6.7 118.6,6.7 115.3,11 113.6,6.7 110,6.7 113.2,13.4 107.2,20.5 110.8,20.5    114.4,15.9 116.3,20.5 119.9,20.5   "></polygon>	</g></g></svg>